<svg xmlns="http://www.w3.org/2000/svg" xmlns:xlink="http://www.w3.org/1999/xlink" width="500" zoomAndPan="magnify" viewBox="0 0 375 374.999991" height="500" preserveAspectRatio="xMidYMid meet" version="1.0"><defs><g/><clipPath id="b33f4cf238"><path d="M 128.296875 89.523438 L 246.746094 89.523438 L 246.746094 211.773438 L 128.296875 211.773438 Z M 128.296875 89.523438 " clip-rule="nonzero"/></clipPath><clipPath id="09653b0318"><rect x="0" width="276" y="0" height="41"/></clipPath></defs><g clip-path="url(#b33f4cf238)"><path fill="#bd9e20" d="M 228.527344 158.558594 L 220.359375 158.558594 C 220.800781 158.558594 221.164062 158.921875 221.164062 159.363281 L 221.164062 194.691406 C 219.582031 195.375 217.957031 195.984375 216.296875 196.511719 L 216.296875 149.421875 C 216.296875 148.257812 217.25 147.304688 218.414062 147.304688 L 175.554688 147.304688 C 176.71875 147.304688 177.671875 148.257812 177.671875 149.421875 L 177.671875 194.15625 C 176 193.386719 174.378906 192.53125 172.804688 191.601562 L 172.804688 159.363281 C 172.804688 158.921875 173.167969 158.558594 173.609375 158.558594 L 157.273438 158.558594 C 157.71875 158.558594 158.082031 158.921875 158.082031 159.363281 L 158.082031 178.75 C 150.835938 169.617188 146.503906 158.058594 146.503906 145.492188 C 146.503906 115.921875 170.464844 91.949219 200.019531 91.949219 C 202.964844 91.949219 205.851562 92.191406 208.667969 92.648438 C 202.59375 90.621094 196.09375 89.523438 189.339844 89.523438 C 155.601562 89.523438 128.25 116.890625 128.25 150.648438 C 128.25 184.40625 155.601562 211.773438 189.339844 211.773438 C 215.71875 211.773438 238.195312 195.042969 246.742188 171.609375 C 243.882812 176.722656 240.207031 181.320312 235.890625 185.222656 L 235.890625 159.363281 C 235.890625 158.921875 236.253906 158.558594 236.695312 158.558594 Z M 223.960938 193.386719 L 223.960938 162.277344 C 223.960938 161.519531 224.582031 160.898438 225.339844 160.898438 C 226.097656 160.898438 226.714844 161.519531 226.714844 162.277344 L 226.714844 191.90625 C 225.8125 192.425781 224.894531 192.917969 223.960938 193.386719 Z M 230.339844 189.617188 L 230.339844 162.277344 C 230.339844 161.519531 230.957031 160.898438 231.714844 160.898438 C 232.472656 160.898438 233.09375 161.519531 233.09375 162.277344 L 233.09375 187.585938 C 232.195312 188.289062 231.277344 188.96875 230.339844 189.617188 Z M 160.878906 182 C 161.761719 182.949219 162.679688 183.867188 163.632812 184.75 L 163.632812 162.277344 C 163.632812 161.519531 163.011719 160.898438 162.253906 160.898438 C 161.496094 160.898438 160.878906 161.519531 160.878906 162.277344 Z M 167.253906 187.828125 C 168.152344 188.523438 169.066406 189.191406 170.007812 189.828125 L 170.007812 162.277344 C 170.007812 161.519531 169.386719 160.898438 168.632812 160.898438 C 167.875 160.898438 167.253906 161.519531 167.253906 162.277344 Z M 183.175781 196.328125 C 184.933594 196.910156 186.726562 197.402344 188.558594 197.800781 L 188.558594 154.046875 C 188.558594 152.566406 187.347656 151.355469 185.867188 151.355469 C 184.386719 151.355469 183.175781 152.566406 183.175781 154.046875 Z M 194.296875 198.730469 C 196.0625 198.921875 197.859375 199.019531 199.675781 199.03125 L 199.675781 154.046875 C 199.675781 152.566406 198.464844 151.355469 196.984375 151.355469 C 195.503906 151.355469 194.296875 152.566406 194.296875 154.046875 Z M 205.414062 198.765625 C 207.234375 198.585938 209.03125 198.308594 210.792969 197.949219 L 210.792969 154.046875 C 210.792969 152.566406 209.582031 151.355469 208.101562 151.355469 C 206.625 151.355469 205.414062 152.566406 205.414062 154.046875 Z M 196.984375 112.335938 C 196.984375 112.335938 196.894531 119.332031 203.054688 123.378906 C 209.21875 127.429688 223.382812 130.28125 216.851562 144.453125 L 177.117188 144.453125 C 170.589844 130.28125 184.753906 127.429688 190.914062 123.378906 C 196.808594 119.507812 196.980469 112.941406 196.984375 112.375 Z M 165.441406 145.226562 C 165.441406 145.226562 165.476562 147.894531 163.128906 149.4375 C 160.78125 150.980469 155.382812 152.070312 157.871094 157.46875 L 173.015625 157.46875 C 175.503906 152.070312 170.105469 150.980469 167.757812 149.4375 C 165.511719 147.960938 165.445312 145.457031 165.441406 145.242188 Z M 228.527344 145.226562 C 228.527344 145.226562 228.492188 147.894531 230.839844 149.4375 C 233.191406 150.980469 238.589844 152.070312 236.097656 157.46875 L 220.953125 157.46875 C 218.464844 152.070312 223.863281 150.980469 226.214844 149.4375 C 228.460938 147.960938 228.527344 145.457031 228.527344 145.242188 Z M 228.527344 145.226562 " fill-opacity="1" fill-rule="evenodd"/></g><g transform="matrix(1, 0, 0, 1, 50, 214)"><g clip-path="url(#09653b0318)"><g fill="#1c1d33" fill-opacity="1"><g transform="translate(0.908589, 30.939317)"><g><path d="M 16.0625 0.796875 C 12.425781 0.796875 9.519531 0.429688 7.34375 -0.296875 C 5.175781 -1.035156 3.613281 -2.046875 2.65625 -3.328125 C 1.695312 -4.617188 1.21875 -6.085938 1.21875 -7.734375 C 1.21875 -8.921875 1.367188 -10.140625 1.671875 -11.390625 C 1.972656 -12.640625 2.257812 -13.742188 2.53125 -14.703125 L 7.28125 -13.609375 C 7.101562 -12.898438 6.929688 -12.144531 6.765625 -11.34375 C 6.597656 -10.550781 6.515625 -9.851562 6.515625 -9.25 C 6.515625 -8.289062 6.847656 -7.457031 7.515625 -6.75 C 8.191406 -6.039062 9.296875 -5.488281 10.828125 -5.09375 C 12.367188 -4.707031 14.441406 -4.515625 17.046875 -4.515625 L 17.046875 -4.390625 L 17.09375 -4.515625 C 18.90625 -4.515625 20.648438 -4.601562 22.328125 -4.78125 C 24.015625 -4.957031 25.617188 -5.304688 27.140625 -5.828125 C 28.671875 -6.359375 30.097656 -7.140625 31.421875 -8.171875 C 32.753906 -9.210938 33.976562 -10.609375 35.09375 -12.359375 L 39.328125 -10.421875 C 39.179688 -9.941406 39.054688 -9.472656 38.953125 -9.015625 C 38.847656 -8.566406 38.796875 -8.210938 38.796875 -7.953125 C 38.796875 -7.066406 39.132812 -6.367188 39.8125 -5.859375 C 40.5 -5.359375 41.78125 -5.109375 43.65625 -5.109375 C 44.613281 -5.109375 45.289062 -4.863281 45.6875 -4.375 C 46.09375 -3.882812 46.296875 -3.269531 46.296875 -2.53125 C 46.296875 -1.75 46.035156 -1.097656 45.515625 -0.578125 C 45.003906 -0.0664062 44.253906 0.1875 43.265625 0.1875 C 40.992188 0.1875 39.128906 -0.207031 37.671875 -1 C 36.222656 -1.800781 35.257812 -2.859375 34.78125 -4.171875 C 32.832031 -2.453125 30.234375 -1.191406 26.984375 -0.390625 C 23.742188 0.398438 20.117188 0.796875 16.109375 0.796875 L 16.109375 0.765625 Z M 16.5625 -16.5625 C 15.820312 -16.5625 15.191406 -16.816406 14.671875 -17.328125 C 14.160156 -17.847656 13.90625 -18.460938 13.90625 -19.171875 C 13.90625 -19.898438 14.160156 -20.53125 14.671875 -21.0625 C 15.191406 -21.59375 15.820312 -21.859375 16.5625 -21.859375 C 17.269531 -21.859375 17.875 -21.59375 18.375 -21.0625 C 18.882812 -20.53125 19.140625 -19.898438 19.140625 -19.171875 C 19.140625 -18.460938 18.882812 -17.847656 18.375 -17.328125 C 17.875 -16.816406 17.269531 -16.5625 16.5625 -16.5625 Z M 23.109375 -16.515625 C 22.378906 -16.515625 21.753906 -16.765625 21.234375 -17.265625 C 20.710938 -17.773438 20.453125 -18.398438 20.453125 -19.140625 C 20.453125 -19.867188 20.710938 -20.5 21.234375 -21.03125 C 21.753906 -21.5625 22.378906 -21.828125 23.109375 -21.828125 C 23.816406 -21.828125 24.421875 -21.5625 24.921875 -21.03125 C 25.429688 -20.5 25.6875 -19.867188 25.6875 -19.140625 C 25.6875 -18.398438 25.429688 -17.773438 24.921875 -17.265625 C 24.421875 -16.765625 23.816406 -16.515625 23.109375 -16.515625 Z M 23.109375 -16.515625 "/></g></g></g><g fill="#1c1d33" fill-opacity="1"><g transform="translate(44.173114, 30.939317)"><g><path d="M 0 0.1875 L 0.375 -5.109375 C 1.289062 -5.109375 2.078125 -5.195312 2.734375 -5.375 C 3.390625 -5.550781 3.941406 -5.910156 4.390625 -6.453125 C 4.847656 -7.003906 5.234375 -7.804688 5.546875 -8.859375 C 5.867188 -9.921875 6.15625 -11.335938 6.40625 -13.109375 L 11.375 -12.28125 C 11.269531 -11.695312 11.15625 -11 11.03125 -10.1875 C 10.90625 -9.382812 10.84375 -8.640625 10.84375 -7.953125 C 10.84375 -7.046875 11.21875 -6.34375 11.96875 -5.84375 C 12.726562 -5.351562 14.03125 -5.109375 15.875 -5.109375 C 16.8125 -5.109375 17.488281 -4.863281 17.90625 -4.375 C 18.320312 -3.882812 18.53125 -3.269531 18.53125 -2.53125 C 18.53125 -1.75 18.269531 -1.097656 17.75 -0.578125 C 17.226562 -0.0664062 16.476562 0.1875 15.5 0.1875 C 13.726562 0.1875 12.21875 -0.0351562 10.96875 -0.484375 C 9.71875 -0.941406 8.800781 -1.753906 8.21875 -2.921875 C 7.539062 -2.003906 6.738281 -1.328125 5.8125 -0.890625 C 4.894531 -0.453125 3.9375 -0.160156 2.9375 -0.015625 C 1.9375 0.117188 0.957031 0.1875 0 0.1875 Z M 10.5625 8.984375 C 9.832031 8.984375 9.207031 8.726562 8.6875 8.21875 C 8.164062 7.71875 7.90625 7.097656 7.90625 6.359375 C 7.90625 5.628906 8.164062 5 8.6875 4.46875 C 9.207031 3.9375 9.832031 3.671875 10.5625 3.671875 C 11.269531 3.671875 11.875 3.9375 12.375 4.46875 C 12.882812 5 13.140625 5.628906 13.140625 6.359375 C 13.140625 7.097656 12.882812 7.71875 12.375 8.21875 C 11.875 8.726562 11.269531 8.984375 10.5625 8.984375 Z M 4.015625 8.984375 C 3.273438 8.984375 2.644531 8.726562 2.125 8.21875 C 1.613281 7.71875 1.359375 7.097656 1.359375 6.359375 C 1.359375 5.628906 1.613281 5 2.125 4.46875 C 2.644531 3.9375 3.273438 3.671875 4.015625 3.671875 C 4.722656 3.671875 5.328125 3.9375 5.828125 4.46875 C 6.335938 5 6.59375 5.628906 6.59375 6.359375 C 6.59375 7.097656 6.335938 7.71875 5.828125 8.21875 C 5.328125 8.726562 4.722656 8.984375 4.015625 8.984375 Z M 4.015625 8.984375 "/></g></g></g><g fill="#1c1d33" fill-opacity="1"><g transform="translate(59.668032, 30.939317)"><g><path d="M 0 0.1875 L 0.375 -5.109375 C 2.019531 -5.109375 3.171875 -5.289062 3.828125 -5.65625 C 4.484375 -6.03125 4.8125 -6.8125 4.8125 -8 C 4.8125 -8.707031 4.71875 -9.550781 4.53125 -10.53125 C 4.34375 -11.519531 4.09375 -12.535156 3.78125 -13.578125 C 3.476562 -14.628906 3.175781 -15.609375 2.875 -16.515625 L 8.109375 -17.953125 C 8.410156 -17.097656 8.710938 -16.101562 9.015625 -14.96875 C 9.316406 -13.832031 9.570312 -12.65625 9.78125 -11.4375 C 10 -10.226562 10.109375 -9.082031 10.109375 -8 C 10.109375 -6.28125 9.84375 -4.882812 9.3125 -3.8125 C 8.789062 -2.738281 8.054688 -1.910156 7.109375 -1.328125 C 6.160156 -0.742188 5.078125 -0.34375 3.859375 -0.125 C 2.648438 0.0820312 1.363281 0.1875 0 0.1875 Z M 5.46875 -21.109375 C 4.675781 -21.109375 4.007812 -21.375 3.46875 -21.90625 C 2.925781 -22.4375 2.65625 -23.09375 2.65625 -23.875 C 2.65625 -24.65625 2.925781 -25.320312 3.46875 -25.875 C 4.007812 -26.4375 4.675781 -26.71875 5.46875 -26.71875 C 6.21875 -26.71875 6.863281 -26.4375 7.40625 -25.875 C 7.957031 -25.320312 8.234375 -24.65625 8.234375 -23.875 C 8.234375 -23.09375 7.957031 -22.4375 7.40625 -21.90625 C 6.863281 -21.375 6.21875 -21.109375 5.46875 -21.109375 Z M 5.46875 -21.109375 "/></g></g></g><g fill="#1c1d33" fill-opacity="1"><g transform="translate(71.677539, 30.939317)"><g><path d="M 12.015625 0.1875 C 9.660156 0.1875 7.84375 -0.0507812 6.5625 -0.53125 C 5.289062 -1.007812 4.394531 -1.757812 3.875 -2.78125 C 3.363281 -3.800781 3.082031 -5.097656 3.03125 -6.671875 L 2.234375 -27.734375 L 7.546875 -27.734375 L 8.34375 -9.203125 C 8.382812 -8.046875 8.503906 -7.175781 8.703125 -6.59375 C 8.910156 -6.007812 9.289062 -5.613281 9.84375 -5.40625 C 10.40625 -5.207031 11.253906 -5.109375 12.390625 -5.109375 C 13.328125 -5.109375 14.007812 -4.863281 14.4375 -4.375 C 14.863281 -3.882812 15.078125 -3.269531 15.078125 -2.53125 C 15.078125 -1.75 14.8125 -1.097656 14.28125 -0.578125 C 13.75 -0.0664062 12.992188 0.1875 12.015625 0.1875 Z M 12.015625 0.1875 "/></g></g></g><g fill="#1c1d33" fill-opacity="1"><g transform="translate(83.724933, 30.939317)"><g><path d="M 0 0.1875 L 0.375 -5.109375 C 3.101562 -5.109375 5.753906 -5.410156 8.328125 -6.015625 C 10.910156 -6.628906 13.195312 -7.601562 15.1875 -8.9375 C 14.03125 -9.625 12.75 -10.15625 11.34375 -10.53125 C 9.945312 -10.914062 8.414062 -11.109375 6.75 -11.109375 C 6.113281 -11.109375 5.460938 -11.070312 4.796875 -11 C 4.128906 -10.9375 3.453125 -10.832031 2.765625 -10.6875 L 2.015625 -15.875 C 2.742188 -16.050781 3.507812 -16.1875 4.3125 -16.28125 C 5.125 -16.382812 5.859375 -16.4375 6.515625 -16.4375 C 8.234375 -16.4375 9.773438 -16.207031 11.140625 -15.75 C 12.503906 -15.300781 13.75 -14.773438 14.875 -14.171875 C 16 -13.566406 17.046875 -13.035156 18.015625 -12.578125 C 18.984375 -12.117188 19.9375 -11.890625 20.875 -11.890625 L 22.28125 -11.890625 L 22.890625 -6.859375 C 21.773438 -6.785156 20.75 -6.570312 19.8125 -6.21875 C 18.882812 -5.863281 17.957031 -5.410156 17.03125 -4.859375 C 16.113281 -4.316406 15.128906 -3.753906 14.078125 -3.171875 C 13.023438 -2.597656 11.84375 -2.054688 10.53125 -1.546875 C 9.21875 -1.046875 7.703125 -0.628906 5.984375 -0.296875 C 4.265625 0.0234375 2.269531 0.1875 0 0.1875 Z M 0 0.1875 "/></g></g></g><g fill="#1c1d33" fill-opacity="1"><g transform="translate(107.554515, 30.939317)"><g><path d="M 2.15625 8.71875 L 1.0625 3.40625 C 3.488281 3.101562 5.515625 2.707031 7.140625 2.21875 C 8.773438 1.726562 9.984375 0.898438 10.765625 -0.265625 C 10.410156 -0.140625 10.023438 -0.0390625 9.609375 0.03125 C 9.191406 0.113281 8.742188 0.15625 8.265625 0.15625 C 7.046875 0.15625 5.953125 -0.0351562 4.984375 -0.421875 C 4.015625 -0.816406 3.238281 -1.429688 2.65625 -2.265625 C 2.070312 -3.109375 1.78125 -4.195312 1.78125 -5.53125 C 1.78125 -6.769531 1.984375 -7.96875 2.390625 -9.125 C 2.796875 -10.289062 3.359375 -11.332031 4.078125 -12.25 C 4.796875 -13.175781 5.628906 -13.910156 6.578125 -14.453125 C 7.523438 -14.992188 8.53125 -15.265625 9.59375 -15.265625 C 10.820312 -15.265625 11.914062 -14.945312 12.875 -14.3125 C 13.84375 -13.6875 14.640625 -12.863281 15.265625 -11.84375 C 15.898438 -10.820312 16.378906 -9.71875 16.703125 -8.53125 C 17.035156 -7.34375 17.203125 -6.203125 17.203125 -5.109375 C 17.203125 -2.253906 16.59375 0.164062 15.375 2.15625 C 14.164062 4.15625 12.4375 5.703125 10.1875 6.796875 C 7.945312 7.898438 5.269531 8.539062 2.15625 8.71875 Z M 7.015625 -6.59375 C 7.015625 -5.53125 7.804688 -5 9.390625 -5 C 10.222656 -5 11.046875 -5.113281 11.859375 -5.34375 C 11.804688 -6.019531 11.6875 -6.691406 11.5 -7.359375 C 11.3125 -8.035156 11.039062 -8.585938 10.6875 -9.015625 C 10.332031 -9.441406 9.890625 -9.65625 9.359375 -9.65625 C 8.648438 -9.65625 8.082031 -9.320312 7.65625 -8.65625 C 7.226562 -7.988281 7.015625 -7.300781 7.015625 -6.59375 Z M 7.015625 -6.59375 "/></g></g></g><g fill="#1c1d33" fill-opacity="1"><g transform="translate(126.421181, 30.939317)"><g><path d="M 0.609375 8.71875 L -1.328125 3.859375 C 1.910156 2.722656 4.257812 1.414062 5.71875 -0.0625 C 7.1875 -1.539062 7.921875 -3.113281 7.921875 -4.78125 C 7.921875 -5.832031 7.691406 -6.960938 7.234375 -8.171875 C 6.785156 -9.390625 6.191406 -10.707031 5.453125 -12.125 L 10.421875 -14.515625 C 11.304688 -12.816406 11.992188 -11.195312 12.484375 -9.65625 C 12.972656 -8.113281 13.21875 -6.675781 13.21875 -5.34375 C 13.21875 -2.238281 12.207031 0.5 10.1875 2.875 C 8.164062 5.25 4.972656 7.195312 0.609375 8.71875 Z M 0.609375 8.71875 "/></g></g></g><g fill="#1c1d33" fill-opacity="1"><g transform="translate(141.916101, 30.939317)"><g/></g></g><g fill="#1c1d33" fill-opacity="1"><g transform="translate(149.493082, 30.939317)"><g><path d="M 2.15625 8.71875 L 1.0625 3.40625 C 3.488281 3.101562 5.515625 2.707031 7.140625 2.21875 C 8.773438 1.726562 9.984375 0.898438 10.765625 -0.265625 C 10.410156 -0.140625 10.023438 -0.0390625 9.609375 0.03125 C 9.191406 0.113281 8.742188 0.15625 8.265625 0.15625 C 7.046875 0.15625 5.953125 -0.0351562 4.984375 -0.421875 C 4.015625 -0.816406 3.238281 -1.429688 2.65625 -2.265625 C 2.070312 -3.109375 1.78125 -4.195312 1.78125 -5.53125 C 1.78125 -6.769531 1.984375 -7.96875 2.390625 -9.125 C 2.796875 -10.289062 3.359375 -11.332031 4.078125 -12.25 C 4.796875 -13.175781 5.628906 -13.910156 6.578125 -14.453125 C 7.523438 -14.992188 8.53125 -15.265625 9.59375 -15.265625 C 10.820312 -15.265625 11.914062 -14.945312 12.875 -14.3125 C 13.84375 -13.6875 14.640625 -12.863281 15.265625 -11.84375 C 15.898438 -10.820312 16.378906 -9.71875 16.703125 -8.53125 C 17.035156 -7.34375 17.203125 -6.203125 17.203125 -5.109375 C 17.203125 -2.253906 16.59375 0.164062 15.375 2.15625 C 14.164062 4.15625 12.4375 5.703125 10.1875 6.796875 C 7.945312 7.898438 5.269531 8.539062 2.15625 8.71875 Z M 7.015625 -6.59375 C 7.015625 -5.53125 7.804688 -5 9.390625 -5 C 10.222656 -5 11.046875 -5.113281 11.859375 -5.34375 C 11.804688 -6.019531 11.6875 -6.691406 11.5 -7.359375 C 11.3125 -8.035156 11.039062 -8.585938 10.6875 -9.015625 C 10.332031 -9.441406 9.890625 -9.65625 9.359375 -9.65625 C 8.648438 -9.65625 8.082031 -9.320312 7.65625 -8.65625 C 7.226562 -7.988281 7.015625 -7.300781 7.015625 -6.59375 Z M 7.015625 -6.59375 "/></g></g></g><g fill="#1c1d33" fill-opacity="1"><g transform="translate(168.359747, 30.939317)"><g><path d="M 3.03125 0 L 2.234375 -27.734375 L 7.546875 -27.734375 L 8.34375 0 Z M 3.03125 0 "/></g></g></g><g fill="#1c1d33" fill-opacity="1"><g transform="translate(178.702317, 30.939317)"><g/></g></g><g fill="#1c1d33" fill-opacity="1"><g transform="translate(186.279298, 30.939317)"><g><path d="M 21.0625 0.1875 C 19.164062 0.1875 17.546875 -0.0625 16.203125 -0.5625 C 14.867188 -1.070312 13.863281 -1.929688 13.1875 -3.140625 C 11.59375 -2.835938 10.0625 -2.742188 8.59375 -2.859375 C 7.132812 -2.972656 5.835938 -3.285156 4.703125 -3.796875 C 3.566406 -4.316406 2.664062 -5.0625 2 -6.03125 C 1.34375 -7.007812 1.015625 -8.21875 1.015625 -9.65625 C 1.015625 -11.351562 1.476562 -12.835938 2.40625 -14.109375 C 3.332031 -15.390625 4.59375 -16.472656 6.1875 -17.359375 C 7.789062 -18.242188 9.601562 -18.925781 11.625 -19.40625 L 11.515625 -22.28125 L 16.859375 -22.28125 L 17.5 -8.859375 C 17.582031 -7.296875 17.929688 -6.28125 18.546875 -5.8125 C 19.160156 -5.34375 20.128906 -5.109375 21.453125 -5.109375 C 22.410156 -5.109375 23.085938 -4.863281 23.484375 -4.375 C 23.890625 -3.882812 24.09375 -3.269531 24.09375 -2.53125 C 24.09375 -1.75 23.832031 -1.097656 23.3125 -0.578125 C 22.800781 -0.0664062 22.050781 0.1875 21.0625 0.1875 Z M 6.328125 -10.15625 C 6.328125 -9.570312 6.609375 -9.113281 7.171875 -8.78125 C 7.742188 -8.457031 8.472656 -8.25 9.359375 -8.15625 C 10.242188 -8.070312 11.164062 -8.117188 12.125 -8.296875 L 11.890625 -14.140625 C 10.179688 -13.859375 8.828125 -13.347656 7.828125 -12.609375 C 6.828125 -11.878906 6.328125 -11.0625 6.328125 -10.15625 Z M 6.328125 -10.15625 "/></g></g></g><g fill="#1c1d33" fill-opacity="1"><g transform="translate(207.343277, 30.939317)"><g><path d="M 0 0.1875 L 0.375 -5.109375 C 1.539062 -5.109375 2.375 -5.226562 2.875 -5.46875 C 3.382812 -5.707031 3.6875 -6.160156 3.78125 -6.828125 C 3.882812 -7.503906 3.910156 -8.488281 3.859375 -9.78125 L 3.1875 -27.734375 L 8.53125 -27.734375 L 9.28125 -9.390625 C 9.332031 -7.929688 9.273438 -6.613281 9.109375 -5.4375 C 8.941406 -4.257812 8.550781 -3.253906 7.9375 -2.421875 C 7.320312 -1.585938 6.375 -0.941406 5.09375 -0.484375 C 3.820312 -0.0351562 2.125 0.1875 0 0.1875 Z M 0 0.1875 "/></g></g></g><g fill="#1c1d33" fill-opacity="1"><g transform="translate(218.595098, 30.939317)"><g><path d="M 2.15625 8.71875 L 1.0625 3.40625 C 3.332031 3.132812 5.242188 2.773438 6.796875 2.328125 C 8.347656 1.890625 9.554688 1.175781 10.421875 0.1875 L 9.390625 0.1875 C 7.015625 0.1875 5.148438 -0.242188 3.796875 -1.109375 C 2.453125 -1.984375 1.78125 -3.484375 1.78125 -5.609375 C 1.78125 -6.742188 1.972656 -7.878906 2.359375 -9.015625 C 2.753906 -10.148438 3.304688 -11.191406 4.015625 -12.140625 C 4.722656 -13.085938 5.550781 -13.84375 6.5 -14.40625 C 7.445312 -14.976562 8.476562 -15.265625 9.59375 -15.265625 C 11.082031 -15.265625 12.398438 -14.796875 13.546875 -13.859375 C 14.691406 -12.929688 15.585938 -11.695312 16.234375 -10.15625 C 16.878906 -8.613281 17.203125 -6.929688 17.203125 -5.109375 L 20.203125 -5.109375 C 21.128906 -5.109375 21.804688 -4.863281 22.234375 -4.375 C 22.671875 -3.882812 22.890625 -3.269531 22.890625 -2.53125 C 22.890625 -1.75 22.625 -1.097656 22.09375 -0.578125 C 21.5625 -0.0664062 20.800781 0.1875 19.8125 0.1875 L 16.328125 0.1875 C 15.347656 2.8125 13.640625 4.835938 11.203125 6.265625 C 8.765625 7.691406 5.75 8.507812 2.15625 8.71875 Z M 7.015625 -6.515625 C 7.015625 -6.234375 7.109375 -5.945312 7.296875 -5.65625 C 7.484375 -5.375 7.914062 -5.148438 8.59375 -4.984375 C 9.28125 -4.816406 10.367188 -4.796875 11.859375 -4.921875 C 11.835938 -6.390625 11.597656 -7.546875 11.140625 -8.390625 C 10.679688 -9.234375 10.085938 -9.65625 9.359375 -9.65625 C 8.828125 -9.65625 8.382812 -9.472656 8.03125 -9.109375 C 7.675781 -8.742188 7.414062 -8.3125 7.25 -7.8125 C 7.09375 -7.320312 7.015625 -6.890625 7.015625 -6.515625 Z M 7.015625 -6.515625 "/></g></g></g><g fill="#1c1d33" fill-opacity="1"><g transform="translate(238.446767, 30.939317)"><g><path d="M 0 0.1875 L 0.375 -5.109375 C 1.207031 -5.109375 1.890625 -5.175781 2.421875 -5.3125 C 2.953125 -5.457031 3.390625 -5.773438 3.734375 -6.265625 C 4.078125 -6.765625 4.378906 -7.507812 4.640625 -8.5 C 4.910156 -9.5 5.207031 -10.859375 5.53125 -12.578125 L 10.453125 -11.671875 C 10.359375 -11.117188 10.226562 -10.425781 10.0625 -9.59375 C 9.894531 -8.757812 9.8125 -8.035156 9.8125 -7.421875 C 9.8125 -6.710938 10.035156 -6.148438 10.484375 -5.734375 C 10.941406 -5.316406 11.804688 -5.109375 13.078125 -5.109375 C 13.703125 -5.109375 14.25 -5.175781 14.71875 -5.3125 C 15.1875 -5.457031 15.585938 -5.773438 15.921875 -6.265625 C 16.265625 -6.765625 16.566406 -7.535156 16.828125 -8.578125 C 17.097656 -9.628906 17.363281 -11.050781 17.625 -12.84375 L 22.625 -12.046875 C 22.46875 -11.160156 22.3125 -10.222656 22.15625 -9.234375 C 22.007812 -8.253906 21.9375 -7.515625 21.9375 -7.015625 C 21.9375 -6.535156 22.171875 -6.097656 22.640625 -5.703125 C 23.109375 -5.304688 24.0625 -5.109375 25.5 -5.109375 C 26.507812 -5.109375 27.3125 -5.3125 27.90625 -5.71875 C 28.5 -6.125 28.796875 -6.832031 28.796875 -7.84375 C 28.796875 -8.78125 28.582031 -10.003906 28.15625 -11.515625 C 27.726562 -13.035156 27.222656 -14.628906 26.640625 -16.296875 L 31.984375 -17.890625 C 32.390625 -16.796875 32.75 -15.632812 33.0625 -14.40625 C 33.375 -13.1875 33.625 -11.992188 33.8125 -10.828125 C 34.007812 -9.671875 34.109375 -8.675781 34.109375 -7.84375 C 34.109375 -5.238281 33.34375 -3.25 31.8125 -1.875 C 30.28125 -0.5 28.289062 0.1875 25.84375 0.1875 C 24.070312 0.1875 22.691406 -0.0195312 21.703125 -0.4375 C 20.722656 -0.851562 20.019531 -1.601562 19.59375 -2.6875 C 19.082031 -1.800781 18.53125 -1.15625 17.9375 -0.75 C 17.34375 -0.351562 16.640625 -0.0976562 15.828125 0.015625 C 15.023438 0.128906 14.066406 0.1875 12.953125 0.1875 C 12.273438 0.1875 11.59375 0.128906 10.90625 0.015625 C 10.226562 -0.0976562 9.578125 -0.335938 8.953125 -0.703125 C 8.335938 -1.066406 7.800781 -1.65625 7.34375 -2.46875 C 6.488281 -1.300781 5.441406 -0.566406 4.203125 -0.265625 C 2.960938 0.0351562 1.5625 0.1875 0 0.1875 Z M 0 0.1875 "/></g></g></g></g></g><g fill="#bd9e20" fill-opacity="1"><g transform="translate(93.629215, 281.668078)"><g><path d="M 0.4375 0.015625 C 0.4375 -0.335938 0.484375 -0.722656 0.578125 -1.140625 C 0.671875 -1.566406 0.828125 -2.039062 1.046875 -2.5625 L 2.09375 -2.140625 C 1.9375 -1.734375 1.816406 -1.359375 1.734375 -1.015625 C 1.660156 -0.679688 1.625 -0.375 1.625 -0.09375 C 1.625 0.445312 1.78125 0.882812 2.09375 1.21875 C 2.40625 1.5625 2.820312 1.804688 3.34375 1.953125 C 3.863281 2.109375 4.429688 2.1875 5.046875 2.1875 C 5.796875 2.1875 6.476562 2.101562 7.09375 1.9375 C 7.707031 1.769531 8.195312 1.539062 8.5625 1.25 C 8.925781 0.957031 9.109375 0.640625 9.109375 0.296875 C 9.109375 0.0351562 8.914062 -0.179688 8.53125 -0.359375 C 8.144531 -0.546875 7.601562 -0.734375 6.90625 -0.921875 L 7.1875 -2.140625 C 8.1875 -1.734375 8.96875 -1.460938 9.53125 -1.328125 C 10.09375 -1.191406 10.523438 -1.125 10.828125 -1.125 C 11.035156 -1.125 11.179688 -1.066406 11.265625 -0.953125 C 11.359375 -0.835938 11.40625 -0.703125 11.40625 -0.546875 C 11.40625 -0.390625 11.335938 -0.242188 11.203125 -0.109375 C 11.066406 0.015625 10.894531 0.078125 10.6875 0.078125 L 10.140625 0.078125 C 10.148438 0.160156 10.160156 0.226562 10.171875 0.28125 C 10.191406 0.332031 10.203125 0.40625 10.203125 0.5 C 10.203125 0.96875 9.984375 1.421875 9.546875 1.859375 C 9.109375 2.304688 8.476562 2.671875 7.65625 2.953125 C 6.84375 3.234375 5.867188 3.375 4.734375 3.375 C 3.960938 3.375 3.25 3.25 2.59375 3 C 1.945312 2.757812 1.425781 2.390625 1.03125 1.890625 C 0.632812 1.390625 0.4375 0.765625 0.4375 0.015625 Z M 4.734375 6.078125 C 4.523438 6.078125 4.347656 6.003906 4.203125 5.859375 C 4.066406 5.722656 4 5.554688 4 5.359375 C 4 5.171875 4.066406 5.003906 4.203125 4.859375 C 4.347656 4.710938 4.523438 4.640625 4.734375 4.640625 C 4.921875 4.640625 5.082031 4.710938 5.21875 4.859375 C 5.363281 5.003906 5.4375 5.171875 5.4375 5.359375 C 5.4375 5.554688 5.363281 5.722656 5.21875 5.859375 C 5.082031 6.003906 4.921875 6.078125 4.734375 6.078125 Z M 4.75 7.953125 C 4.539062 7.953125 4.363281 7.878906 4.21875 7.734375 C 4.082031 7.597656 4.015625 7.429688 4.015625 7.234375 C 4.015625 7.046875 4.082031 6.878906 4.21875 6.734375 C 4.363281 6.585938 4.539062 6.515625 4.75 6.515625 C 4.9375 6.515625 5.097656 6.585938 5.234375 6.734375 C 5.378906 6.878906 5.453125 7.046875 5.453125 7.234375 C 5.453125 7.429688 5.378906 7.597656 5.234375 7.734375 C 5.097656 7.878906 4.9375 7.953125 4.75 7.953125 Z M 4.75 7.953125 "/></g></g></g><g fill="#bd9e20" fill-opacity="1"><g transform="translate(104.315581, 281.668078)"><g><path d="M 0 0.078125 L 0.140625 -1.125 C 0.546875 -1.125 0.863281 -1.15625 1.09375 -1.21875 C 1.332031 -1.289062 1.507812 -1.429688 1.625 -1.640625 C 1.75 -1.847656 1.851562 -2.148438 1.9375 -2.546875 C 2.03125 -2.953125 2.140625 -3.472656 2.265625 -4.109375 L 3.390625 -3.890625 C 3.335938 -3.628906 3.273438 -3.328125 3.203125 -2.984375 C 3.128906 -2.648438 3.09375 -2.367188 3.09375 -2.140625 C 3.09375 -1.941406 3.132812 -1.765625 3.21875 -1.609375 C 3.3125 -1.453125 3.5 -1.332031 3.78125 -1.25 C 4.0625 -1.164062 4.507812 -1.125 5.125 -1.125 C 5.320312 -1.125 5.46875 -1.066406 5.5625 -0.953125 C 5.65625 -0.835938 5.703125 -0.703125 5.703125 -0.546875 C 5.703125 -0.390625 5.632812 -0.242188 5.5 -0.109375 C 5.363281 0.015625 5.191406 0.078125 4.984375 0.078125 C 4.210938 0.078125 3.644531 -0.00390625 3.28125 -0.171875 C 2.914062 -0.335938 2.664062 -0.585938 2.53125 -0.921875 C 2.238281 -0.515625 1.898438 -0.242188 1.515625 -0.109375 C 1.140625 0.015625 0.632812 0.078125 0 0.078125 Z M 2.71875 -5.609375 C 2.507812 -5.609375 2.332031 -5.675781 2.1875 -5.8125 C 2.050781 -5.957031 1.984375 -6.125 1.984375 -6.3125 C 1.984375 -6.507812 2.050781 -6.679688 2.1875 -6.828125 C 2.332031 -6.972656 2.507812 -7.046875 2.71875 -7.046875 C 2.90625 -7.046875 3.066406 -6.972656 3.203125 -6.828125 C 3.347656 -6.679688 3.421875 -6.507812 3.421875 -6.3125 C 3.421875 -6.125 3.347656 -5.957031 3.203125 -5.8125 C 3.066406 -5.675781 2.90625 -5.609375 2.71875 -5.609375 Z M 2.71875 -5.609375 "/></g></g></g><g fill="#bd9e20" fill-opacity="1"><g transform="translate(109.295775, 281.668078)"><g><path d="M 0 0.078125 L 0.140625 -1.125 L 1.265625 -1.125 C 2.066406 -1.125 2.660156 -1.164062 3.046875 -1.25 C 3.429688 -1.332031 3.679688 -1.441406 3.796875 -1.578125 C 3.921875 -1.722656 3.984375 -1.878906 3.984375 -2.046875 C 3.984375 -2.273438 3.894531 -2.53125 3.71875 -2.8125 C 3.550781 -3.09375 3.332031 -3.378906 3.0625 -3.671875 C 2.789062 -3.972656 2.5 -4.269531 2.1875 -4.5625 C 1.882812 -4.851562 1.597656 -5.117188 1.328125 -5.359375 C 1.054688 -5.597656 0.832031 -5.804688 0.65625 -5.984375 C 0.488281 -6.160156 0.40625 -6.289062 0.40625 -6.375 C 0.40625 -6.59375 0.425781 -6.796875 0.46875 -6.984375 C 0.519531 -7.179688 0.601562 -7.335938 0.71875 -7.453125 C 0.976562 -7.734375 1.359375 -8.023438 1.859375 -8.328125 C 2.367188 -8.628906 2.953125 -8.941406 3.609375 -9.265625 C 4.265625 -9.585938 4.9375 -9.921875 5.625 -10.265625 L 6.125 -9.1875 C 5.269531 -8.757812 4.429688 -8.347656 3.609375 -7.953125 C 2.796875 -7.554688 2.085938 -7.144531 1.484375 -6.71875 C 2.015625 -6.257812 2.507812 -5.816406 2.96875 -5.390625 C 3.4375 -4.972656 3.867188 -4.519531 4.265625 -4.03125 C 4.660156 -3.539062 5.023438 -2.984375 5.359375 -2.359375 C 5.554688 -1.984375 5.789062 -1.707031 6.0625 -1.53125 C 6.332031 -1.363281 6.597656 -1.253906 6.859375 -1.203125 C 7.128906 -1.148438 7.347656 -1.125 7.515625 -1.125 C 7.722656 -1.125 7.867188 -1.066406 7.953125 -0.953125 C 8.046875 -0.835938 8.09375 -0.703125 8.09375 -0.546875 C 8.09375 -0.390625 8.023438 -0.242188 7.890625 -0.109375 C 7.753906 0.015625 7.582031 0.078125 7.375 0.078125 C 7.144531 0.078125 6.875 0.046875 6.5625 -0.015625 C 6.257812 -0.078125 5.953125 -0.195312 5.640625 -0.375 C 5.335938 -0.5625 5.066406 -0.828125 4.828125 -1.171875 C 4.640625 -0.890625 4.398438 -0.65625 4.109375 -0.46875 C 3.816406 -0.289062 3.4375 -0.15625 2.96875 -0.0625 C 2.507812 0.03125 1.921875 0.078125 1.203125 0.078125 Z M 0 0.078125 "/></g></g></g><g fill="#bd9e20" fill-opacity="1"><g transform="translate(116.671686, 281.668078)"><g><path d="M 0 0.078125 L 0.140625 -1.125 C 0.628906 -1.125 1.007812 -1.15625 1.28125 -1.21875 C 1.550781 -1.289062 1.753906 -1.429688 1.890625 -1.640625 C 2.035156 -1.847656 2.148438 -2.148438 2.234375 -2.546875 C 2.316406 -2.953125 2.425781 -3.472656 2.5625 -4.109375 L 3.6875 -3.890625 C 3.625 -3.628906 3.554688 -3.328125 3.484375 -2.984375 C 3.410156 -2.648438 3.375 -2.367188 3.375 -2.140625 C 3.375 -1.992188 3.382812 -1.851562 3.40625 -1.71875 C 3.425781 -1.59375 3.5 -1.488281 3.625 -1.40625 C 3.75 -1.320312 3.960938 -1.253906 4.265625 -1.203125 C 4.566406 -1.148438 5 -1.125 5.5625 -1.125 C 5.757812 -1.125 5.90625 -1.066406 6 -0.953125 C 6.09375 -0.835938 6.140625 -0.703125 6.140625 -0.546875 C 6.140625 -0.390625 6.070312 -0.242188 5.9375 -0.109375 C 5.800781 0.015625 5.628906 0.078125 5.421875 0.078125 C 4.785156 0.078125 4.289062 0.0390625 3.9375 -0.03125 C 3.582031 -0.101562 3.320312 -0.207031 3.15625 -0.34375 C 2.988281 -0.488281 2.863281 -0.671875 2.78125 -0.890625 C 2.5 -0.492188 2.148438 -0.234375 1.734375 -0.109375 C 1.328125 0.015625 0.75 0.078125 0 0.078125 Z M 3.65625 2.828125 C 3.445312 2.828125 3.269531 2.753906 3.125 2.609375 C 2.988281 2.472656 2.921875 2.304688 2.921875 2.109375 C 2.921875 1.910156 2.988281 1.738281 3.125 1.59375 C 3.269531 1.457031 3.445312 1.390625 3.65625 1.390625 C 3.84375 1.390625 4.003906 1.457031 4.140625 1.59375 C 4.285156 1.738281 4.359375 1.910156 4.359375 2.109375 C 4.359375 2.304688 4.285156 2.472656 4.140625 2.609375 C 4.003906 2.753906 3.84375 2.828125 3.65625 2.828125 Z M 1.671875 2.828125 C 1.460938 2.828125 1.285156 2.753906 1.140625 2.609375 C 1.003906 2.472656 0.9375 2.304688 0.9375 2.109375 C 0.9375 1.910156 1.003906 1.738281 1.140625 1.59375 C 1.285156 1.457031 1.460938 1.390625 1.671875 1.390625 C 1.859375 1.390625 2.019531 1.457031 2.15625 1.59375 C 2.300781 1.738281 2.375 1.910156 2.375 2.109375 C 2.375 2.304688 2.300781 2.472656 2.15625 2.609375 C 2.019531 2.753906 1.859375 2.828125 1.671875 2.828125 Z M 1.671875 2.828125 "/></g></g></g><g fill="#bd9e20" fill-opacity="1"><g transform="translate(122.087465, 281.668078)"><g><path d="M 0 0.078125 L 0.125 -1.125 C 0.675781 -1.125 1.0625 -1.175781 1.28125 -1.28125 C 1.507812 -1.382812 1.640625 -1.566406 1.671875 -1.828125 C 1.710938 -2.097656 1.722656 -2.476562 1.703125 -2.96875 L 1.421875 -10.359375 L 2.59375 -10.359375 L 2.890625 -3.109375 C 2.921875 -2.421875 2.875 -1.835938 2.75 -1.359375 C 2.625 -0.890625 2.351562 -0.53125 1.9375 -0.28125 C 1.519531 -0.0390625 0.875 0.078125 0 0.078125 Z M 0 0.078125 "/></g></g></g><g fill="#bd9e20" fill-opacity="1"><g transform="translate(125.862538, 281.668078)"><g/></g></g><g fill="#bd9e20" fill-opacity="1"><g transform="translate(129.456978, 281.668078)"><g><path d="M 0.84375 3.34375 L 0.578125 2.140625 C 1.179688 2.066406 1.726562 1.953125 2.21875 1.796875 C 2.71875 1.648438 3.144531 1.441406 3.5 1.171875 C 3.863281 0.898438 4.132812 0.535156 4.3125 0.078125 L 3.375 0.078125 C 2.945312 0.078125 2.546875 0.015625 2.171875 -0.109375 C 1.796875 -0.234375 1.492188 -0.429688 1.265625 -0.703125 C 1.035156 -0.972656 0.921875 -1.320312 0.921875 -1.75 C 0.921875 -2.289062 1.023438 -2.796875 1.234375 -3.265625 C 1.453125 -3.742188 1.742188 -4.132812 2.109375 -4.4375 C 2.484375 -4.738281 2.90625 -4.890625 3.375 -4.890625 C 4.039062 -4.890625 4.59375 -4.597656 5.03125 -4.015625 C 5.46875 -3.429688 5.6875 -2.535156 5.6875 -1.328125 C 5.6875 -1.253906 5.6875 -1.1875 5.6875 -1.125 L 7 -1.125 C 7.195312 -1.125 7.34375 -1.066406 7.4375 -0.953125 C 7.53125 -0.835938 7.578125 -0.703125 7.578125 -0.546875 C 7.578125 -0.390625 7.507812 -0.242188 7.375 -0.109375 C 7.238281 0.015625 7.0625 0.078125 6.84375 0.078125 L 5.515625 0.078125 C 5.023438 1.953125 3.46875 3.039062 0.84375 3.34375 Z M 3.9375 -1.125 L 4.546875 -1.125 C 4.554688 -1.21875 4.5625 -1.3125 4.5625 -1.40625 C 4.5625 -2.0625 4.4375 -2.609375 4.1875 -3.046875 C 3.945312 -3.484375 3.632812 -3.703125 3.25 -3.703125 C 3.050781 -3.703125 2.859375 -3.625 2.671875 -3.46875 C 2.492188 -3.3125 2.351562 -3.101562 2.25 -2.84375 C 2.144531 -2.582031 2.09375 -2.296875 2.09375 -1.984375 C 2.09375 -1.648438 2.242188 -1.421875 2.546875 -1.296875 C 2.847656 -1.179688 3.3125 -1.125 3.9375 -1.125 Z M 3.9375 -1.125 "/></g></g></g><g fill="#bd9e20" fill-opacity="1"><g transform="translate(136.310192, 281.668078)"><g><path d="M 0 0.078125 L 0.140625 -1.125 C 0.628906 -1.125 1.007812 -1.15625 1.28125 -1.21875 C 1.550781 -1.289062 1.753906 -1.429688 1.890625 -1.640625 C 2.035156 -1.847656 2.148438 -2.148438 2.234375 -2.546875 C 2.316406 -2.953125 2.425781 -3.472656 2.5625 -4.109375 L 3.6875 -3.890625 C 3.625 -3.628906 3.554688 -3.328125 3.484375 -2.984375 C 3.410156 -2.648438 3.375 -2.367188 3.375 -2.140625 C 3.375 -1.992188 3.382812 -1.851562 3.40625 -1.71875 C 3.425781 -1.59375 3.5 -1.488281 3.625 -1.40625 C 3.75 -1.320312 3.960938 -1.253906 4.265625 -1.203125 C 4.566406 -1.148438 5 -1.125 5.5625 -1.125 C 5.757812 -1.125 5.90625 -1.066406 6 -0.953125 C 6.09375 -0.835938 6.140625 -0.703125 6.140625 -0.546875 C 6.140625 -0.390625 6.070312 -0.242188 5.9375 -0.109375 C 5.800781 0.015625 5.628906 0.078125 5.421875 0.078125 C 4.785156 0.078125 4.289062 0.0390625 3.9375 -0.03125 C 3.582031 -0.101562 3.320312 -0.207031 3.15625 -0.34375 C 2.988281 -0.488281 2.863281 -0.671875 2.78125 -0.890625 C 2.5 -0.492188 2.148438 -0.234375 1.734375 -0.109375 C 1.328125 0.015625 0.75 0.078125 0 0.078125 Z M 3.875 -5.609375 C 3.664062 -5.609375 3.488281 -5.675781 3.34375 -5.8125 C 3.207031 -5.957031 3.140625 -6.125 3.140625 -6.3125 C 3.140625 -6.507812 3.207031 -6.679688 3.34375 -6.828125 C 3.488281 -6.972656 3.664062 -7.046875 3.875 -7.046875 C 4.0625 -7.046875 4.222656 -6.972656 4.359375 -6.828125 C 4.503906 -6.679688 4.578125 -6.507812 4.578125 -6.3125 C 4.578125 -6.125 4.503906 -5.957031 4.359375 -5.8125 C 4.222656 -5.675781 4.0625 -5.609375 3.875 -5.609375 Z M 1.890625 -5.609375 C 1.679688 -5.609375 1.503906 -5.675781 1.359375 -5.8125 C 1.222656 -5.957031 1.15625 -6.125 1.15625 -6.3125 C 1.15625 -6.507812 1.222656 -6.679688 1.359375 -6.828125 C 1.503906 -6.972656 1.679688 -7.046875 1.890625 -7.046875 C 2.078125 -7.046875 2.238281 -6.972656 2.375 -6.828125 C 2.519531 -6.679688 2.59375 -6.507812 2.59375 -6.3125 C 2.59375 -6.125 2.519531 -5.957031 2.375 -5.8125 C 2.238281 -5.675781 2.078125 -5.609375 1.890625 -5.609375 Z M 1.890625 -5.609375 "/></g></g></g><g fill="#bd9e20" fill-opacity="1"><g transform="translate(141.725971, 281.668078)"><g><path d="M 0 0.078125 L 0.140625 -1.125 C 0.453125 -1.125 0.703125 -1.144531 0.890625 -1.1875 C 1.085938 -1.226562 1.25 -1.335938 1.375 -1.515625 C 1.507812 -1.691406 1.632812 -1.972656 1.75 -2.359375 C 1.875 -2.753906 2.007812 -3.296875 2.15625 -3.984375 L 3.25 -3.6875 C 3.195312 -3.4375 3.128906 -3.140625 3.046875 -2.796875 C 2.972656 -2.460938 2.9375 -2.160156 2.9375 -1.890625 C 2.9375 -1.648438 3.023438 -1.460938 3.203125 -1.328125 C 3.390625 -1.191406 3.722656 -1.125 4.203125 -1.125 C 4.492188 -1.125 4.734375 -1.144531 4.921875 -1.1875 C 5.109375 -1.238281 5.257812 -1.351562 5.375 -1.53125 C 5.5 -1.71875 5.609375 -2.007812 5.703125 -2.40625 C 5.796875 -2.8125 5.898438 -3.375 6.015625 -4.09375 L 7.109375 -3.890625 C 7.078125 -3.710938 7.039062 -3.5 7 -3.25 C 6.957031 -3 6.921875 -2.75 6.890625 -2.5 C 6.859375 -2.257812 6.84375 -2.054688 6.84375 -1.890625 C 6.84375 -1.753906 6.875 -1.625 6.9375 -1.5 C 7.007812 -1.382812 7.140625 -1.289062 7.328125 -1.21875 C 7.515625 -1.15625 7.796875 -1.125 8.171875 -1.125 C 8.648438 -1.125 9 -1.222656 9.21875 -1.421875 C 9.4375 -1.617188 9.546875 -1.925781 9.546875 -2.34375 C 9.546875 -2.675781 9.535156 -3.039062 9.515625 -3.4375 C 9.503906 -3.832031 9.457031 -4.332031 9.375 -4.9375 L 10.4375 -5.015625 C 10.5 -4.222656 10.5625 -3.578125 10.625 -3.078125 C 10.695312 -2.578125 10.800781 -2.179688 10.9375 -1.890625 C 11.082031 -1.609375 11.273438 -1.410156 11.515625 -1.296875 C 11.765625 -1.179688 12.085938 -1.125 12.484375 -1.125 C 12.679688 -1.125 12.828125 -1.066406 12.921875 -0.953125 C 13.015625 -0.835938 13.0625 -0.703125 13.0625 -0.546875 C 13.0625 -0.390625 12.992188 -0.242188 12.859375 -0.109375 C 12.722656 0.015625 12.550781 0.078125 12.34375 0.078125 C 11.800781 0.078125 11.351562 -0.0390625 11 -0.28125 C 10.644531 -0.53125 10.382812 -0.835938 10.21875 -1.203125 C 10.019531 -0.691406 9.722656 -0.347656 9.328125 -0.171875 C 8.941406 -0.00390625 8.515625 0.078125 8.046875 0.078125 C 7.546875 0.078125 7.148438 0.0078125 6.859375 -0.125 C 6.578125 -0.269531 6.367188 -0.488281 6.234375 -0.78125 C 6.003906 -0.4375 5.726562 -0.207031 5.40625 -0.09375 C 5.082031 0.0195312 4.625 0.078125 4.03125 0.078125 C 3.832031 0.078125 3.617188 0.0507812 3.390625 0 C 3.160156 -0.0507812 2.945312 -0.144531 2.75 -0.28125 C 2.5625 -0.425781 2.414062 -0.640625 2.3125 -0.921875 C 2.0625 -0.492188 1.75 -0.21875 1.375 -0.09375 C 1 0.0195312 0.539062 0.078125 0 0.078125 Z M 5.609375 2.78125 C 5.398438 2.78125 5.222656 2.707031 5.078125 2.5625 C 4.941406 2.425781 4.875 2.257812 4.875 2.0625 C 4.875 1.875 4.941406 1.707031 5.078125 1.5625 C 5.222656 1.414062 5.398438 1.34375 5.609375 1.34375 C 5.796875 1.34375 5.957031 1.414062 6.09375 1.5625 C 6.238281 1.707031 6.3125 1.875 6.3125 2.0625 C 6.3125 2.257812 6.238281 2.425781 6.09375 2.5625 C 5.957031 2.707031 5.796875 2.78125 5.609375 2.78125 Z M 6.234375 -6.3125 C 6.023438 -6.3125 5.847656 -6.378906 5.703125 -6.515625 C 5.566406 -6.660156 5.5 -6.828125 5.5 -7.015625 C 5.5 -7.210938 5.566406 -7.382812 5.703125 -7.53125 C 5.847656 -7.675781 6.023438 -7.75 6.234375 -7.75 C 6.421875 -7.75 6.582031 -7.675781 6.71875 -7.53125 C 6.863281 -7.382812 6.9375 -7.210938 6.9375 -7.015625 C 6.9375 -6.828125 6.863281 -6.660156 6.71875 -6.515625 C 6.582031 -6.378906 6.421875 -6.3125 6.234375 -6.3125 Z M 6.234375 -6.3125 "/></g></g></g><g fill="#bd9e20" fill-opacity="1"><g transform="translate(154.067553, 281.668078)"><g><path d="M 0 0.078125 L 0.140625 -1.125 C 0.703125 -1.125 1.144531 -1.144531 1.46875 -1.1875 C 1.789062 -1.226562 2.019531 -1.332031 2.15625 -1.5 C 2.289062 -1.675781 2.359375 -1.960938 2.359375 -2.359375 C 2.359375 -2.722656 2.273438 -3.1875 2.109375 -3.75 C 1.941406 -4.3125 1.75 -4.867188 1.53125 -5.421875 L 2.71875 -5.84375 C 2.84375 -5.53125 2.957031 -5.175781 3.0625 -4.78125 C 3.175781 -4.382812 3.269531 -3.992188 3.34375 -3.609375 C 3.425781 -3.222656 3.46875 -2.882812 3.46875 -2.59375 C 3.46875 -1.613281 3.195312 -0.921875 2.65625 -0.515625 C 2.113281 -0.117188 1.226562 0.078125 0 0.078125 Z M 0.65625 2.828125 C 0.445312 2.828125 0.269531 2.753906 0.125 2.609375 C -0.0078125 2.472656 -0.078125 2.304688 -0.078125 2.109375 C -0.078125 1.910156 -0.0078125 1.738281 0.125 1.59375 C 0.269531 1.457031 0.445312 1.390625 0.65625 1.390625 C 0.84375 1.390625 1.003906 1.457031 1.140625 1.59375 C 1.285156 1.738281 1.359375 1.910156 1.359375 2.109375 C 1.359375 2.304688 1.285156 2.472656 1.140625 2.609375 C 1.003906 2.753906 0.84375 2.828125 0.65625 2.828125 Z M 2.625 2.828125 C 2.414062 2.828125 2.238281 2.753906 2.09375 2.609375 C 1.957031 2.472656 1.890625 2.304688 1.890625 2.109375 C 1.890625 1.910156 1.957031 1.738281 2.09375 1.59375 C 2.238281 1.457031 2.414062 1.390625 2.625 1.390625 C 2.8125 1.390625 2.972656 1.457031 3.109375 1.59375 C 3.253906 1.738281 3.328125 1.910156 3.328125 2.109375 C 3.328125 2.304688 3.253906 2.472656 3.109375 2.609375 C 2.972656 2.753906 2.8125 2.828125 2.625 2.828125 Z M 1.640625 4.421875 C 1.429688 4.421875 1.253906 4.347656 1.109375 4.203125 C 0.972656 4.066406 0.90625 3.898438 0.90625 3.703125 C 0.90625 3.515625 0.972656 3.347656 1.109375 3.203125 C 1.253906 3.054688 1.429688 2.984375 1.640625 2.984375 C 1.828125 2.984375 1.988281 3.054688 2.125 3.203125 C 2.269531 3.347656 2.34375 3.515625 2.34375 3.703125 C 2.34375 3.898438 2.269531 4.066406 2.125 4.203125 C 1.988281 4.347656 1.828125 4.421875 1.640625 4.421875 Z M 1.640625 4.421875 "/></g></g></g><g fill="#bd9e20" fill-opacity="1"><g transform="translate(158.408893, 281.668078)"><g/></g></g><g fill="#bd9e20" fill-opacity="1"><g transform="translate(162.003333, 281.668078)"><g><path d="M 0.4375 0.015625 C 0.4375 -0.335938 0.484375 -0.722656 0.578125 -1.140625 C 0.671875 -1.566406 0.828125 -2.039062 1.046875 -2.5625 L 2.09375 -2.140625 C 1.9375 -1.734375 1.816406 -1.359375 1.734375 -1.015625 C 1.660156 -0.679688 1.625 -0.375 1.625 -0.09375 C 1.625 0.414062 1.753906 0.832031 2.015625 1.15625 C 2.273438 1.488281 2.632812 1.734375 3.09375 1.890625 C 3.550781 2.054688 4.0625 2.140625 4.625 2.140625 C 5.28125 2.140625 5.828125 2.050781 6.265625 1.875 C 6.703125 1.707031 7.050781 1.476562 7.3125 1.1875 C 7.570312 0.90625 7.757812 0.585938 7.875 0.234375 C 7.988281 -0.109375 8.046875 -0.445312 8.046875 -0.78125 C 8.046875 -1.144531 7.972656 -1.585938 7.828125 -2.109375 C 7.691406 -2.640625 7.429688 -3.289062 7.046875 -4.0625 L 8.140625 -4.609375 C 8.421875 -4.054688 8.671875 -3.46875 8.890625 -2.84375 C 9.109375 -2.226562 9.21875 -1.59375 9.21875 -0.9375 C 9.21875 -0.476562 9.144531 0 9 0.5 C 8.851562 1.007812 8.601562 1.476562 8.25 1.90625 C 7.90625 2.332031 7.4375 2.675781 6.84375 2.9375 C 6.25 3.207031 5.503906 3.34375 4.609375 3.34375 C 3.859375 3.34375 3.164062 3.222656 2.53125 2.984375 C 1.894531 2.753906 1.382812 2.390625 1 1.890625 C 0.625 1.398438 0.4375 0.773438 0.4375 0.015625 Z M 4.828125 -5.78125 C 4.617188 -5.78125 4.441406 -5.847656 4.296875 -5.984375 C 4.160156 -6.128906 4.09375 -6.296875 4.09375 -6.484375 C 4.09375 -6.679688 4.160156 -6.851562 4.296875 -7 C 4.441406 -7.144531 4.617188 -7.21875 4.828125 -7.21875 C 5.015625 -7.21875 5.175781 -7.144531 5.3125 -7 C 5.457031 -6.851562 5.53125 -6.679688 5.53125 -6.484375 C 5.53125 -6.296875 5.457031 -6.128906 5.3125 -5.984375 C 5.175781 -5.847656 5.015625 -5.78125 4.828125 -5.78125 Z M 4.828125 -5.78125 "/></g></g></g><g fill="#bd9e20" fill-opacity="1"><g transform="translate(171.949198, 281.668078)"><g><path d="M 4.21875 0.078125 C 3.4375 0.078125 2.84375 -0.0078125 2.4375 -0.1875 C 2.03125 -0.363281 1.75 -0.632812 1.59375 -1 C 1.4375 -1.363281 1.347656 -1.835938 1.328125 -2.421875 L 1.046875 -10.359375 L 2.234375 -10.359375 L 2.53125 -2.890625 C 2.550781 -2.410156 2.59375 -2.039062 2.65625 -1.78125 C 2.726562 -1.53125 2.894531 -1.359375 3.15625 -1.265625 C 3.414062 -1.171875 3.820312 -1.125 4.375 -1.125 C 4.570312 -1.125 4.71875 -1.066406 4.8125 -0.953125 C 4.90625 -0.835938 4.953125 -0.703125 4.953125 -0.546875 C 4.953125 -0.390625 4.882812 -0.242188 4.75 -0.109375 C 4.613281 0.015625 4.4375 0.078125 4.21875 0.078125 Z M 4.21875 0.078125 "/></g></g></g><g fill="#bd9e20" fill-opacity="1"><g transform="translate(176.174379, 281.668078)"><g><path d="M 0 0.078125 L 0.125 -1.125 C 1.125 -1.125 2.09375 -1.269531 3.03125 -1.5625 C 3.96875 -1.851562 4.828125 -2.269531 5.609375 -2.8125 C 5.222656 -3.144531 4.753906 -3.410156 4.203125 -3.609375 C 3.660156 -3.816406 3.0625 -3.921875 2.40625 -3.921875 C 2.164062 -3.921875 1.953125 -3.90625 1.765625 -3.875 C 1.585938 -3.851562 1.367188 -3.816406 1.109375 -3.765625 L 0.875 -4.859375 C 1.414062 -5.023438 1.925781 -5.109375 2.40625 -5.109375 C 2.914062 -5.109375 3.375 -5.046875 3.78125 -4.921875 C 4.1875 -4.804688 4.554688 -4.660156 4.890625 -4.484375 C 5.222656 -4.304688 5.535156 -4.128906 5.828125 -3.953125 C 6.117188 -3.785156 6.40625 -3.640625 6.6875 -3.515625 C 6.96875 -3.398438 7.257812 -3.34375 7.5625 -3.34375 L 7.875 -3.34375 L 7.96875 -2.296875 C 7.476562 -2.296875 7.03125 -2.210938 6.625 -2.046875 C 6.21875 -1.890625 5.804688 -1.691406 5.390625 -1.453125 C 4.984375 -1.222656 4.535156 -0.988281 4.046875 -0.75 C 3.554688 -0.519531 2.984375 -0.320312 2.328125 -0.15625 C 1.679688 0 0.90625 0.078125 0 0.078125 Z M 2.4375 -6.609375 C 2.226562 -6.609375 2.050781 -6.675781 1.90625 -6.8125 C 1.769531 -6.957031 1.703125 -7.125 1.703125 -7.3125 C 1.703125 -7.507812 1.769531 -7.679688 1.90625 -7.828125 C 2.050781 -7.972656 2.226562 -8.046875 2.4375 -8.046875 C 2.625 -8.046875 2.785156 -7.972656 2.921875 -7.828125 C 3.066406 -7.679688 3.140625 -7.507812 3.140625 -7.3125 C 3.140625 -7.125 3.066406 -6.957031 2.921875 -6.8125 C 2.785156 -6.675781 2.625 -6.609375 2.4375 -6.609375 Z M 2.4375 -6.609375 "/></g></g></g><g fill="#bd9e20" fill-opacity="1"><g transform="translate(184.726377, 281.668078)"><g/></g></g><g fill="#bd9e20" fill-opacity="1"><g transform="translate(188.320817, 281.668078)"><g><path d="M 0.4375 0.015625 C 0.4375 -0.335938 0.484375 -0.722656 0.578125 -1.140625 C 0.671875 -1.566406 0.828125 -2.039062 1.046875 -2.5625 L 2.09375 -2.140625 C 1.9375 -1.734375 1.816406 -1.359375 1.734375 -1.015625 C 1.660156 -0.679688 1.625 -0.375 1.625 -0.09375 C 1.625 0.445312 1.753906 0.882812 2.015625 1.21875 C 2.285156 1.550781 2.644531 1.789062 3.09375 1.9375 C 3.550781 2.09375 4.050781 2.171875 4.59375 2.171875 C 5.46875 2.171875 6.15625 2.050781 6.65625 1.8125 C 7.15625 1.570312 7.507812 1.253906 7.71875 0.859375 C 7.925781 0.472656 8.03125 0.0625 8.03125 -0.375 C 8.03125 -1.007812 7.957031 -1.597656 7.8125 -2.140625 C 7.675781 -2.679688 7.523438 -3.234375 7.359375 -3.796875 L 8.53125 -4.125 C 8.6875 -3.570312 8.789062 -3.171875 8.84375 -2.921875 C 8.90625 -2.679688 8.960938 -2.484375 9.015625 -2.328125 C 9.117188 -1.960938 9.257812 -1.695312 9.4375 -1.53125 C 9.613281 -1.363281 9.8125 -1.253906 10.03125 -1.203125 C 10.25 -1.148438 10.484375 -1.125 10.734375 -1.125 C 10.941406 -1.125 11.09375 -1.066406 11.1875 -0.953125 C 11.28125 -0.835938 11.328125 -0.703125 11.328125 -0.546875 C 11.328125 -0.390625 11.257812 -0.242188 11.125 -0.109375 C 10.988281 0.015625 10.8125 0.078125 10.59375 0.078125 C 10.289062 0.078125 10.023438 0.0351562 9.796875 -0.046875 C 9.578125 -0.128906 9.390625 -0.234375 9.234375 -0.359375 C 9.179688 0.109375 9.066406 0.566406 8.890625 1.015625 C 8.722656 1.460938 8.460938 1.863281 8.109375 2.21875 C 7.753906 2.570312 7.285156 2.851562 6.703125 3.0625 C 6.117188 3.269531 5.398438 3.375 4.546875 3.375 C 3.816406 3.375 3.140625 3.25 2.515625 3 C 1.890625 2.757812 1.382812 2.390625 1 1.890625 C 0.625 1.398438 0.4375 0.773438 0.4375 0.015625 Z M 4.828125 -5.78125 C 4.617188 -5.78125 4.441406 -5.847656 4.296875 -5.984375 C 4.160156 -6.128906 4.09375 -6.296875 4.09375 -6.484375 C 4.09375 -6.679688 4.160156 -6.851562 4.296875 -7 C 4.441406 -7.144531 4.617188 -7.21875 4.828125 -7.21875 C 5.015625 -7.21875 5.175781 -7.144531 5.3125 -7 C 5.457031 -6.851562 5.53125 -6.679688 5.53125 -6.484375 C 5.53125 -6.296875 5.457031 -6.128906 5.3125 -5.984375 C 5.175781 -5.847656 5.015625 -5.78125 4.828125 -5.78125 Z M 4.828125 -5.78125 "/></g></g></g><g fill="#bd9e20" fill-opacity="1"><g transform="translate(198.920059, 281.668078)"><g><path d="M 0 0.078125 L 0.140625 -1.125 C 0.703125 -1.125 1.144531 -1.144531 1.46875 -1.1875 C 1.789062 -1.226562 2.019531 -1.332031 2.15625 -1.5 C 2.289062 -1.675781 2.359375 -1.960938 2.359375 -2.359375 C 2.359375 -2.722656 2.273438 -3.1875 2.109375 -3.75 C 1.941406 -4.3125 1.75 -4.867188 1.53125 -5.421875 L 2.71875 -5.84375 C 2.84375 -5.53125 2.957031 -5.175781 3.0625 -4.78125 C 3.175781 -4.382812 3.269531 -3.992188 3.34375 -3.609375 C 3.425781 -3.222656 3.46875 -2.882812 3.46875 -2.59375 C 3.46875 -1.613281 3.195312 -0.921875 2.65625 -0.515625 C 2.113281 -0.117188 1.226562 0.078125 0 0.078125 Z M 2.6875 2.828125 C 2.476562 2.828125 2.300781 2.753906 2.15625 2.609375 C 2.019531 2.472656 1.953125 2.304688 1.953125 2.109375 C 1.953125 1.910156 2.019531 1.738281 2.15625 1.59375 C 2.300781 1.457031 2.476562 1.390625 2.6875 1.390625 C 2.875 1.390625 3.035156 1.457031 3.171875 1.59375 C 3.316406 1.738281 3.390625 1.910156 3.390625 2.109375 C 3.390625 2.304688 3.316406 2.472656 3.171875 2.609375 C 3.035156 2.753906 2.875 2.828125 2.6875 2.828125 Z M 0.703125 2.828125 C 0.492188 2.828125 0.316406 2.753906 0.171875 2.609375 C 0.0351562 2.472656 -0.03125 2.304688 -0.03125 2.109375 C -0.03125 1.910156 0.0351562 1.738281 0.171875 1.59375 C 0.316406 1.457031 0.492188 1.390625 0.703125 1.390625 C 0.890625 1.390625 1.050781 1.457031 1.1875 1.59375 C 1.332031 1.738281 1.40625 1.910156 1.40625 2.109375 C 1.40625 2.304688 1.332031 2.472656 1.1875 2.609375 C 1.050781 2.753906 0.890625 2.828125 0.703125 2.828125 Z M 0.703125 2.828125 "/></g></g></g><g fill="#bd9e20" fill-opacity="1"><g transform="translate(203.261398, 281.668078)"><g><path d="M 3.125 -1.125 C 3.832031 -1.125 4.335938 -1.226562 4.640625 -1.4375 C 4.941406 -1.65625 5.09375 -1.957031 5.09375 -2.34375 C 5.09375 -2.601562 5.003906 -2.929688 4.828125 -3.328125 C 4.660156 -3.722656 4.429688 -4.164062 4.140625 -4.65625 C 3.859375 -5.144531 3.539062 -5.644531 3.1875 -6.15625 L 4.1875 -6.8125 C 4.75 -5.945312 5.207031 -5.15625 5.5625 -4.4375 C 5.914062 -3.726562 6.179688 -3.09375 6.359375 -2.53125 C 6.492188 -2.101562 6.644531 -1.785156 6.8125 -1.578125 C 6.976562 -1.378906 7.15625 -1.253906 7.34375 -1.203125 C 7.53125 -1.148438 7.703125 -1.125 7.859375 -1.125 C 8.054688 -1.125 8.203125 -1.066406 8.296875 -0.953125 C 8.398438 -0.835938 8.453125 -0.703125 8.453125 -0.546875 C 8.453125 -0.390625 8.382812 -0.242188 8.25 -0.109375 C 8.113281 0.015625 7.9375 0.078125 7.71875 0.078125 C 7.34375 0.078125 6.976562 -0.00390625 6.625 -0.171875 C 6.28125 -0.335938 6.003906 -0.617188 5.796875 -1.015625 C 5.597656 -0.691406 5.285156 -0.425781 4.859375 -0.21875 C 4.441406 -0.0078125 3.863281 0.09375 3.125 0.09375 C 2.59375 0.09375 2.097656 0.0234375 1.640625 -0.109375 C 1.179688 -0.242188 0.804688 -0.425781 0.515625 -0.65625 L 1.09375 -1.65625 C 1.28125 -1.519531 1.546875 -1.394531 1.890625 -1.28125 C 2.242188 -1.175781 2.65625 -1.125 3.125 -1.125 Z M 3.125 -1.125 "/></g></g></g><g fill="#bd9e20" fill-opacity="1"><g transform="translate(210.985782, 281.668078)"><g><path d="M 0 0.078125 L 0.125 -1.125 C 0.675781 -1.125 1.0625 -1.175781 1.28125 -1.28125 C 1.507812 -1.382812 1.640625 -1.566406 1.671875 -1.828125 C 1.710938 -2.097656 1.722656 -2.476562 1.703125 -2.96875 L 1.421875 -10.359375 L 2.59375 -10.359375 L 2.890625 -3.109375 C 2.921875 -2.421875 2.875 -1.835938 2.75 -1.359375 C 2.625 -0.890625 2.351562 -0.53125 1.9375 -0.28125 C 1.519531 -0.0390625 0.875 0.078125 0 0.078125 Z M 0 0.078125 "/></g></g></g><g fill="#bd9e20" fill-opacity="1"><g transform="translate(214.760856, 281.668078)"><g><path d="M 1.328125 0 L 1.046875 -10.359375 L 2.21875 -10.359375 L 2.515625 0 Z M 1.328125 0 "/></g></g></g><g fill="#bd9e20" fill-opacity="1"><g transform="translate(218.216502, 281.668078)"><g><path d="M 3.125 -1.125 C 3.832031 -1.125 4.335938 -1.226562 4.640625 -1.4375 C 4.941406 -1.65625 5.09375 -1.957031 5.09375 -2.34375 C 5.09375 -2.601562 5.003906 -2.929688 4.828125 -3.328125 C 4.660156 -3.722656 4.429688 -4.164062 4.140625 -4.65625 C 3.859375 -5.144531 3.539062 -5.644531 3.1875 -6.15625 L 4.1875 -6.8125 C 4.75 -5.945312 5.207031 -5.15625 5.5625 -4.4375 C 5.914062 -3.726562 6.179688 -3.09375 6.359375 -2.53125 C 6.492188 -2.101562 6.644531 -1.785156 6.8125 -1.578125 C 6.976562 -1.378906 7.15625 -1.253906 7.34375 -1.203125 C 7.53125 -1.148438 7.703125 -1.125 7.859375 -1.125 C 8.054688 -1.125 8.203125 -1.066406 8.296875 -0.953125 C 8.398438 -0.835938 8.453125 -0.703125 8.453125 -0.546875 C 8.453125 -0.390625 8.382812 -0.242188 8.25 -0.109375 C 8.113281 0.015625 7.9375 0.078125 7.71875 0.078125 C 7.34375 0.078125 6.976562 -0.00390625 6.625 -0.171875 C 6.28125 -0.335938 6.003906 -0.617188 5.796875 -1.015625 C 5.597656 -0.691406 5.285156 -0.425781 4.859375 -0.21875 C 4.441406 -0.0078125 3.863281 0.09375 3.125 0.09375 C 2.59375 0.09375 2.097656 0.0234375 1.640625 -0.109375 C 1.179688 -0.242188 0.804688 -0.425781 0.515625 -0.65625 L 1.09375 -1.65625 C 1.28125 -1.519531 1.546875 -1.394531 1.890625 -1.28125 C 2.242188 -1.175781 2.65625 -1.125 3.125 -1.125 Z M 3.125 -1.125 "/></g></g></g><g fill="#bd9e20" fill-opacity="1"><g transform="translate(225.940886, 281.668078)"><g><path d="M 0 0.078125 L 0.140625 -1.125 C 0.628906 -1.125 1.007812 -1.15625 1.28125 -1.21875 C 1.550781 -1.289062 1.753906 -1.429688 1.890625 -1.640625 C 2.035156 -1.847656 2.148438 -2.148438 2.234375 -2.546875 C 2.316406 -2.953125 2.425781 -3.472656 2.5625 -4.109375 L 3.6875 -3.890625 C 3.625 -3.628906 3.554688 -3.328125 3.484375 -2.984375 C 3.410156 -2.648438 3.375 -2.367188 3.375 -2.140625 C 3.375 -1.992188 3.382812 -1.851562 3.40625 -1.71875 C 3.425781 -1.59375 3.5 -1.488281 3.625 -1.40625 C 3.75 -1.320312 3.960938 -1.253906 4.265625 -1.203125 C 4.566406 -1.148438 5 -1.125 5.5625 -1.125 C 5.757812 -1.125 5.90625 -1.066406 6 -0.953125 C 6.09375 -0.835938 6.140625 -0.703125 6.140625 -0.546875 C 6.140625 -0.390625 6.070312 -0.242188 5.9375 -0.109375 C 5.800781 0.015625 5.628906 0.078125 5.421875 0.078125 C 4.785156 0.078125 4.289062 0.0390625 3.9375 -0.03125 C 3.582031 -0.101562 3.320312 -0.207031 3.15625 -0.34375 C 2.988281 -0.488281 2.863281 -0.671875 2.78125 -0.890625 C 2.5 -0.492188 2.148438 -0.234375 1.734375 -0.109375 C 1.328125 0.015625 0.75 0.078125 0 0.078125 Z M 3.65625 2.828125 C 3.445312 2.828125 3.269531 2.753906 3.125 2.609375 C 2.988281 2.472656 2.921875 2.304688 2.921875 2.109375 C 2.921875 1.910156 2.988281 1.738281 3.125 1.59375 C 3.269531 1.457031 3.445312 1.390625 3.65625 1.390625 C 3.84375 1.390625 4.003906 1.457031 4.140625 1.59375 C 4.285156 1.738281 4.359375 1.910156 4.359375 2.109375 C 4.359375 2.304688 4.285156 2.472656 4.140625 2.609375 C 4.003906 2.753906 3.84375 2.828125 3.65625 2.828125 Z M 1.671875 2.828125 C 1.460938 2.828125 1.285156 2.753906 1.140625 2.609375 C 1.003906 2.472656 0.9375 2.304688 0.9375 2.109375 C 0.9375 1.910156 1.003906 1.738281 1.140625 1.59375 C 1.285156 1.457031 1.460938 1.390625 1.671875 1.390625 C 1.859375 1.390625 2.019531 1.457031 2.15625 1.59375 C 2.300781 1.738281 2.375 1.910156 2.375 2.109375 C 2.375 2.304688 2.300781 2.472656 2.15625 2.609375 C 2.019531 2.753906 1.859375 2.828125 1.671875 2.828125 Z M 1.671875 2.828125 "/></g></g></g><g fill="#bd9e20" fill-opacity="1"><g transform="translate(231.356664, 281.668078)"><g><path d="M 0 0.078125 L 0.125 -1.125 C 1.125 -1.125 2.09375 -1.269531 3.03125 -1.5625 C 3.96875 -1.851562 4.828125 -2.269531 5.609375 -2.8125 C 5.222656 -3.144531 4.753906 -3.410156 4.203125 -3.609375 C 3.660156 -3.816406 3.0625 -3.921875 2.40625 -3.921875 C 2.164062 -3.921875 1.953125 -3.90625 1.765625 -3.875 C 1.585938 -3.851562 1.367188 -3.816406 1.109375 -3.765625 L 0.875 -4.859375 C 1.414062 -5.023438 1.925781 -5.109375 2.40625 -5.109375 C 2.914062 -5.109375 3.375 -5.046875 3.78125 -4.921875 C 4.1875 -4.804688 4.554688 -4.660156 4.890625 -4.484375 C 5.222656 -4.304688 5.535156 -4.128906 5.828125 -3.953125 C 6.117188 -3.785156 6.40625 -3.640625 6.6875 -3.515625 C 6.96875 -3.398438 7.257812 -3.34375 7.5625 -3.34375 L 7.875 -3.34375 L 7.96875 -2.296875 C 7.476562 -2.296875 7.03125 -2.210938 6.625 -2.046875 C 6.21875 -1.890625 5.804688 -1.691406 5.390625 -1.453125 C 4.984375 -1.222656 4.535156 -0.988281 4.046875 -0.75 C 3.554688 -0.519531 2.984375 -0.320312 2.328125 -0.15625 C 1.679688 0 0.90625 0.078125 0 0.078125 Z M 0 0.078125 "/></g></g></g><g fill="#bd9e20" fill-opacity="1"><g transform="translate(239.908662, 281.668078)"><g><path d="M 0.84375 3.34375 L 0.578125 2.140625 C 1.203125 2.066406 1.765625 1.953125 2.265625 1.796875 C 2.765625 1.640625 3.191406 1.414062 3.546875 1.125 C 3.910156 0.84375 4.179688 0.457031 4.359375 -0.03125 C 4.179688 0.0195312 3.992188 0.0546875 3.796875 0.078125 C 3.609375 0.0976562 3.421875 0.109375 3.234375 0.109375 C 2.492188 0.109375 1.921875 -0.0351562 1.515625 -0.328125 C 1.117188 -0.628906 0.921875 -1.097656 0.921875 -1.734375 C 0.921875 -2.097656 0.976562 -2.460938 1.09375 -2.828125 C 1.21875 -3.203125 1.382812 -3.546875 1.59375 -3.859375 C 1.8125 -4.171875 2.066406 -4.421875 2.359375 -4.609375 C 2.660156 -4.796875 3 -4.890625 3.375 -4.890625 C 3.894531 -4.890625 4.328125 -4.71875 4.671875 -4.375 C 5.015625 -4.03125 5.269531 -3.585938 5.4375 -3.046875 C 5.601562 -2.503906 5.6875 -1.929688 5.6875 -1.328125 C 5.6875 0.0351562 5.273438 1.109375 4.453125 1.890625 C 3.640625 2.671875 2.4375 3.15625 0.84375 3.34375 Z M 2.078125 -2.015625 C 2.078125 -1.710938 2.171875 -1.472656 2.359375 -1.296875 C 2.554688 -1.117188 2.894531 -1.03125 3.375 -1.03125 C 3.78125 -1.03125 4.175781 -1.085938 4.5625 -1.203125 C 4.5625 -1.265625 4.5625 -1.332031 4.5625 -1.40625 C 4.5625 -1.800781 4.503906 -2.175781 4.390625 -2.53125 C 4.285156 -2.882812 4.132812 -3.164062 3.9375 -3.375 C 3.75 -3.59375 3.519531 -3.703125 3.25 -3.703125 C 3.019531 -3.703125 2.816406 -3.613281 2.640625 -3.4375 C 2.460938 -3.269531 2.320312 -3.054688 2.21875 -2.796875 C 2.125 -2.535156 2.078125 -2.273438 2.078125 -2.015625 Z M 2.078125 -2.015625 "/></g></g></g><g fill="#bd9e20" fill-opacity="1"><g transform="translate(246.39888, 281.668078)"><g/></g></g><g fill="#bd9e20" fill-opacity="1"><g transform="translate(249.993322, 281.668078)"><g><path d="M 4.21875 0.078125 C 3.4375 0.078125 2.84375 -0.0078125 2.4375 -0.1875 C 2.03125 -0.363281 1.75 -0.632812 1.59375 -1 C 1.4375 -1.363281 1.347656 -1.835938 1.328125 -2.421875 L 1.046875 -10.359375 L 2.234375 -10.359375 L 2.53125 -2.890625 C 2.550781 -2.410156 2.59375 -2.039062 2.65625 -1.78125 C 2.726562 -1.53125 2.894531 -1.359375 3.15625 -1.265625 C 3.414062 -1.171875 3.820312 -1.125 4.375 -1.125 C 4.570312 -1.125 4.71875 -1.066406 4.8125 -0.953125 C 4.90625 -0.835938 4.953125 -0.703125 4.953125 -0.546875 C 4.953125 -0.390625 4.882812 -0.242188 4.75 -0.109375 C 4.613281 0.015625 4.4375 0.078125 4.21875 0.078125 Z M 4.21875 0.078125 "/></g></g></g><g fill="#bd9e20" fill-opacity="1"><g transform="translate(254.218503, 281.668078)"><g><path d="M 0 0.078125 L 0.140625 -1.125 C 0.609375 -1.125 0.984375 -1.148438 1.265625 -1.203125 C 1.554688 -1.265625 1.765625 -1.382812 1.890625 -1.5625 C 2.015625 -1.738281 2.078125 -2.003906 2.078125 -2.359375 C 2.078125 -2.722656 1.988281 -3.1875 1.8125 -3.75 C 1.644531 -4.3125 1.457031 -4.867188 1.25 -5.421875 L 2.421875 -5.84375 C 2.546875 -5.53125 2.664062 -5.175781 2.78125 -4.78125 C 2.894531 -4.382812 2.988281 -3.992188 3.0625 -3.609375 C 3.132812 -3.222656 3.171875 -2.882812 3.171875 -2.59375 C 3.171875 -1.613281 2.910156 -0.921875 2.390625 -0.515625 C 1.878906 -0.117188 1.082031 0.078125 0 0.078125 Z M 1.859375 -7.359375 C 1.648438 -7.359375 1.472656 -7.425781 1.328125 -7.5625 C 1.191406 -7.707031 1.125 -7.875 1.125 -8.0625 C 1.125 -8.257812 1.191406 -8.429688 1.328125 -8.578125 C 1.472656 -8.722656 1.648438 -8.796875 1.859375 -8.796875 C 2.046875 -8.796875 2.207031 -8.722656 2.34375 -8.578125 C 2.488281 -8.429688 2.5625 -8.257812 2.5625 -8.0625 C 2.5625 -7.875 2.488281 -7.707031 2.34375 -7.5625 C 2.207031 -7.425781 2.046875 -7.359375 1.859375 -7.359375 Z M 1.859375 -7.359375 "/></g></g></g><g fill="#bd9e20" fill-opacity="1"><g transform="translate(258.124257, 281.668078)"><g><path d="M 5.703125 -7.78125 C 5.703125 -7.988281 5.6875 -8.242188 5.65625 -8.546875 C 5.632812 -8.847656 5.601562 -9.148438 5.5625 -9.453125 C 5.519531 -9.753906 5.476562 -10.007812 5.4375 -10.21875 L 6.6875 -10.359375 C 6.71875 -10.171875 6.75 -9.914062 6.78125 -9.59375 C 6.8125 -9.28125 6.835938 -8.96875 6.859375 -8.65625 C 6.878906 -8.34375 6.890625 -8.085938 6.890625 -7.890625 C 6.890625 -7.285156 6.832031 -6.691406 6.71875 -6.109375 C 6.613281 -5.535156 6.4375 -4.976562 6.1875 -4.4375 C 6.632812 -3.96875 6.960938 -3.535156 7.171875 -3.140625 C 7.390625 -2.742188 7.5 -2.347656 7.5 -1.953125 C 7.5 -1.671875 7.429688 -1.378906 7.296875 -1.078125 C 7.160156 -0.773438 6.914062 -0.519531 6.5625 -0.3125 C 6.207031 -0.101562 5.691406 0 5.015625 0 L 1.671875 0 L 1.671875 -1.171875 C 3.117188 -2.210938 4.15625 -3.242188 4.78125 -4.265625 C 4.238281 -4.753906 3.597656 -5.269531 2.859375 -5.8125 C 2.128906 -6.363281 1.367188 -6.925781 0.578125 -7.5 L 1.265625 -8.46875 C 2.128906 -7.820312 2.894531 -7.238281 3.5625 -6.71875 C 4.226562 -6.207031 4.800781 -5.734375 5.28125 -5.296875 C 5.425781 -5.679688 5.53125 -6.078125 5.59375 -6.484375 C 5.664062 -6.898438 5.703125 -7.332031 5.703125 -7.78125 Z M 3.390625 -1.1875 L 5.21875 -1.1875 C 5.71875 -1.1875 6.046875 -1.273438 6.203125 -1.453125 C 6.359375 -1.640625 6.4375 -1.847656 6.4375 -2.078125 C 6.4375 -2.253906 6.363281 -2.457031 6.21875 -2.6875 C 6.082031 -2.914062 5.882812 -3.164062 5.625 -3.4375 C 5.351562 -3.03125 5.03125 -2.640625 4.65625 -2.265625 C 4.289062 -1.890625 3.867188 -1.53125 3.390625 -1.1875 Z M 3.390625 -1.1875 "/></g></g></g><g fill="#bd9e20" fill-opacity="1"><g transform="translate(266.574608, 281.668078)"><g><path d="M 0.84375 3.34375 L 0.578125 2.140625 C 1.179688 2.066406 1.726562 1.953125 2.21875 1.796875 C 2.71875 1.648438 3.144531 1.441406 3.5 1.171875 C 3.863281 0.898438 4.132812 0.535156 4.3125 0.078125 L 3.375 0.078125 C 2.945312 0.078125 2.546875 0.015625 2.171875 -0.109375 C 1.796875 -0.234375 1.492188 -0.429688 1.265625 -0.703125 C 1.035156 -0.972656 0.921875 -1.320312 0.921875 -1.75 C 0.921875 -2.289062 1.023438 -2.796875 1.234375 -3.265625 C 1.453125 -3.742188 1.742188 -4.132812 2.109375 -4.4375 C 2.484375 -4.738281 2.90625 -4.890625 3.375 -4.890625 C 4.039062 -4.890625 4.59375 -4.597656 5.03125 -4.015625 C 5.46875 -3.429688 5.6875 -2.535156 5.6875 -1.328125 C 5.6875 -1.253906 5.6875 -1.1875 5.6875 -1.125 L 7 -1.125 C 7.195312 -1.125 7.34375 -1.066406 7.4375 -0.953125 C 7.53125 -0.835938 7.578125 -0.703125 7.578125 -0.546875 C 7.578125 -0.390625 7.507812 -0.242188 7.375 -0.109375 C 7.238281 0.015625 7.0625 0.078125 6.84375 0.078125 L 5.515625 0.078125 C 5.023438 1.953125 3.46875 3.039062 0.84375 3.34375 Z M 3.9375 -1.125 L 4.546875 -1.125 C 4.554688 -1.21875 4.5625 -1.3125 4.5625 -1.40625 C 4.5625 -2.0625 4.4375 -2.609375 4.1875 -3.046875 C 3.945312 -3.484375 3.632812 -3.703125 3.25 -3.703125 C 3.050781 -3.703125 2.859375 -3.625 2.671875 -3.46875 C 2.492188 -3.3125 2.351562 -3.101562 2.25 -2.84375 C 2.144531 -2.582031 2.09375 -2.296875 2.09375 -1.984375 C 2.09375 -1.648438 2.242188 -1.421875 2.546875 -1.296875 C 2.847656 -1.179688 3.3125 -1.125 3.9375 -1.125 Z M 3.9375 -1.125 "/></g></g></g><g fill="#bd9e20" fill-opacity="1"><g transform="translate(273.427822, 281.668078)"><g><path d="M 0 0.078125 L 0.140625 -1.125 C 0.410156 -1.125 0.640625 -1.179688 0.828125 -1.296875 C 1.015625 -1.410156 1.191406 -1.597656 1.359375 -1.859375 C 1.535156 -2.128906 1.726562 -2.5 1.9375 -2.96875 C 2.207031 -3.582031 2.476562 -4.046875 2.75 -4.359375 C 3.03125 -4.679688 3.304688 -4.898438 3.578125 -5.015625 C 3.859375 -5.140625 4.132812 -5.203125 4.40625 -5.203125 C 4.738281 -5.203125 5.046875 -5.113281 5.328125 -4.9375 C 5.609375 -4.769531 5.851562 -4.546875 6.0625 -4.265625 C 6.28125 -3.984375 6.445312 -3.675781 6.5625 -3.34375 C 6.6875 -3.007812 6.75 -2.675781 6.75 -2.34375 C 6.75 -1.769531 6.644531 -1.3125 6.4375 -0.96875 C 6.238281 -0.625 5.984375 -0.375 5.671875 -0.21875 C 5.359375 -0.0703125 5.03125 0 4.6875 0 C 4.40625 0 4.046875 -0.046875 3.609375 -0.140625 C 3.179688 -0.242188 2.644531 -0.5 2 -0.90625 C 1.6875 -0.457031 1.375 -0.179688 1.0625 -0.078125 C 0.757812 0.0234375 0.40625 0.078125 0 0.078125 Z M 2.71875 -2.1875 C 2.65625 -2.0625 2.601562 -1.941406 2.5625 -1.828125 C 2.96875 -1.585938 3.34375 -1.421875 3.6875 -1.328125 C 4.03125 -1.234375 4.320312 -1.1875 4.5625 -1.1875 C 4.976562 -1.1875 5.269531 -1.273438 5.4375 -1.453125 C 5.613281 -1.640625 5.703125 -1.882812 5.703125 -2.1875 C 5.703125 -2.46875 5.632812 -2.75 5.5 -3.03125 C 5.363281 -3.3125 5.191406 -3.539062 4.984375 -3.71875 C 4.773438 -3.90625 4.554688 -4 4.328125 -4 C 4.148438 -4 3.976562 -3.953125 3.8125 -3.859375 C 3.65625 -3.765625 3.488281 -3.585938 3.3125 -3.328125 C 3.132812 -3.066406 2.9375 -2.6875 2.71875 -2.1875 Z M 2.71875 -2.1875 "/></g></g></g><g fill="#bd9e20" fill-opacity="1"><g transform="translate(281.050572, 281.668078)"><g/></g></g><g fill="#bd9e20" fill-opacity="1"><g transform="translate(284.645007, 281.668078)"><g><path d="M 0.515625 -0.65625 L 1.09375 -1.65625 C 1.28125 -1.519531 1.546875 -1.394531 1.890625 -1.28125 C 2.242188 -1.175781 2.65625 -1.125 3.125 -1.125 C 3.832031 -1.125 4.335938 -1.226562 4.640625 -1.4375 C 4.941406 -1.65625 5.09375 -1.957031 5.09375 -2.34375 C 5.09375 -2.539062 5.050781 -2.78125 4.96875 -3.0625 C 4.882812 -3.351562 4.707031 -3.742188 4.4375 -4.234375 C 4.164062 -4.722656 3.75 -5.363281 3.1875 -6.15625 L 4.1875 -6.8125 C 4.957031 -5.75 5.492188 -4.84375 5.796875 -4.09375 C 6.109375 -3.34375 6.265625 -2.738281 6.265625 -2.28125 C 6.265625 -1.882812 6.164062 -1.503906 5.96875 -1.140625 C 5.78125 -0.785156 5.457031 -0.488281 5 -0.25 C 4.550781 -0.0195312 3.925781 0.09375 3.125 0.09375 C 2.59375 0.09375 2.097656 0.0234375 1.640625 -0.109375 C 1.179688 -0.242188 0.804688 -0.425781 0.515625 -0.65625 Z M 0.515625 -0.65625 "/></g></g></g></svg>