<svg xmlns="http://www.w3.org/2000/svg" xmlns:xlink="http://www.w3.org/1999/xlink" width="500" zoomAndPan="magnify" viewBox="0 0 375 374.999991" height="500" preserveAspectRatio="xMidYMid meet" version="1.0"><defs><g/><clipPath id="e66b2cfe2b"><path d="M 128.296875 89.523438 L 246.746094 89.523438 L 246.746094 211.773438 L 128.296875 211.773438 Z M 128.296875 89.523438 " clip-rule="nonzero"/></clipPath></defs><g clip-path="url(#e66b2cfe2b)"><path fill="#bd9e20" d="M 228.527344 158.558594 L 220.359375 158.558594 C 220.800781 158.558594 221.164062 158.921875 221.164062 159.363281 L 221.164062 194.691406 C 219.582031 195.375 217.957031 195.984375 216.296875 196.511719 L 216.296875 149.421875 C 216.296875 148.257812 217.25 147.304688 218.414062 147.304688 L 175.554688 147.304688 C 176.71875 147.304688 177.671875 148.257812 177.671875 149.421875 L 177.671875 194.15625 C 176 193.386719 174.378906 192.53125 172.804688 191.601562 L 172.804688 159.363281 C 172.804688 158.921875 173.167969 158.558594 173.609375 158.558594 L 157.273438 158.558594 C 157.71875 158.558594 158.082031 158.921875 158.082031 159.363281 L 158.082031 178.75 C 150.835938 169.617188 146.503906 158.058594 146.503906 145.492188 C 146.503906 115.921875 170.464844 91.949219 200.019531 91.949219 C 202.964844 91.949219 205.851562 92.191406 208.667969 92.648438 C 202.59375 90.621094 196.09375 89.523438 189.339844 89.523438 C 155.601562 89.523438 128.25 116.890625 128.25 150.648438 C 128.25 184.40625 155.601562 211.773438 189.339844 211.773438 C 215.71875 211.773438 238.195312 195.042969 246.742188 171.609375 C 243.882812 176.722656 240.207031 181.320312 235.890625 185.222656 L 235.890625 159.363281 C 235.890625 158.921875 236.253906 158.558594 236.695312 158.558594 Z M 223.960938 193.386719 L 223.960938 162.277344 C 223.960938 161.519531 224.582031 160.898438 225.339844 160.898438 C 226.097656 160.898438 226.714844 161.519531 226.714844 162.277344 L 226.714844 191.90625 C 225.8125 192.425781 224.894531 192.917969 223.960938 193.386719 Z M 230.339844 189.617188 L 230.339844 162.277344 C 230.339844 161.519531 230.957031 160.898438 231.714844 160.898438 C 232.472656 160.898438 233.09375 161.519531 233.09375 162.277344 L 233.09375 187.585938 C 232.195312 188.289062 231.277344 188.96875 230.339844 189.617188 Z M 160.878906 182 C 161.761719 182.949219 162.679688 183.867188 163.632812 184.75 L 163.632812 162.277344 C 163.632812 161.519531 163.011719 160.898438 162.253906 160.898438 C 161.496094 160.898438 160.878906 161.519531 160.878906 162.277344 Z M 167.253906 187.828125 C 168.152344 188.523438 169.066406 189.191406 170.007812 189.828125 L 170.007812 162.277344 C 170.007812 161.519531 169.386719 160.898438 168.632812 160.898438 C 167.875 160.898438 167.253906 161.519531 167.253906 162.277344 Z M 183.175781 196.328125 C 184.933594 196.910156 186.726562 197.402344 188.558594 197.800781 L 188.558594 154.046875 C 188.558594 152.566406 187.347656 151.355469 185.867188 151.355469 C 184.386719 151.355469 183.175781 152.566406 183.175781 154.046875 Z M 194.296875 198.730469 C 196.0625 198.921875 197.859375 199.019531 199.675781 199.03125 L 199.675781 154.046875 C 199.675781 152.566406 198.464844 151.355469 196.984375 151.355469 C 195.503906 151.355469 194.296875 152.566406 194.296875 154.046875 Z M 205.414062 198.765625 C 207.234375 198.585938 209.03125 198.308594 210.792969 197.949219 L 210.792969 154.046875 C 210.792969 152.566406 209.582031 151.355469 208.101562 151.355469 C 206.625 151.355469 205.414062 152.566406 205.414062 154.046875 Z M 196.984375 112.335938 C 196.984375 112.335938 196.894531 119.332031 203.054688 123.378906 C 209.21875 127.429688 223.382812 130.28125 216.851562 144.453125 L 177.117188 144.453125 C 170.589844 130.28125 184.753906 127.429688 190.914062 123.378906 C 196.808594 119.507812 196.980469 112.941406 196.984375 112.375 Z M 165.441406 145.226562 C 165.441406 145.226562 165.476562 147.894531 163.128906 149.4375 C 160.78125 150.980469 155.382812 152.070312 157.871094 157.46875 L 173.015625 157.46875 C 175.503906 152.070312 170.105469 150.980469 167.757812 149.4375 C 165.511719 147.960938 165.445312 145.457031 165.441406 145.242188 Z M 228.527344 145.226562 C 228.527344 145.226562 228.492188 147.894531 230.839844 149.4375 C 233.191406 150.980469 238.589844 152.070312 236.097656 157.46875 L 220.953125 157.46875 C 218.464844 152.070312 223.863281 150.980469 226.214844 149.4375 C 228.460938 147.960938 228.527344 145.457031 228.527344 145.242188 Z M 228.527344 145.226562 " fill-opacity="1" fill-rule="evenodd"/></g><g fill="#ffffff" fill-opacity="1"><g transform="translate(90.806435, 237.981606)"><g><path d="M 11.265625 0.609375 C 7.835938 0.609375 5.242188 0.160156 3.484375 -0.734375 C 1.734375 -1.628906 0.859375 -3.140625 0.859375 -5.265625 C 0.859375 -5.972656 0.945312 -6.722656 1.125 -7.515625 C 1.300781 -8.316406 1.484375 -9.078125 1.671875 -9.796875 L 3.84375 -9.25 C 3.726562 -8.820312 3.597656 -8.28125 3.453125 -7.625 C 3.304688 -6.96875 3.234375 -6.398438 3.234375 -5.921875 C 3.234375 -4.921875 3.488281 -4.113281 4 -3.5 C 4.507812 -2.894531 5.398438 -2.453125 6.671875 -2.171875 C 7.941406 -1.898438 9.722656 -1.765625 12.015625 -1.765625 C 13.191406 -1.765625 14.429688 -1.835938 15.734375 -1.984375 C 17.046875 -2.128906 18.351562 -2.390625 19.65625 -2.765625 C 20.957031 -3.140625 22.195312 -3.648438 23.375 -4.296875 C 24.550781 -4.941406 25.582031 -5.773438 26.46875 -6.796875 L 28.28125 -5.71875 C 28.113281 -5.28125 28 -4.929688 27.9375 -4.671875 C 27.875 -4.410156 27.84375 -4.171875 27.84375 -3.953125 C 27.84375 -3.671875 27.945312 -3.394531 28.15625 -3.125 C 28.375 -2.851562 28.769531 -2.632812 29.34375 -2.46875 C 29.925781 -2.300781 30.765625 -2.21875 31.859375 -2.21875 C 32.265625 -2.21875 32.554688 -2.109375 32.734375 -1.890625 C 32.921875 -1.671875 33.015625 -1.40625 33.015625 -1.09375 C 33.015625 -0.789062 32.878906 -0.507812 32.609375 -0.25 C 32.347656 0.0078125 32.003906 0.140625 31.578125 0.140625 C 29.878906 0.140625 28.484375 -0.109375 27.390625 -0.609375 C 26.304688 -1.109375 25.753906 -1.925781 25.734375 -3.0625 C 24.140625 -1.832031 22.070312 -0.910156 19.53125 -0.296875 C 16.988281 0.304688 14.234375 0.609375 11.265625 0.609375 Z M 16.125 -11.59375 C 15.71875 -11.59375 15.375 -11.726562 15.09375 -12 C 14.8125 -12.28125 14.671875 -12.613281 14.671875 -13 C 14.671875 -13.382812 14.8125 -13.722656 15.09375 -14.015625 C 15.375 -14.304688 15.71875 -14.453125 16.125 -14.453125 C 16.507812 -14.453125 16.835938 -14.304688 17.109375 -14.015625 C 17.390625 -13.722656 17.53125 -13.382812 17.53125 -13 C 17.53125 -12.613281 17.390625 -12.28125 17.109375 -12 C 16.835938 -11.726562 16.507812 -11.59375 16.125 -11.59375 Z M 12.171875 -11.59375 C 11.765625 -11.59375 11.421875 -11.726562 11.140625 -12 C 10.859375 -12.28125 10.71875 -12.613281 10.71875 -13 C 10.71875 -13.382812 10.859375 -13.722656 11.140625 -14.015625 C 11.421875 -14.304688 11.765625 -14.453125 12.171875 -14.453125 C 12.554688 -14.453125 12.882812 -14.304688 13.15625 -14.015625 C 13.4375 -13.722656 13.578125 -13.382812 13.578125 -13 C 13.578125 -12.613281 13.4375 -12.28125 13.15625 -12 C 12.882812 -11.726562 12.554688 -11.59375 12.171875 -11.59375 Z M 12.171875 -11.59375 "/></g></g></g><g fill="#ffffff" fill-opacity="1"><g transform="translate(122.379572, 237.981606)"><g><path d="M 0 0.140625 L 0.28125 -2.21875 C 1.25 -2.21875 2 -2.289062 2.53125 -2.4375 C 3.070312 -2.582031 3.484375 -2.863281 3.765625 -3.28125 C 4.046875 -3.695312 4.269531 -4.296875 4.4375 -5.078125 C 4.613281 -5.867188 4.828125 -6.898438 5.078125 -8.171875 L 7.34375 -7.75 C 7.226562 -7.226562 7.097656 -6.628906 6.953125 -5.953125 C 6.804688 -5.273438 6.734375 -4.707031 6.734375 -4.25 C 6.734375 -3.957031 6.75 -3.6875 6.78125 -3.4375 C 6.820312 -3.1875 6.96875 -2.972656 7.21875 -2.796875 C 7.46875 -2.628906 7.890625 -2.488281 8.484375 -2.375 C 9.085938 -2.269531 9.945312 -2.21875 11.0625 -2.21875 C 11.46875 -2.21875 11.757812 -2.109375 11.9375 -1.890625 C 12.125 -1.671875 12.21875 -1.40625 12.21875 -1.09375 C 12.21875 -0.789062 12.082031 -0.507812 11.8125 -0.25 C 11.539062 0.0078125 11.195312 0.140625 10.78125 0.140625 C 9.519531 0.140625 8.539062 0.0703125 7.84375 -0.0625 C 7.144531 -0.207031 6.625 -0.421875 6.28125 -0.703125 C 5.945312 -0.984375 5.703125 -1.335938 5.546875 -1.765625 C 4.984375 -0.972656 4.289062 -0.457031 3.46875 -0.21875 C 2.65625 0.0195312 1.5 0.140625 0 0.140625 Z M 7.28125 5.59375 C 6.875 5.59375 6.53125 5.453125 6.25 5.171875 C 5.96875 4.898438 5.828125 4.570312 5.828125 4.1875 C 5.828125 3.800781 5.96875 3.460938 6.25 3.171875 C 6.53125 2.878906 6.875 2.734375 7.28125 2.734375 C 7.664062 2.734375 7.992188 2.878906 8.265625 3.171875 C 8.546875 3.460938 8.6875 3.800781 8.6875 4.1875 C 8.6875 4.570312 8.546875 4.898438 8.265625 5.171875 C 7.992188 5.453125 7.664062 5.59375 7.28125 5.59375 Z M 3.328125 5.59375 C 2.921875 5.59375 2.578125 5.453125 2.296875 5.171875 C 2.015625 4.898438 1.875 4.570312 1.875 4.1875 C 1.875 3.800781 2.015625 3.460938 2.296875 3.171875 C 2.578125 2.878906 2.921875 2.734375 3.328125 2.734375 C 3.710938 2.734375 4.039062 2.878906 4.3125 3.171875 C 4.59375 3.460938 4.734375 3.800781 4.734375 4.1875 C 4.734375 4.570312 4.59375 4.898438 4.3125 5.171875 C 4.039062 5.453125 3.710938 5.59375 3.328125 5.59375 Z M 3.328125 5.59375 "/></g></g></g><g fill="#ffffff" fill-opacity="1"><g transform="translate(133.154299, 237.981606)"><g><path d="M 0 0.140625 L 0.28125 -2.21875 C 1.207031 -2.21875 1.953125 -2.273438 2.515625 -2.390625 C 3.085938 -2.515625 3.5 -2.753906 3.75 -3.109375 C 4 -3.460938 4.125 -3.992188 4.125 -4.703125 C 4.125 -5.421875 3.957031 -6.335938 3.625 -7.453125 C 3.289062 -8.566406 2.910156 -9.675781 2.484375 -10.78125 L 4.828125 -11.640625 C 5.078125 -11.003906 5.3125 -10.296875 5.53125 -9.515625 C 5.75 -8.734375 5.9375 -7.957031 6.09375 -7.1875 C 6.25 -6.414062 6.328125 -5.742188 6.328125 -5.171875 C 6.328125 -3.222656 5.8125 -1.847656 4.78125 -1.046875 C 3.75 -0.253906 2.15625 0.140625 0 0.140625 Z M 3.703125 -14.65625 C 3.296875 -14.65625 2.953125 -14.789062 2.671875 -15.0625 C 2.390625 -15.34375 2.25 -15.675781 2.25 -16.0625 C 2.25 -16.445312 2.390625 -16.785156 2.671875 -17.078125 C 2.953125 -17.367188 3.296875 -17.515625 3.703125 -17.515625 C 4.085938 -17.515625 4.414062 -17.367188 4.6875 -17.078125 C 4.96875 -16.785156 5.109375 -16.445312 5.109375 -16.0625 C 5.109375 -15.675781 4.96875 -15.34375 4.6875 -15.0625 C 4.414062 -14.789062 4.085938 -14.65625 3.703125 -14.65625 Z M 3.703125 -14.65625 "/></g></g></g><g fill="#ffffff" fill-opacity="1"><g transform="translate(140.924814, 237.981606)"><g><path d="M 8.40625 0.140625 C 6.84375 0.140625 5.65625 -0.03125 4.84375 -0.375 C 4.039062 -0.71875 3.484375 -1.253906 3.171875 -1.984375 C 2.867188 -2.722656 2.695312 -3.671875 2.65625 -4.828125 L 2.078125 -20.625 L 4.453125 -20.625 L 5.03125 -5.75 C 5.0625 -4.800781 5.148438 -4.070312 5.296875 -3.5625 C 5.441406 -3.050781 5.769531 -2.695312 6.28125 -2.5 C 6.789062 -2.3125 7.597656 -2.21875 8.703125 -2.21875 C 9.097656 -2.21875 9.390625 -2.109375 9.578125 -1.890625 C 9.765625 -1.671875 9.859375 -1.40625 9.859375 -1.09375 C 9.859375 -0.789062 9.722656 -0.507812 9.453125 -0.25 C 9.179688 0.0078125 8.832031 0.140625 8.40625 0.140625 Z M 8.40625 0.140625 "/></g></g></g><g fill="#ffffff" fill-opacity="1"><g transform="translate(149.33083, 237.981606)"><g><path d="M 0 0.140625 L 0.265625 -2.21875 C 2.242188 -2.21875 4.164062 -2.507812 6.03125 -3.09375 C 7.90625 -3.6875 9.613281 -4.523438 11.15625 -5.609375 C 10.40625 -6.265625 9.484375 -6.789062 8.390625 -7.1875 C 7.304688 -7.59375 6.109375 -7.796875 4.796875 -7.796875 C 4.316406 -7.796875 3.890625 -7.769531 3.515625 -7.71875 C 3.148438 -7.675781 2.710938 -7.597656 2.203125 -7.484375 L 1.734375 -9.671875 C 2.804688 -10.003906 3.828125 -10.171875 4.796875 -10.171875 C 5.796875 -10.171875 6.695312 -10.050781 7.5 -9.8125 C 8.3125 -9.570312 9.050781 -9.273438 9.71875 -8.921875 C 10.382812 -8.578125 11.007812 -8.226562 11.59375 -7.875 C 12.1875 -7.53125 12.757812 -7.238281 13.3125 -7 C 13.875 -6.757812 14.453125 -6.640625 15.046875 -6.640625 L 15.65625 -6.640625 L 15.859375 -4.5625 C 14.878906 -4.5625 13.984375 -4.398438 13.171875 -4.078125 C 12.359375 -3.765625 11.539062 -3.375 10.71875 -2.90625 C 9.90625 -2.4375 9.015625 -1.96875 8.046875 -1.5 C 7.078125 -1.039062 5.945312 -0.648438 4.65625 -0.328125 C 3.363281 -0.015625 1.8125 0.140625 0 0.140625 Z M 0 0.140625 "/></g></g></g><g fill="#ffffff" fill-opacity="1"><g transform="translate(166.345081, 237.981606)"><g><path d="M 1.671875 6.640625 L 1.15625 4.28125 C 2.382812 4.125 3.5 3.890625 4.5 3.578125 C 5.507812 3.273438 6.367188 2.832031 7.078125 2.25 C 7.785156 1.675781 8.316406 0.90625 8.671875 -0.0625 C 8.316406 0.0390625 7.945312 0.113281 7.5625 0.15625 C 7.175781 0.207031 6.800781 0.234375 6.4375 0.234375 C 4.957031 0.234375 3.820312 -0.0625 3.03125 -0.65625 C 2.238281 -1.257812 1.84375 -2.1875 1.84375 -3.4375 C 1.84375 -4.164062 1.957031 -4.898438 2.1875 -5.640625 C 2.425781 -6.390625 2.753906 -7.070312 3.171875 -7.6875 C 3.597656 -8.300781 4.109375 -8.796875 4.703125 -9.171875 C 5.304688 -9.546875 5.972656 -9.734375 6.703125 -9.734375 C 7.742188 -9.734375 8.601562 -9.390625 9.28125 -8.703125 C 9.96875 -8.023438 10.476562 -7.144531 10.8125 -6.0625 C 11.15625 -4.988281 11.328125 -3.84375 11.328125 -2.625 C 11.328125 0.0703125 10.507812 2.195312 8.875 3.75 C 7.25 5.3125 4.847656 6.273438 1.671875 6.640625 Z M 4.125 -4.015625 C 4.125 -3.421875 4.316406 -2.941406 4.703125 -2.578125 C 5.085938 -2.222656 5.753906 -2.046875 6.703125 -2.046875 C 7.523438 -2.046875 8.316406 -2.160156 9.078125 -2.390625 C 9.078125 -2.515625 9.078125 -2.648438 9.078125 -2.796875 C 9.078125 -3.585938 8.96875 -4.332031 8.75 -5.03125 C 8.539062 -5.738281 8.242188 -6.300781 7.859375 -6.71875 C 7.472656 -7.144531 7.007812 -7.359375 6.46875 -7.359375 C 6.007812 -7.359375 5.601562 -7.191406 5.25 -6.859375 C 4.90625 -6.523438 4.628906 -6.097656 4.421875 -5.578125 C 4.222656 -5.054688 4.125 -4.535156 4.125 -4.015625 Z M 4.125 -4.015625 "/></g></g></g><g fill="#ffffff" fill-opacity="1"><g transform="translate(179.257426, 237.981606)"><g><path d="M 0.109375 6.640625 L -0.71875 4.453125 C 1.226562 3.835938 2.722656 3.101562 3.765625 2.25 C 4.816406 1.40625 5.539062 0.519531 5.9375 -0.40625 C 6.332031 -1.34375 6.53125 -2.238281 6.53125 -3.09375 C 6.53125 -3.632812 6.472656 -4.15625 6.359375 -4.65625 C 6.242188 -5.15625 6.039062 -5.722656 5.75 -6.359375 C 5.457031 -6.992188 5.050781 -7.78125 4.53125 -8.71875 L 6.640625 -9.796875 C 7.378906 -8.546875 7.90625 -7.359375 8.21875 -6.234375 C 8.539062 -5.117188 8.703125 -4.140625 8.703125 -3.296875 C 8.703125 -2.078125 8.503906 -0.976562 8.109375 0 C 7.710938 0.976562 7.191406 1.847656 6.546875 2.609375 C 5.898438 3.367188 5.195312 4.019531 4.4375 4.5625 C 3.675781 5.101562 2.914062 5.546875 2.15625 5.890625 C 1.394531 6.234375 0.710938 6.484375 0.109375 6.640625 Z M 0.109375 6.640625 "/></g></g></g><g fill="#ffffff" fill-opacity="1"><g transform="translate(189.858831, 237.981606)"><g/></g></g><g fill="#ffffff" fill-opacity="1"><g transform="translate(198.524835, 237.981606)"><g><path d="M 1.671875 6.640625 L 1.15625 4.28125 C 2.382812 4.125 3.5 3.890625 4.5 3.578125 C 5.507812 3.273438 6.367188 2.832031 7.078125 2.25 C 7.785156 1.675781 8.316406 0.90625 8.671875 -0.0625 C 8.316406 0.0390625 7.945312 0.113281 7.5625 0.15625 C 7.175781 0.207031 6.800781 0.234375 6.4375 0.234375 C 4.957031 0.234375 3.820312 -0.0625 3.03125 -0.65625 C 2.238281 -1.257812 1.84375 -2.1875 1.84375 -3.4375 C 1.84375 -4.164062 1.957031 -4.898438 2.1875 -5.640625 C 2.425781 -6.390625 2.753906 -7.070312 3.171875 -7.6875 C 3.597656 -8.300781 4.109375 -8.796875 4.703125 -9.171875 C 5.304688 -9.546875 5.972656 -9.734375 6.703125 -9.734375 C 7.742188 -9.734375 8.601562 -9.390625 9.28125 -8.703125 C 9.96875 -8.023438 10.476562 -7.144531 10.8125 -6.0625 C 11.15625 -4.988281 11.328125 -3.84375 11.328125 -2.625 C 11.328125 0.0703125 10.507812 2.195312 8.875 3.75 C 7.25 5.3125 4.847656 6.273438 1.671875 6.640625 Z M 4.125 -4.015625 C 4.125 -3.421875 4.316406 -2.941406 4.703125 -2.578125 C 5.085938 -2.222656 5.753906 -2.046875 6.703125 -2.046875 C 7.523438 -2.046875 8.316406 -2.160156 9.078125 -2.390625 C 9.078125 -2.515625 9.078125 -2.648438 9.078125 -2.796875 C 9.078125 -3.585938 8.96875 -4.332031 8.75 -5.03125 C 8.539062 -5.738281 8.242188 -6.300781 7.859375 -6.71875 C 7.472656 -7.144531 7.007812 -7.359375 6.46875 -7.359375 C 6.007812 -7.359375 5.601562 -7.191406 5.25 -6.859375 C 4.90625 -6.523438 4.628906 -6.097656 4.421875 -5.578125 C 4.222656 -5.054688 4.125 -4.535156 4.125 -4.015625 Z M 4.125 -4.015625 "/></g></g></g><g fill="#ffffff" fill-opacity="1"><g transform="translate(211.43718, 237.981606)"><g><path d="M 2.65625 0 L 2.078125 -20.625 L 4.421875 -20.625 L 5 0 Z M 2.65625 0 "/></g></g></g><g fill="#ffffff" fill-opacity="1"><g transform="translate(218.312209, 237.981606)"><g/></g></g><g fill="#ffffff" fill-opacity="1"><g transform="translate(226.978211, 237.981606)"><g><path d="M 14.046875 0.140625 C 12.785156 0.140625 11.707031 -0.0664062 10.8125 -0.484375 C 9.914062 -0.910156 9.285156 -1.691406 8.921875 -2.828125 C 7.878906 -2.578125 6.878906 -2.472656 5.921875 -2.515625 C 4.972656 -2.566406 4.113281 -2.75 3.34375 -3.0625 C 2.582031 -3.382812 1.976562 -3.832031 1.53125 -4.40625 C 1.082031 -4.976562 0.859375 -5.65625 0.859375 -6.4375 C 0.859375 -7.476562 1.1875 -8.425781 1.84375 -9.28125 C 2.5 -10.144531 3.382812 -10.875 4.5 -11.46875 C 5.625 -12.0625 6.859375 -12.476562 8.203125 -12.71875 L 8.125 -14.90625 L 10.453125 -14.90625 L 10.921875 -5.375 C 10.960938 -4.46875 11.117188 -3.785156 11.390625 -3.328125 C 11.671875 -2.878906 12.054688 -2.582031 12.546875 -2.4375 C 13.046875 -2.289062 13.640625 -2.21875 14.328125 -2.21875 C 14.734375 -2.21875 15.023438 -2.109375 15.203125 -1.890625 C 15.390625 -1.671875 15.484375 -1.40625 15.484375 -1.09375 C 15.484375 -0.789062 15.347656 -0.507812 15.078125 -0.25 C 14.804688 0.0078125 14.460938 0.140625 14.046875 0.140625 Z M 3.15625 -6.8125 C 3.15625 -6.375 3.332031 -6.007812 3.6875 -5.71875 C 4.039062 -5.425781 4.492188 -5.210938 5.046875 -5.078125 C 5.609375 -4.941406 6.203125 -4.875 6.828125 -4.875 C 7.453125 -4.875 8.035156 -4.925781 8.578125 -5.03125 L 8.328125 -10.3125 C 7.222656 -10.195312 6.285156 -9.953125 5.515625 -9.578125 C 4.742188 -9.203125 4.15625 -8.769531 3.75 -8.28125 C 3.351562 -7.789062 3.15625 -7.300781 3.15625 -6.8125 Z M 3.15625 -6.8125 "/></g></g></g><g fill="#ffffff" fill-opacity="1"><g transform="translate(241.017136, 237.981606)"><g><path d="M 0 0.140625 L 0.265625 -2.21875 C 1.359375 -2.21875 2.125 -2.320312 2.5625 -2.53125 C 3.007812 -2.75 3.265625 -3.125 3.328125 -3.65625 C 3.398438 -4.1875 3.414062 -4.941406 3.375 -5.921875 L 2.828125 -20.625 L 5.171875 -20.625 L 5.75 -6.1875 C 5.800781 -4.8125 5.707031 -3.648438 5.46875 -2.703125 C 5.226562 -1.765625 4.6875 -1.054688 3.84375 -0.578125 C 3.007812 -0.0976562 1.726562 0.140625 0 0.140625 Z M 0 0.140625 "/></g></g></g><g fill="#ffffff" fill-opacity="1"><g transform="translate(248.527675, 237.981606)"><g><path d="M 1.671875 6.640625 L 1.15625 4.28125 C 2.351562 4.125 3.445312 3.894531 4.4375 3.59375 C 5.425781 3.300781 6.273438 2.882812 6.984375 2.34375 C 7.703125 1.800781 8.234375 1.066406 8.578125 0.140625 L 6.734375 0.140625 C 5.867188 0.140625 5.0625 0.0195312 4.3125 -0.21875 C 3.570312 -0.457031 2.972656 -0.847656 2.515625 -1.390625 C 2.066406 -1.929688 1.84375 -2.632812 1.84375 -3.5 C 1.84375 -4.550781 2.054688 -5.550781 2.484375 -6.5 C 2.910156 -7.457031 3.488281 -8.234375 4.21875 -8.828125 C 4.945312 -9.429688 5.773438 -9.734375 6.703125 -9.734375 C 8.035156 -9.734375 9.140625 -9.148438 10.015625 -7.984375 C 10.890625 -6.816406 11.328125 -5.03125 11.328125 -2.625 C 11.328125 -2.488281 11.328125 -2.351562 11.328125 -2.21875 L 13.921875 -2.21875 C 14.328125 -2.21875 14.617188 -2.109375 14.796875 -1.890625 C 14.984375 -1.671875 15.078125 -1.40625 15.078125 -1.09375 C 15.078125 -0.789062 14.941406 -0.507812 14.671875 -0.25 C 14.398438 0.0078125 14.054688 0.140625 13.640625 0.140625 L 10.984375 0.140625 C 9.992188 3.878906 6.890625 6.046875 1.671875 6.640625 Z M 7.828125 -2.21875 L 9.046875 -2.21875 C 9.066406 -2.414062 9.078125 -2.609375 9.078125 -2.796875 C 9.078125 -4.109375 8.832031 -5.195312 8.34375 -6.0625 C 7.863281 -6.925781 7.238281 -7.359375 6.46875 -7.359375 C 6.0625 -7.359375 5.679688 -7.203125 5.328125 -6.890625 C 4.972656 -6.585938 4.6875 -6.175781 4.46875 -5.65625 C 4.257812 -5.132812 4.15625 -4.566406 4.15625 -3.953125 C 4.15625 -3.285156 4.457031 -2.828125 5.0625 -2.578125 C 5.675781 -2.335938 6.597656 -2.21875 7.828125 -2.21875 Z M 7.828125 -2.21875 "/></g></g></g><g fill="#ffffff" fill-opacity="1"><g transform="translate(262.162188, 237.981606)"><g><path d="M 0 0.140625 L 0.28125 -2.21875 C 0.90625 -2.21875 1.410156 -2.257812 1.796875 -2.34375 C 2.179688 -2.4375 2.503906 -2.660156 2.765625 -3.015625 C 3.023438 -3.367188 3.269531 -3.929688 3.5 -4.703125 C 3.726562 -5.472656 4 -6.550781 4.3125 -7.9375 L 6.46875 -7.34375 C 6.351562 -6.84375 6.21875 -6.253906 6.0625 -5.578125 C 5.90625 -4.898438 5.828125 -4.289062 5.828125 -3.75 C 5.828125 -3.269531 6.007812 -2.894531 6.375 -2.625 C 6.75 -2.351562 7.414062 -2.21875 8.375 -2.21875 C 8.957031 -2.21875 9.429688 -2.265625 9.796875 -2.359375 C 10.160156 -2.460938 10.460938 -2.695312 10.703125 -3.0625 C 10.941406 -3.425781 11.15625 -4.007812 11.34375 -4.8125 C 11.539062 -5.613281 11.742188 -6.722656 11.953125 -8.140625 L 14.15625 -7.75 C 14.09375 -7.394531 14.019531 -6.96875 13.9375 -6.46875 C 13.851562 -5.96875 13.78125 -5.472656 13.71875 -4.984375 C 13.664062 -4.492188 13.640625 -4.082031 13.640625 -3.75 C 13.640625 -3.476562 13.703125 -3.222656 13.828125 -2.984375 C 13.953125 -2.742188 14.203125 -2.554688 14.578125 -2.421875 C 14.953125 -2.285156 15.515625 -2.21875 16.265625 -2.21875 C 17.085938 -2.21875 17.75 -2.378906 18.25 -2.703125 C 18.757812 -3.035156 19.015625 -3.703125 19.015625 -4.703125 C 19.015625 -5.421875 18.84375 -6.335938 18.5 -7.453125 C 18.164062 -8.566406 17.785156 -9.675781 17.359375 -10.78125 L 19.703125 -11.640625 C 19.929688 -11.003906 20.160156 -10.296875 20.390625 -9.515625 C 20.628906 -8.734375 20.820312 -7.957031 20.96875 -7.1875 C 21.125 -6.414062 21.203125 -5.742188 21.203125 -5.171875 C 21.203125 -3.378906 20.757812 -2.046875 19.875 -1.171875 C 18.988281 -0.296875 17.773438 0.140625 16.234375 0.140625 C 15.171875 0.140625 14.335938 0.00390625 13.734375 -0.265625 C 13.128906 -0.546875 12.691406 -0.988281 12.421875 -1.59375 C 11.960938 -0.875 11.410156 -0.40625 10.765625 -0.1875 C 10.117188 0.03125 9.207031 0.140625 8.03125 0.140625 C 7.625 0.140625 7.191406 0.09375 6.734375 0 C 6.285156 -0.09375 5.867188 -0.28125 5.484375 -0.5625 C 5.097656 -0.84375 4.800781 -1.257812 4.59375 -1.8125 C 4.09375 -0.96875 3.472656 -0.429688 2.734375 -0.203125 C 1.992188 0.0234375 1.082031 0.140625 0 0.140625 Z M 0 0.140625 "/></g></g></g><g fill="#ffffff" fill-opacity="1"><g transform="translate(84.11359, 281.668078)"><g><path d="M 0.375 -0.40625 C 0.375 -0.738281 0.421875 -1.160156 0.515625 -1.671875 C 0.609375 -2.179688 0.8125 -2.789062 1.125 -3.5 L 2.921875 -2.875 C 2.753906 -2.414062 2.625 -2.023438 2.53125 -1.703125 C 2.445312 -1.378906 2.40625 -1.0625 2.40625 -0.75 C 2.40625 -0.113281 2.675781 0.390625 3.21875 0.765625 C 3.769531 1.140625 4.5625 1.328125 5.59375 1.328125 C 6.65625 1.328125 7.488281 1.222656 8.09375 1.015625 C 8.695312 0.816406 9 0.523438 9 0.140625 C 9 -0.0234375 8.863281 -0.1875 8.59375 -0.34375 C 8.332031 -0.507812 7.878906 -0.707031 7.234375 -0.9375 L 7.703125 -2.984375 C 8.523438 -2.640625 9.273438 -2.378906 9.953125 -2.203125 C 10.628906 -2.035156 11.226562 -1.953125 11.75 -1.953125 C 12.125 -1.953125 12.390625 -1.859375 12.546875 -1.671875 C 12.703125 -1.484375 12.78125 -1.25 12.78125 -0.96875 C 12.78125 -0.664062 12.675781 -0.414062 12.46875 -0.21875 C 12.269531 -0.0195312 11.984375 0.078125 11.609375 0.078125 L 10.9375 0.078125 C 10.957031 0.171875 10.96875 0.253906 10.96875 0.328125 C 10.96875 0.398438 10.96875 0.46875 10.96875 0.53125 C 10.96875 0.851562 10.859375 1.175781 10.640625 1.5 C 10.429688 1.832031 10.097656 2.140625 9.640625 2.421875 C 9.179688 2.703125 8.597656 2.925781 7.890625 3.09375 C 7.191406 3.269531 6.363281 3.359375 5.40625 3.359375 C 3.820312 3.359375 2.585938 3.050781 1.703125 2.4375 C 0.816406 1.832031 0.375 0.882812 0.375 -0.40625 Z M 5.515625 6.46875 C 5.265625 6.46875 5.050781 6.378906 4.875 6.203125 C 4.695312 6.023438 4.609375 5.8125 4.609375 5.5625 C 4.609375 5.3125 4.695312 5.09375 4.875 4.90625 C 5.050781 4.726562 5.265625 4.640625 5.515625 4.640625 C 5.765625 4.640625 5.976562 4.726562 6.15625 4.90625 C 6.34375 5.09375 6.4375 5.3125 6.4375 5.5625 C 6.4375 5.8125 6.34375 6.023438 6.15625 6.203125 C 5.976562 6.378906 5.765625 6.46875 5.515625 6.46875 Z M 5.515625 8.9375 C 5.265625 8.9375 5.050781 8.847656 4.875 8.671875 C 4.695312 8.503906 4.609375 8.296875 4.609375 8.046875 C 4.609375 7.796875 4.695312 7.578125 4.875 7.390625 C 5.050781 7.203125 5.265625 7.109375 5.515625 7.109375 C 5.765625 7.109375 5.976562 7.203125 6.15625 7.390625 C 6.34375 7.578125 6.4375 7.796875 6.4375 8.046875 C 6.4375 8.296875 6.34375 8.503906 6.15625 8.671875 C 5.976562 8.847656 5.765625 8.9375 5.515625 8.9375 Z M 5.515625 8.9375 "/></g></g></g><g fill="#ffffff" fill-opacity="1"><g transform="translate(95.729205, 281.668078)"><g><path d="M 0 0.078125 L 0.140625 -1.953125 C 0.515625 -1.953125 0.804688 -1.984375 1.015625 -2.046875 C 1.234375 -2.117188 1.40625 -2.257812 1.53125 -2.46875 C 1.664062 -2.675781 1.78125 -2.984375 1.875 -3.390625 C 1.96875 -3.796875 2.0625 -4.335938 2.15625 -5.015625 L 4.0625 -4.703125 C 4.019531 -4.484375 3.972656 -4.21875 3.921875 -3.90625 C 3.878906 -3.59375 3.859375 -3.304688 3.859375 -3.046875 C 3.859375 -2.816406 3.910156 -2.617188 4.015625 -2.453125 C 4.117188 -2.285156 4.300781 -2.160156 4.5625 -2.078125 C 4.832031 -1.992188 5.21875 -1.953125 5.71875 -1.953125 C 6.082031 -1.953125 6.34375 -1.859375 6.5 -1.671875 C 6.65625 -1.484375 6.734375 -1.25 6.734375 -0.96875 C 6.734375 -0.664062 6.632812 -0.414062 6.4375 -0.21875 C 6.238281 -0.0195312 5.953125 0.078125 5.578125 0.078125 C 4.796875 0.078125 4.191406 -0.00390625 3.765625 -0.171875 C 3.335938 -0.335938 3.03125 -0.632812 2.84375 -1.0625 C 2.488281 -0.5625 2.066406 -0.242188 1.578125 -0.109375 C 1.085938 0.015625 0.5625 0.078125 0 0.078125 Z M 3.109375 -6.359375 C 2.804688 -6.359375 2.550781 -6.457031 2.34375 -6.65625 C 2.132812 -6.863281 2.03125 -7.117188 2.03125 -7.421875 C 2.03125 -7.722656 2.132812 -7.976562 2.34375 -8.1875 C 2.550781 -8.40625 2.804688 -8.515625 3.109375 -8.515625 C 3.398438 -8.515625 3.648438 -8.40625 3.859375 -8.1875 C 4.066406 -7.976562 4.171875 -7.722656 4.171875 -7.421875 C 4.171875 -7.117188 4.066406 -6.863281 3.859375 -6.65625 C 3.648438 -6.457031 3.398438 -6.359375 3.109375 -6.359375 Z M 3.109375 -6.359375 "/></g></g></g><g fill="#ffffff" fill-opacity="1"><g transform="translate(101.304698, 281.668078)"><g><path d="M 0 0.078125 L 0.140625 -1.953125 L 2.171875 -1.953125 C 2.679688 -1.953125 3.015625 -1.992188 3.171875 -2.078125 C 3.335938 -2.171875 3.421875 -2.3125 3.421875 -2.5 C 3.421875 -2.707031 3.316406 -2.953125 3.109375 -3.234375 C 2.898438 -3.523438 2.640625 -3.820312 2.328125 -4.125 C 2.023438 -4.4375 1.71875 -4.738281 1.40625 -5.03125 C 1.09375 -5.320312 0.832031 -5.578125 0.625 -5.796875 C 0.414062 -6.015625 0.3125 -6.171875 0.3125 -6.265625 C 0.3125 -6.660156 0.34375 -6.945312 0.40625 -7.125 C 0.476562 -7.300781 0.566406 -7.441406 0.671875 -7.546875 C 0.890625 -7.765625 1.25 -8.019531 1.75 -8.3125 C 2.25 -8.601562 2.847656 -8.921875 3.546875 -9.265625 C 4.253906 -9.609375 5.03125 -9.972656 5.875 -10.359375 L 6.703125 -8.59375 C 5.742188 -8.164062 4.9375 -7.789062 4.28125 -7.46875 C 3.625 -7.15625 3.066406 -6.867188 2.609375 -6.609375 C 3.253906 -6.023438 3.804688 -5.46875 4.265625 -4.9375 C 4.734375 -4.40625 5.175781 -3.800781 5.59375 -3.125 C 5.789062 -2.78125 6.003906 -2.523438 6.234375 -2.359375 C 6.472656 -2.203125 6.703125 -2.09375 6.921875 -2.03125 C 7.140625 -1.976562 7.332031 -1.953125 7.5 -1.953125 C 7.863281 -1.953125 8.125 -1.859375 8.28125 -1.671875 C 8.445312 -1.484375 8.53125 -1.25 8.53125 -0.96875 C 8.53125 -0.664062 8.425781 -0.414062 8.21875 -0.21875 C 8.019531 -0.0195312 7.734375 0.078125 7.359375 0.078125 C 6.984375 0.078125 6.566406 0 6.109375 -0.15625 C 5.660156 -0.3125 5.285156 -0.582031 4.984375 -0.96875 C 4.671875 -0.59375 4.273438 -0.320312 3.796875 -0.15625 C 3.316406 0 2.726562 0.078125 2.03125 0.078125 Z M 0 0.078125 "/></g></g></g><g fill="#ffffff" fill-opacity="1"><g transform="translate(108.680609, 281.668078)"><g><path d="M 0 0.078125 L 0.140625 -1.953125 C 0.492188 -1.953125 0.796875 -1.984375 1.046875 -2.046875 C 1.296875 -2.117188 1.503906 -2.257812 1.671875 -2.46875 C 1.847656 -2.675781 2 -2.984375 2.125 -3.390625 C 2.25 -3.796875 2.359375 -4.335938 2.453125 -5.015625 L 4.359375 -4.703125 C 4.316406 -4.484375 4.269531 -4.21875 4.21875 -3.90625 C 4.175781 -3.59375 4.15625 -3.304688 4.15625 -3.046875 C 4.15625 -2.703125 4.296875 -2.429688 4.578125 -2.234375 C 4.867188 -2.046875 5.367188 -1.953125 6.078125 -1.953125 C 6.441406 -1.953125 6.703125 -1.859375 6.859375 -1.671875 C 7.015625 -1.484375 7.09375 -1.25 7.09375 -0.96875 C 7.09375 -0.664062 6.992188 -0.414062 6.796875 -0.21875 C 6.597656 -0.0195312 6.3125 0.078125 5.9375 0.078125 C 5.257812 0.078125 4.679688 -0.0078125 4.203125 -0.1875 C 3.722656 -0.363281 3.375 -0.675781 3.15625 -1.125 C 2.894531 -0.769531 2.585938 -0.507812 2.234375 -0.34375 C 1.878906 -0.175781 1.507812 -0.0625 1.125 0 C 0.738281 0.0507812 0.363281 0.078125 0 0.078125 Z M 4.0625 3.453125 C 3.78125 3.453125 3.539062 3.351562 3.34375 3.15625 C 3.144531 2.957031 3.046875 2.71875 3.046875 2.4375 C 3.046875 2.15625 3.144531 1.910156 3.34375 1.703125 C 3.539062 1.503906 3.78125 1.40625 4.0625 1.40625 C 4.332031 1.40625 4.5625 1.503906 4.75 1.703125 C 4.945312 1.910156 5.046875 2.15625 5.046875 2.4375 C 5.046875 2.71875 4.945312 2.957031 4.75 3.15625 C 4.5625 3.351562 4.332031 3.453125 4.0625 3.453125 Z M 1.546875 3.453125 C 1.265625 3.453125 1.023438 3.351562 0.828125 3.15625 C 0.628906 2.957031 0.53125 2.71875 0.53125 2.4375 C 0.53125 2.15625 0.628906 1.910156 0.828125 1.703125 C 1.023438 1.503906 1.265625 1.40625 1.546875 1.40625 C 1.816406 1.40625 2.046875 1.503906 2.234375 1.703125 C 2.429688 1.910156 2.53125 2.15625 2.53125 2.4375 C 2.53125 2.71875 2.429688 2.957031 2.234375 3.15625 C 2.046875 3.351562 1.816406 3.453125 1.546875 3.453125 Z M 1.546875 3.453125 "/></g></g></g><g fill="#ffffff" fill-opacity="1"><g transform="translate(114.619085, 281.668078)"><g><path d="M 0 0.078125 L 0.140625 -1.953125 C 0.585938 -1.953125 0.90625 -2 1.09375 -2.09375 C 1.289062 -2.1875 1.410156 -2.359375 1.453125 -2.609375 C 1.492188 -2.867188 1.503906 -3.25 1.484375 -3.75 L 1.21875 -10.625 L 3.265625 -10.625 L 3.5625 -3.59375 C 3.570312 -3.039062 3.546875 -2.535156 3.484375 -2.078125 C 3.421875 -1.628906 3.269531 -1.242188 3.03125 -0.921875 C 2.800781 -0.609375 2.441406 -0.363281 1.953125 -0.1875 C 1.460938 -0.0078125 0.8125 0.078125 0 0.078125 Z M 0 0.078125 "/></g></g></g><g fill="#ffffff" fill-opacity="1"><g transform="translate(118.931379, 281.668078)"><g/></g></g><g fill="#ffffff" fill-opacity="1"><g transform="translate(122.547082, 281.668078)"><g><path d="M 0.828125 3.34375 L 0.40625 1.3125 C 1.28125 1.195312 2.015625 1.054688 2.609375 0.890625 C 3.203125 0.722656 3.660156 0.453125 3.984375 0.078125 L 3.59375 0.078125 C 2.6875 0.078125 1.972656 -0.0859375 1.453125 -0.421875 C 0.941406 -0.753906 0.6875 -1.328125 0.6875 -2.140625 C 0.6875 -2.578125 0.757812 -3.015625 0.90625 -3.453125 C 1.050781 -3.890625 1.257812 -4.289062 1.53125 -4.65625 C 1.800781 -5.019531 2.117188 -5.304688 2.484375 -5.515625 C 2.847656 -5.734375 3.242188 -5.84375 3.671875 -5.84375 C 4.242188 -5.84375 4.75 -5.664062 5.1875 -5.3125 C 5.625 -4.957031 5.96875 -4.484375 6.21875 -3.890625 C 6.46875 -3.296875 6.59375 -2.648438 6.59375 -1.953125 L 7.734375 -1.953125 C 8.097656 -1.953125 8.359375 -1.859375 8.515625 -1.671875 C 8.679688 -1.484375 8.765625 -1.25 8.765625 -0.96875 C 8.765625 -0.664062 8.660156 -0.414062 8.453125 -0.21875 C 8.253906 -0.0195312 7.96875 0.078125 7.59375 0.078125 L 6.25 0.078125 C 5.875 1.078125 5.21875 1.847656 4.28125 2.390625 C 3.351562 2.941406 2.203125 3.257812 0.828125 3.34375 Z M 2.6875 -2.5 C 2.6875 -2.394531 2.722656 -2.285156 2.796875 -2.171875 C 2.867188 -2.054688 3.035156 -1.96875 3.296875 -1.90625 C 3.554688 -1.84375 3.972656 -1.835938 4.546875 -1.890625 C 4.535156 -2.453125 4.441406 -2.894531 4.265625 -3.21875 C 4.085938 -3.539062 3.859375 -3.703125 3.578125 -3.703125 C 3.378906 -3.703125 3.210938 -3.628906 3.078125 -3.484375 C 2.941406 -3.347656 2.84375 -3.1875 2.78125 -3 C 2.71875 -2.8125 2.6875 -2.644531 2.6875 -2.5 Z M 2.6875 -2.5 "/></g></g></g><g fill="#ffffff" fill-opacity="1"><g transform="translate(130.155308, 281.668078)"><g><path d="M 0 0.078125 L 0.140625 -1.953125 C 0.492188 -1.953125 0.796875 -1.984375 1.046875 -2.046875 C 1.296875 -2.117188 1.503906 -2.257812 1.671875 -2.46875 C 1.847656 -2.675781 2 -2.984375 2.125 -3.390625 C 2.25 -3.796875 2.359375 -4.335938 2.453125 -5.015625 L 4.359375 -4.703125 C 4.316406 -4.484375 4.269531 -4.21875 4.21875 -3.90625 C 4.175781 -3.59375 4.15625 -3.304688 4.15625 -3.046875 C 4.15625 -2.703125 4.296875 -2.429688 4.578125 -2.234375 C 4.867188 -2.046875 5.367188 -1.953125 6.078125 -1.953125 C 6.441406 -1.953125 6.703125 -1.859375 6.859375 -1.671875 C 7.015625 -1.484375 7.09375 -1.25 7.09375 -0.96875 C 7.09375 -0.664062 6.992188 -0.414062 6.796875 -0.21875 C 6.597656 -0.0195312 6.3125 0.078125 5.9375 0.078125 C 5.257812 0.078125 4.679688 -0.0078125 4.203125 -0.1875 C 3.722656 -0.363281 3.375 -0.675781 3.15625 -1.125 C 2.894531 -0.769531 2.585938 -0.507812 2.234375 -0.34375 C 1.878906 -0.175781 1.507812 -0.0625 1.125 0 C 0.738281 0.0507812 0.363281 0.078125 0 0.078125 Z M 2.140625 -6.34375 C 1.859375 -6.34375 1.617188 -6.441406 1.421875 -6.640625 C 1.222656 -6.847656 1.125 -7.085938 1.125 -7.359375 C 1.125 -7.628906 1.222656 -7.867188 1.421875 -8.078125 C 1.617188 -8.285156 1.859375 -8.390625 2.140625 -8.390625 C 2.410156 -8.390625 2.640625 -8.285156 2.828125 -8.078125 C 3.023438 -7.867188 3.125 -7.628906 3.125 -7.359375 C 3.125 -7.085938 3.023438 -6.847656 2.828125 -6.640625 C 2.640625 -6.441406 2.410156 -6.34375 2.140625 -6.34375 Z M 4.65625 -6.34375 C 4.375 -6.34375 4.132812 -6.4375 3.9375 -6.625 C 3.738281 -6.820312 3.640625 -7.0625 3.640625 -7.34375 C 3.640625 -7.625 3.738281 -7.863281 3.9375 -8.0625 C 4.132812 -8.269531 4.375 -8.375 4.65625 -8.375 C 4.925781 -8.375 5.15625 -8.269531 5.34375 -8.0625 C 5.539062 -7.863281 5.640625 -7.625 5.640625 -7.34375 C 5.640625 -7.0625 5.539062 -6.820312 5.34375 -6.625 C 5.15625 -6.4375 4.925781 -6.34375 4.65625 -6.34375 Z M 4.65625 -6.34375 "/></g></g></g><g fill="#ffffff" fill-opacity="1"><g transform="translate(136.093784, 281.668078)"><g><path d="M 0 0.078125 L 0.140625 -1.953125 C 0.460938 -1.953125 0.722656 -1.976562 0.921875 -2.03125 C 1.128906 -2.09375 1.296875 -2.21875 1.421875 -2.40625 C 1.554688 -2.59375 1.675781 -2.875 1.78125 -3.25 C 1.882812 -3.632812 2 -4.15625 2.125 -4.8125 L 4 -4.46875 C 3.96875 -4.257812 3.921875 -3.992188 3.859375 -3.671875 C 3.796875 -3.347656 3.765625 -3.070312 3.765625 -2.84375 C 3.765625 -2.570312 3.847656 -2.351562 4.015625 -2.1875 C 4.179688 -2.03125 4.507812 -1.953125 5 -1.953125 C 5.25 -1.953125 5.460938 -1.976562 5.640625 -2.03125 C 5.816406 -2.09375 5.96875 -2.21875 6.09375 -2.40625 C 6.226562 -2.59375 6.347656 -2.882812 6.453125 -3.28125 C 6.554688 -3.6875 6.65625 -4.234375 6.75 -4.921875 L 8.671875 -4.609375 C 8.609375 -4.273438 8.546875 -3.914062 8.484375 -3.53125 C 8.429688 -3.15625 8.40625 -2.875 8.40625 -2.6875 C 8.40625 -2.488281 8.492188 -2.316406 8.671875 -2.171875 C 8.847656 -2.023438 9.207031 -1.953125 9.75 -1.953125 C 10.601562 -1.953125 11.03125 -2.335938 11.03125 -3.109375 C 11.03125 -3.429688 11.015625 -3.800781 10.984375 -4.21875 C 10.960938 -4.644531 10.914062 -5.175781 10.84375 -5.8125 L 12.71875 -5.953125 C 12.78125 -5.117188 12.851562 -4.441406 12.9375 -3.921875 C 13.03125 -3.398438 13.148438 -2.992188 13.296875 -2.703125 C 13.453125 -2.421875 13.65625 -2.222656 13.90625 -2.109375 C 14.164062 -2.003906 14.503906 -1.953125 14.921875 -1.953125 C 15.285156 -1.953125 15.546875 -1.859375 15.703125 -1.671875 C 15.867188 -1.484375 15.953125 -1.25 15.953125 -0.96875 C 15.953125 -0.664062 15.851562 -0.414062 15.65625 -0.21875 C 15.457031 -0.0195312 15.164062 0.078125 14.78125 0.078125 C 14.457031 0.078125 14.125 0.046875 13.78125 -0.015625 C 13.445312 -0.0859375 13.128906 -0.226562 12.828125 -0.4375 C 12.535156 -0.65625 12.300781 -0.976562 12.125 -1.40625 C 11.90625 -0.8125 11.59375 -0.414062 11.1875 -0.21875 C 10.78125 -0.0195312 10.253906 0.078125 9.609375 0.078125 C 9.097656 0.078125 8.648438 0 8.265625 -0.15625 C 7.890625 -0.320312 7.625 -0.597656 7.46875 -0.984375 C 7.289062 -0.671875 7.082031 -0.441406 6.84375 -0.296875 C 6.613281 -0.148438 6.335938 -0.0507812 6.015625 0 C 5.703125 0.0507812 5.328125 0.078125 4.890625 0.078125 C 4.628906 0.078125 4.367188 0.0546875 4.109375 0.015625 C 3.859375 -0.0234375 3.617188 -0.113281 3.390625 -0.25 C 3.160156 -0.394531 2.96875 -0.617188 2.8125 -0.921875 C 2.488281 -0.492188 2.085938 -0.21875 1.609375 -0.09375 C 1.140625 0.0195312 0.601562 0.078125 0 0.078125 Z M 6.609375 3.40625 C 6.328125 3.40625 6.085938 3.304688 5.890625 3.109375 C 5.691406 2.921875 5.59375 2.6875 5.59375 2.40625 C 5.59375 2.125 5.691406 1.878906 5.890625 1.671875 C 6.085938 1.460938 6.328125 1.359375 6.609375 1.359375 C 6.878906 1.359375 7.113281 1.460938 7.3125 1.671875 C 7.519531 1.878906 7.625 2.125 7.625 2.40625 C 7.625 2.6875 7.519531 2.921875 7.3125 3.109375 C 7.113281 3.304688 6.878906 3.40625 6.609375 3.40625 Z M 7.34375 -6.984375 C 7.039062 -6.984375 6.785156 -7.082031 6.578125 -7.28125 C 6.367188 -7.488281 6.265625 -7.742188 6.265625 -8.046875 C 6.265625 -8.347656 6.367188 -8.601562 6.578125 -8.8125 C 6.785156 -9.03125 7.039062 -9.140625 7.34375 -9.140625 C 7.632812 -9.140625 7.882812 -9.03125 8.09375 -8.8125 C 8.300781 -8.601562 8.40625 -8.347656 8.40625 -8.046875 C 8.40625 -7.742188 8.300781 -7.488281 8.09375 -7.28125 C 7.882812 -7.082031 7.632812 -6.984375 7.34375 -6.984375 Z M 7.34375 -6.984375 "/></g></g></g><g fill="#ffffff" fill-opacity="1"><g transform="translate(150.889163, 281.668078)"><g><path d="M 0 0.078125 L 0.140625 -1.953125 C 0.722656 -1.953125 1.164062 -1.984375 1.46875 -2.046875 C 1.78125 -2.109375 2 -2.21875 2.125 -2.375 C 2.25 -2.53125 2.3125 -2.757812 2.3125 -3.0625 C 2.3125 -3.332031 2.273438 -3.65625 2.203125 -4.03125 C 2.128906 -4.40625 2.03125 -4.796875 1.90625 -5.203125 C 1.789062 -5.609375 1.675781 -5.984375 1.5625 -6.328125 L 3.578125 -6.875 C 3.691406 -6.550781 3.804688 -6.171875 3.921875 -5.734375 C 4.046875 -5.296875 4.144531 -4.84375 4.21875 -4.375 C 4.300781 -3.914062 4.34375 -3.476562 4.34375 -3.0625 C 4.34375 -2.40625 4.234375 -1.867188 4.015625 -1.453125 C 3.804688 -1.046875 3.507812 -0.726562 3.125 -0.5 C 2.75 -0.28125 2.289062 -0.128906 1.75 -0.046875 C 1.21875 0.0351562 0.632812 0.078125 0 0.078125 Z M 1.203125 3.25 C 0.953125 3.25 0.738281 3.160156 0.5625 2.984375 C 0.382812 2.816406 0.296875 2.609375 0.296875 2.359375 C 0.296875 2.109375 0.382812 1.890625 0.5625 1.703125 C 0.738281 1.515625 0.953125 1.421875 1.203125 1.421875 C 1.453125 1.421875 1.664062 1.515625 1.84375 1.703125 C 2.019531 1.890625 2.109375 2.109375 2.109375 2.359375 C 2.109375 2.609375 2.019531 2.816406 1.84375 2.984375 C 1.664062 3.160156 1.453125 3.25 1.203125 3.25 Z M 3.46875 3.25 C 3.21875 3.25 3.003906 3.160156 2.828125 2.984375 C 2.648438 2.816406 2.5625 2.609375 2.5625 2.359375 C 2.5625 2.109375 2.648438 1.890625 2.828125 1.703125 C 3.003906 1.515625 3.21875 1.421875 3.46875 1.421875 C 3.71875 1.421875 3.929688 1.515625 4.109375 1.703125 C 4.285156 1.890625 4.375 2.109375 4.375 2.359375 C 4.375 2.609375 4.285156 2.816406 4.109375 2.984375 C 3.929688 3.160156 3.71875 3.25 3.46875 3.25 Z M 2.3125 5.171875 C 2.0625 5.171875 1.84375 5.082031 1.65625 4.90625 C 1.476562 4.738281 1.390625 4.523438 1.390625 4.265625 C 1.390625 4.015625 1.476562 3.796875 1.65625 3.609375 C 1.84375 3.429688 2.0625 3.34375 2.3125 3.34375 C 2.5625 3.34375 2.769531 3.429688 2.9375 3.609375 C 3.113281 3.796875 3.203125 4.015625 3.203125 4.265625 C 3.203125 4.523438 3.113281 4.738281 2.9375 4.90625 C 2.769531 5.082031 2.5625 5.171875 2.3125 5.171875 Z M 2.3125 5.171875 "/></g></g></g><g fill="#ffffff" fill-opacity="1"><g transform="translate(156.101672, 281.668078)"><g/></g></g><g fill="#ffffff" fill-opacity="1"><g transform="translate(159.717376, 281.668078)"><g><path d="M 0.375 -0.40625 C 0.375 -0.738281 0.421875 -1.160156 0.515625 -1.671875 C 0.609375 -2.179688 0.8125 -2.789062 1.125 -3.5 L 2.921875 -2.875 C 2.753906 -2.414062 2.625 -2.023438 2.53125 -1.703125 C 2.445312 -1.378906 2.40625 -1.0625 2.40625 -0.75 C 2.40625 -0.0390625 2.644531 0.476562 3.125 0.8125 C 3.601562 1.15625 4.238281 1.328125 5.03125 1.328125 C 5.632812 1.328125 6.128906 1.242188 6.515625 1.078125 C 6.898438 0.921875 7.195312 0.710938 7.40625 0.453125 C 7.625 0.203125 7.773438 -0.0703125 7.859375 -0.375 C 7.953125 -0.6875 8 -0.988281 8 -1.28125 C 8 -1.664062 7.929688 -2.132812 7.796875 -2.6875 C 7.660156 -3.238281 7.414062 -3.859375 7.0625 -4.546875 L 8.9375 -5.34375 C 9.132812 -5 9.3125 -4.601562 9.46875 -4.15625 C 9.632812 -3.707031 9.769531 -3.238281 9.875 -2.75 C 9.976562 -2.269531 10.03125 -1.8125 10.03125 -1.375 C 10.03125 -0.988281 9.976562 -0.578125 9.875 -0.140625 C 9.78125 0.285156 9.617188 0.703125 9.390625 1.109375 C 9.171875 1.523438 8.863281 1.898438 8.46875 2.234375 C 8.082031 2.578125 7.601562 2.847656 7.03125 3.046875 C 6.46875 3.253906 5.789062 3.359375 5 3.359375 C 4.144531 3.359375 3.367188 3.226562 2.671875 2.96875 C 1.972656 2.71875 1.414062 2.3125 1 1.75 C 0.582031 1.195312 0.375 0.476562 0.375 -0.40625 Z M 5.109375 -5.921875 C 4.804688 -5.921875 4.550781 -6.019531 4.34375 -6.21875 C 4.132812 -6.425781 4.03125 -6.679688 4.03125 -6.984375 C 4.03125 -7.285156 4.132812 -7.539062 4.34375 -7.75 C 4.550781 -7.96875 4.804688 -8.078125 5.109375 -8.078125 C 5.398438 -8.078125 5.648438 -7.96875 5.859375 -7.75 C 6.066406 -7.539062 6.171875 -7.285156 6.171875 -6.984375 C 6.171875 -6.679688 6.066406 -6.425781 5.859375 -6.21875 C 5.648438 -6.019531 5.398438 -5.921875 5.109375 -5.921875 Z M 5.109375 -5.921875 "/></g></g></g><g fill="#ffffff" fill-opacity="1"><g transform="translate(170.476332, 281.668078)"><g><path d="M 4.59375 0.078125 C 3.695312 0.078125 3.003906 -0.015625 2.515625 -0.203125 C 2.023438 -0.390625 1.679688 -0.675781 1.484375 -1.0625 C 1.285156 -1.457031 1.175781 -1.957031 1.15625 -2.5625 L 0.859375 -10.625 L 2.890625 -10.625 L 3.1875 -3.53125 C 3.207031 -3.082031 3.253906 -2.742188 3.328125 -2.515625 C 3.410156 -2.296875 3.554688 -2.144531 3.765625 -2.0625 C 3.984375 -1.988281 4.3125 -1.953125 4.75 -1.953125 C 5.101562 -1.953125 5.363281 -1.859375 5.53125 -1.671875 C 5.695312 -1.484375 5.78125 -1.25 5.78125 -0.96875 C 5.78125 -0.664062 5.675781 -0.414062 5.46875 -0.21875 C 5.269531 -0.0195312 4.976562 0.078125 4.59375 0.078125 Z M 4.59375 0.078125 "/></g></g></g><g fill="#ffffff" fill-opacity="1"><g transform="translate(175.093542, 281.668078)"><g><path d="M 0 0.078125 L 0.140625 -1.953125 C 1.191406 -1.953125 2.207031 -2.066406 3.1875 -2.296875 C 4.175781 -2.535156 5.054688 -2.910156 5.828125 -3.421875 C 5.378906 -3.679688 4.882812 -3.882812 4.34375 -4.03125 C 3.8125 -4.175781 3.222656 -4.25 2.578125 -4.25 C 2.335938 -4.25 2.085938 -4.238281 1.828125 -4.21875 C 1.578125 -4.195312 1.320312 -4.15625 1.0625 -4.09375 L 0.765625 -6.078125 C 1.046875 -6.148438 1.34375 -6.203125 1.65625 -6.234375 C 1.96875 -6.273438 2.25 -6.296875 2.5 -6.296875 C 3.15625 -6.296875 3.742188 -6.207031 4.265625 -6.03125 C 4.785156 -5.863281 5.257812 -5.660156 5.6875 -5.421875 C 6.125 -5.191406 6.53125 -4.988281 6.90625 -4.8125 C 7.28125 -4.644531 7.644531 -4.5625 8 -4.5625 L 8.53125 -4.5625 L 8.765625 -2.625 C 8.335938 -2.59375 7.941406 -2.507812 7.578125 -2.375 C 7.222656 -2.238281 6.867188 -2.066406 6.515625 -1.859375 C 6.171875 -1.648438 5.796875 -1.4375 5.390625 -1.21875 C 4.992188 -1 4.539062 -0.789062 4.03125 -0.59375 C 3.53125 -0.40625 2.953125 -0.242188 2.296875 -0.109375 C 1.640625 0.015625 0.875 0.078125 0 0.078125 Z M 2.515625 -7.640625 C 2.210938 -7.640625 1.957031 -7.738281 1.75 -7.9375 C 1.539062 -8.144531 1.4375 -8.398438 1.4375 -8.703125 C 1.4375 -9.003906 1.539062 -9.257812 1.75 -9.46875 C 1.957031 -9.6875 2.210938 -9.796875 2.515625 -9.796875 C 2.804688 -9.796875 3.054688 -9.6875 3.265625 -9.46875 C 3.472656 -9.257812 3.578125 -9.003906 3.578125 -8.703125 C 3.578125 -8.398438 3.472656 -8.144531 3.265625 -7.9375 C 3.054688 -7.738281 2.804688 -7.640625 2.515625 -7.640625 Z M 2.515625 -7.640625 "/></g></g></g><g fill="#ffffff" fill-opacity="1"><g transform="translate(184.226316, 281.668078)"><g/></g></g><g fill="#ffffff" fill-opacity="1"><g transform="translate(187.842019, 281.668078)"><g><path d="M 0.375 -0.40625 C 0.375 -0.738281 0.421875 -1.160156 0.515625 -1.671875 C 0.609375 -2.179688 0.8125 -2.789062 1.125 -3.5 L 2.921875 -2.875 C 2.753906 -2.414062 2.625 -2.023438 2.53125 -1.703125 C 2.445312 -1.378906 2.40625 -1.0625 2.40625 -0.75 C 2.40625 -0.09375 2.628906 0.414062 3.078125 0.78125 C 3.523438 1.144531 4.175781 1.328125 5.03125 1.328125 C 5.8125 1.328125 6.414062 1.210938 6.84375 0.984375 C 7.28125 0.765625 7.585938 0.46875 7.765625 0.09375 C 7.941406 -0.28125 8.03125 -0.695312 8.03125 -1.15625 C 8.03125 -1.550781 7.957031 -2.03125 7.8125 -2.59375 C 7.675781 -3.15625 7.492188 -3.773438 7.265625 -4.453125 L 9.296875 -4.984375 C 9.429688 -4.421875 9.539062 -3.984375 9.625 -3.671875 C 9.707031 -3.359375 9.773438 -3.125 9.828125 -2.96875 C 9.972656 -2.539062 10.195312 -2.265625 10.5 -2.140625 C 10.8125 -2.015625 11.253906 -1.953125 11.828125 -1.953125 C 12.191406 -1.953125 12.453125 -1.859375 12.609375 -1.671875 C 12.765625 -1.484375 12.84375 -1.25 12.84375 -0.96875 C 12.84375 -0.664062 12.738281 -0.414062 12.53125 -0.21875 C 12.332031 -0.0195312 12.050781 0.078125 11.6875 0.078125 C 11.363281 0.078125 11.046875 0.0351562 10.734375 -0.046875 C 10.429688 -0.128906 10.164062 -0.269531 9.9375 -0.46875 C 9.8125 0.738281 9.3125 1.675781 8.4375 2.34375 C 7.5625 3.019531 6.410156 3.359375 4.984375 3.359375 C 4.117188 3.359375 3.335938 3.226562 2.640625 2.96875 C 1.941406 2.707031 1.390625 2.300781 0.984375 1.75 C 0.578125 1.195312 0.375 0.476562 0.375 -0.40625 Z M 5.109375 -5.921875 C 4.804688 -5.921875 4.550781 -6.019531 4.34375 -6.21875 C 4.132812 -6.425781 4.03125 -6.679688 4.03125 -6.984375 C 4.03125 -7.285156 4.132812 -7.539062 4.34375 -7.75 C 4.550781 -7.96875 4.804688 -8.078125 5.109375 -8.078125 C 5.398438 -8.078125 5.648438 -7.96875 5.859375 -7.75 C 6.066406 -7.539062 6.171875 -7.285156 6.171875 -6.984375 C 6.171875 -6.679688 6.066406 -6.425781 5.859375 -6.21875 C 5.648438 -6.019531 5.398438 -5.921875 5.109375 -5.921875 Z M 5.109375 -5.921875 "/></g></g></g><g fill="#ffffff" fill-opacity="1"><g transform="translate(199.530224, 281.668078)"><g><path d="M 0 0.078125 L 0.140625 -1.953125 C 0.722656 -1.953125 1.164062 -1.984375 1.46875 -2.046875 C 1.78125 -2.109375 2 -2.21875 2.125 -2.375 C 2.25 -2.53125 2.3125 -2.757812 2.3125 -3.0625 C 2.3125 -3.332031 2.273438 -3.65625 2.203125 -4.03125 C 2.128906 -4.40625 2.03125 -4.796875 1.90625 -5.203125 C 1.789062 -5.609375 1.675781 -5.984375 1.5625 -6.328125 L 3.578125 -6.875 C 3.691406 -6.550781 3.804688 -6.171875 3.921875 -5.734375 C 4.046875 -5.296875 4.144531 -4.84375 4.21875 -4.375 C 4.300781 -3.914062 4.34375 -3.476562 4.34375 -3.0625 C 4.34375 -2.40625 4.234375 -1.867188 4.015625 -1.453125 C 3.804688 -1.046875 3.507812 -0.726562 3.125 -0.5 C 2.75 -0.28125 2.289062 -0.128906 1.75 -0.046875 C 1.21875 0.0351562 0.632812 0.078125 0 0.078125 Z M 3.59375 3.453125 C 3.3125 3.453125 3.070312 3.351562 2.875 3.15625 C 2.675781 2.957031 2.578125 2.71875 2.578125 2.4375 C 2.578125 2.15625 2.675781 1.910156 2.875 1.703125 C 3.070312 1.503906 3.3125 1.40625 3.59375 1.40625 C 3.863281 1.40625 4.09375 1.503906 4.28125 1.703125 C 4.476562 1.910156 4.578125 2.15625 4.578125 2.4375 C 4.578125 2.71875 4.476562 2.957031 4.28125 3.15625 C 4.09375 3.351562 3.863281 3.453125 3.59375 3.453125 Z M 1.078125 3.453125 C 0.796875 3.453125 0.554688 3.351562 0.359375 3.15625 C 0.160156 2.957031 0.0625 2.71875 0.0625 2.4375 C 0.0625 2.15625 0.160156 1.910156 0.359375 1.703125 C 0.554688 1.503906 0.796875 1.40625 1.078125 1.40625 C 1.347656 1.40625 1.578125 1.503906 1.765625 1.703125 C 1.960938 1.910156 2.0625 2.15625 2.0625 2.4375 C 2.0625 2.71875 1.960938 2.957031 1.765625 3.15625 C 1.578125 3.351562 1.347656 3.453125 1.078125 3.453125 Z M 1.078125 3.453125 "/></g></g></g><g fill="#ffffff" fill-opacity="1"><g transform="translate(204.742733, 281.668078)"><g><path d="M 3.171875 -1.953125 C 3.816406 -1.953125 4.242188 -2.035156 4.453125 -2.203125 C 4.671875 -2.378906 4.78125 -2.570312 4.78125 -2.78125 C 4.78125 -3.019531 4.710938 -3.289062 4.578125 -3.59375 C 4.453125 -3.90625 4.289062 -4.226562 4.09375 -4.5625 C 3.894531 -4.90625 3.691406 -5.234375 3.484375 -5.546875 C 3.273438 -5.859375 3.09375 -6.128906 2.9375 -6.359375 L 4.65625 -7.5 C 5.289062 -6.65625 5.785156 -5.835938 6.140625 -5.046875 C 6.503906 -4.265625 6.742188 -3.628906 6.859375 -3.140625 C 6.972656 -2.671875 7.175781 -2.351562 7.46875 -2.1875 C 7.769531 -2.03125 8.085938 -1.953125 8.421875 -1.953125 C 8.785156 -1.953125 9.046875 -1.859375 9.203125 -1.671875 C 9.367188 -1.484375 9.453125 -1.25 9.453125 -0.96875 C 9.453125 -0.664062 9.351562 -0.414062 9.15625 -0.21875 C 8.957031 -0.0195312 8.664062 0.078125 8.28125 0.078125 C 7.363281 0.078125 6.679688 -0.203125 6.234375 -0.765625 C 5.972656 -0.515625 5.601562 -0.304688 5.125 -0.140625 C 4.65625 0.015625 4.097656 0.09375 3.453125 0.09375 C 3.003906 0.09375 2.503906 0.0390625 1.953125 -0.0625 C 1.398438 -0.175781 0.921875 -0.347656 0.515625 -0.578125 L 1.21875 -2.421875 C 1.570312 -2.253906 1.914062 -2.132812 2.25 -2.0625 C 2.59375 -1.988281 2.898438 -1.953125 3.171875 -1.953125 Z M 3.171875 -1.953125 "/></g></g></g><g fill="#ffffff" fill-opacity="1"><g transform="translate(213.03337, 281.668078)"><g><path d="M 0 0.078125 L 0.140625 -1.953125 C 0.585938 -1.953125 0.90625 -2 1.09375 -2.09375 C 1.289062 -2.1875 1.410156 -2.359375 1.453125 -2.609375 C 1.492188 -2.867188 1.503906 -3.25 1.484375 -3.75 L 1.21875 -10.625 L 3.265625 -10.625 L 3.5625 -3.59375 C 3.570312 -3.039062 3.546875 -2.535156 3.484375 -2.078125 C 3.421875 -1.628906 3.269531 -1.242188 3.03125 -0.921875 C 2.800781 -0.609375 2.441406 -0.363281 1.953125 -0.1875 C 1.460938 -0.0078125 0.8125 0.078125 0 0.078125 Z M 0 0.078125 "/></g></g></g><g fill="#ffffff" fill-opacity="1"><g transform="translate(217.345664, 281.668078)"><g><path d="M 1.15625 0 L 0.859375 -10.625 L 2.890625 -10.625 L 3.1875 0 Z M 1.15625 0 "/></g></g></g><g fill="#ffffff" fill-opacity="1"><g transform="translate(221.309485, 281.668078)"><g><path d="M 3.171875 -1.953125 C 3.816406 -1.953125 4.242188 -2.035156 4.453125 -2.203125 C 4.671875 -2.378906 4.78125 -2.570312 4.78125 -2.78125 C 4.78125 -3.019531 4.710938 -3.289062 4.578125 -3.59375 C 4.453125 -3.90625 4.289062 -4.226562 4.09375 -4.5625 C 3.894531 -4.90625 3.691406 -5.234375 3.484375 -5.546875 C 3.273438 -5.859375 3.09375 -6.128906 2.9375 -6.359375 L 4.65625 -7.5 C 5.289062 -6.65625 5.785156 -5.835938 6.140625 -5.046875 C 6.503906 -4.265625 6.742188 -3.628906 6.859375 -3.140625 C 6.972656 -2.671875 7.175781 -2.351562 7.46875 -2.1875 C 7.769531 -2.03125 8.085938 -1.953125 8.421875 -1.953125 C 8.785156 -1.953125 9.046875 -1.859375 9.203125 -1.671875 C 9.367188 -1.484375 9.453125 -1.25 9.453125 -0.96875 C 9.453125 -0.664062 9.351562 -0.414062 9.15625 -0.21875 C 8.957031 -0.0195312 8.664062 0.078125 8.28125 0.078125 C 7.363281 0.078125 6.679688 -0.203125 6.234375 -0.765625 C 5.972656 -0.515625 5.601562 -0.304688 5.125 -0.140625 C 4.65625 0.015625 4.097656 0.09375 3.453125 0.09375 C 3.003906 0.09375 2.503906 0.0390625 1.953125 -0.0625 C 1.398438 -0.175781 0.921875 -0.347656 0.515625 -0.578125 L 1.21875 -2.421875 C 1.570312 -2.253906 1.914062 -2.132812 2.25 -2.0625 C 2.59375 -1.988281 2.898438 -1.953125 3.171875 -1.953125 Z M 3.171875 -1.953125 "/></g></g></g><g fill="#ffffff" fill-opacity="1"><g transform="translate(229.600123, 281.668078)"><g><path d="M 0 0.078125 L 0.140625 -1.953125 C 0.492188 -1.953125 0.796875 -1.984375 1.046875 -2.046875 C 1.296875 -2.117188 1.503906 -2.257812 1.671875 -2.46875 C 1.847656 -2.675781 2 -2.984375 2.125 -3.390625 C 2.25 -3.796875 2.359375 -4.335938 2.453125 -5.015625 L 4.359375 -4.703125 C 4.316406 -4.484375 4.269531 -4.21875 4.21875 -3.90625 C 4.175781 -3.59375 4.15625 -3.304688 4.15625 -3.046875 C 4.15625 -2.703125 4.296875 -2.429688 4.578125 -2.234375 C 4.867188 -2.046875 5.367188 -1.953125 6.078125 -1.953125 C 6.441406 -1.953125 6.703125 -1.859375 6.859375 -1.671875 C 7.015625 -1.484375 7.09375 -1.25 7.09375 -0.96875 C 7.09375 -0.664062 6.992188 -0.414062 6.796875 -0.21875 C 6.597656 -0.0195312 6.3125 0.078125 5.9375 0.078125 C 5.257812 0.078125 4.679688 -0.0078125 4.203125 -0.1875 C 3.722656 -0.363281 3.375 -0.675781 3.15625 -1.125 C 2.894531 -0.769531 2.585938 -0.507812 2.234375 -0.34375 C 1.878906 -0.175781 1.507812 -0.0625 1.125 0 C 0.738281 0.0507812 0.363281 0.078125 0 0.078125 Z M 4.0625 3.453125 C 3.78125 3.453125 3.539062 3.351562 3.34375 3.15625 C 3.144531 2.957031 3.046875 2.71875 3.046875 2.4375 C 3.046875 2.15625 3.144531 1.910156 3.34375 1.703125 C 3.539062 1.503906 3.78125 1.40625 4.0625 1.40625 C 4.332031 1.40625 4.5625 1.503906 4.75 1.703125 C 4.945312 1.910156 5.046875 2.15625 5.046875 2.4375 C 5.046875 2.71875 4.945312 2.957031 4.75 3.15625 C 4.5625 3.351562 4.332031 3.453125 4.0625 3.453125 Z M 1.546875 3.453125 C 1.265625 3.453125 1.023438 3.351562 0.828125 3.15625 C 0.628906 2.957031 0.53125 2.71875 0.53125 2.4375 C 0.53125 2.15625 0.628906 1.910156 0.828125 1.703125 C 1.023438 1.503906 1.265625 1.40625 1.546875 1.40625 C 1.816406 1.40625 2.046875 1.503906 2.234375 1.703125 C 2.429688 1.910156 2.53125 2.15625 2.53125 2.4375 C 2.53125 2.71875 2.429688 2.957031 2.234375 3.15625 C 2.046875 3.351562 1.816406 3.453125 1.546875 3.453125 Z M 1.546875 3.453125 "/></g></g></g><g fill="#ffffff" fill-opacity="1"><g transform="translate(235.538599, 281.668078)"><g><path d="M 0 0.078125 L 0.140625 -1.953125 C 1.191406 -1.953125 2.207031 -2.066406 3.1875 -2.296875 C 4.175781 -2.535156 5.054688 -2.910156 5.828125 -3.421875 C 5.378906 -3.679688 4.882812 -3.882812 4.34375 -4.03125 C 3.8125 -4.175781 3.222656 -4.25 2.578125 -4.25 C 2.335938 -4.25 2.085938 -4.238281 1.828125 -4.21875 C 1.578125 -4.195312 1.320312 -4.15625 1.0625 -4.09375 L 0.765625 -6.078125 C 1.046875 -6.148438 1.34375 -6.203125 1.65625 -6.234375 C 1.96875 -6.273438 2.25 -6.296875 2.5 -6.296875 C 3.15625 -6.296875 3.742188 -6.207031 4.265625 -6.03125 C 4.785156 -5.863281 5.257812 -5.660156 5.6875 -5.421875 C 6.125 -5.191406 6.53125 -4.988281 6.90625 -4.8125 C 7.28125 -4.644531 7.644531 -4.5625 8 -4.5625 L 8.53125 -4.5625 L 8.765625 -2.625 C 8.335938 -2.59375 7.941406 -2.507812 7.578125 -2.375 C 7.222656 -2.238281 6.867188 -2.066406 6.515625 -1.859375 C 6.171875 -1.648438 5.796875 -1.4375 5.390625 -1.21875 C 4.992188 -1 4.539062 -0.789062 4.03125 -0.59375 C 3.53125 -0.40625 2.953125 -0.242188 2.296875 -0.109375 C 1.640625 0.015625 0.875 0.078125 0 0.078125 Z M 0 0.078125 "/></g></g></g><g fill="#ffffff" fill-opacity="1"><g transform="translate(244.671373, 281.668078)"><g><path d="M 0.828125 3.34375 L 0.40625 1.3125 C 1.332031 1.1875 2.109375 1.03125 2.734375 0.84375 C 3.359375 0.65625 3.820312 0.335938 4.125 -0.109375 C 3.988281 -0.0546875 3.835938 -0.015625 3.671875 0.015625 C 3.515625 0.046875 3.347656 0.0625 3.171875 0.0625 C 2.703125 0.0625 2.28125 -0.0078125 1.90625 -0.15625 C 1.53125 -0.3125 1.234375 -0.546875 1.015625 -0.859375 C 0.796875 -1.179688 0.6875 -1.601562 0.6875 -2.125 C 0.6875 -2.59375 0.757812 -3.050781 0.90625 -3.5 C 1.0625 -3.945312 1.273438 -4.34375 1.546875 -4.6875 C 1.828125 -5.039062 2.148438 -5.320312 2.515625 -5.53125 C 2.878906 -5.738281 3.265625 -5.84375 3.671875 -5.84375 C 4.148438 -5.84375 4.570312 -5.722656 4.9375 -5.484375 C 5.300781 -5.242188 5.601562 -4.925781 5.84375 -4.53125 C 6.09375 -4.144531 6.28125 -3.722656 6.40625 -3.265625 C 6.53125 -2.804688 6.59375 -2.367188 6.59375 -1.953125 C 6.59375 -0.859375 6.359375 0.0664062 5.890625 0.828125 C 5.429688 1.585938 4.769531 2.175781 3.90625 2.59375 C 3.039062 3.019531 2.015625 3.269531 0.828125 3.34375 Z M 2.6875 -2.53125 C 2.6875 -2.125 2.988281 -1.921875 3.59375 -1.921875 C 3.914062 -1.921875 4.234375 -1.960938 4.546875 -2.046875 C 4.523438 -2.304688 4.476562 -2.5625 4.40625 -2.8125 C 4.332031 -3.070312 4.226562 -3.285156 4.09375 -3.453125 C 3.957031 -3.617188 3.785156 -3.703125 3.578125 -3.703125 C 3.304688 -3.703125 3.085938 -3.570312 2.921875 -3.3125 C 2.765625 -3.0625 2.6875 -2.800781 2.6875 -2.53125 Z M 2.6875 -2.53125 "/></g></g></g><g fill="#ffffff" fill-opacity="1"><g transform="translate(251.902094, 281.668078)"><g/></g></g><g fill="#ffffff" fill-opacity="1"><g transform="translate(255.517799, 281.668078)"><g><path d="M 4.59375 0.078125 C 3.695312 0.078125 3.003906 -0.015625 2.515625 -0.203125 C 2.023438 -0.390625 1.679688 -0.675781 1.484375 -1.0625 C 1.285156 -1.457031 1.175781 -1.957031 1.15625 -2.5625 L 0.859375 -10.625 L 2.890625 -10.625 L 3.1875 -3.53125 C 3.207031 -3.082031 3.253906 -2.742188 3.328125 -2.515625 C 3.410156 -2.296875 3.554688 -2.144531 3.765625 -2.0625 C 3.984375 -1.988281 4.3125 -1.953125 4.75 -1.953125 C 5.101562 -1.953125 5.363281 -1.859375 5.53125 -1.671875 C 5.695312 -1.484375 5.78125 -1.25 5.78125 -0.96875 C 5.78125 -0.664062 5.675781 -0.414062 5.46875 -0.21875 C 5.269531 -0.0195312 4.976562 0.078125 4.59375 0.078125 Z M 4.59375 0.078125 "/></g></g></g><g fill="#ffffff" fill-opacity="1"><g transform="translate(260.135009, 281.668078)"><g><path d="M 0 0.078125 L 0.140625 -1.953125 C 0.773438 -1.953125 1.21875 -2.019531 1.46875 -2.15625 C 1.71875 -2.300781 1.84375 -2.601562 1.84375 -3.0625 C 1.84375 -3.332031 1.804688 -3.65625 1.734375 -4.03125 C 1.660156 -4.40625 1.566406 -4.796875 1.453125 -5.203125 C 1.335938 -5.609375 1.222656 -5.984375 1.109375 -6.328125 L 3.109375 -6.875 C 3.222656 -6.550781 3.335938 -6.171875 3.453125 -5.734375 C 3.566406 -5.296875 3.664062 -4.84375 3.75 -4.375 C 3.832031 -3.914062 3.875 -3.476562 3.875 -3.0625 C 3.875 -2.40625 3.769531 -1.867188 3.5625 -1.453125 C 3.363281 -1.046875 3.082031 -0.726562 2.71875 -0.5 C 2.351562 -0.28125 1.9375 -0.128906 1.46875 -0.046875 C 1.007812 0.0351562 0.519531 0.078125 0 0.078125 Z M 2.09375 -8.078125 C 1.789062 -8.078125 1.535156 -8.175781 1.328125 -8.375 C 1.117188 -8.582031 1.015625 -8.835938 1.015625 -9.140625 C 1.015625 -9.441406 1.117188 -9.695312 1.328125 -9.90625 C 1.535156 -10.125 1.789062 -10.234375 2.09375 -10.234375 C 2.382812 -10.234375 2.632812 -10.125 2.84375 -9.90625 C 3.050781 -9.695312 3.15625 -9.441406 3.15625 -9.140625 C 3.15625 -8.835938 3.050781 -8.582031 2.84375 -8.375 C 2.632812 -8.175781 2.382812 -8.078125 2.09375 -8.078125 Z M 2.09375 -8.078125 "/></g></g></g><g fill="#ffffff" fill-opacity="1"><g transform="translate(264.737697, 281.668078)"><g><path d="M 5.71875 -7.78125 C 5.71875 -8.257812 5.679688 -8.734375 5.609375 -9.203125 C 5.535156 -9.679688 5.472656 -10.078125 5.421875 -10.390625 L 7.453125 -10.6875 C 7.472656 -10.488281 7.503906 -10.226562 7.546875 -9.90625 C 7.597656 -9.59375 7.632812 -9.257812 7.65625 -8.90625 C 7.6875 -8.550781 7.703125 -8.210938 7.703125 -7.890625 C 7.703125 -6.742188 7.46875 -5.726562 7 -4.84375 C 7.5625 -4.257812 7.9375 -3.742188 8.125 -3.296875 C 8.3125 -2.847656 8.40625 -2.460938 8.40625 -2.140625 C 8.40625 -1.753906 8.320312 -1.398438 8.15625 -1.078125 C 8 -0.753906 7.738281 -0.492188 7.375 -0.296875 C 7.019531 -0.0976562 6.546875 0 5.953125 0 L 1.6875 0 L 1.6875 -1.9375 C 2.957031 -2.863281 3.914062 -3.738281 4.5625 -4.5625 C 4.039062 -4.988281 3.4375 -5.441406 2.75 -5.921875 C 2.070312 -6.398438 1.347656 -6.882812 0.578125 -7.375 L 1.640625 -8.921875 C 2.453125 -8.421875 3.175781 -7.945312 3.8125 -7.5 C 4.445312 -7.0625 5 -6.640625 5.46875 -6.234375 C 5.632812 -6.722656 5.71875 -7.238281 5.71875 -7.78125 Z M 4.296875 -1.953125 L 5.234375 -1.953125 C 5.734375 -1.953125 6.054688 -1.992188 6.203125 -2.078125 C 6.359375 -2.171875 6.4375 -2.289062 6.4375 -2.4375 C 6.4375 -2.632812 6.253906 -2.929688 5.890625 -3.328125 C 5.453125 -2.859375 4.921875 -2.398438 4.296875 -1.953125 Z M 4.296875 -1.953125 "/></g></g></g><g fill="#ffffff" fill-opacity="1"><g transform="translate(273.914026, 281.668078)"><g><path d="M 0.828125 3.34375 L 0.40625 1.3125 C 1.28125 1.195312 2.015625 1.054688 2.609375 0.890625 C 3.203125 0.722656 3.660156 0.453125 3.984375 0.078125 L 3.59375 0.078125 C 2.6875 0.078125 1.972656 -0.0859375 1.453125 -0.421875 C 0.941406 -0.753906 0.6875 -1.328125 0.6875 -2.140625 C 0.6875 -2.578125 0.757812 -3.015625 0.90625 -3.453125 C 1.050781 -3.890625 1.257812 -4.289062 1.53125 -4.65625 C 1.800781 -5.019531 2.117188 -5.304688 2.484375 -5.515625 C 2.847656 -5.734375 3.242188 -5.84375 3.671875 -5.84375 C 4.242188 -5.84375 4.75 -5.664062 5.1875 -5.3125 C 5.625 -4.957031 5.96875 -4.484375 6.21875 -3.890625 C 6.46875 -3.296875 6.59375 -2.648438 6.59375 -1.953125 L 7.734375 -1.953125 C 8.097656 -1.953125 8.359375 -1.859375 8.515625 -1.671875 C 8.679688 -1.484375 8.765625 -1.25 8.765625 -0.96875 C 8.765625 -0.664062 8.660156 -0.414062 8.453125 -0.21875 C 8.253906 -0.0195312 7.96875 0.078125 7.59375 0.078125 L 6.25 0.078125 C 5.875 1.078125 5.21875 1.847656 4.28125 2.390625 C 3.351562 2.941406 2.203125 3.257812 0.828125 3.34375 Z M 2.6875 -2.5 C 2.6875 -2.394531 2.722656 -2.285156 2.796875 -2.171875 C 2.867188 -2.054688 3.035156 -1.96875 3.296875 -1.90625 C 3.554688 -1.84375 3.972656 -1.835938 4.546875 -1.890625 C 4.535156 -2.453125 4.441406 -2.894531 4.265625 -3.21875 C 4.085938 -3.539062 3.859375 -3.703125 3.578125 -3.703125 C 3.378906 -3.703125 3.210938 -3.628906 3.078125 -3.484375 C 2.941406 -3.347656 2.84375 -3.1875 2.78125 -3 C 2.71875 -2.8125 2.6875 -2.644531 2.6875 -2.5 Z M 2.6875 -2.5 "/></g></g></g><g fill="#ffffff" fill-opacity="1"><g transform="translate(281.522241, 281.668078)"><g><path d="M 0 0.078125 L 0.140625 -1.953125 C 0.359375 -1.953125 0.546875 -2.007812 0.703125 -2.125 C 0.867188 -2.238281 1.039062 -2.425781 1.21875 -2.6875 C 1.394531 -2.945312 1.597656 -3.3125 1.828125 -3.78125 C 2.265625 -4.644531 2.726562 -5.238281 3.21875 -5.5625 C 3.707031 -5.882812 4.207031 -6.046875 4.71875 -6.046875 C 5.289062 -6.046875 5.800781 -5.882812 6.25 -5.5625 C 6.707031 -5.25 7.066406 -4.835938 7.328125 -4.328125 C 7.585938 -3.828125 7.71875 -3.289062 7.71875 -2.71875 C 7.71875 -2.195312 7.609375 -1.734375 7.390625 -1.328125 C 7.171875 -0.921875 6.867188 -0.597656 6.484375 -0.359375 C 6.109375 -0.117188 5.675781 0 5.1875 0 C 4.8125 0 4.382812 -0.0507812 3.90625 -0.15625 C 3.4375 -0.257812 2.941406 -0.484375 2.421875 -0.828125 C 2.117188 -0.484375 1.785156 -0.242188 1.421875 -0.109375 C 1.054688 0.015625 0.582031 0.078125 0 0.078125 Z M 4.65625 -4.015625 C 4.375 -4.015625 4.148438 -3.875 3.984375 -3.59375 C 3.828125 -3.3125 3.632812 -2.941406 3.40625 -2.484375 C 3.707031 -2.328125 3.984375 -2.210938 4.234375 -2.140625 C 4.492188 -2.066406 4.71875 -2.03125 4.90625 -2.03125 C 5.195312 -2.03125 5.410156 -2.070312 5.546875 -2.15625 C 5.679688 -2.25 5.75 -2.40625 5.75 -2.625 C 5.75 -2.832031 5.695312 -3.039062 5.59375 -3.25 C 5.5 -3.46875 5.367188 -3.648438 5.203125 -3.796875 C 5.046875 -3.941406 4.863281 -4.015625 4.65625 -4.015625 Z M 4.65625 -4.015625 "/></g></g></g><g fill="#ffffff" fill-opacity="1"><g transform="translate(289.972602, 281.668078)"><g/></g></g><g fill="#ffffff" fill-opacity="1"><g transform="translate(293.588291, 281.668078)"><g><path d="M 0.515625 -0.578125 L 1.21875 -2.421875 C 1.90625 -2.109375 2.578125 -1.953125 3.234375 -1.953125 C 4.265625 -1.953125 4.78125 -2.226562 4.78125 -2.78125 C 4.78125 -2.945312 4.726562 -3.175781 4.625 -3.46875 C 4.519531 -3.757812 4.335938 -4.140625 4.078125 -4.609375 C 3.816406 -5.078125 3.4375 -5.660156 2.9375 -6.359375 L 4.65625 -7.5 C 5.34375 -6.507812 5.894531 -5.566406 6.3125 -4.671875 C 6.726562 -3.785156 6.9375 -3.035156 6.9375 -2.421875 C 6.9375 -1.679688 6.640625 -1.078125 6.046875 -0.609375 C 5.453125 -0.140625 4.585938 0.09375 3.453125 0.09375 C 3.171875 0.09375 2.851562 0.0664062 2.5 0.015625 C 2.144531 -0.0351562 1.789062 -0.109375 1.4375 -0.203125 C 1.09375 -0.296875 0.785156 -0.421875 0.515625 -0.578125 Z M 0.515625 -0.578125 "/></g></g></g></svg>