<svg xmlns="http://www.w3.org/2000/svg" xmlns:xlink="http://www.w3.org/1999/xlink" width="500" zoomAndPan="magnify" viewBox="0 0 375 374.999991" height="500" preserveAspectRatio="xMidYMid meet" version="1.0"><defs><g/><clipPath id="90a79922dc"><path d="M 88.296875 48.277344 L 287 48.277344 L 287 247 L 88.296875 247 Z M 88.296875 48.277344 " clip-rule="nonzero"/></clipPath><clipPath id="d8dcc156d5"><path d="M 120 155 L 254.976562 155 L 254.976562 185 L 120 185 Z M 120 155 " clip-rule="nonzero"/></clipPath><clipPath id="22b72aa2c8"><path d="M 129 170 L 181 170 L 181 205.234375 L 129 205.234375 Z M 129 170 " clip-rule="nonzero"/></clipPath><clipPath id="d3ed5d8587"><path d="M 194 170 L 246 170 L 246 205.234375 L 194 205.234375 Z M 194 170 " clip-rule="nonzero"/></clipPath><clipPath id="0b3be0a093"><path d="M 155.171875 85.554688 L 219.671875 85.554688 L 219.671875 147.457031 L 155.171875 147.457031 Z M 155.171875 85.554688 " clip-rule="nonzero"/></clipPath></defs><g clip-path="url(#90a79922dc)"><path fill="#11324d" d="M 187.496094 246.644531 L 186.261719 245.082031 C 183.433594 241.484375 179.65625 238.757812 175.355469 237.195312 L 171.539062 235.8125 C 163.464844 232.882812 157.886719 225.425781 157.269531 216.945312 L 118.0625 216.945312 L 118.0625 177.742188 C 109.5625 177.148438 102.070312 171.5625 99.136719 163.46875 L 97.753906 159.652344 C 96.191406 155.347656 93.46875 151.574219 89.867188 148.746094 L 88.296875 147.507812 L 89.859375 146.277344 C 93.457031 143.445312 96.183594 139.671875 97.746094 135.371094 L 99.128906 131.554688 C 102.0625 123.460938 109.554688 117.871094 118.054688 117.28125 L 118.054688 78.074219 L 157.257812 78.074219 C 157.855469 69.570312 163.4375 62.082031 171.53125 59.144531 L 175.347656 57.761719 C 179.652344 56.203125 183.425781 53.476562 186.253906 49.875 L 187.496094 48.308594 L 188.726562 49.875 C 191.558594 53.472656 195.332031 56.199219 199.636719 57.761719 L 203.449219 59.144531 C 211.542969 62.082031 217.128906 69.566406 217.722656 78.074219 L 256.925781 78.074219 L 256.925781 117.277344 C 265.429688 117.871094 272.921875 123.457031 275.851562 131.550781 L 277.234375 135.367188 C 278.796875 139.671875 281.523438 143.441406 285.125 146.273438 L 286.6875 147.503906 L 285.125 148.738281 C 281.527344 151.566406 278.796875 155.34375 277.234375 159.644531 L 275.851562 163.460938 C 272.921875 171.554688 265.429688 177.144531 256.925781 177.734375 L 256.925781 216.9375 L 217.71875 216.9375 C 217.105469 225.417969 211.523438 232.875 203.449219 235.804688 L 199.636719 237.1875 C 195.328125 238.75 191.558594 241.472656 188.726562 245.074219 Z M 121.191406 213.8125 L 160.34375 213.8125 L 160.34375 215.378906 C 160.34375 223.179688 165.273438 230.210938 172.609375 232.867188 L 176.421875 234.25 C 180.675781 235.792969 184.472656 238.347656 187.496094 241.691406 C 190.519531 238.347656 194.3125 235.792969 198.570312 234.25 L 202.382812 232.867188 C 209.714844 230.207031 214.644531 223.179688 214.644531 215.378906 L 214.644531 213.8125 L 253.796875 213.8125 L 253.796875 174.660156 L 255.421875 174.660156 C 263.226562 174.660156 270.253906 169.730469 272.914062 162.398438 L 274.292969 158.582031 C 275.835938 154.328125 278.390625 150.53125 281.734375 147.507812 C 278.390625 144.484375 275.835938 140.691406 274.292969 136.4375 L 272.914062 132.621094 C 270.253906 125.289062 263.226562 120.359375 255.421875 120.359375 L 253.796875 120.359375 L 253.796875 81.203125 L 214.644531 81.203125 L 214.644531 79.578125 C 214.644531 71.777344 209.714844 64.746094 202.382812 62.089844 L 198.570312 60.707031 C 194.3125 59.164062 190.519531 56.609375 187.496094 53.265625 C 184.472656 56.609375 180.675781 59.164062 176.421875 60.707031 L 172.609375 62.089844 C 165.273438 64.75 160.34375 71.777344 160.34375 79.578125 L 160.34375 81.203125 L 121.191406 81.203125 L 121.191406 120.355469 L 119.566406 120.355469 C 111.765625 120.355469 104.734375 125.285156 102.078125 132.617188 L 100.695312 136.433594 C 99.152344 140.6875 96.597656 144.480469 93.257812 147.503906 C 96.597656 150.527344 99.152344 154.324219 100.695312 158.578125 L 102.074219 162.398438 C 104.730469 169.730469 111.761719 174.660156 119.5625 174.660156 L 121.1875 174.660156 L 121.1875 213.8125 Z M 121.191406 213.8125 " fill-opacity="1" fill-rule="nonzero"/></g><g clip-path="url(#d8dcc156d5)"><path fill="#11324d" d="M 187.496094 184.804688 L 187.496094 184.800781 L 187.496094 184.804688 L 236.808594 166.5 C 242.144531 164.519531 240.753906 165.035156 254.992188 159.753906 L 253.175781 155.304688 L 187.496094 179.558594 L 121.816406 155.304688 L 120 159.753906 C 134.238281 165.035156 132.847656 164.519531 138.179688 166.5 Z M 187.496094 184.804688 " fill-opacity="1" fill-rule="evenodd"/></g><path fill="#f8c91f" d="M 187.496094 175.820312 L 125.660156 152.984375 L 126.9375 149.46875 C 158.597656 160.316406 185.402344 147.480469 187.496094 175.820312 Z M 187.496094 175.820312 " fill-opacity="1" fill-rule="evenodd"/><path fill="#f8c91f" d="M 187.496094 175.820312 L 249.332031 152.984375 L 248.050781 149.46875 C 216.394531 160.316406 189.589844 147.480469 187.496094 175.820312 Z M 187.496094 175.820312 " fill-opacity="1" fill-rule="evenodd"/><g clip-path="url(#22b72aa2c8)"><path fill="#11324d" d="M 129.175781 205.203125 L 180.878906 186.015625 L 140.207031 170.917969 L 138.691406 175.101562 C 155.914062 179.386719 146.910156 189.671875 133.855469 191.246094 Z M 129.175781 205.203125 " fill-opacity="1" fill-rule="evenodd"/></g><g clip-path="url(#d3ed5d8587)"><path fill="#11324d" d="M 245.8125 205.203125 L 194.113281 186.015625 L 234.78125 170.917969 L 236.300781 175.101562 C 219.078125 179.386719 228.082031 189.671875 241.136719 191.246094 Z M 245.8125 205.203125 " fill-opacity="1" fill-rule="evenodd"/></g><g clip-path="url(#0b3be0a093)"><path fill="#feb601" d="M 172.605469 132.738281 C 171.328125 133.191406 170.113281 133.648438 168.960938 134.105469 C 167.808594 134.558594 166.894531 134.984375 166.210938 135.382812 C 165.613281 135.753906 165.082031 136.300781 164.613281 137.023438 C 164.148438 137.75 163.671875 138.511719 163.183594 139.308594 C 163.8125 139.566406 164.511719 139.761719 165.292969 139.90625 C 166.078125 140.046875 167.175781 140.121094 168.597656 140.121094 C 169.390625 140.121094 170.21875 139.886719 171.070312 139.414062 C 171.921875 138.945312 172.703125 138.300781 173.414062 137.472656 Z M 188.882812 113.03125 L 189.738281 117.761719 L 192.378906 130.902344 C 192.609375 132.128906 192.941406 133.179688 193.382812 134.0625 C 193.824219 134.941406 194.3125 135.707031 194.851562 136.363281 C 195.132812 136.703125 195.519531 137.035156 196 137.347656 C 196.488281 137.65625 197.019531 137.941406 197.601562 138.199219 C 198.183594 138.457031 198.792969 138.667969 199.429688 138.839844 C 200.074219 139.011719 200.675781 139.09375 201.246094 139.09375 C 201.640625 139.09375 201.953125 139.011719 202.179688 138.839844 C 202.410156 138.667969 202.554688 138.199219 202.609375 137.433594 L 199.242188 121.734375 C 199.183594 121.164062 199.132812 120.679688 199.089844 120.28125 C 199.050781 119.886719 199.027344 119.570312 199.027344 119.34375 C 199.027344 118.402344 199.351562 117.308594 200.007812 116.054688 C 200.292969 115.515625 200.613281 114.996094 200.964844 114.503906 C 201.324219 114.003906 201.699219 113.511719 202.09375 113.03125 C 202.152344 113.398438 202.300781 114.144531 202.542969 115.269531 C 202.785156 116.390625 203.117188 117.921875 203.542969 119.851562 C 203.800781 121.023438 204.019531 122.015625 204.207031 122.84375 C 204.390625 123.664062 204.5625 124.40625 204.71875 125.058594 C 204.875 125.714844 205.011719 126.308594 205.121094 126.851562 C 205.234375 127.390625 205.351562 127.960938 205.464844 128.554688 C 205.660156 129.582031 205.828125 130.449219 205.957031 131.160156 C 206.078125 131.871094 206.179688 132.488281 206.253906 133.015625 C 206.320312 133.539062 206.371094 134.003906 206.398438 134.402344 C 206.425781 134.800781 206.441406 135.167969 206.441406 135.511719 C 206.441406 136.59375 206.316406 137.558594 206.0625 138.414062 C 205.945312 138.808594 205.804688 139.273438 205.632812 139.800781 C 205.464844 140.328125 205.277344 140.859375 205.078125 141.398438 C 204.882812 141.941406 204.691406 142.457031 204.507812 142.953125 C 204.316406 143.453125 204.15625 143.871094 204.015625 144.214844 L 203.332031 145.792969 C 201.972656 145.738281 200.691406 145.597656 199.496094 145.386719 C 198.300781 145.171875 197.136719 144.871094 196 144.472656 C 195.09375 144.15625 194.339844 143.722656 193.746094 143.167969 C 193.148438 142.613281 192.59375 141.925781 192.082031 141.101562 C 191.457031 142.007812 190.816406 142.785156 190.164062 143.425781 C 189.507812 144.0625 188.785156 144.628906 187.992188 145.109375 C 187.652344 145.308594 187.253906 145.507812 186.796875 145.710938 C 186.339844 145.90625 185.859375 146.089844 185.347656 146.257812 C 184.835938 146.433594 184.328125 146.566406 183.8125 146.667969 C 183.300781 146.769531 182.816406 146.8125 182.363281 146.8125 C 181.457031 146.8125 180.566406 146.710938 179.699219 146.5 C 178.832031 146.28125 178.015625 145.894531 177.25 145.324219 C 176.511719 144.78125 175.914062 144.058594 175.457031 143.144531 C 175.003906 142.238281 174.621094 141.359375 174.308594 140.5 C 173.144531 142.179688 171.78125 143.574219 170.21875 144.683594 C 168.625 145.765625 167.078125 146.304688 165.574219 146.304688 C 163.980469 146.304688 162.546875 146.242188 161.265625 146.113281 C 159.988281 145.984375 158.898438 145.816406 157.984375 145.597656 C 157.078125 145.386719 156.378906 145.121094 155.898438 144.8125 C 155.417969 144.5 155.171875 144.15625 155.171875 143.789062 C 155.171875 143.191406 155.34375 142.464844 155.6875 141.609375 C 156.027344 140.757812 156.488281 139.863281 157.070312 138.921875 C 157.652344 137.988281 158.3125 137.046875 159.050781 136.109375 C 159.789062 135.167969 160.554688 134.316406 161.355469 133.550781 C 161.667969 133.238281 162.175781 132.867188 162.886719 132.441406 C 163.597656 132.011719 164.421875 131.550781 165.355469 131.054688 C 166.296875 130.554688 167.328125 130.035156 168.449219 129.496094 C 169.570312 128.953125 170.710938 128.414062 171.882812 127.871094 C 171.824219 127.675781 171.757812 127.417969 171.691406 127.105469 C 171.617188 126.796875 171.546875 126.464844 171.472656 126.125 C 171.40625 125.785156 171.34375 125.464844 171.304688 125.167969 C 171.261719 124.871094 171.238281 124.601562 171.238281 124.378906 C 171.238281 123.4375 171.566406 122.355469 172.222656 121.132812 C 172.761719 120.167969 173.488281 119.140625 174.394531 118.066406 L 175.546875 125.058594 C 175.859375 126.824219 176.164062 128.511719 176.460938 130.113281 C 176.761719 131.71875 177.0625 133.292969 177.378906 134.828125 C 177.71875 136.390625 178.304688 137.578125 179.144531 138.390625 C 179.984375 139.203125 181.214844 139.605469 182.832031 139.605469 C 183.488281 139.605469 184.109375 139.5 184.707031 139.285156 C 185.304688 139.074219 185.804688 138.824219 186.203125 138.539062 C 186.542969 138.3125 186.945312 137.980469 187.414062 137.539062 C 187.886719 137.097656 188.402344 136.453125 188.972656 135.597656 L 186.453125 123.953125 C 186.339844 123.492188 186.257812 123.082031 186.203125 122.714844 C 186.140625 122.34375 186.085938 122.015625 186.027344 121.734375 C 185.917969 121.164062 185.839844 120.679688 185.792969 120.28125 C 185.753906 119.886719 185.730469 119.570312 185.730469 119.34375 C 185.730469 118.375 186.058594 117.28125 186.710938 116.054688 C 186.996094 115.574219 187.316406 115.085938 187.667969 114.585938 C 188.027344 114.089844 188.429688 113.570312 188.882812 113.03125 Z M 166.03125 104.699219 C 165.746094 104.699219 165.527344 104.800781 165.371094 105 C 165.214844 105.199219 165.136719 105.394531 165.136719 105.597656 C 165.136719 106.222656 165.492188 106.875 166.199219 107.558594 L 168.078125 109.007812 C 168.300781 108.441406 168.414062 108.042969 168.414062 107.816406 C 168.414062 107.046875 168.144531 106.335938 167.609375 105.679688 C 167.066406 105.027344 166.539062 104.699219 166.03125 104.699219 Z M 168.160156 101.160156 C 168.902344 101.160156 169.566406 101.558594 170.164062 102.355469 C 170.757812 103.148438 171.058594 104.117188 171.058594 105.253906 C 171.058594 105.792969 170.980469 106.359375 170.824219 106.941406 C 170.667969 107.523438 170.304688 108.597656 169.734375 110.160156 C 170.191406 110.558594 170.664062 110.945312 171.144531 111.316406 C 171.457031 111.628906 171.613281 112.066406 171.613281 112.636719 C 171.613281 113.117188 171.570312 113.617188 171.484375 114.128906 C 171.402344 114.640625 171.3125 115.152344 171.230469 115.667969 L 167.691406 113.53125 C 166.269531 115.09375 165.308594 116.132812 164.792969 116.648438 C 162.691406 118.691406 160.929688 119.714844 159.511719 119.714844 L 156.398438 119.714844 C 157.90625 119.003906 159.667969 117.855469 161.683594 116.261719 C 163.5 114.808594 164.878906 113.53125 165.816406 112.421875 C 164.933594 111.882812 164.269531 111.316406 163.8125 110.714844 C 163.242188 109.976562 162.960938 109.164062 162.960938 108.285156 C 162.960938 106.410156 163.507812 104.75 164.601562 103.3125 C 165.695312 101.878906 166.882812 101.160156 168.160156 101.160156 Z M 193.445312 97.414062 C 193.558594 97.953125 193.667969 98.558594 193.761719 99.226562 C 193.863281 99.898438 193.914062 100.484375 193.914062 101 C 193.914062 103.128906 193.542969 104.882812 192.804688 106.242188 C 191.980469 107.78125 190.847656 108.550781 189.398438 108.550781 C 188.882812 108.550781 188.417969 108.464844 187.992188 108.292969 C 187.5625 108.125 187.082031 107.851562 186.542969 107.480469 C 185.945312 108.507812 185.390625 109.273438 184.875 109.789062 C 183.96875 110.695312 183.019531 111.148438 182.023438 111.148438 C 180.828125 111.148438 179.933594 110.746094 179.335938 109.933594 C 178.742188 109.125 178.445312 108.007812 178.445312 106.585938 C 178.445312 105.851562 178.542969 105.121094 178.742188 104.410156 C 178.9375 103.699219 179.222656 102.886719 179.59375 101.980469 L 180.488281 101.59375 C 180.488281 101.824219 180.460938 102.195312 180.402344 102.703125 C 180.347656 103.21875 180.320312 103.644531 180.320312 103.984375 C 180.320312 104.613281 180.449219 105.171875 180.703125 105.671875 C 180.957031 106.164062 181.339844 106.417969 181.851562 106.417969 C 183.074219 106.417969 184.054688 105.621094 184.792969 104.027344 C 185.132812 103.285156 185.558594 101.851562 186.074219 99.71875 L 186.96875 99.460938 C 187.191406 100.855469 187.378906 101.710938 187.523438 102.019531 C 187.863281 102.90625 188.429688 103.347656 189.222656 103.347656 C 190.304688 103.347656 191.160156 102.636719 191.78125 101.214844 C 192.296875 100.070312 192.546875 98.894531 192.546875 97.667969 Z M 215.691406 94.128906 C 216.148438 97.371094 216.722656 101.808594 217.417969 107.441406 C 218.117188 113.070312 218.660156 118.148438 219.058594 122.667969 C 219.570312 128.304688 219.824219 132.554688 219.824219 135.425781 C 219.824219 137.699219 219.414062 139.90625 218.585938 142.035156 C 218.164062 143.179688 217.238281 144.980469 215.816406 147.457031 L 215.050781 147.03125 C 215.140625 146.203125 215.21875 145.25 215.285156 144.171875 C 215.359375 143.089844 215.390625 142.367188 215.390625 141.996094 C 215.390625 139.039062 215.15625 134.90625 214.691406 129.601562 C 214.222656 124.300781 213.660156 118.761719 213.007812 112.984375 C 212.609375 109.484375 212.167969 105.917969 211.6875 102.277344 C 212.253906 101.027344 212.902344 99.679688 213.625 98.222656 C 214.351562 96.773438 215.039062 95.410156 215.691406 94.128906 Z M 186.15625 85.554688 C 187.265625 88.910156 187.820312 91.085938 187.820312 92.078125 C 187.820312 93.617188 187.335938 95.453125 186.371094 97.585938 L 185.429688 97.414062 C 185.546875 96.363281 185.601562 95.597656 185.601562 95.109375 C 185.601562 93.175781 185.121094 91.226562 184.152344 89.265625 C 184.691406 88.1875 185.363281 86.949219 186.15625 85.554688 Z M 186.15625 85.554688 " fill-opacity="1" fill-rule="evenodd"/></g><g fill="#ffffff" fill-opacity="1"><g transform="translate(100.963976, 276.973693)"><g><path d="M 0.546875 8 L -1.21875 3.703125 C 0.425781 3.128906 1.882812 2.453125 3.15625 1.671875 C 4.425781 0.898438 5.421875 0.015625 6.140625 -0.984375 C 6.867188 -1.992188 7.234375 -3.117188 7.234375 -4.359375 C 7.234375 -5.328125 7.015625 -6.390625 6.578125 -7.546875 C 6.140625 -8.703125 5.609375 -9.878906 4.984375 -11.078125 L 9.515625 -13.265625 C 9.910156 -12.546875 10.269531 -11.773438 10.59375 -10.953125 C 10.914062 -10.140625 11.179688 -9.410156 11.390625 -8.765625 C 11.597656 -8.117188 11.738281 -7.675781 11.8125 -7.4375 C 12.132812 -6.332031 12.578125 -5.59375 13.140625 -5.21875 C 13.703125 -4.851562 14.617188 -4.671875 15.890625 -4.671875 C 16.742188 -4.671875 17.363281 -4.445312 17.75 -4 C 18.144531 -3.550781 18.34375 -2.988281 18.34375 -2.3125 C 18.34375 -1.601562 18.097656 -1.007812 17.609375 -0.53125 C 17.128906 -0.0625 16.441406 0.171875 15.546875 0.171875 C 13.796875 0.171875 12.457031 -0.300781 11.53125 -1.25 C 11.132812 0.1875 10.390625 1.507812 9.296875 2.71875 C 8.203125 3.925781 6.890625 4.976562 5.359375 5.875 C 3.835938 6.78125 2.234375 7.488281 0.546875 8 Z M 0.546875 8 "/></g></g></g><g fill="#ffffff" fill-opacity="1"><g transform="translate(116.541684, 276.973693)"><g><path d="M 0 0.171875 L 0.34375 -4.671875 L 5.1875 -4.671875 C 6.394531 -4.671875 7.191406 -4.773438 7.578125 -4.984375 C 7.972656 -5.191406 8.171875 -5.515625 8.171875 -5.953125 C 8.171875 -6.460938 7.921875 -7.054688 7.421875 -7.734375 C 6.929688 -8.421875 6.316406 -9.128906 5.578125 -9.859375 C 4.835938 -10.597656 4.097656 -11.3125 3.359375 -12 C 2.617188 -12.695312 2 -13.304688 1.5 -13.828125 C 1.007812 -14.347656 0.765625 -14.722656 0.765625 -14.953125 C 0.765625 -15.898438 0.835938 -16.582031 0.984375 -17 C 1.140625 -17.414062 1.34375 -17.75 1.59375 -18 C 2.125 -18.53125 2.984375 -19.140625 4.171875 -19.828125 C 5.359375 -20.523438 6.796875 -21.285156 8.484375 -22.109375 C 10.171875 -22.929688 12.015625 -23.800781 14.015625 -24.71875 L 16 -20.5 C 13.707031 -19.476562 11.773438 -18.585938 10.203125 -17.828125 C 8.640625 -17.066406 7.316406 -16.375 6.234375 -15.75 C 7.753906 -14.363281 9.066406 -13.035156 10.171875 -11.765625 C 11.285156 -10.503906 12.335938 -9.0625 13.328125 -7.4375 C 13.816406 -6.632812 14.335938 -6.035156 14.890625 -5.640625 C 15.441406 -5.253906 15.976562 -4.992188 16.5 -4.859375 C 17.019531 -4.734375 17.488281 -4.671875 17.90625 -4.671875 C 18.757812 -4.671875 19.378906 -4.445312 19.765625 -4 C 20.160156 -3.550781 20.359375 -2.988281 20.359375 -2.3125 C 20.359375 -1.601562 20.113281 -1.007812 19.625 -0.53125 C 19.144531 -0.0625 18.457031 0.171875 17.5625 0.171875 C 16.65625 0.171875 15.664062 -0.0078125 14.59375 -0.375 C 13.519531 -0.75 12.613281 -1.394531 11.875 -2.3125 C 11.132812 -1.414062 10.191406 -0.773438 9.046875 -0.390625 C 7.910156 -0.015625 6.507812 0.171875 4.84375 0.171875 Z M 0 0.171875 "/></g></g></g><g fill="#ffffff" fill-opacity="1"><g transform="translate(134.127178, 276.973693)"><g><path d="M 0 0.171875 L 0.34375 -4.640625 C 2.238281 -4.640625 3.773438 -4.648438 4.953125 -4.671875 C 6.128906 -4.691406 7.046875 -4.742188 7.703125 -4.828125 C 8.359375 -4.910156 8.847656 -5.015625 9.171875 -5.140625 C 9.492188 -5.265625 9.769531 -5.410156 10 -5.578125 C 10.1875 -5.710938 10.351562 -5.882812 10.5 -6.09375 C 10.65625 -6.300781 10.789062 -6.554688 10.90625 -6.859375 C 9.957031 -6.515625 8.976562 -6.34375 7.96875 -6.34375 C 6.113281 -6.34375 4.65625 -6.726562 3.59375 -7.5 C 2.539062 -8.269531 2.015625 -9.632812 2.015625 -11.59375 C 2.015625 -12.613281 2.1875 -13.625 2.53125 -14.625 C 2.875 -15.632812 3.367188 -16.546875 4.015625 -17.359375 C 4.660156 -18.179688 5.421875 -18.835938 6.296875 -19.328125 C 7.179688 -19.828125 8.148438 -20.078125 9.203125 -20.078125 C 10.773438 -20.078125 12.070312 -19.617188 13.09375 -18.703125 C 14.125 -17.796875 14.890625 -16.570312 15.390625 -15.03125 C 15.890625 -13.5 16.140625 -11.800781 16.140625 -9.9375 C 16.140625 -8.300781 15.894531 -6.875 15.40625 -5.65625 C 14.925781 -4.445312 14.347656 -3.492188 13.671875 -2.796875 C 13.117188 -2.222656 12.484375 -1.738281 11.765625 -1.34375 C 11.054688 -0.957031 10.1875 -0.65625 9.15625 -0.4375 C 8.132812 -0.21875 6.878906 -0.0625 5.390625 0.03125 C 3.898438 0.125 2.101562 0.171875 0 0.171875 Z M 6.78125 -12.53125 C 6.78125 -11.539062 7.554688 -11.046875 9.109375 -11.046875 C 9.847656 -11.046875 10.585938 -11.160156 11.328125 -11.390625 C 11.210938 -12.660156 10.945312 -13.628906 10.53125 -14.296875 C 10.113281 -14.960938 9.582031 -15.296875 8.9375 -15.296875 C 8.382812 -15.296875 7.882812 -15.03125 7.4375 -14.5 C 7 -13.976562 6.78125 -13.320312 6.78125 -12.53125 Z M 9.140625 -23.3125 C 8.421875 -23.3125 7.8125 -23.550781 7.3125 -24.03125 C 6.820312 -24.519531 6.578125 -25.117188 6.578125 -25.828125 C 6.578125 -26.546875 6.820312 -27.15625 7.3125 -27.65625 C 7.8125 -28.164062 8.421875 -28.421875 9.140625 -28.421875 C 9.828125 -28.421875 10.414062 -28.164062 10.90625 -27.65625 C 11.40625 -27.15625 11.65625 -26.546875 11.65625 -25.828125 C 11.65625 -25.117188 11.40625 -24.519531 10.90625 -24.03125 C 10.414062 -23.550781 9.828125 -23.3125 9.140625 -23.3125 Z M 9.140625 -23.3125 "/></g></g></g><g fill="#ffffff" fill-opacity="1"><g transform="translate(151.608828, 276.973693)"><g/></g></g><g fill="#ffffff" fill-opacity="1"><g transform="translate(160.263113, 276.973693)"><g><path d="M 0.90625 -0.96875 C 0.90625 -1.75 1.015625 -2.75 1.234375 -3.96875 C 1.453125 -5.195312 1.941406 -6.65625 2.703125 -8.34375 L 6.953125 -6.859375 C 6.566406 -5.773438 6.269531 -4.84375 6.0625 -4.0625 C 5.851562 -3.289062 5.75 -2.535156 5.75 -1.796875 C 5.75 -0.273438 6.398438 0.925781 7.703125 1.8125 C 9.003906 2.707031 10.878906 3.15625 13.328125 3.15625 C 15.867188 3.15625 17.859375 2.914062 19.296875 2.4375 C 20.742188 1.96875 21.46875 1.269531 21.46875 0.34375 C 21.46875 -0.0507812 21.148438 -0.441406 20.515625 -0.828125 C 19.878906 -1.222656 18.789062 -1.695312 17.25 -2.25 L 18.390625 -7.125 C 20.347656 -6.300781 22.132812 -5.6875 23.75 -5.28125 C 25.363281 -4.875 26.796875 -4.671875 28.046875 -4.671875 C 28.921875 -4.671875 29.539062 -4.445312 29.90625 -4 C 30.28125 -3.550781 30.46875 -2.988281 30.46875 -2.3125 C 30.46875 -1.601562 30.222656 -1.007812 29.734375 -0.53125 C 29.253906 -0.0625 28.578125 0.171875 27.703125 0.171875 L 26.109375 0.171875 C 26.148438 0.398438 26.171875 0.597656 26.171875 0.765625 C 26.171875 0.941406 26.171875 1.113281 26.171875 1.28125 C 26.171875 2.039062 25.910156 2.8125 25.390625 3.59375 C 24.878906 4.382812 24.078125 5.113281 22.984375 5.78125 C 21.898438 6.445312 20.519531 6.984375 18.84375 7.390625 C 17.175781 7.796875 15.1875 8 12.875 8 C 9.113281 8 6.175781 7.273438 4.0625 5.828125 C 1.957031 4.390625 0.90625 2.125 0.90625 -0.96875 Z M 16.28125 16.03125 C 15.613281 16.03125 15.039062 15.796875 14.5625 15.328125 C 14.09375 14.867188 13.859375 14.304688 13.859375 13.640625 C 13.859375 12.972656 14.09375 12.394531 14.5625 11.90625 C 15.039062 11.425781 15.613281 11.1875 16.28125 11.1875 C 16.925781 11.1875 17.476562 11.425781 17.9375 11.90625 C 18.40625 12.394531 18.640625 12.972656 18.640625 13.640625 C 18.640625 14.304688 18.40625 14.867188 17.9375 15.328125 C 17.476562 15.796875 16.925781 16.03125 16.28125 16.03125 Z M 10.296875 16.03125 C 9.617188 16.03125 9.039062 15.796875 8.5625 15.328125 C 8.09375 14.867188 7.859375 14.304688 7.859375 13.640625 C 7.859375 12.972656 8.09375 12.394531 8.5625 11.90625 C 9.039062 11.425781 9.617188 11.1875 10.296875 11.1875 C 10.941406 11.1875 11.492188 11.425781 11.953125 11.90625 C 12.410156 12.394531 12.640625 12.972656 12.640625 13.640625 C 12.640625 14.304688 12.410156 14.867188 11.953125 15.328125 C 11.492188 15.796875 10.941406 16.03125 10.296875 16.03125 Z M 10.296875 16.03125 "/></g></g></g><g fill="#ffffff" fill-opacity="1"><g transform="translate(187.956818, 276.973693)"><g><path d="M 0 0.171875 L 0.34375 -4.671875 C 0.851562 -4.671875 1.300781 -4.800781 1.6875 -5.0625 C 2.082031 -5.332031 2.488281 -5.78125 2.90625 -6.40625 C 3.320312 -7.03125 3.804688 -7.894531 4.359375 -9 C 5.398438 -11.082031 6.503906 -12.507812 7.671875 -13.28125 C 8.835938 -14.050781 10.03125 -14.4375 11.25 -14.4375 C 12.613281 -14.4375 13.835938 -14.054688 14.921875 -13.296875 C 16.003906 -12.535156 16.859375 -11.546875 17.484375 -10.328125 C 18.109375 -9.117188 18.421875 -7.832031 18.421875 -6.46875 C 18.421875 -5.25 18.160156 -4.148438 17.640625 -3.171875 C 17.117188 -2.191406 16.398438 -1.414062 15.484375 -0.84375 C 14.578125 -0.28125 13.535156 0 12.359375 0 C 11.484375 0 10.476562 -0.125 9.34375 -0.375 C 8.21875 -0.632812 7.03125 -1.164062 5.78125 -1.96875 C 5.0625 -1.164062 4.265625 -0.609375 3.390625 -0.296875 C 2.515625 0.015625 1.382812 0.171875 0 0.171875 Z M 11.109375 -9.59375 C 10.441406 -9.59375 9.910156 -9.253906 9.515625 -8.578125 C 9.128906 -7.910156 8.671875 -7.023438 8.140625 -5.921875 C 8.847656 -5.546875 9.507812 -5.269531 10.125 -5.09375 C 10.738281 -4.925781 11.265625 -4.84375 11.703125 -4.84375 C 12.390625 -4.84375 12.894531 -4.945312 13.21875 -5.15625 C 13.550781 -5.363281 13.71875 -5.734375 13.71875 -6.265625 C 13.71875 -6.753906 13.597656 -7.25 13.359375 -7.75 C 13.128906 -8.257812 12.816406 -8.691406 12.421875 -9.046875 C 12.035156 -9.410156 11.597656 -9.59375 11.109375 -9.59375 Z M 11.109375 -9.59375 "/></g></g></g><g fill="#ffffff" fill-opacity="1"><g transform="translate(208.10398, 276.973693)"><g><path d="M 4.921875 0.171875 C 4.296875 0.171875 3.664062 0.117188 3.03125 0.015625 C 2.394531 -0.0859375 1.953125 -0.160156 1.703125 -0.203125 L 2.359375 -5.234375 C 4.015625 -4.992188 5.628906 -4.945312 7.203125 -5.09375 C 8.773438 -5.25 10.160156 -5.675781 11.359375 -6.375 C 10.410156 -7.757812 9.09375 -9.410156 7.40625 -11.328125 C 5.71875 -13.242188 3.710938 -15.285156 1.390625 -17.453125 L 4.390625 -20.734375 C 6.421875 -18.796875 8.09375 -17.148438 9.40625 -15.796875 C 10.726562 -14.453125 11.785156 -13.316406 12.578125 -12.390625 C 13.378906 -11.472656 14.007812 -10.675781 14.46875 -10 C 14.863281 -11.019531 15.0625 -12.164062 15.0625 -13.4375 L 14.609375 -25.34375 L 19.453125 -25.34375 L 20.1875 -8.40625 C 20.226562 -7.351562 20.34375 -6.5625 20.53125 -6.03125 C 20.71875 -5.5 21.070312 -5.140625 21.59375 -4.953125 C 22.113281 -4.765625 22.878906 -4.671875 23.890625 -4.671875 C 24.765625 -4.671875 25.390625 -4.445312 25.765625 -4 C 26.148438 -3.550781 26.34375 -2.988281 26.34375 -2.3125 C 26.34375 -1.601562 26.097656 -1.007812 25.609375 -0.53125 C 25.128906 -0.0625 24.441406 0.171875 23.546875 0.171875 C 21.722656 0.171875 20.257812 0.015625 19.15625 -0.296875 C 18.0625 -0.609375 17.234375 -1.09375 16.671875 -1.75 C 16.109375 -2.40625 15.734375 -3.226562 15.546875 -4.21875 C 14.898438 -3.207031 14.125 -2.398438 13.21875 -1.796875 C 12.320312 -1.203125 11.378906 -0.765625 10.390625 -0.484375 C 9.398438 -0.203125 8.429688 -0.0234375 7.484375 0.046875 C 6.535156 0.128906 5.679688 0.171875 4.921875 0.171875 Z M 4.921875 0.171875 "/></g></g></g><g fill="#ffffff" fill-opacity="1"><g transform="translate(231.678247, 276.973693)"><g><path d="M 0 0.171875 L 0.34375 -4.671875 C 1.101562 -4.671875 1.722656 -4.734375 2.203125 -4.859375 C 2.691406 -4.992188 3.09375 -5.285156 3.40625 -5.734375 C 3.71875 -6.179688 3.992188 -6.859375 4.234375 -7.765625 C 4.484375 -8.679688 4.757812 -9.925781 5.0625 -11.5 L 9.5625 -10.671875 C 9.46875 -10.160156 9.34375 -9.523438 9.1875 -8.765625 C 9.039062 -8.003906 8.96875 -7.34375 8.96875 -6.78125 C 8.96875 -6.132812 9.175781 -5.617188 9.59375 -5.234375 C 10.007812 -4.859375 10.796875 -4.671875 11.953125 -4.671875 C 12.523438 -4.671875 13.023438 -4.734375 13.453125 -4.859375 C 13.878906 -4.992188 14.25 -5.285156 14.5625 -5.734375 C 14.875 -6.179688 15.148438 -6.882812 15.390625 -7.84375 C 15.628906 -8.800781 15.863281 -10.097656 16.09375 -11.734375 L 20.671875 -11.015625 C 20.535156 -10.203125 20.394531 -9.34375 20.25 -8.4375 C 20.113281 -7.539062 20.046875 -6.863281 20.046875 -6.40625 C 20.046875 -5.96875 20.257812 -5.566406 20.6875 -5.203125 C 21.113281 -4.847656 21.984375 -4.671875 23.296875 -4.671875 C 24.222656 -4.671875 24.957031 -4.851562 25.5 -5.21875 C 26.039062 -5.59375 26.3125 -6.242188 26.3125 -7.171875 C 26.3125 -8.023438 26.113281 -9.144531 25.71875 -10.53125 C 25.332031 -11.914062 24.875 -13.367188 24.34375 -14.890625 L 29.21875 -16.34375 C 29.59375 -15.351562 29.921875 -14.296875 30.203125 -13.171875 C 30.492188 -12.054688 30.722656 -10.96875 30.890625 -9.90625 C 31.066406 -8.84375 31.15625 -7.929688 31.15625 -7.171875 C 31.15625 -4.785156 30.457031 -2.960938 29.0625 -1.703125 C 27.664062 -0.453125 25.847656 0.171875 23.609375 0.171875 C 21.992188 0.171875 20.734375 -0.015625 19.828125 -0.390625 C 18.929688 -0.773438 18.289062 -1.460938 17.90625 -2.453125 C 17.4375 -1.648438 16.929688 -1.0625 16.390625 -0.6875 C 15.847656 -0.320312 15.207031 -0.0859375 14.46875 0.015625 C 13.726562 0.117188 12.851562 0.171875 11.84375 0.171875 C 11.21875 0.171875 10.59375 0.117188 9.96875 0.015625 C 9.34375 -0.0859375 8.75 -0.304688 8.1875 -0.640625 C 7.625 -0.972656 7.132812 -1.507812 6.71875 -2.25 C 5.9375 -1.1875 4.976562 -0.515625 3.84375 -0.234375 C 2.707031 0.0351562 1.425781 0.171875 0 0.171875 Z M 0 0.171875 "/></g></g></g><g fill="#ffffff" fill-opacity="1"><g transform="translate(264.564513, 276.973693)"><g><path d="M 2.765625 0 L 2.046875 -25.34375 L 6.890625 -25.34375 L 7.625 0 Z M 2.765625 0 "/></g></g></g><g fill="#11324d" fill-opacity="1"><g transform="translate(96.332085, 302.499765)"><g><path d="M 0.328125 -0.34375 C 0.328125 -0.625 0.363281 -0.984375 0.4375 -1.421875 C 0.519531 -1.859375 0.695312 -2.378906 0.96875 -2.984375 L 2.484375 -2.453125 C 2.347656 -2.054688 2.238281 -1.71875 2.15625 -1.4375 C 2.082031 -1.164062 2.046875 -0.898438 2.046875 -0.640625 C 2.046875 -0.0976562 2.28125 0.328125 2.75 0.640625 C 3.21875 0.960938 3.890625 1.125 4.765625 1.125 C 5.671875 1.125 6.378906 1.039062 6.890625 0.875 C 7.398438 0.707031 7.65625 0.457031 7.65625 0.125 C 7.65625 -0.0195312 7.539062 -0.160156 7.3125 -0.296875 C 7.09375 -0.429688 6.707031 -0.597656 6.15625 -0.796875 L 6.5625 -2.546875 C 7.257812 -2.242188 7.894531 -2.019531 8.46875 -1.875 C 9.050781 -1.738281 9.566406 -1.671875 10.015625 -1.671875 C 10.328125 -1.671875 10.546875 -1.585938 10.671875 -1.421875 C 10.804688 -1.265625 10.875 -1.066406 10.875 -0.828125 C 10.875 -0.566406 10.785156 -0.351562 10.609375 -0.1875 C 10.441406 -0.0195312 10.203125 0.0625 9.890625 0.0625 L 9.3125 0.0625 C 9.332031 0.144531 9.34375 0.21875 9.34375 0.28125 C 9.34375 0.34375 9.34375 0.398438 9.34375 0.453125 C 9.34375 0.722656 9.25 1 9.0625 1.28125 C 8.875 1.5625 8.585938 1.820312 8.203125 2.0625 C 7.816406 2.300781 7.320312 2.492188 6.71875 2.640625 C 6.125 2.785156 5.414062 2.859375 4.59375 2.859375 C 3.25 2.859375 2.203125 2.597656 1.453125 2.078125 C 0.703125 1.566406 0.328125 0.757812 0.328125 -0.34375 Z M 4.703125 5.5 C 4.484375 5.5 4.296875 5.421875 4.140625 5.265625 C 3.992188 5.117188 3.921875 4.941406 3.921875 4.734375 C 3.921875 4.515625 3.992188 4.328125 4.140625 4.171875 C 4.296875 4.015625 4.484375 3.9375 4.703125 3.9375 C 4.898438 3.9375 5.078125 4.015625 5.234375 4.171875 C 5.390625 4.328125 5.46875 4.515625 5.46875 4.734375 C 5.46875 4.941406 5.390625 5.117188 5.234375 5.265625 C 5.078125 5.421875 4.898438 5.5 4.703125 5.5 Z M 4.703125 7.609375 C 4.484375 7.609375 4.296875 7.53125 4.140625 7.375 C 3.992188 7.226562 3.921875 7.050781 3.921875 6.84375 C 3.921875 6.625 3.992188 6.4375 4.140625 6.28125 C 4.296875 6.125 4.484375 6.046875 4.703125 6.046875 C 4.898438 6.046875 5.078125 6.125 5.234375 6.28125 C 5.390625 6.4375 5.46875 6.625 5.46875 6.84375 C 5.46875 7.050781 5.390625 7.226562 5.234375 7.375 C 5.078125 7.53125 4.898438 7.609375 4.703125 7.609375 Z M 4.703125 7.609375 "/></g></g></g><g fill="#11324d" fill-opacity="1"><g transform="translate(106.213348, 302.499765)"><g><path d="M 0 0.0625 L 0.125 -1.671875 C 0.4375 -1.671875 0.6875 -1.695312 0.875 -1.75 C 1.0625 -1.8125 1.207031 -1.929688 1.3125 -2.109375 C 1.425781 -2.285156 1.519531 -2.546875 1.59375 -2.890625 C 1.675781 -3.234375 1.757812 -3.695312 1.84375 -4.28125 L 3.453125 -4 C 3.421875 -3.8125 3.382812 -3.582031 3.34375 -3.3125 C 3.300781 -3.050781 3.28125 -2.8125 3.28125 -2.59375 C 3.28125 -2.394531 3.320312 -2.222656 3.40625 -2.078125 C 3.5 -1.941406 3.660156 -1.835938 3.890625 -1.765625 C 4.117188 -1.703125 4.445312 -1.671875 4.875 -1.671875 C 5.1875 -1.671875 5.40625 -1.585938 5.53125 -1.421875 C 5.664062 -1.265625 5.734375 -1.066406 5.734375 -0.828125 C 5.734375 -0.566406 5.648438 -0.351562 5.484375 -0.1875 C 5.316406 -0.0195312 5.070312 0.0625 4.75 0.0625 C 4.082031 0.0625 3.566406 -0.00390625 3.203125 -0.140625 C 2.835938 -0.285156 2.578125 -0.539062 2.421875 -0.90625 C 2.117188 -0.476562 1.757812 -0.207031 1.34375 -0.09375 C 0.925781 0.0078125 0.476562 0.0625 0 0.0625 Z M 2.640625 -5.40625 C 2.390625 -5.40625 2.175781 -5.492188 2 -5.671875 C 1.820312 -5.847656 1.734375 -6.0625 1.734375 -6.3125 C 1.734375 -6.570312 1.820312 -6.789062 2 -6.96875 C 2.175781 -7.144531 2.390625 -7.234375 2.640625 -7.234375 C 2.890625 -7.234375 3.101562 -7.144531 3.28125 -6.96875 C 3.457031 -6.789062 3.546875 -6.570312 3.546875 -6.3125 C 3.546875 -6.0625 3.457031 -5.847656 3.28125 -5.671875 C 3.101562 -5.492188 2.890625 -5.40625 2.640625 -5.40625 Z M 2.640625 -5.40625 "/></g></g></g><g fill="#11324d" fill-opacity="1"><g transform="translate(110.956352, 302.499765)"><g><path d="M 0 0.0625 L 0.125 -1.671875 L 1.859375 -1.671875 C 2.285156 -1.671875 2.566406 -1.707031 2.703125 -1.78125 C 2.847656 -1.851562 2.921875 -1.96875 2.921875 -2.125 C 2.921875 -2.300781 2.832031 -2.507812 2.65625 -2.75 C 2.476562 -3 2.253906 -3.253906 1.984375 -3.515625 C 1.722656 -3.785156 1.457031 -4.039062 1.1875 -4.28125 C 0.925781 -4.53125 0.707031 -4.75 0.53125 -4.9375 C 0.351562 -5.125 0.265625 -5.257812 0.265625 -5.34375 C 0.265625 -5.675781 0.289062 -5.914062 0.34375 -6.0625 C 0.40625 -6.21875 0.476562 -6.335938 0.5625 -6.421875 C 0.757812 -6.617188 1.066406 -6.835938 1.484375 -7.078125 C 1.910156 -7.328125 2.425781 -7.597656 3.03125 -7.890625 C 3.632812 -8.179688 4.289062 -8.492188 5 -8.828125 L 5.703125 -7.3125 C 4.890625 -6.945312 4.203125 -6.628906 3.640625 -6.359375 C 3.085938 -6.085938 2.613281 -5.84375 2.21875 -5.625 C 2.769531 -5.125 3.242188 -4.644531 3.640625 -4.1875 C 4.035156 -3.738281 4.410156 -3.226562 4.765625 -2.65625 C 4.929688 -2.363281 5.113281 -2.144531 5.3125 -2 C 5.507812 -1.863281 5.703125 -1.773438 5.890625 -1.734375 C 6.078125 -1.691406 6.242188 -1.671875 6.390625 -1.671875 C 6.691406 -1.671875 6.910156 -1.585938 7.046875 -1.421875 C 7.191406 -1.265625 7.265625 -1.066406 7.265625 -0.828125 C 7.265625 -0.566406 7.175781 -0.351562 7 -0.1875 C 6.832031 -0.0195312 6.585938 0.0625 6.265625 0.0625 C 5.941406 0.0625 5.585938 0 5.203125 -0.125 C 4.828125 -0.257812 4.503906 -0.492188 4.234375 -0.828125 C 3.972656 -0.503906 3.640625 -0.273438 3.234375 -0.140625 C 2.828125 -0.00390625 2.328125 0.0625 1.734375 0.0625 Z M 0 0.0625 "/></g></g></g><g fill="#11324d" fill-opacity="1"><g transform="translate(117.230952, 302.499765)"><g><path d="M 0 0.0625 L 0.125 -1.671875 C 0.414062 -1.671875 0.671875 -1.695312 0.890625 -1.75 C 1.109375 -1.8125 1.289062 -1.929688 1.4375 -2.109375 C 1.582031 -2.285156 1.707031 -2.546875 1.8125 -2.890625 C 1.914062 -3.234375 2.007812 -3.695312 2.09375 -4.28125 L 3.703125 -4 C 3.671875 -3.8125 3.632812 -3.582031 3.59375 -3.3125 C 3.550781 -3.050781 3.53125 -2.8125 3.53125 -2.59375 C 3.53125 -2.300781 3.65625 -2.070312 3.90625 -1.90625 C 4.15625 -1.75 4.578125 -1.671875 5.171875 -1.671875 C 5.484375 -1.671875 5.707031 -1.585938 5.84375 -1.421875 C 5.976562 -1.265625 6.046875 -1.066406 6.046875 -0.828125 C 6.046875 -0.566406 5.957031 -0.351562 5.78125 -0.1875 C 5.613281 -0.0195312 5.375 0.0625 5.0625 0.0625 C 4.476562 0.0625 3.984375 -0.0078125 3.578125 -0.15625 C 3.171875 -0.3125 2.875 -0.578125 2.6875 -0.953125 C 2.457031 -0.648438 2.191406 -0.425781 1.890625 -0.28125 C 1.597656 -0.144531 1.285156 -0.0507812 0.953125 0 C 0.628906 0.0390625 0.3125 0.0625 0 0.0625 Z M 3.453125 2.9375 C 3.210938 2.9375 3.003906 2.851562 2.828125 2.6875 C 2.660156 2.519531 2.578125 2.316406 2.578125 2.078125 C 2.578125 1.835938 2.660156 1.628906 2.828125 1.453125 C 3.003906 1.285156 3.210938 1.203125 3.453125 1.203125 C 3.679688 1.203125 3.878906 1.285156 4.046875 1.453125 C 4.210938 1.628906 4.296875 1.835938 4.296875 2.078125 C 4.296875 2.316406 4.210938 2.519531 4.046875 2.6875 C 3.878906 2.851562 3.679688 2.9375 3.453125 2.9375 Z M 1.3125 2.9375 C 1.070312 2.9375 0.867188 2.851562 0.703125 2.6875 C 0.535156 2.519531 0.453125 2.316406 0.453125 2.078125 C 0.453125 1.835938 0.535156 1.628906 0.703125 1.453125 C 0.867188 1.285156 1.070312 1.203125 1.3125 1.203125 C 1.539062 1.203125 1.738281 1.285156 1.90625 1.453125 C 2.070312 1.628906 2.15625 1.835938 2.15625 2.078125 C 2.15625 2.316406 2.070312 2.519531 1.90625 2.6875 C 1.738281 2.851562 1.539062 2.9375 1.3125 2.9375 Z M 1.3125 2.9375 "/></g></g></g><g fill="#11324d" fill-opacity="1"><g transform="translate(122.28274, 302.499765)"><g><path d="M 0 0.0625 L 0.125 -1.671875 C 0.5 -1.671875 0.769531 -1.707031 0.9375 -1.78125 C 1.101562 -1.863281 1.203125 -2.015625 1.234375 -2.234375 C 1.265625 -2.453125 1.273438 -2.769531 1.265625 -3.1875 L 1.03125 -9.046875 L 2.78125 -9.046875 L 3.03125 -3.0625 C 3.039062 -2.582031 3.019531 -2.148438 2.96875 -1.765625 C 2.914062 -1.390625 2.785156 -1.066406 2.578125 -0.796875 C 2.378906 -0.523438 2.070312 -0.3125 1.65625 -0.15625 C 1.238281 -0.0078125 0.6875 0.0625 0 0.0625 Z M 0 0.0625 "/></g></g></g><g fill="#11324d" fill-opacity="1"><g transform="translate(125.951155, 302.499765)"><g/></g></g><g fill="#11324d" fill-opacity="1"><g transform="translate(128.779665, 302.499765)"><g><path d="M 0.703125 2.84375 L 0.34375 1.109375 C 1.082031 1.015625 1.707031 0.894531 2.21875 0.75 C 2.726562 0.613281 3.125 0.382812 3.40625 0.0625 L 3.0625 0.0625 C 2.289062 0.0625 1.679688 -0.078125 1.234375 -0.359375 C 0.796875 -0.648438 0.578125 -1.140625 0.578125 -1.828125 C 0.578125 -2.203125 0.640625 -2.570312 0.765625 -2.9375 C 0.898438 -3.3125 1.082031 -3.648438 1.3125 -3.953125 C 1.539062 -4.265625 1.804688 -4.515625 2.109375 -4.703125 C 2.421875 -4.890625 2.757812 -4.984375 3.125 -4.984375 C 3.613281 -4.984375 4.046875 -4.828125 4.421875 -4.515625 C 4.796875 -4.210938 5.085938 -3.8125 5.296875 -3.3125 C 5.503906 -2.8125 5.609375 -2.265625 5.609375 -1.671875 L 6.59375 -1.671875 C 6.894531 -1.671875 7.113281 -1.585938 7.25 -1.421875 C 7.394531 -1.265625 7.46875 -1.066406 7.46875 -0.828125 C 7.46875 -0.566406 7.378906 -0.351562 7.203125 -0.1875 C 7.035156 -0.0195312 6.789062 0.0625 6.46875 0.0625 L 5.328125 0.0625 C 5.003906 0.914062 4.441406 1.578125 3.640625 2.046875 C 2.847656 2.515625 1.867188 2.78125 0.703125 2.84375 Z M 2.28125 -2.125 C 2.28125 -2.03125 2.3125 -1.9375 2.375 -1.84375 C 2.4375 -1.75 2.578125 -1.675781 2.796875 -1.625 C 3.023438 -1.570312 3.382812 -1.566406 3.875 -1.609375 C 3.863281 -2.085938 3.78125 -2.460938 3.625 -2.734375 C 3.476562 -3.015625 3.285156 -3.15625 3.046875 -3.15625 C 2.878906 -3.15625 2.738281 -3.09375 2.625 -2.96875 C 2.507812 -2.851562 2.421875 -2.710938 2.359375 -2.546875 C 2.304688 -2.390625 2.28125 -2.25 2.28125 -2.125 Z M 2.28125 -2.125 "/></g></g></g><g fill="#11324d" fill-opacity="1"><g transform="translate(135.251894, 302.499765)"><g><path d="M 0 0.0625 L 0.125 -1.671875 C 0.414062 -1.671875 0.671875 -1.695312 0.890625 -1.75 C 1.109375 -1.8125 1.289062 -1.929688 1.4375 -2.109375 C 1.582031 -2.285156 1.707031 -2.546875 1.8125 -2.890625 C 1.914062 -3.234375 2.007812 -3.695312 2.09375 -4.28125 L 3.703125 -4 C 3.671875 -3.8125 3.632812 -3.582031 3.59375 -3.3125 C 3.550781 -3.050781 3.53125 -2.8125 3.53125 -2.59375 C 3.53125 -2.300781 3.65625 -2.070312 3.90625 -1.90625 C 4.15625 -1.75 4.578125 -1.671875 5.171875 -1.671875 C 5.484375 -1.671875 5.707031 -1.585938 5.84375 -1.421875 C 5.976562 -1.265625 6.046875 -1.066406 6.046875 -0.828125 C 6.046875 -0.566406 5.957031 -0.351562 5.78125 -0.1875 C 5.613281 -0.0195312 5.375 0.0625 5.0625 0.0625 C 4.476562 0.0625 3.984375 -0.0078125 3.578125 -0.15625 C 3.171875 -0.3125 2.875 -0.578125 2.6875 -0.953125 C 2.457031 -0.648438 2.191406 -0.425781 1.890625 -0.28125 C 1.597656 -0.144531 1.285156 -0.0507812 0.953125 0 C 0.628906 0.0390625 0.3125 0.0625 0 0.0625 Z M 1.84375 -5.40625 C 1.601562 -5.40625 1.394531 -5.488281 1.21875 -5.65625 C 1.050781 -5.820312 0.96875 -6.019531 0.96875 -6.25 C 0.96875 -6.488281 1.050781 -6.691406 1.21875 -6.859375 C 1.394531 -7.035156 1.601562 -7.125 1.84375 -7.125 C 2.070312 -7.125 2.265625 -7.035156 2.421875 -6.859375 C 2.585938 -6.691406 2.671875 -6.488281 2.671875 -6.25 C 2.671875 -6.019531 2.585938 -5.820312 2.421875 -5.65625 C 2.265625 -5.488281 2.070312 -5.40625 1.84375 -5.40625 Z M 3.96875 -5.390625 C 3.726562 -5.390625 3.523438 -5.46875 3.359375 -5.625 C 3.191406 -5.789062 3.109375 -5.992188 3.109375 -6.234375 C 3.109375 -6.472656 3.191406 -6.675781 3.359375 -6.84375 C 3.523438 -7.019531 3.726562 -7.109375 3.96875 -7.109375 C 4.207031 -7.109375 4.40625 -7.019531 4.5625 -6.84375 C 4.726562 -6.675781 4.8125 -6.472656 4.8125 -6.234375 C 4.8125 -5.992188 4.726562 -5.789062 4.5625 -5.625 C 4.40625 -5.46875 4.207031 -5.390625 3.96875 -5.390625 Z M 3.96875 -5.390625 "/></g></g></g><g fill="#11324d" fill-opacity="1"><g transform="translate(140.303682, 302.499765)"><g><path d="M 0 0.0625 L 0.125 -1.671875 C 0.394531 -1.671875 0.613281 -1.691406 0.78125 -1.734375 C 0.957031 -1.773438 1.101562 -1.875 1.21875 -2.03125 C 1.332031 -2.195312 1.429688 -2.441406 1.515625 -2.765625 C 1.597656 -3.097656 1.691406 -3.546875 1.796875 -4.109375 L 3.40625 -3.8125 C 3.375 -3.625 3.332031 -3.394531 3.28125 -3.125 C 3.226562 -2.851562 3.203125 -2.617188 3.203125 -2.421875 C 3.203125 -2.191406 3.273438 -2.007812 3.421875 -1.875 C 3.566406 -1.738281 3.84375 -1.671875 4.25 -1.671875 C 4.46875 -1.671875 4.648438 -1.691406 4.796875 -1.734375 C 4.953125 -1.773438 5.082031 -1.875 5.1875 -2.03125 C 5.300781 -2.195312 5.398438 -2.453125 5.484375 -2.796875 C 5.578125 -3.140625 5.664062 -3.601562 5.75 -4.1875 L 7.375 -3.9375 C 7.320312 -3.644531 7.269531 -3.335938 7.21875 -3.015625 C 7.175781 -2.691406 7.15625 -2.445312 7.15625 -2.28125 C 7.15625 -2.125 7.226562 -1.984375 7.375 -1.859375 C 7.53125 -1.734375 7.84375 -1.671875 8.3125 -1.671875 C 9.03125 -1.671875 9.390625 -1.992188 9.390625 -2.640625 C 9.390625 -2.921875 9.378906 -3.238281 9.359375 -3.59375 C 9.335938 -3.957031 9.296875 -4.40625 9.234375 -4.9375 L 10.828125 -5.0625 C 10.878906 -4.351562 10.941406 -3.773438 11.015625 -3.328125 C 11.097656 -2.890625 11.203125 -2.546875 11.328125 -2.296875 C 11.453125 -2.054688 11.625 -1.890625 11.84375 -1.796875 C 12.0625 -1.710938 12.347656 -1.671875 12.703125 -1.671875 C 13.015625 -1.671875 13.238281 -1.585938 13.375 -1.421875 C 13.507812 -1.265625 13.578125 -1.066406 13.578125 -0.828125 C 13.578125 -0.566406 13.492188 -0.351562 13.328125 -0.1875 C 13.160156 -0.0195312 12.910156 0.0625 12.578125 0.0625 C 12.304688 0.0625 12.023438 0.0351562 11.734375 -0.015625 C 11.453125 -0.078125 11.1875 -0.195312 10.9375 -0.375 C 10.6875 -0.5625 10.476562 -0.835938 10.3125 -1.203125 C 10.132812 -0.691406 9.875 -0.351562 9.53125 -0.1875 C 9.1875 -0.0195312 8.738281 0.0625 8.1875 0.0625 C 7.75 0.0625 7.367188 -0.00390625 7.046875 -0.140625 C 6.722656 -0.273438 6.492188 -0.507812 6.359375 -0.84375 C 6.203125 -0.570312 6.023438 -0.375 5.828125 -0.25 C 5.628906 -0.125 5.394531 -0.0390625 5.125 0 C 4.851562 0.0390625 4.535156 0.0625 4.171875 0.0625 C 3.941406 0.0625 3.71875 0.046875 3.5 0.015625 C 3.28125 -0.015625 3.070312 -0.0859375 2.875 -0.203125 C 2.6875 -0.328125 2.523438 -0.523438 2.390625 -0.796875 C 2.117188 -0.421875 1.78125 -0.179688 1.375 -0.078125 C 0.96875 0.015625 0.507812 0.0625 0 0.0625 Z M 5.625 2.90625 C 5.382812 2.90625 5.179688 2.820312 5.015625 2.65625 C 4.847656 2.5 4.765625 2.300781 4.765625 2.0625 C 4.765625 1.820312 4.847656 1.613281 5.015625 1.4375 C 5.179688 1.257812 5.382812 1.171875 5.625 1.171875 C 5.851562 1.171875 6.050781 1.257812 6.21875 1.4375 C 6.394531 1.613281 6.484375 1.820312 6.484375 2.0625 C 6.484375 2.300781 6.394531 2.5 6.21875 2.65625 C 6.050781 2.820312 5.851562 2.90625 5.625 2.90625 Z M 6.25 -5.953125 C 6 -5.953125 5.785156 -6.039062 5.609375 -6.21875 C 5.429688 -6.394531 5.34375 -6.609375 5.34375 -6.859375 C 5.34375 -7.117188 5.429688 -7.335938 5.609375 -7.515625 C 5.785156 -7.691406 6 -7.78125 6.25 -7.78125 C 6.5 -7.78125 6.710938 -7.691406 6.890625 -7.515625 C 7.066406 -7.335938 7.15625 -7.117188 7.15625 -6.859375 C 7.15625 -6.609375 7.066406 -6.394531 6.890625 -6.21875 C 6.710938 -6.039062 6.5 -5.953125 6.25 -5.953125 Z M 6.25 -5.953125 "/></g></g></g><g fill="#11324d" fill-opacity="1"><g transform="translate(152.889939, 302.499765)"><g><path d="M 0 0.0625 L 0.125 -1.671875 C 0.613281 -1.671875 0.988281 -1.691406 1.25 -1.734375 C 1.519531 -1.785156 1.707031 -1.878906 1.8125 -2.015625 C 1.914062 -2.148438 1.96875 -2.347656 1.96875 -2.609375 C 1.96875 -2.835938 1.9375 -3.113281 1.875 -3.4375 C 1.8125 -3.757812 1.726562 -4.085938 1.625 -4.421875 C 1.53125 -4.765625 1.429688 -5.085938 1.328125 -5.390625 L 3.046875 -5.859375 C 3.140625 -5.578125 3.238281 -5.25 3.34375 -4.875 C 3.445312 -4.507812 3.53125 -4.128906 3.59375 -3.734375 C 3.664062 -3.335938 3.703125 -2.960938 3.703125 -2.609375 C 3.703125 -2.046875 3.609375 -1.585938 3.421875 -1.234375 C 3.242188 -0.890625 2.988281 -0.617188 2.65625 -0.421875 C 2.332031 -0.234375 1.941406 -0.101562 1.484375 -0.03125 C 1.035156 0.03125 0.539062 0.0625 0 0.0625 Z M 1.03125 2.765625 C 0.8125 2.765625 0.625 2.691406 0.46875 2.546875 C 0.320312 2.398438 0.25 2.21875 0.25 2 C 0.25 1.789062 0.320312 1.609375 0.46875 1.453125 C 0.625 1.296875 0.8125 1.21875 1.03125 1.21875 C 1.238281 1.21875 1.414062 1.296875 1.5625 1.453125 C 1.71875 1.609375 1.796875 1.789062 1.796875 2 C 1.796875 2.21875 1.71875 2.398438 1.5625 2.546875 C 1.414062 2.691406 1.238281 2.765625 1.03125 2.765625 Z M 2.953125 2.765625 C 2.742188 2.765625 2.5625 2.691406 2.40625 2.546875 C 2.25 2.398438 2.171875 2.21875 2.171875 2 C 2.171875 1.789062 2.25 1.609375 2.40625 1.453125 C 2.5625 1.296875 2.742188 1.21875 2.953125 1.21875 C 3.171875 1.21875 3.351562 1.296875 3.5 1.453125 C 3.644531 1.609375 3.71875 1.789062 3.71875 2 C 3.71875 2.21875 3.644531 2.398438 3.5 2.546875 C 3.351562 2.691406 3.171875 2.765625 2.953125 2.765625 Z M 1.96875 4.40625 C 1.75 4.40625 1.5625 4.328125 1.40625 4.171875 C 1.257812 4.023438 1.1875 3.847656 1.1875 3.640625 C 1.1875 3.421875 1.257812 3.234375 1.40625 3.078125 C 1.5625 2.921875 1.75 2.84375 1.96875 2.84375 C 2.175781 2.84375 2.351562 2.921875 2.5 3.078125 C 2.65625 3.234375 2.734375 3.421875 2.734375 3.640625 C 2.734375 3.847656 2.65625 4.023438 2.5 4.171875 C 2.351562 4.328125 2.175781 4.40625 1.96875 4.40625 Z M 1.96875 4.40625 "/></g></g></g><g fill="#11324d" fill-opacity="1"><g transform="translate(157.324158, 302.499765)"><g/></g></g><g fill="#11324d" fill-opacity="1"><g transform="translate(160.152668, 302.499765)"><g><path d="M 0.328125 -0.34375 C 0.328125 -0.625 0.363281 -0.984375 0.4375 -1.421875 C 0.519531 -1.859375 0.695312 -2.378906 0.96875 -2.984375 L 2.484375 -2.453125 C 2.347656 -2.054688 2.238281 -1.71875 2.15625 -1.4375 C 2.082031 -1.164062 2.046875 -0.898438 2.046875 -0.640625 C 2.046875 -0.0351562 2.25 0.40625 2.65625 0.6875 C 3.070312 0.976562 3.613281 1.125 4.28125 1.125 C 4.800781 1.125 5.222656 1.054688 5.546875 0.921875 C 5.878906 0.785156 6.132812 0.609375 6.3125 0.390625 C 6.5 0.171875 6.628906 -0.0664062 6.703125 -0.328125 C 6.773438 -0.585938 6.8125 -0.84375 6.8125 -1.09375 C 6.8125 -1.414062 6.753906 -1.8125 6.640625 -2.28125 C 6.523438 -2.75 6.316406 -3.28125 6.015625 -3.875 L 7.609375 -4.546875 C 7.773438 -4.253906 7.925781 -3.914062 8.0625 -3.53125 C 8.207031 -3.15625 8.320312 -2.757812 8.40625 -2.34375 C 8.5 -1.9375 8.546875 -1.546875 8.546875 -1.171875 C 8.546875 -0.847656 8.503906 -0.5 8.421875 -0.125 C 8.335938 0.238281 8.195312 0.597656 8 0.953125 C 7.8125 1.304688 7.550781 1.625 7.21875 1.90625 C 6.882812 2.1875 6.472656 2.414062 5.984375 2.59375 C 5.503906 2.769531 4.925781 2.859375 4.25 2.859375 C 3.519531 2.859375 2.859375 2.75 2.265625 2.53125 C 1.679688 2.320312 1.210938 1.976562 0.859375 1.5 C 0.503906 1.03125 0.328125 0.414062 0.328125 -0.34375 Z M 4.34375 -5.03125 C 4.09375 -5.03125 3.878906 -5.117188 3.703125 -5.296875 C 3.523438 -5.472656 3.4375 -5.6875 3.4375 -5.9375 C 3.4375 -6.195312 3.523438 -6.414062 3.703125 -6.59375 C 3.878906 -6.769531 4.09375 -6.859375 4.34375 -6.859375 C 4.59375 -6.859375 4.804688 -6.769531 4.984375 -6.59375 C 5.160156 -6.414062 5.25 -6.195312 5.25 -5.9375 C 5.25 -5.6875 5.160156 -5.472656 4.984375 -5.296875 C 4.804688 -5.117188 4.59375 -5.03125 4.34375 -5.03125 Z M 4.34375 -5.03125 "/></g></g></g><g fill="#11324d" fill-opacity="1"><g transform="translate(169.305183, 302.499765)"><g><path d="M 3.921875 0.0625 C 3.148438 0.0625 2.554688 -0.015625 2.140625 -0.171875 C 1.722656 -0.328125 1.429688 -0.570312 1.265625 -0.90625 C 1.097656 -1.238281 1.003906 -1.660156 0.984375 -2.171875 L 0.734375 -9.046875 L 2.453125 -9.046875 L 2.71875 -3 C 2.738281 -2.625 2.78125 -2.335938 2.84375 -2.140625 C 2.90625 -1.953125 3.023438 -1.828125 3.203125 -1.765625 C 3.390625 -1.703125 3.671875 -1.671875 4.046875 -1.671875 C 4.347656 -1.671875 4.566406 -1.585938 4.703125 -1.421875 C 4.847656 -1.265625 4.921875 -1.066406 4.921875 -0.828125 C 4.921875 -0.566406 4.832031 -0.351562 4.65625 -0.1875 C 4.488281 -0.0195312 4.242188 0.0625 3.921875 0.0625 Z M 3.921875 0.0625 "/></g></g></g><g fill="#11324d" fill-opacity="1"><g transform="translate(173.232978, 302.499765)"><g><path d="M 0 0.0625 L 0.125 -1.671875 C 1.007812 -1.671875 1.875 -1.769531 2.71875 -1.96875 C 3.5625 -2.164062 4.304688 -2.484375 4.953125 -2.921875 C 4.578125 -3.140625 4.160156 -3.3125 3.703125 -3.4375 C 3.242188 -3.5625 2.742188 -3.625 2.203125 -3.625 C 1.992188 -3.625 1.78125 -3.613281 1.5625 -3.59375 C 1.34375 -3.570312 1.125 -3.535156 0.90625 -3.484375 L 0.65625 -5.171875 C 0.894531 -5.234375 1.144531 -5.28125 1.40625 -5.3125 C 1.664062 -5.34375 1.90625 -5.359375 2.125 -5.359375 C 2.6875 -5.359375 3.1875 -5.285156 3.625 -5.140625 C 4.070312 -4.992188 4.476562 -4.820312 4.84375 -4.625 C 5.21875 -4.425781 5.5625 -4.25 5.875 -4.09375 C 6.195312 -3.945312 6.507812 -3.875 6.8125 -3.875 L 7.265625 -3.875 L 7.46875 -2.234375 C 7.101562 -2.210938 6.765625 -2.144531 6.453125 -2.03125 C 6.148438 -1.914062 5.847656 -1.769531 5.546875 -1.59375 C 5.253906 -1.414062 4.9375 -1.226562 4.59375 -1.03125 C 4.25 -0.84375 3.863281 -0.664062 3.4375 -0.5 C 3.007812 -0.34375 2.515625 -0.207031 1.953125 -0.09375 C 1.390625 0.0078125 0.738281 0.0625 0 0.0625 Z M 2.140625 -6.515625 C 1.890625 -6.515625 1.675781 -6.601562 1.5 -6.78125 C 1.320312 -6.957031 1.234375 -7.171875 1.234375 -7.421875 C 1.234375 -7.679688 1.320312 -7.898438 1.5 -8.078125 C 1.675781 -8.253906 1.890625 -8.34375 2.140625 -8.34375 C 2.390625 -8.34375 2.601562 -8.253906 2.78125 -8.078125 C 2.957031 -7.898438 3.046875 -7.679688 3.046875 -7.421875 C 3.046875 -7.171875 2.957031 -6.957031 2.78125 -6.78125 C 2.601562 -6.601562 2.390625 -6.515625 2.140625 -6.515625 Z M 2.140625 -6.515625 "/></g></g></g><g fill="#11324d" fill-opacity="1"><g transform="translate(181.00212, 302.499765)"><g/></g></g><g fill="#11324d" fill-opacity="1"><g transform="translate(183.83063, 302.499765)"><g><path d="M 0.328125 -0.34375 C 0.328125 -0.625 0.363281 -0.984375 0.4375 -1.421875 C 0.519531 -1.859375 0.695312 -2.378906 0.96875 -2.984375 L 2.484375 -2.453125 C 2.347656 -2.054688 2.238281 -1.71875 2.15625 -1.4375 C 2.082031 -1.164062 2.046875 -0.898438 2.046875 -0.640625 C 2.046875 -0.078125 2.234375 0.351562 2.609375 0.65625 C 2.992188 0.96875 3.550781 1.125 4.28125 1.125 C 4.945312 1.125 5.460938 1.03125 5.828125 0.84375 C 6.203125 0.65625 6.460938 0.398438 6.609375 0.078125 C 6.753906 -0.234375 6.828125 -0.585938 6.828125 -0.984375 C 6.828125 -1.328125 6.765625 -1.734375 6.640625 -2.203125 C 6.523438 -2.679688 6.375 -3.210938 6.1875 -3.796875 L 7.921875 -4.234375 C 8.035156 -3.753906 8.128906 -3.382812 8.203125 -3.125 C 8.273438 -2.863281 8.332031 -2.664062 8.375 -2.53125 C 8.488281 -2.164062 8.675781 -1.929688 8.9375 -1.828125 C 9.207031 -1.722656 9.585938 -1.671875 10.078125 -1.671875 C 10.378906 -1.671875 10.597656 -1.585938 10.734375 -1.421875 C 10.867188 -1.265625 10.9375 -1.066406 10.9375 -0.828125 C 10.9375 -0.566406 10.847656 -0.351562 10.671875 -0.1875 C 10.503906 -0.0195312 10.265625 0.0625 9.953125 0.0625 C 9.679688 0.0625 9.410156 0.03125 9.140625 -0.03125 C 8.878906 -0.101562 8.65625 -0.222656 8.46875 -0.390625 C 8.363281 0.640625 7.9375 1.4375 7.1875 2 C 6.4375 2.570312 5.453125 2.859375 4.234375 2.859375 C 3.503906 2.859375 2.84375 2.75 2.25 2.53125 C 1.65625 2.3125 1.1875 1.96875 0.84375 1.5 C 0.5 1.03125 0.328125 0.414062 0.328125 -0.34375 Z M 4.34375 -5.03125 C 4.09375 -5.03125 3.878906 -5.117188 3.703125 -5.296875 C 3.523438 -5.472656 3.4375 -5.6875 3.4375 -5.9375 C 3.4375 -6.195312 3.523438 -6.414062 3.703125 -6.59375 C 3.878906 -6.769531 4.09375 -6.859375 4.34375 -6.859375 C 4.59375 -6.859375 4.804688 -6.769531 4.984375 -6.59375 C 5.160156 -6.414062 5.25 -6.195312 5.25 -5.9375 C 5.25 -5.6875 5.160156 -5.472656 4.984375 -5.296875 C 4.804688 -5.117188 4.59375 -5.03125 4.34375 -5.03125 Z M 4.34375 -5.03125 "/></g></g></g><g fill="#11324d" fill-opacity="1"><g transform="translate(193.773645, 302.499765)"><g><path d="M 0 0.0625 L 0.125 -1.671875 C 0.613281 -1.671875 0.988281 -1.691406 1.25 -1.734375 C 1.519531 -1.785156 1.707031 -1.878906 1.8125 -2.015625 C 1.914062 -2.148438 1.96875 -2.347656 1.96875 -2.609375 C 1.96875 -2.835938 1.9375 -3.113281 1.875 -3.4375 C 1.8125 -3.757812 1.726562 -4.085938 1.625 -4.421875 C 1.53125 -4.765625 1.429688 -5.085938 1.328125 -5.390625 L 3.046875 -5.859375 C 3.140625 -5.578125 3.238281 -5.25 3.34375 -4.875 C 3.445312 -4.507812 3.53125 -4.128906 3.59375 -3.734375 C 3.664062 -3.335938 3.703125 -2.960938 3.703125 -2.609375 C 3.703125 -2.046875 3.609375 -1.585938 3.421875 -1.234375 C 3.242188 -0.890625 2.988281 -0.617188 2.65625 -0.421875 C 2.332031 -0.234375 1.941406 -0.101562 1.484375 -0.03125 C 1.035156 0.03125 0.539062 0.0625 0 0.0625 Z M 3.0625 2.9375 C 2.820312 2.9375 2.613281 2.851562 2.4375 2.6875 C 2.269531 2.519531 2.1875 2.316406 2.1875 2.078125 C 2.1875 1.835938 2.269531 1.628906 2.4375 1.453125 C 2.613281 1.285156 2.820312 1.203125 3.0625 1.203125 C 3.289062 1.203125 3.488281 1.285156 3.65625 1.453125 C 3.820312 1.628906 3.90625 1.835938 3.90625 2.078125 C 3.90625 2.316406 3.820312 2.519531 3.65625 2.6875 C 3.488281 2.851562 3.289062 2.9375 3.0625 2.9375 Z M 0.921875 2.9375 C 0.679688 2.9375 0.476562 2.851562 0.3125 2.6875 C 0.144531 2.519531 0.0625 2.316406 0.0625 2.078125 C 0.0625 1.835938 0.144531 1.628906 0.3125 1.453125 C 0.476562 1.285156 0.679688 1.203125 0.921875 1.203125 C 1.148438 1.203125 1.347656 1.285156 1.515625 1.453125 C 1.679688 1.628906 1.765625 1.835938 1.765625 2.078125 C 1.765625 2.316406 1.679688 2.519531 1.515625 2.6875 C 1.347656 2.851562 1.148438 2.9375 0.921875 2.9375 Z M 0.921875 2.9375 "/></g></g></g><g fill="#11324d" fill-opacity="1"><g transform="translate(198.207864, 302.499765)"><g><path d="M 2.6875 -1.671875 C 3.238281 -1.671875 3.601562 -1.738281 3.78125 -1.875 C 3.96875 -2.019531 4.0625 -2.1875 4.0625 -2.375 C 4.0625 -2.570312 4.003906 -2.800781 3.890625 -3.0625 C 3.785156 -3.320312 3.648438 -3.597656 3.484375 -3.890625 C 3.316406 -4.179688 3.140625 -4.457031 2.953125 -4.71875 C 2.773438 -4.976562 2.625 -5.207031 2.5 -5.40625 L 3.96875 -6.390625 C 4.5 -5.671875 4.921875 -4.972656 5.234375 -4.296875 C 5.546875 -3.628906 5.75 -3.085938 5.84375 -2.671875 C 5.9375 -2.273438 6.109375 -2.007812 6.359375 -1.875 C 6.617188 -1.738281 6.890625 -1.671875 7.171875 -1.671875 C 7.484375 -1.671875 7.707031 -1.585938 7.84375 -1.421875 C 7.976562 -1.265625 8.046875 -1.066406 8.046875 -0.828125 C 8.046875 -0.566406 7.960938 -0.351562 7.796875 -0.1875 C 7.628906 -0.0195312 7.378906 0.0625 7.046875 0.0625 C 6.273438 0.0625 5.695312 -0.175781 5.3125 -0.65625 C 5.09375 -0.4375 4.78125 -0.257812 4.375 -0.125 C 3.96875 0.0078125 3.488281 0.078125 2.9375 0.078125 C 2.5625 0.078125 2.140625 0.03125 1.671875 -0.0625 C 1.203125 -0.15625 0.789062 -0.300781 0.4375 -0.5 L 1.03125 -2.0625 C 1.34375 -1.925781 1.640625 -1.828125 1.921875 -1.765625 C 2.203125 -1.703125 2.457031 -1.671875 2.6875 -1.671875 Z M 2.6875 -1.671875 "/></g></g></g><g fill="#11324d" fill-opacity="1"><g transform="translate(205.260617, 302.499765)"><g><path d="M 0 0.0625 L 0.125 -1.671875 C 0.5 -1.671875 0.769531 -1.707031 0.9375 -1.78125 C 1.101562 -1.863281 1.203125 -2.015625 1.234375 -2.234375 C 1.265625 -2.453125 1.273438 -2.769531 1.265625 -3.1875 L 1.03125 -9.046875 L 2.78125 -9.046875 L 3.03125 -3.0625 C 3.039062 -2.582031 3.019531 -2.148438 2.96875 -1.765625 C 2.914062 -1.390625 2.785156 -1.066406 2.578125 -0.796875 C 2.378906 -0.523438 2.070312 -0.3125 1.65625 -0.15625 C 1.238281 -0.0078125 0.6875 0.0625 0 0.0625 Z M 0 0.0625 "/></g></g></g><g fill="#11324d" fill-opacity="1"><g transform="translate(208.929032, 302.499765)"><g><path d="M 0.984375 0 L 0.734375 -9.046875 L 2.453125 -9.046875 L 2.71875 0 Z M 0.984375 0 "/></g></g></g><g fill="#11324d" fill-opacity="1"><g transform="translate(212.301011, 302.499765)"><g><path d="M 2.6875 -1.671875 C 3.238281 -1.671875 3.601562 -1.738281 3.78125 -1.875 C 3.96875 -2.019531 4.0625 -2.1875 4.0625 -2.375 C 4.0625 -2.570312 4.003906 -2.800781 3.890625 -3.0625 C 3.785156 -3.320312 3.648438 -3.597656 3.484375 -3.890625 C 3.316406 -4.179688 3.140625 -4.457031 2.953125 -4.71875 C 2.773438 -4.976562 2.625 -5.207031 2.5 -5.40625 L 3.96875 -6.390625 C 4.5 -5.671875 4.921875 -4.972656 5.234375 -4.296875 C 5.546875 -3.628906 5.75 -3.085938 5.84375 -2.671875 C 5.9375 -2.273438 6.109375 -2.007812 6.359375 -1.875 C 6.617188 -1.738281 6.890625 -1.671875 7.171875 -1.671875 C 7.484375 -1.671875 7.707031 -1.585938 7.84375 -1.421875 C 7.976562 -1.265625 8.046875 -1.066406 8.046875 -0.828125 C 8.046875 -0.566406 7.960938 -0.351562 7.796875 -0.1875 C 7.628906 -0.0195312 7.378906 0.0625 7.046875 0.0625 C 6.273438 0.0625 5.695312 -0.175781 5.3125 -0.65625 C 5.09375 -0.4375 4.78125 -0.257812 4.375 -0.125 C 3.96875 0.0078125 3.488281 0.078125 2.9375 0.078125 C 2.5625 0.078125 2.140625 0.03125 1.671875 -0.0625 C 1.203125 -0.15625 0.789062 -0.300781 0.4375 -0.5 L 1.03125 -2.0625 C 1.34375 -1.925781 1.640625 -1.828125 1.921875 -1.765625 C 2.203125 -1.703125 2.457031 -1.671875 2.6875 -1.671875 Z M 2.6875 -1.671875 "/></g></g></g><g fill="#11324d" fill-opacity="1"><g transform="translate(219.353764, 302.499765)"><g><path d="M 0 0.0625 L 0.125 -1.671875 C 0.414062 -1.671875 0.671875 -1.695312 0.890625 -1.75 C 1.109375 -1.8125 1.289062 -1.929688 1.4375 -2.109375 C 1.582031 -2.285156 1.707031 -2.546875 1.8125 -2.890625 C 1.914062 -3.234375 2.007812 -3.695312 2.09375 -4.28125 L 3.703125 -4 C 3.671875 -3.8125 3.632812 -3.582031 3.59375 -3.3125 C 3.550781 -3.050781 3.53125 -2.8125 3.53125 -2.59375 C 3.53125 -2.300781 3.65625 -2.070312 3.90625 -1.90625 C 4.15625 -1.75 4.578125 -1.671875 5.171875 -1.671875 C 5.484375 -1.671875 5.707031 -1.585938 5.84375 -1.421875 C 5.976562 -1.265625 6.046875 -1.066406 6.046875 -0.828125 C 6.046875 -0.566406 5.957031 -0.351562 5.78125 -0.1875 C 5.613281 -0.0195312 5.375 0.0625 5.0625 0.0625 C 4.476562 0.0625 3.984375 -0.0078125 3.578125 -0.15625 C 3.171875 -0.3125 2.875 -0.578125 2.6875 -0.953125 C 2.457031 -0.648438 2.191406 -0.425781 1.890625 -0.28125 C 1.597656 -0.144531 1.285156 -0.0507812 0.953125 0 C 0.628906 0.0390625 0.3125 0.0625 0 0.0625 Z M 3.453125 2.9375 C 3.210938 2.9375 3.003906 2.851562 2.828125 2.6875 C 2.660156 2.519531 2.578125 2.316406 2.578125 2.078125 C 2.578125 1.835938 2.660156 1.628906 2.828125 1.453125 C 3.003906 1.285156 3.210938 1.203125 3.453125 1.203125 C 3.679688 1.203125 3.878906 1.285156 4.046875 1.453125 C 4.210938 1.628906 4.296875 1.835938 4.296875 2.078125 C 4.296875 2.316406 4.210938 2.519531 4.046875 2.6875 C 3.878906 2.851562 3.679688 2.9375 3.453125 2.9375 Z M 1.3125 2.9375 C 1.070312 2.9375 0.867188 2.851562 0.703125 2.6875 C 0.535156 2.519531 0.453125 2.316406 0.453125 2.078125 C 0.453125 1.835938 0.535156 1.628906 0.703125 1.453125 C 0.867188 1.285156 1.070312 1.203125 1.3125 1.203125 C 1.539062 1.203125 1.738281 1.285156 1.90625 1.453125 C 2.070312 1.628906 2.15625 1.835938 2.15625 2.078125 C 2.15625 2.316406 2.070312 2.519531 1.90625 2.6875 C 1.738281 2.851562 1.539062 2.9375 1.3125 2.9375 Z M 1.3125 2.9375 "/></g></g></g><g fill="#11324d" fill-opacity="1"><g transform="translate(224.405552, 302.499765)"><g><path d="M 0 0.0625 L 0.125 -1.671875 C 1.007812 -1.671875 1.875 -1.769531 2.71875 -1.96875 C 3.5625 -2.164062 4.304688 -2.484375 4.953125 -2.921875 C 4.578125 -3.140625 4.160156 -3.3125 3.703125 -3.4375 C 3.242188 -3.5625 2.742188 -3.625 2.203125 -3.625 C 1.992188 -3.625 1.78125 -3.613281 1.5625 -3.59375 C 1.34375 -3.570312 1.125 -3.535156 0.90625 -3.484375 L 0.65625 -5.171875 C 0.894531 -5.234375 1.144531 -5.28125 1.40625 -5.3125 C 1.664062 -5.34375 1.90625 -5.359375 2.125 -5.359375 C 2.6875 -5.359375 3.1875 -5.285156 3.625 -5.140625 C 4.070312 -4.992188 4.476562 -4.820312 4.84375 -4.625 C 5.21875 -4.425781 5.5625 -4.25 5.875 -4.09375 C 6.195312 -3.945312 6.507812 -3.875 6.8125 -3.875 L 7.265625 -3.875 L 7.46875 -2.234375 C 7.101562 -2.210938 6.765625 -2.144531 6.453125 -2.03125 C 6.148438 -1.914062 5.847656 -1.769531 5.546875 -1.59375 C 5.253906 -1.414062 4.9375 -1.226562 4.59375 -1.03125 C 4.25 -0.84375 3.863281 -0.664062 3.4375 -0.5 C 3.007812 -0.34375 2.515625 -0.207031 1.953125 -0.09375 C 1.390625 0.0078125 0.738281 0.0625 0 0.0625 Z M 0 0.0625 "/></g></g></g><g fill="#11324d" fill-opacity="1"><g transform="translate(232.174693, 302.499765)"><g><path d="M 0.703125 2.84375 L 0.34375 1.109375 C 1.132812 1.015625 1.796875 0.882812 2.328125 0.71875 C 2.859375 0.5625 3.253906 0.289062 3.515625 -0.09375 C 3.398438 -0.0507812 3.269531 -0.0195312 3.125 0 C 2.988281 0.03125 2.84375 0.046875 2.6875 0.046875 C 2.289062 0.046875 1.9375 -0.015625 1.625 -0.140625 C 1.3125 -0.265625 1.054688 -0.460938 0.859375 -0.734375 C 0.671875 -1.015625 0.578125 -1.367188 0.578125 -1.796875 C 0.578125 -2.203125 0.640625 -2.59375 0.765625 -2.96875 C 0.898438 -3.351562 1.085938 -3.695312 1.328125 -4 C 1.566406 -4.300781 1.835938 -4.539062 2.140625 -4.71875 C 2.453125 -4.894531 2.78125 -4.984375 3.125 -4.984375 C 3.53125 -4.984375 3.890625 -4.878906 4.203125 -4.671875 C 4.515625 -4.460938 4.773438 -4.191406 4.984375 -3.859375 C 5.191406 -3.523438 5.347656 -3.164062 5.453125 -2.78125 C 5.554688 -2.394531 5.609375 -2.023438 5.609375 -1.671875 C 5.609375 -0.734375 5.410156 0.0546875 5.015625 0.703125 C 4.617188 1.359375 4.050781 1.863281 3.3125 2.21875 C 2.582031 2.570312 1.710938 2.78125 0.703125 2.84375 Z M 2.28125 -2.15625 C 2.28125 -1.800781 2.539062 -1.625 3.0625 -1.625 C 3.332031 -1.625 3.601562 -1.664062 3.875 -1.75 C 3.851562 -1.96875 3.8125 -2.1875 3.75 -2.40625 C 3.6875 -2.625 3.597656 -2.800781 3.484375 -2.9375 C 3.367188 -3.082031 3.222656 -3.15625 3.046875 -3.15625 C 2.816406 -3.15625 2.628906 -3.046875 2.484375 -2.828125 C 2.347656 -2.609375 2.28125 -2.382812 2.28125 -2.15625 Z M 2.28125 -2.15625 "/></g></g></g><g fill="#11324d" fill-opacity="1"><g transform="translate(238.325781, 302.499765)"><g/></g></g><g fill="#11324d" fill-opacity="1"><g transform="translate(241.154286, 302.499765)"><g><path d="M 3.921875 0.0625 C 3.148438 0.0625 2.554688 -0.015625 2.140625 -0.171875 C 1.722656 -0.328125 1.429688 -0.570312 1.265625 -0.90625 C 1.097656 -1.238281 1.003906 -1.660156 0.984375 -2.171875 L 0.734375 -9.046875 L 2.453125 -9.046875 L 2.71875 -3 C 2.738281 -2.625 2.78125 -2.335938 2.84375 -2.140625 C 2.90625 -1.953125 3.023438 -1.828125 3.203125 -1.765625 C 3.390625 -1.703125 3.671875 -1.671875 4.046875 -1.671875 C 4.347656 -1.671875 4.566406 -1.585938 4.703125 -1.421875 C 4.847656 -1.265625 4.921875 -1.066406 4.921875 -0.828125 C 4.921875 -0.566406 4.832031 -0.351562 4.65625 -0.1875 C 4.488281 -0.0195312 4.242188 0.0625 3.921875 0.0625 Z M 3.921875 0.0625 "/></g></g></g><g fill="#11324d" fill-opacity="1"><g transform="translate(245.082081, 302.499765)"><g><path d="M 0 0.0625 L 0.125 -1.671875 C 0.65625 -1.671875 1.023438 -1.726562 1.234375 -1.84375 C 1.453125 -1.96875 1.5625 -2.222656 1.5625 -2.609375 C 1.5625 -2.835938 1.53125 -3.113281 1.46875 -3.4375 C 1.414062 -3.757812 1.335938 -4.085938 1.234375 -4.421875 C 1.140625 -4.765625 1.039062 -5.085938 0.9375 -5.390625 L 2.640625 -5.859375 C 2.742188 -5.578125 2.84375 -5.25 2.9375 -4.875 C 3.039062 -4.507812 3.125 -4.128906 3.1875 -3.734375 C 3.257812 -3.335938 3.296875 -2.960938 3.296875 -2.609375 C 3.296875 -2.046875 3.207031 -1.585938 3.03125 -1.234375 C 2.863281 -0.890625 2.625 -0.617188 2.3125 -0.421875 C 2.007812 -0.234375 1.660156 -0.101562 1.265625 -0.03125 C 0.867188 0.03125 0.445312 0.0625 0 0.0625 Z M 1.78125 -6.875 C 1.53125 -6.875 1.316406 -6.960938 1.140625 -7.140625 C 0.960938 -7.316406 0.875 -7.53125 0.875 -7.78125 C 0.875 -8.039062 0.960938 -8.257812 1.140625 -8.4375 C 1.316406 -8.613281 1.53125 -8.703125 1.78125 -8.703125 C 2.03125 -8.703125 2.242188 -8.613281 2.421875 -8.4375 C 2.597656 -8.257812 2.6875 -8.039062 2.6875 -7.78125 C 2.6875 -7.53125 2.597656 -7.316406 2.421875 -7.140625 C 2.242188 -6.960938 2.03125 -6.875 1.78125 -6.875 Z M 1.78125 -6.875 "/></g></g></g><g fill="#11324d" fill-opacity="1"><g transform="translate(248.997528, 302.499765)"><g><path d="M 4.875 -6.625 C 4.875 -7.039062 4.84375 -7.445312 4.78125 -7.84375 C 4.71875 -8.238281 4.660156 -8.570312 4.609375 -8.84375 L 6.34375 -9.09375 C 6.363281 -8.925781 6.390625 -8.707031 6.421875 -8.4375 C 6.460938 -8.164062 6.492188 -7.878906 6.515625 -7.578125 C 6.546875 -7.273438 6.5625 -6.988281 6.5625 -6.71875 C 6.5625 -5.738281 6.359375 -4.875 5.953125 -4.125 C 6.429688 -3.625 6.75 -3.179688 6.90625 -2.796875 C 7.070312 -2.421875 7.15625 -2.09375 7.15625 -1.8125 C 7.15625 -1.488281 7.085938 -1.1875 6.953125 -0.90625 C 6.816406 -0.632812 6.59375 -0.414062 6.28125 -0.25 C 5.976562 -0.0820312 5.570312 0 5.0625 0 L 1.4375 0 L 1.4375 -1.65625 C 2.519531 -2.4375 3.332031 -3.175781 3.875 -3.875 C 3.4375 -4.238281 2.925781 -4.625 2.34375 -5.03125 C 1.769531 -5.445312 1.15625 -5.863281 0.5 -6.28125 L 1.390625 -7.59375 C 2.085938 -7.164062 2.703125 -6.765625 3.234375 -6.390625 C 3.773438 -6.015625 4.25 -5.65625 4.65625 -5.3125 C 4.800781 -5.726562 4.875 -6.164062 4.875 -6.625 Z M 3.65625 -1.671875 L 4.46875 -1.671875 C 4.882812 -1.671875 5.15625 -1.707031 5.28125 -1.78125 C 5.414062 -1.851562 5.484375 -1.953125 5.484375 -2.078125 C 5.484375 -2.242188 5.328125 -2.492188 5.015625 -2.828125 C 4.648438 -2.429688 4.195312 -2.046875 3.65625 -1.671875 Z M 3.65625 -1.671875 "/></g></g></g><g fill="#11324d" fill-opacity="1"><g transform="translate(256.803725, 302.499765)"><g><path d="M 0.703125 2.84375 L 0.34375 1.109375 C 1.082031 1.015625 1.707031 0.894531 2.21875 0.75 C 2.726562 0.613281 3.125 0.382812 3.40625 0.0625 L 3.0625 0.0625 C 2.289062 0.0625 1.679688 -0.078125 1.234375 -0.359375 C 0.796875 -0.648438 0.578125 -1.140625 0.578125 -1.828125 C 0.578125 -2.203125 0.640625 -2.570312 0.765625 -2.9375 C 0.898438 -3.3125 1.082031 -3.648438 1.3125 -3.953125 C 1.539062 -4.265625 1.804688 -4.515625 2.109375 -4.703125 C 2.421875 -4.890625 2.757812 -4.984375 3.125 -4.984375 C 3.613281 -4.984375 4.046875 -4.828125 4.421875 -4.515625 C 4.796875 -4.210938 5.085938 -3.8125 5.296875 -3.3125 C 5.503906 -2.8125 5.609375 -2.265625 5.609375 -1.671875 L 6.59375 -1.671875 C 6.894531 -1.671875 7.113281 -1.585938 7.25 -1.421875 C 7.394531 -1.265625 7.46875 -1.066406 7.46875 -0.828125 C 7.46875 -0.566406 7.378906 -0.351562 7.203125 -0.1875 C 7.035156 -0.0195312 6.789062 0.0625 6.46875 0.0625 L 5.328125 0.0625 C 5.003906 0.914062 4.441406 1.578125 3.640625 2.046875 C 2.847656 2.515625 1.867188 2.78125 0.703125 2.84375 Z M 2.28125 -2.125 C 2.28125 -2.03125 2.3125 -1.9375 2.375 -1.84375 C 2.4375 -1.75 2.578125 -1.675781 2.796875 -1.625 C 3.023438 -1.570312 3.382812 -1.566406 3.875 -1.609375 C 3.863281 -2.085938 3.78125 -2.460938 3.625 -2.734375 C 3.476562 -3.015625 3.285156 -3.15625 3.046875 -3.15625 C 2.878906 -3.15625 2.738281 -3.09375 2.625 -2.96875 C 2.507812 -2.851562 2.421875 -2.710938 2.359375 -2.546875 C 2.304688 -2.390625 2.28125 -2.25 2.28125 -2.125 Z M 2.28125 -2.125 "/></g></g></g><g fill="#11324d" fill-opacity="1"><g transform="translate(263.275954, 302.499765)"><g><path d="M 0 0.0625 L 0.125 -1.671875 C 0.300781 -1.671875 0.457031 -1.71875 0.59375 -1.8125 C 0.738281 -1.90625 0.882812 -2.0625 1.03125 -2.28125 C 1.1875 -2.507812 1.363281 -2.820312 1.5625 -3.21875 C 1.925781 -3.957031 2.316406 -4.460938 2.734375 -4.734375 C 3.148438 -5.015625 3.578125 -5.15625 4.015625 -5.15625 C 4.503906 -5.15625 4.941406 -5.019531 5.328125 -4.75 C 5.710938 -4.476562 6.015625 -4.125 6.234375 -3.6875 C 6.460938 -3.257812 6.578125 -2.800781 6.578125 -2.3125 C 6.578125 -1.875 6.484375 -1.476562 6.296875 -1.125 C 6.109375 -0.78125 5.851562 -0.503906 5.53125 -0.296875 C 5.207031 -0.0976562 4.832031 0 4.40625 0 C 4.09375 0 3.734375 -0.0390625 3.328125 -0.125 C 2.929688 -0.21875 2.507812 -0.410156 2.0625 -0.703125 C 1.8125 -0.410156 1.523438 -0.207031 1.203125 -0.09375 C 0.890625 0.0078125 0.488281 0.0625 0 0.0625 Z M 3.96875 -3.421875 C 3.726562 -3.421875 3.535156 -3.300781 3.390625 -3.0625 C 3.253906 -2.820312 3.09375 -2.503906 2.90625 -2.109375 C 3.15625 -1.984375 3.390625 -1.890625 3.609375 -1.828125 C 3.828125 -1.765625 4.015625 -1.734375 4.171875 -1.734375 C 4.421875 -1.734375 4.601562 -1.769531 4.71875 -1.84375 C 4.832031 -1.914062 4.890625 -2.046875 4.890625 -2.234375 C 4.890625 -2.410156 4.847656 -2.585938 4.765625 -2.765625 C 4.679688 -2.953125 4.570312 -3.109375 4.4375 -3.234375 C 4.300781 -3.359375 4.144531 -3.421875 3.96875 -3.421875 Z M 3.96875 -3.421875 "/></g></g></g><g fill="#11324d" fill-opacity="1"><g transform="translate(270.464576, 302.499765)"><g/></g></g><g fill="#11324d" fill-opacity="1"><g transform="translate(273.293081, 302.499765)"><g><path d="M 0.4375 -0.5 L 1.03125 -2.0625 C 1.625 -1.800781 2.195312 -1.671875 2.75 -1.671875 C 3.625 -1.671875 4.0625 -1.90625 4.0625 -2.375 C 4.0625 -2.507812 4.019531 -2.703125 3.9375 -2.953125 C 3.851562 -3.203125 3.695312 -3.523438 3.46875 -3.921875 C 3.25 -4.328125 2.925781 -4.820312 2.5 -5.40625 L 3.96875 -6.390625 C 4.550781 -5.535156 5.019531 -4.726562 5.375 -3.96875 C 5.726562 -3.21875 5.90625 -2.582031 5.90625 -2.0625 C 5.90625 -1.425781 5.648438 -0.910156 5.140625 -0.515625 C 4.640625 -0.117188 3.90625 0.078125 2.9375 0.078125 C 2.695312 0.078125 2.425781 0.0546875 2.125 0.015625 C 1.832031 -0.0234375 1.535156 -0.0859375 1.234375 -0.171875 C 0.941406 -0.253906 0.675781 -0.363281 0.4375 -0.5 Z M 0.4375 -0.5 "/></g></g></g></svg>