<svg xmlns="http://www.w3.org/2000/svg" xmlns:xlink="http://www.w3.org/1999/xlink" width="500" zoomAndPan="magnify" viewBox="0 0 375 374.999991" height="500" preserveAspectRatio="xMidYMid meet" version="1.0"><defs><g/><clipPath id="7fd7caee80"><path d="M 114 79.492188 L 237.667969 79.492188 L 237.667969 229.492188 L 114 229.492188 Z M 114 79.492188 " clip-rule="nonzero"/></clipPath><clipPath id="a9d54cd87b"><path d="M 207 144.023438 L 253 144.023438 L 253 201 L 207 201 Z M 207 144.023438 " clip-rule="nonzero"/></clipPath><clipPath id="1784d6c9b9"><path d="M 149.359375 144.023438 L 261.109375 144.023438 L 261.109375 229.523438 L 149.359375 229.523438 Z M 149.359375 144.023438 " clip-rule="nonzero"/></clipPath><clipPath id="728e0967f6"><path d="M 158 144.023438 L 204 144.023438 L 204 201 L 158 201 Z M 158 144.023438 " clip-rule="nonzero"/></clipPath></defs><g clip-path="url(#7fd7caee80)"><path fill="#ffffff" d="M 233.097656 138.519531 C 229.453125 133.621094 225.296875 129.195312 220.636719 125.246094 C 216.058594 121.269531 210.957031 118.171875 205.488281 115.066406 C 202.769531 113.492188 199.996094 111.835938 197.308594 109.964844 C 194.621094 108.082031 192.066406 106.039062 189.640625 103.828125 C 184.796875 99.378906 180.542969 94.417969 176.882812 88.957031 L 183.421875 88.957031 C 177.894531 97.699219 170.925781 105.085938 162.519531 111.117188 C 158.351562 114.097656 154 116.503906 150.074219 119.039062 C 146.152344 121.519531 142.5 124.34375 139.109375 127.511719 C 135.714844 130.675781 132.625 134.117188 129.839844 137.835938 L 128.832031 139.207031 C 128.523438 139.625 128.304688 140.019531 127.988281 140.519531 C 127.414062 141.472656 126.867188 142.46875 126.351562 143.464844 C 125.316406 145.460938 124.433594 147.523438 123.703125 149.648438 C 122.964844 151.71875 122.4375 153.84375 122.121094 156.019531 C 121.789062 158.105469 121.722656 160.203125 121.917969 162.308594 C 122.125 164.324219 122.640625 166.261719 123.472656 168.109375 C 124.304688 169.960938 125.40625 171.632812 126.78125 173.125 L 128.316406 174.753906 L 127.636719 176.925781 L 127.332031 177.894531 C 127.285156 178.03125 127.253906 178.171875 127.234375 178.316406 C 127.191406 178.578125 127.191406 178.839844 127.234375 179.105469 C 127.277344 179.367188 127.363281 179.617188 127.484375 179.855469 C 127.511719 179.914062 127.554688 179.964844 127.585938 180.023438 L 127.757812 180.269531 L 128.351562 181.101562 L 130.265625 183.78125 L 127.933594 186.113281 L 122.386719 191.65625 L 122.359375 191.683594 L 123.5 188.9375 L 121.851562 227.277344 C 121.835938 227.566406 121.769531 227.839844 121.652344 228.105469 C 121.53125 228.367188 121.367188 228.597656 121.160156 228.796875 C 120.949219 228.996094 120.710938 229.152344 120.445312 229.257812 C 120.175781 229.367188 119.898438 229.417969 119.609375 229.417969 C 119.320312 229.417969 119.042969 229.367188 118.773438 229.257812 C 118.507812 229.152344 118.269531 228.996094 118.058594 228.796875 C 117.851562 228.597656 117.6875 228.367188 117.566406 228.105469 C 117.449219 227.839844 117.382812 227.566406 117.367188 227.277344 L 115.71875 188.941406 L 115.65625 187.417969 L 116.859375 186.195312 L 116.886719 186.167969 L 122.433594 180.625 L 122.015625 185.632812 L 121.425781 184.804688 L 121.023438 184.214844 C 120.878906 183.980469 120.734375 183.753906 120.609375 183.503906 C 119.554688 181.503906 119.195312 179.382812 119.535156 177.144531 C 119.617188 176.617188 119.738281 176.09375 119.898438 175.582031 L 120.203125 174.613281 L 121.058594 178.414062 C 117.15625 174.292969 114.78125 168.683594 114.191406 163.113281 C 113.925781 160.355469 114.007812 157.609375 114.433594 154.875 C 114.824219 152.226562 115.46875 149.640625 116.363281 147.117188 C 117.214844 144.636719 118.246094 142.230469 119.457031 139.902344 C 120.050781 138.746094 120.679688 137.613281 121.359375 136.484375 C 121.6875 135.957031 122.078125 135.292969 122.492188 134.730469 L 123.640625 133.164062 C 126.699219 129.082031 130.09375 125.300781 133.820312 121.820312 C 137.546875 118.339844 141.5625 115.226562 145.867188 112.492188 C 150.109375 109.765625 154.28125 107.453125 158.015625 104.773438 C 165.597656 99.324219 171.886719 92.652344 176.878906 84.761719 L 180.195312 79.578125 L 183.421875 84.761719 C 186.527344 89.890625 190.1875 94.582031 194.410156 98.839844 C 198.632812 103.097656 203.371094 106.621094 208.644531 109.914062 C 213.917969 113.203125 219.402344 116.921875 224.085938 121.359375 C 228.832031 125.761719 233.023438 130.648438 236.652344 136.011719 C 236.8125 136.246094 236.921875 136.503906 236.984375 136.78125 C 237.046875 137.058594 237.050781 137.335938 237 137.617188 C 236.953125 137.898438 236.851562 138.160156 236.699219 138.398438 C 236.546875 138.640625 236.355469 138.84375 236.125 139.007812 C 235.890625 139.171875 235.636719 139.285156 235.359375 139.351562 C 235.082031 139.414062 234.804688 139.425781 234.523438 139.378906 C 234.242188 139.332031 233.980469 139.238281 233.738281 139.089844 C 233.496094 138.941406 233.289062 138.75 233.121094 138.519531 Z M 233.097656 138.519531 " fill-opacity="1" fill-rule="nonzero"/></g><path fill="#ffffff" d="M 180.929688 104.566406 C 178.457031 111.433594 174.578125 117.992188 169.082031 123.195312 C 166.363281 125.84375 163.167969 127.960938 160.382812 130.0625 C 157.582031 132.160156 154.933594 134.4375 152.441406 136.890625 C 149.871094 139.386719 147.222656 141.832031 145.492188 144.246094 C 144.609375 145.488281 143.878906 146.808594 143.300781 148.21875 C 142.65625 149.683594 142.113281 151.1875 141.671875 152.730469 C 140.796875 155.679688 140.460938 158.691406 140.664062 161.761719 C 140.871094 164.933594 141.445312 168.035156 142.390625 171.070312 L 142.390625 171.121094 C 142.445312 171.296875 142.464844 171.476562 142.449219 171.660156 C 142.429688 171.84375 142.378906 172.019531 142.292969 172.179688 C 142.207031 172.34375 142.09375 172.484375 141.953125 172.605469 C 141.8125 172.722656 141.652344 172.808594 141.476562 172.863281 C 141.136719 172.964844 140.804688 172.941406 140.484375 172.796875 C 136.683594 171.011719 134.105469 166.96875 133.25 162.800781 C 132.847656 160.710938 132.769531 158.613281 133.015625 156.5 C 133.1875 154.453125 133.582031 152.449219 134.195312 150.488281 C 134.773438 148.570312 135.507812 146.714844 136.394531 144.921875 C 137.304688 143.03125 138.433594 141.285156 139.777344 139.679688 C 142.566406 136.472656 145.574219 134.378906 148.417969 132.148438 C 151.34375 129.859375 154.394531 127.746094 157.570312 125.8125 C 160.777344 123.898438 163.792969 122.308594 166.445312 120.148438 C 171.835938 115.882812 176.148438 110.195312 179.445312 103.894531 C 179.539062 103.691406 179.6875 103.546875 179.894531 103.46875 C 180.105469 103.386719 180.3125 103.390625 180.515625 103.480469 C 180.71875 103.570312 180.863281 103.71875 180.945312 103.929688 C 181.027344 104.136719 181.027344 104.34375 180.9375 104.546875 Z M 180.929688 104.566406 " fill-opacity="1" fill-rule="nonzero"/><g clip-path="url(#a9d54cd87b)"><path fill="#ffffff" d="M 252.191406 178.785156 L 241.121094 144.019531 C 241.121094 144.019531 236.847656 147.753906 225.199219 149.523438 C 213.546875 151.289062 207.136719 157.964844 207.136719 157.964844 L 207.136719 200.78125 C 216.261719 189.191406 252.191406 178.785156 252.191406 178.785156 " fill-opacity="1" fill-rule="nonzero"/></g><g clip-path="url(#1784d6c9b9)"><path fill="#ffffff" d="M 256.976562 186.253906 L 230.980469 199.007812 C 232.378906 199.488281 233.785156 200.105469 234.890625 201.726562 C 237.027344 204.828125 234.21875 206.574219 233.925781 206.480469 C 233.820312 206.445312 229.941406 204.457031 225.039062 201.929688 L 223.257812 202.804688 L 223.257812 202.808594 C 230.300781 205.34375 235.601562 214.011719 238.128906 216.109375 C 241.351562 218.765625 245.976562 217.953125 249.054688 222.433594 C 252.140625 226.917969 248.078125 229.484375 247.65625 229.34375 C 247.292969 229.226562 215.441406 213.089844 207.160156 208.597656 L 203.285156 208.597656 C 195.003906 213.089844 163.152344 229.226562 162.785156 229.34375 C 162.367188 229.484375 158.304688 226.917969 161.386719 222.433594 C 164.464844 217.953125 169.089844 218.765625 172.316406 216.109375 C 174.84375 214.011719 180.140625 205.34375 187.1875 202.808594 L 187.1875 202.804688 L 185.40625 201.929688 C 180.5 204.457031 176.625 206.445312 176.519531 206.480469 C 176.226562 206.574219 173.417969 204.828125 175.550781 201.726562 C 176.660156 200.105469 178.0625 199.488281 179.460938 199.007812 L 153.464844 186.253906 L 149.382812 184.246094 L 150.785156 179.730469 L 161.832031 144.132812 L 166.125 145.464844 L 154.886719 181.675781 L 205.222656 205.507812 L 255.554688 181.675781 L 244.320312 145.464844 L 248.613281 144.132812 L 259.65625 179.730469 L 261.0625 184.246094 L 256.976562 186.253906 " fill-opacity="1" fill-rule="nonzero"/></g><g clip-path="url(#728e0967f6)"><path fill="#ffffff" d="M 203.304688 200.78125 L 203.304688 157.964844 C 203.304688 157.964844 196.898438 151.289062 185.246094 149.523438 C 173.59375 147.753906 169.320312 144.019531 169.320312 144.019531 L 158.25 178.785156 C 158.25 178.785156 194.179688 189.191406 203.304688 200.78125 " fill-opacity="1" fill-rule="nonzero"/></g><g fill="#ffffff" fill-opacity="1"><g transform="translate(91.286519, 258.371234)"><g><path d="M 11.703125 0.625 C 8.140625 0.625 5.445312 0.160156 3.625 -0.765625 C 1.8125 -1.691406 0.90625 -3.253906 0.90625 -5.453125 C 0.90625 -6.191406 0.992188 -6.976562 1.171875 -7.8125 C 1.347656 -8.644531 1.535156 -9.429688 1.734375 -10.171875 L 3.984375 -9.59375 C 3.867188 -9.15625 3.734375 -8.597656 3.578125 -7.921875 C 3.429688 -7.242188 3.359375 -6.65625 3.359375 -6.15625 C 3.359375 -5.113281 3.625 -4.273438 4.15625 -3.640625 C 4.6875 -3.015625 5.609375 -2.554688 6.921875 -2.265625 C 8.242188 -1.972656 10.097656 -1.828125 12.484375 -1.828125 C 13.703125 -1.828125 14.988281 -1.898438 16.34375 -2.046875 C 17.707031 -2.203125 19.0625 -2.472656 20.40625 -2.859375 C 21.757812 -3.253906 23.046875 -3.785156 24.265625 -4.453125 C 25.484375 -5.117188 26.554688 -5.984375 27.484375 -7.046875 L 29.375 -5.9375 C 29.1875 -5.476562 29.0625 -5.113281 29 -4.84375 C 28.945312 -4.570312 28.921875 -4.328125 28.921875 -4.109375 C 28.921875 -3.804688 29.03125 -3.515625 29.25 -3.234375 C 29.46875 -2.953125 29.875 -2.726562 30.46875 -2.5625 C 31.070312 -2.394531 31.945312 -2.3125 33.09375 -2.3125 C 33.507812 -2.3125 33.8125 -2.195312 34 -1.96875 C 34.195312 -1.738281 34.296875 -1.460938 34.296875 -1.140625 C 34.296875 -0.816406 34.15625 -0.519531 33.875 -0.25 C 33.59375 0.0195312 33.234375 0.15625 32.796875 0.15625 C 31.035156 0.15625 29.585938 -0.101562 28.453125 -0.625 C 27.328125 -1.144531 26.753906 -2 26.734375 -3.1875 C 25.066406 -1.90625 22.910156 -0.945312 20.265625 -0.3125 C 17.628906 0.3125 14.773438 0.625 11.703125 0.625 Z M 16.734375 -12.03125 C 16.316406 -12.03125 15.960938 -12.171875 15.671875 -12.453125 C 15.378906 -12.742188 15.234375 -13.09375 15.234375 -13.5 C 15.234375 -13.894531 15.378906 -14.242188 15.671875 -14.546875 C 15.960938 -14.847656 16.316406 -15 16.734375 -15 C 17.128906 -15 17.472656 -14.847656 17.765625 -14.546875 C 18.054688 -14.242188 18.203125 -13.894531 18.203125 -13.5 C 18.203125 -13.09375 18.054688 -12.742188 17.765625 -12.453125 C 17.472656 -12.171875 17.128906 -12.03125 16.734375 -12.03125 Z M 12.625 -12.03125 C 12.207031 -12.03125 11.851562 -12.171875 11.5625 -12.453125 C 11.269531 -12.742188 11.125 -13.09375 11.125 -13.5 C 11.125 -13.894531 11.269531 -14.242188 11.5625 -14.546875 C 11.851562 -14.847656 12.207031 -15 12.625 -15 C 13.019531 -15 13.363281 -14.847656 13.65625 -14.546875 C 13.945312 -14.242188 14.09375 -13.894531 14.09375 -13.5 C 14.09375 -13.09375 13.945312 -12.742188 13.65625 -12.453125 C 13.363281 -12.171875 13.019531 -12.03125 12.625 -12.03125 Z M 12.625 -12.03125 "/></g></g></g><g fill="#ffffff" fill-opacity="1"><g transform="translate(124.063781, 258.371234)"><g><path d="M 0 0.15625 L 0.296875 -2.3125 C 1.296875 -2.3125 2.078125 -2.382812 2.640625 -2.53125 C 3.203125 -2.6875 3.625 -2.976562 3.90625 -3.40625 C 4.195312 -3.832031 4.429688 -4.457031 4.609375 -5.28125 C 4.796875 -6.101562 5.019531 -7.171875 5.28125 -8.484375 L 7.625 -8.046875 C 7.5 -7.503906 7.359375 -6.878906 7.203125 -6.171875 C 7.054688 -5.472656 6.984375 -4.882812 6.984375 -4.40625 C 6.984375 -4.101562 7.003906 -3.820312 7.046875 -3.5625 C 7.085938 -3.3125 7.238281 -3.09375 7.5 -2.90625 C 7.757812 -2.726562 8.195312 -2.582031 8.8125 -2.46875 C 9.4375 -2.363281 10.328125 -2.3125 11.484375 -2.3125 C 11.910156 -2.3125 12.21875 -2.195312 12.40625 -1.96875 C 12.59375 -1.738281 12.6875 -1.460938 12.6875 -1.140625 C 12.6875 -0.816406 12.546875 -0.519531 12.265625 -0.25 C 11.984375 0.0195312 11.625 0.15625 11.1875 0.15625 C 9.882812 0.15625 8.867188 0.0820312 8.140625 -0.0625 C 7.410156 -0.21875 6.867188 -0.441406 6.515625 -0.734375 C 6.171875 -1.023438 5.921875 -1.390625 5.765625 -1.828125 C 5.179688 -1.003906 4.460938 -0.46875 3.609375 -0.21875 C 2.765625 0.03125 1.5625 0.15625 0 0.15625 Z M 7.5625 5.828125 C 7.144531 5.828125 6.789062 5.679688 6.5 5.390625 C 6.207031 5.097656 6.0625 4.753906 6.0625 4.359375 C 6.0625 3.953125 6.207031 3.597656 6.5 3.296875 C 6.789062 3.003906 7.144531 2.859375 7.5625 2.859375 C 7.957031 2.859375 8.300781 3.003906 8.59375 3.296875 C 8.882812 3.597656 9.03125 3.953125 9.03125 4.359375 C 9.03125 4.753906 8.882812 5.097656 8.59375 5.390625 C 8.300781 5.679688 7.957031 5.828125 7.5625 5.828125 Z M 3.453125 5.828125 C 3.035156 5.828125 2.679688 5.679688 2.390625 5.390625 C 2.097656 5.097656 1.953125 4.753906 1.953125 4.359375 C 1.953125 3.953125 2.097656 3.597656 2.390625 3.296875 C 2.679688 3.003906 3.035156 2.859375 3.453125 2.859375 C 3.847656 2.859375 4.191406 3.003906 4.484375 3.296875 C 4.773438 3.597656 4.921875 3.953125 4.921875 4.359375 C 4.921875 4.753906 4.773438 5.097656 4.484375 5.390625 C 4.191406 5.679688 3.847656 5.828125 3.453125 5.828125 Z M 3.453125 5.828125 "/></g></g></g><g fill="#ffffff" fill-opacity="1"><g transform="translate(135.24943, 258.371234)"><g><path d="M 0 0.15625 L 0.296875 -2.3125 C 1.253906 -2.3125 2.03125 -2.367188 2.625 -2.484375 C 3.21875 -2.609375 3.644531 -2.851562 3.90625 -3.21875 C 4.164062 -3.59375 4.296875 -4.148438 4.296875 -4.890625 C 4.296875 -5.628906 4.117188 -6.578125 3.765625 -7.734375 C 3.410156 -8.898438 3.015625 -10.050781 2.578125 -11.1875 L 5.015625 -12.09375 C 5.273438 -11.425781 5.519531 -10.6875 5.75 -9.875 C 5.976562 -9.070312 6.171875 -8.269531 6.328125 -7.46875 C 6.484375 -6.664062 6.5625 -5.96875 6.5625 -5.375 C 6.5625 -3.351562 6.023438 -1.925781 4.953125 -1.09375 C 3.890625 -0.257812 2.238281 0.15625 0 0.15625 Z M 3.84375 -15.21875 C 3.425781 -15.21875 3.070312 -15.359375 2.78125 -15.640625 C 2.488281 -15.929688 2.34375 -16.28125 2.34375 -16.6875 C 2.34375 -17.082031 2.488281 -17.429688 2.78125 -17.734375 C 3.070312 -18.035156 3.425781 -18.1875 3.84375 -18.1875 C 4.238281 -18.1875 4.582031 -18.035156 4.875 -17.734375 C 5.164062 -17.429688 5.3125 -17.082031 5.3125 -16.6875 C 5.3125 -16.28125 5.164062 -15.929688 4.875 -15.640625 C 4.582031 -15.359375 4.238281 -15.21875 3.84375 -15.21875 Z M 3.84375 -15.21875 "/></g></g></g><g fill="#ffffff" fill-opacity="1"><g transform="translate(143.316289, 258.371234)"><g><path d="M 8.734375 0.15625 C 7.109375 0.15625 5.875 -0.0234375 5.03125 -0.390625 C 4.195312 -0.753906 3.617188 -1.3125 3.296875 -2.0625 C 2.972656 -2.820312 2.796875 -3.804688 2.765625 -5.015625 L 2.15625 -21.421875 L 4.625 -21.421875 L 5.21875 -5.96875 C 5.257812 -4.988281 5.351562 -4.234375 5.5 -3.703125 C 5.65625 -3.171875 5.992188 -2.804688 6.515625 -2.609375 C 7.046875 -2.410156 7.882812 -2.3125 9.03125 -2.3125 C 9.445312 -2.3125 9.75 -2.195312 9.9375 -1.96875 C 10.132812 -1.738281 10.234375 -1.460938 10.234375 -1.140625 C 10.234375 -0.816406 10.09375 -0.519531 9.8125 -0.25 C 9.53125 0.0195312 9.171875 0.15625 8.734375 0.15625 Z M 8.734375 0.15625 "/></g></g></g><g fill="#ffffff" fill-opacity="1"><g transform="translate(152.042901, 258.371234)"><g><path d="M 0 0.15625 L 0.265625 -2.3125 C 2.328125 -2.3125 4.328125 -2.613281 6.265625 -3.21875 C 8.210938 -3.832031 9.984375 -4.695312 11.578125 -5.8125 C 10.796875 -6.5 9.835938 -7.050781 8.703125 -7.46875 C 7.578125 -7.882812 6.335938 -8.09375 4.984375 -8.09375 C 4.484375 -8.09375 4.039062 -8.066406 3.65625 -8.015625 C 3.28125 -7.972656 2.820312 -7.890625 2.28125 -7.765625 L 1.796875 -10.046875 C 2.921875 -10.390625 3.984375 -10.5625 4.984375 -10.5625 C 6.023438 -10.5625 6.960938 -10.4375 7.796875 -10.1875 C 8.640625 -9.9375 9.40625 -9.628906 10.09375 -9.265625 C 10.78125 -8.910156 11.425781 -8.550781 12.03125 -8.1875 C 12.644531 -7.832031 13.242188 -7.53125 13.828125 -7.28125 C 14.410156 -7.03125 15.007812 -6.90625 15.625 -6.90625 L 16.265625 -6.90625 L 16.46875 -4.734375 C 15.445312 -4.734375 14.515625 -4.566406 13.671875 -4.234375 C 12.835938 -3.910156 11.992188 -3.503906 11.140625 -3.015625 C 10.296875 -2.523438 9.367188 -2.039062 8.359375 -1.5625 C 7.347656 -1.082031 6.171875 -0.675781 4.828125 -0.34375 C 3.484375 -0.0078125 1.875 0.15625 0 0.15625 Z M 0 0.15625 "/></g></g></g><g fill="#ffffff" fill-opacity="1"><g transform="translate(169.706031, 258.371234)"><g><path d="M 1.734375 6.90625 L 1.203125 4.4375 C 2.484375 4.28125 3.640625 4.039062 4.671875 3.71875 C 5.710938 3.394531 6.601562 2.929688 7.34375 2.328125 C 8.082031 1.734375 8.632812 0.9375 9 -0.0625 C 8.632812 0.0390625 8.253906 0.113281 7.859375 0.15625 C 7.460938 0.207031 7.070312 0.234375 6.6875 0.234375 C 5.144531 0.234375 3.960938 -0.0703125 3.140625 -0.6875 C 2.328125 -1.3125 1.921875 -2.269531 1.921875 -3.5625 C 1.921875 -4.320312 2.039062 -5.085938 2.28125 -5.859375 C 2.519531 -6.628906 2.859375 -7.332031 3.296875 -7.96875 C 3.734375 -8.613281 4.257812 -9.128906 4.875 -9.515625 C 5.5 -9.910156 6.191406 -10.109375 6.953125 -10.109375 C 8.035156 -10.109375 8.929688 -9.753906 9.640625 -9.046875 C 10.347656 -8.335938 10.878906 -7.421875 11.234375 -6.296875 C 11.585938 -5.179688 11.765625 -3.992188 11.765625 -2.734375 C 11.765625 0.0664062 10.914062 2.273438 9.21875 3.890625 C 7.53125 5.515625 5.035156 6.519531 1.734375 6.90625 Z M 4.296875 -4.171875 C 4.296875 -3.546875 4.492188 -3.046875 4.890625 -2.671875 C 5.285156 -2.304688 5.972656 -2.125 6.953125 -2.125 C 7.816406 -2.125 8.640625 -2.242188 9.421875 -2.484375 C 9.421875 -2.609375 9.421875 -2.75 9.421875 -2.90625 C 9.421875 -3.726562 9.3125 -4.503906 9.09375 -5.234375 C 8.875 -5.960938 8.5625 -6.546875 8.15625 -6.984375 C 7.757812 -7.429688 7.28125 -7.65625 6.71875 -7.65625 C 6.238281 -7.65625 5.816406 -7.476562 5.453125 -7.125 C 5.097656 -6.769531 4.816406 -6.320312 4.609375 -5.78125 C 4.398438 -5.25 4.296875 -4.710938 4.296875 -4.171875 Z M 4.296875 -4.171875 "/></g></g></g><g fill="#ffffff" fill-opacity="1"><g transform="translate(183.110827, 258.371234)"><g><path d="M 0.125 6.90625 L -0.75 4.625 C 1.269531 3.976562 2.820312 3.210938 3.90625 2.328125 C 5 1.453125 5.75 0.53125 6.15625 -0.4375 C 6.570312 -1.40625 6.78125 -2.328125 6.78125 -3.203125 C 6.78125 -3.765625 6.71875 -4.304688 6.59375 -4.828125 C 6.476562 -5.347656 6.269531 -5.9375 5.96875 -6.59375 C 5.664062 -7.257812 5.242188 -8.082031 4.703125 -9.0625 L 6.90625 -10.171875 C 7.664062 -8.867188 8.207031 -7.632812 8.53125 -6.46875 C 8.863281 -5.3125 9.03125 -4.296875 9.03125 -3.421875 C 9.03125 -2.160156 8.820312 -1.019531 8.40625 0 C 8 1.019531 7.460938 1.925781 6.796875 2.71875 C 6.128906 3.507812 5.398438 4.179688 4.609375 4.734375 C 3.816406 5.296875 3.023438 5.753906 2.234375 6.109375 C 1.441406 6.472656 0.738281 6.738281 0.125 6.90625 Z M 0.125 6.90625 "/></g></g></g><g fill="#ffffff" fill-opacity="1"><g transform="translate(194.116553, 258.371234)"><g/></g></g><g fill="#ffffff" fill-opacity="1"><g transform="translate(198.614801, 258.371234)"><g><path d="M 1.734375 6.90625 L 1.203125 4.4375 C 2.484375 4.28125 3.640625 4.039062 4.671875 3.71875 C 5.710938 3.394531 6.601562 2.929688 7.34375 2.328125 C 8.082031 1.734375 8.632812 0.9375 9 -0.0625 C 8.632812 0.0390625 8.253906 0.113281 7.859375 0.15625 C 7.460938 0.207031 7.070312 0.234375 6.6875 0.234375 C 5.144531 0.234375 3.960938 -0.0703125 3.140625 -0.6875 C 2.328125 -1.3125 1.921875 -2.269531 1.921875 -3.5625 C 1.921875 -4.320312 2.039062 -5.085938 2.28125 -5.859375 C 2.519531 -6.628906 2.859375 -7.332031 3.296875 -7.96875 C 3.734375 -8.613281 4.257812 -9.128906 4.875 -9.515625 C 5.5 -9.910156 6.191406 -10.109375 6.953125 -10.109375 C 8.035156 -10.109375 8.929688 -9.753906 9.640625 -9.046875 C 10.347656 -8.335938 10.878906 -7.421875 11.234375 -6.296875 C 11.585938 -5.179688 11.765625 -3.992188 11.765625 -2.734375 C 11.765625 0.0664062 10.914062 2.273438 9.21875 3.890625 C 7.53125 5.515625 5.035156 6.519531 1.734375 6.90625 Z M 4.296875 -4.171875 C 4.296875 -3.546875 4.492188 -3.046875 4.890625 -2.671875 C 5.285156 -2.304688 5.972656 -2.125 6.953125 -2.125 C 7.816406 -2.125 8.640625 -2.242188 9.421875 -2.484375 C 9.421875 -2.609375 9.421875 -2.75 9.421875 -2.90625 C 9.421875 -3.726562 9.3125 -4.503906 9.09375 -5.234375 C 8.875 -5.960938 8.5625 -6.546875 8.15625 -6.984375 C 7.757812 -7.429688 7.28125 -7.65625 6.71875 -7.65625 C 6.238281 -7.65625 5.816406 -7.476562 5.453125 -7.125 C 5.097656 -6.769531 4.816406 -6.320312 4.609375 -5.78125 C 4.398438 -5.25 4.296875 -4.710938 4.296875 -4.171875 Z M 4.296875 -4.171875 "/></g></g></g><g fill="#ffffff" fill-opacity="1"><g transform="translate(212.019597, 258.371234)"><g><path d="M 2.765625 0 L 2.15625 -21.421875 L 4.59375 -21.421875 L 5.1875 0 Z M 2.765625 0 "/></g></g></g><g fill="#ffffff" fill-opacity="1"><g transform="translate(219.156816, 258.371234)"><g/></g></g><g fill="#ffffff" fill-opacity="1"><g transform="translate(223.655068, 258.371234)"><g><path d="M 14.578125 0.15625 C 13.273438 0.15625 12.160156 -0.0625 11.234375 -0.5 C 10.304688 -0.945312 9.648438 -1.757812 9.265625 -2.9375 C 8.191406 -2.675781 7.160156 -2.570312 6.171875 -2.625 C 5.179688 -2.675781 4.285156 -2.863281 3.484375 -3.1875 C 2.679688 -3.519531 2.050781 -3.976562 1.59375 -4.5625 C 1.132812 -5.15625 0.90625 -5.863281 0.90625 -6.6875 C 0.90625 -7.769531 1.242188 -8.753906 1.921875 -9.640625 C 2.597656 -10.535156 3.515625 -11.289062 4.671875 -11.90625 C 5.835938 -12.53125 7.117188 -12.960938 8.515625 -13.203125 L 8.4375 -15.484375 L 10.859375 -15.484375 L 11.34375 -5.578125 C 11.382812 -4.640625 11.546875 -3.9375 11.828125 -3.46875 C 12.117188 -3 12.519531 -2.6875 13.03125 -2.53125 C 13.539062 -2.382812 14.15625 -2.3125 14.875 -2.3125 C 15.300781 -2.3125 15.609375 -2.195312 15.796875 -1.96875 C 15.984375 -1.738281 16.078125 -1.460938 16.078125 -1.140625 C 16.078125 -0.816406 15.9375 -0.519531 15.65625 -0.25 C 15.375 0.0195312 15.015625 0.15625 14.578125 0.15625 Z M 3.265625 -7.078125 C 3.265625 -6.617188 3.445312 -6.238281 3.8125 -5.9375 C 4.1875 -5.632812 4.664062 -5.410156 5.25 -5.265625 C 5.832031 -5.128906 6.445312 -5.0625 7.09375 -5.0625 C 7.738281 -5.0625 8.34375 -5.113281 8.90625 -5.21875 L 8.640625 -10.703125 C 7.503906 -10.585938 6.535156 -10.332031 5.734375 -9.9375 C 4.929688 -9.550781 4.316406 -9.101562 3.890625 -8.59375 C 3.472656 -8.082031 3.265625 -7.578125 3.265625 -7.078125 Z M 3.265625 -7.078125 "/></g></g></g><g fill="#ffffff" fill-opacity="1"><g transform="translate(238.229404, 258.371234)"><g><path d="M 0 0.15625 L 0.265625 -2.3125 C 1.410156 -2.3125 2.210938 -2.421875 2.671875 -2.640625 C 3.128906 -2.859375 3.390625 -3.242188 3.453125 -3.796875 C 3.523438 -4.347656 3.546875 -5.132812 3.515625 -6.15625 L 2.9375 -21.421875 L 5.375 -21.421875 L 5.96875 -6.421875 C 6.03125 -5.003906 5.9375 -3.800781 5.6875 -2.8125 C 5.4375 -1.832031 4.875 -1.09375 4 -0.59375 C 3.132812 -0.09375 1.800781 0.15625 0 0.15625 Z M 0 0.15625 "/></g></g></g><g fill="#ffffff" fill-opacity="1"><g transform="translate(246.026378, 258.371234)"><g><path d="M 1.734375 6.90625 L 1.203125 4.4375 C 2.441406 4.28125 3.578125 4.046875 4.609375 3.734375 C 5.640625 3.421875 6.523438 2.984375 7.265625 2.421875 C 8.003906 1.867188 8.550781 1.113281 8.90625 0.15625 L 6.984375 0.15625 C 6.085938 0.15625 5.253906 0.03125 4.484375 -0.21875 C 3.710938 -0.46875 3.09375 -0.875 2.625 -1.4375 C 2.15625 -2 1.921875 -2.726562 1.921875 -3.625 C 1.921875 -4.726562 2.140625 -5.773438 2.578125 -6.765625 C 3.015625 -7.753906 3.613281 -8.554688 4.375 -9.171875 C 5.132812 -9.796875 5.992188 -10.109375 6.953125 -10.109375 C 8.335938 -10.109375 9.484375 -9.503906 10.390625 -8.296875 C 11.304688 -7.085938 11.765625 -5.234375 11.765625 -2.734375 C 11.765625 -2.585938 11.765625 -2.445312 11.765625 -2.3125 L 14.453125 -2.3125 C 14.878906 -2.3125 15.1875 -2.195312 15.375 -1.96875 C 15.5625 -1.738281 15.65625 -1.460938 15.65625 -1.140625 C 15.65625 -0.816406 15.515625 -0.519531 15.234375 -0.25 C 14.953125 0.0195312 14.59375 0.15625 14.15625 0.15625 L 11.40625 0.15625 C 10.382812 4.03125 7.160156 6.28125 1.734375 6.90625 Z M 8.125 -2.3125 L 9.390625 -2.3125 C 9.410156 -2.507812 9.421875 -2.707031 9.421875 -2.90625 C 9.421875 -4.269531 9.171875 -5.398438 8.671875 -6.296875 C 8.171875 -7.203125 7.519531 -7.65625 6.71875 -7.65625 C 6.300781 -7.65625 5.90625 -7.492188 5.53125 -7.171875 C 5.164062 -6.847656 4.867188 -6.414062 4.640625 -5.875 C 4.421875 -5.332031 4.3125 -4.742188 4.3125 -4.109375 C 4.3125 -3.410156 4.625 -2.9375 5.25 -2.6875 C 5.882812 -2.4375 6.84375 -2.3125 8.125 -2.3125 Z M 8.125 -2.3125 "/></g></g></g><g fill="#ffffff" fill-opacity="1"><g transform="translate(260.180875, 258.371234)"><g><path d="M 0 0.15625 L 0.296875 -2.3125 C 0.941406 -2.3125 1.460938 -2.351562 1.859375 -2.4375 C 2.253906 -2.53125 2.585938 -2.757812 2.859375 -3.125 C 3.128906 -3.5 3.382812 -4.085938 3.625 -4.890625 C 3.863281 -5.691406 4.144531 -6.8125 4.46875 -8.25 L 6.71875 -7.625 C 6.601562 -7.101562 6.460938 -6.488281 6.296875 -5.78125 C 6.140625 -5.082031 6.0625 -4.457031 6.0625 -3.90625 C 6.0625 -3.40625 6.25 -3.015625 6.625 -2.734375 C 7.007812 -2.453125 7.703125 -2.3125 8.703125 -2.3125 C 9.296875 -2.3125 9.78125 -2.359375 10.15625 -2.453125 C 10.539062 -2.554688 10.859375 -2.796875 11.109375 -3.171875 C 11.359375 -3.554688 11.582031 -4.160156 11.78125 -4.984375 C 11.988281 -5.816406 12.203125 -6.972656 12.421875 -8.453125 L 14.703125 -8.046875 C 14.640625 -7.679688 14.5625 -7.238281 14.46875 -6.71875 C 14.382812 -6.195312 14.3125 -5.679688 14.25 -5.171875 C 14.1875 -4.660156 14.15625 -4.238281 14.15625 -3.90625 C 14.15625 -3.625 14.21875 -3.359375 14.34375 -3.109375 C 14.476562 -2.859375 14.738281 -2.660156 15.125 -2.515625 C 15.519531 -2.378906 16.109375 -2.3125 16.890625 -2.3125 C 17.753906 -2.3125 18.441406 -2.476562 18.953125 -2.8125 C 19.472656 -3.15625 19.734375 -3.847656 19.734375 -4.890625 C 19.734375 -5.628906 19.554688 -6.578125 19.203125 -7.734375 C 18.859375 -8.898438 18.46875 -10.050781 18.03125 -11.1875 L 20.453125 -12.09375 C 20.691406 -11.425781 20.929688 -10.6875 21.171875 -9.875 C 21.421875 -9.070312 21.625 -8.269531 21.78125 -7.46875 C 21.9375 -6.664062 22.015625 -5.96875 22.015625 -5.375 C 22.015625 -3.507812 21.554688 -2.117188 20.640625 -1.203125 C 19.722656 -0.296875 18.460938 0.15625 16.859375 0.15625 C 15.753906 0.15625 14.882812 0.0078125 14.25 -0.28125 C 13.625 -0.570312 13.175781 -1.03125 12.90625 -1.65625 C 12.425781 -0.914062 11.847656 -0.425781 11.171875 -0.1875 C 10.503906 0.0390625 9.5625 0.15625 8.34375 0.15625 C 7.914062 0.15625 7.46875 0.101562 7 0 C 6.53125 -0.101562 6.09375 -0.296875 5.6875 -0.578125 C 5.289062 -0.867188 4.984375 -1.304688 4.765625 -1.890625 C 4.242188 -1.003906 3.597656 -0.441406 2.828125 -0.203125 C 2.066406 0.0351562 1.125 0.15625 0 0.15625 Z M 0 0.15625 "/></g></g></g><g fill="#ffffff" fill-opacity="1"><g transform="translate(93.392708, 286.22125)"><g><path d="M 0.421875 0.015625 C 0.421875 -0.316406 0.46875 -0.6875 0.5625 -1.09375 C 0.65625 -1.507812 0.804688 -1.96875 1.015625 -2.46875 L 2.015625 -2.078125 C 1.867188 -1.679688 1.753906 -1.316406 1.671875 -0.984375 C 1.597656 -0.660156 1.5625 -0.359375 1.5625 -0.078125 C 1.5625 0.441406 1.710938 0.863281 2.015625 1.1875 C 2.328125 1.507812 2.726562 1.742188 3.21875 1.890625 C 3.71875 2.035156 4.269531 2.109375 4.875 2.109375 C 5.59375 2.109375 6.25 2.023438 6.84375 1.859375 C 7.4375 1.703125 7.910156 1.484375 8.265625 1.203125 C 8.617188 0.921875 8.796875 0.613281 8.796875 0.28125 C 8.796875 0.0390625 8.609375 -0.164062 8.234375 -0.34375 C 7.859375 -0.519531 7.332031 -0.703125 6.65625 -0.890625 L 6.9375 -2.0625 C 7.894531 -1.675781 8.644531 -1.414062 9.1875 -1.28125 C 9.738281 -1.144531 10.15625 -1.078125 10.4375 -1.078125 C 10.632812 -1.078125 10.773438 -1.019531 10.859375 -0.90625 C 10.953125 -0.800781 11 -0.675781 11 -0.53125 C 11 -0.382812 10.929688 -0.25 10.796875 -0.125 C 10.671875 0 10.503906 0.0625 10.296875 0.0625 L 9.78125 0.0625 C 9.789062 0.15625 9.800781 0.222656 9.8125 0.265625 C 9.832031 0.316406 9.84375 0.382812 9.84375 0.46875 C 9.84375 0.925781 9.628906 1.367188 9.203125 1.796875 C 8.785156 2.222656 8.179688 2.570312 7.390625 2.84375 C 6.609375 3.113281 5.664062 3.25 4.5625 3.25 C 3.8125 3.25 3.125 3.128906 2.5 2.890625 C 1.875 2.660156 1.367188 2.304688 0.984375 1.828125 C 0.609375 1.347656 0.421875 0.742188 0.421875 0.015625 Z M 4.5625 5.875 C 4.363281 5.875 4.195312 5.804688 4.0625 5.671875 C 3.925781 5.535156 3.859375 5.375 3.859375 5.1875 C 3.859375 5 3.925781 4.832031 4.0625 4.6875 C 4.195312 4.550781 4.363281 4.484375 4.5625 4.484375 C 4.75 4.484375 4.910156 4.550781 5.046875 4.6875 C 5.179688 4.832031 5.25 5 5.25 5.1875 C 5.25 5.375 5.179688 5.535156 5.046875 5.671875 C 4.910156 5.804688 4.75 5.875 4.5625 5.875 Z M 4.578125 7.671875 C 4.378906 7.671875 4.210938 7.601562 4.078125 7.46875 C 3.941406 7.332031 3.875 7.171875 3.875 6.984375 C 3.875 6.796875 3.941406 6.632812 4.078125 6.5 C 4.210938 6.363281 4.378906 6.296875 4.578125 6.296875 C 4.765625 6.296875 4.925781 6.363281 5.0625 6.5 C 5.195312 6.632812 5.265625 6.796875 5.265625 6.984375 C 5.265625 7.171875 5.195312 7.332031 5.0625 7.46875 C 4.925781 7.601562 4.765625 7.671875 4.578125 7.671875 Z M 4.578125 7.671875 "/></g></g></g><g fill="#ffffff" fill-opacity="1"><g transform="translate(103.690959, 286.22125)"><g><path d="M 0 0.0625 L 0.140625 -1.078125 C 0.535156 -1.078125 0.84375 -1.109375 1.0625 -1.171875 C 1.289062 -1.242188 1.460938 -1.378906 1.578125 -1.578125 C 1.691406 -1.785156 1.789062 -2.078125 1.875 -2.453125 C 1.957031 -2.835938 2.0625 -3.34375 2.1875 -3.96875 L 3.28125 -3.75 C 3.21875 -3.5 3.148438 -3.207031 3.078125 -2.875 C 3.015625 -2.550781 2.984375 -2.28125 2.984375 -2.0625 C 2.984375 -1.875 3.023438 -1.703125 3.109375 -1.546875 C 3.191406 -1.398438 3.367188 -1.285156 3.640625 -1.203125 C 3.921875 -1.117188 4.351562 -1.078125 4.9375 -1.078125 C 5.132812 -1.078125 5.273438 -1.019531 5.359375 -0.90625 C 5.453125 -0.800781 5.5 -0.675781 5.5 -0.53125 C 5.5 -0.382812 5.429688 -0.25 5.296875 -0.125 C 5.171875 0 5.003906 0.0625 4.796875 0.0625 C 4.066406 0.0625 3.519531 -0.015625 3.15625 -0.171875 C 2.800781 -0.328125 2.5625 -0.5625 2.4375 -0.875 C 2.15625 -0.488281 1.832031 -0.234375 1.46875 -0.109375 C 1.101562 0.00390625 0.613281 0.0625 0 0.0625 Z M 2.609375 -5.40625 C 2.410156 -5.40625 2.242188 -5.472656 2.109375 -5.609375 C 1.972656 -5.742188 1.90625 -5.90625 1.90625 -6.09375 C 1.90625 -6.28125 1.972656 -6.441406 2.109375 -6.578125 C 2.242188 -6.722656 2.410156 -6.796875 2.609375 -6.796875 C 2.796875 -6.796875 2.957031 -6.722656 3.09375 -6.578125 C 3.226562 -6.441406 3.296875 -6.28125 3.296875 -6.09375 C 3.296875 -5.90625 3.226562 -5.742188 3.09375 -5.609375 C 2.957031 -5.472656 2.796875 -5.40625 2.609375 -5.40625 Z M 2.609375 -5.40625 "/></g></g></g><g fill="#ffffff" fill-opacity="1"><g transform="translate(108.490279, 286.22125)"><g><path d="M 0 0.0625 L 0.140625 -1.078125 L 1.21875 -1.078125 C 1.988281 -1.078125 2.5625 -1.117188 2.9375 -1.203125 C 3.3125 -1.285156 3.554688 -1.394531 3.671875 -1.53125 C 3.785156 -1.664062 3.84375 -1.8125 3.84375 -1.96875 C 3.84375 -2.195312 3.757812 -2.445312 3.59375 -2.71875 C 3.425781 -2.988281 3.210938 -3.265625 2.953125 -3.546875 C 2.691406 -3.828125 2.414062 -4.109375 2.125 -4.390625 C 1.832031 -4.671875 1.550781 -4.925781 1.28125 -5.15625 C 1.019531 -5.394531 0.804688 -5.597656 0.640625 -5.765625 C 0.472656 -5.941406 0.390625 -6.066406 0.390625 -6.140625 C 0.390625 -6.359375 0.410156 -6.5625 0.453125 -6.75 C 0.503906 -6.9375 0.582031 -7.082031 0.6875 -7.1875 C 0.9375 -7.457031 1.304688 -7.738281 1.796875 -8.03125 C 2.285156 -8.320312 2.847656 -8.625 3.484375 -8.9375 C 4.117188 -9.25 4.769531 -9.566406 5.4375 -9.890625 L 5.90625 -8.859375 C 5.082031 -8.453125 4.273438 -8.054688 3.484375 -7.671875 C 2.703125 -7.285156 2.015625 -6.890625 1.421875 -6.484375 C 1.941406 -6.046875 2.425781 -5.617188 2.875 -5.203125 C 3.320312 -4.796875 3.734375 -4.351562 4.109375 -3.875 C 4.492188 -3.40625 4.847656 -2.875 5.171875 -2.28125 C 5.359375 -1.914062 5.582031 -1.648438 5.84375 -1.484375 C 6.113281 -1.316406 6.375 -1.207031 6.625 -1.15625 C 6.875 -1.101562 7.082031 -1.078125 7.25 -1.078125 C 7.445312 -1.078125 7.585938 -1.019531 7.671875 -0.90625 C 7.765625 -0.800781 7.8125 -0.675781 7.8125 -0.53125 C 7.8125 -0.382812 7.742188 -0.25 7.609375 -0.125 C 7.484375 0 7.316406 0.0625 7.109375 0.0625 C 6.890625 0.0625 6.628906 0.0351562 6.328125 -0.015625 C 6.035156 -0.078125 5.738281 -0.191406 5.4375 -0.359375 C 5.144531 -0.535156 4.882812 -0.796875 4.65625 -1.140625 C 4.46875 -0.867188 4.234375 -0.644531 3.953125 -0.46875 C 3.679688 -0.289062 3.320312 -0.15625 2.875 -0.0625 C 2.425781 0.0195312 1.851562 0.0625 1.15625 0.0625 Z M 0 0.0625 "/></g></g></g><g fill="#ffffff" fill-opacity="1"><g transform="translate(115.598307, 286.22125)"><g><path d="M 0 0.0625 L 0.140625 -1.078125 C 0.609375 -1.078125 0.972656 -1.109375 1.234375 -1.171875 C 1.492188 -1.242188 1.691406 -1.378906 1.828125 -1.578125 C 1.960938 -1.785156 2.070312 -2.078125 2.15625 -2.453125 C 2.238281 -2.835938 2.34375 -3.34375 2.46875 -3.96875 L 3.5625 -3.75 C 3.5 -3.5 3.429688 -3.207031 3.359375 -2.875 C 3.296875 -2.550781 3.265625 -2.28125 3.265625 -2.0625 C 3.265625 -1.914062 3.269531 -1.78125 3.28125 -1.65625 C 3.300781 -1.539062 3.375 -1.441406 3.5 -1.359375 C 3.625 -1.273438 3.828125 -1.207031 4.109375 -1.15625 C 4.398438 -1.101562 4.816406 -1.078125 5.359375 -1.078125 C 5.554688 -1.078125 5.695312 -1.019531 5.78125 -0.90625 C 5.875 -0.800781 5.921875 -0.675781 5.921875 -0.53125 C 5.921875 -0.382812 5.851562 -0.25 5.71875 -0.125 C 5.59375 0 5.425781 0.0625 5.21875 0.0625 C 4.613281 0.0625 4.140625 0.03125 3.796875 -0.03125 C 3.460938 -0.101562 3.210938 -0.207031 3.046875 -0.34375 C 2.878906 -0.476562 2.757812 -0.648438 2.6875 -0.859375 C 2.414062 -0.472656 2.082031 -0.222656 1.6875 -0.109375 C 1.289062 0.00390625 0.726562 0.0625 0 0.0625 Z M 3.53125 2.703125 C 3.332031 2.703125 3.164062 2.632812 3.03125 2.5 C 2.894531 2.363281 2.828125 2.203125 2.828125 2.015625 C 2.828125 1.835938 2.894531 1.675781 3.03125 1.53125 C 3.164062 1.394531 3.332031 1.328125 3.53125 1.328125 C 3.71875 1.328125 3.878906 1.394531 4.015625 1.53125 C 4.148438 1.675781 4.21875 1.835938 4.21875 2.015625 C 4.21875 2.203125 4.148438 2.363281 4.015625 2.5 C 3.878906 2.632812 3.71875 2.703125 3.53125 2.703125 Z M 1.609375 2.703125 C 1.410156 2.703125 1.242188 2.632812 1.109375 2.5 C 0.972656 2.363281 0.90625 2.203125 0.90625 2.015625 C 0.90625 1.835938 0.972656 1.675781 1.109375 1.53125 C 1.242188 1.394531 1.410156 1.328125 1.609375 1.328125 C 1.796875 1.328125 1.957031 1.394531 2.09375 1.53125 C 2.226562 1.675781 2.296875 1.835938 2.296875 2.015625 C 2.296875 2.203125 2.226562 2.363281 2.09375 2.5 C 1.957031 2.632812 1.796875 2.703125 1.609375 2.703125 Z M 1.609375 2.703125 "/></g></g></g><g fill="#ffffff" fill-opacity="1"><g transform="translate(120.817396, 286.22125)"><g><path d="M 0 0.0625 L 0.125 -1.078125 C 0.65625 -1.078125 1.023438 -1.128906 1.234375 -1.234375 C 1.453125 -1.335938 1.578125 -1.515625 1.609375 -1.765625 C 1.648438 -2.023438 1.660156 -2.394531 1.640625 -2.875 L 1.375 -10 L 2.5 -10 L 2.78125 -3 C 2.8125 -2.332031 2.769531 -1.769531 2.65625 -1.3125 C 2.539062 -0.851562 2.28125 -0.507812 1.875 -0.28125 C 1.46875 -0.0507812 0.84375 0.0625 0 0.0625 Z M 0 0.0625 "/></g></g></g><g fill="#ffffff" fill-opacity="1"><g transform="translate(124.455369, 286.22125)"><g/></g></g><g fill="#ffffff" fill-opacity="1"><g transform="translate(127.953416, 286.22125)"><g><path d="M 0.8125 3.21875 L 0.5625 2.078125 C 1.132812 1.992188 1.660156 1.878906 2.140625 1.734375 C 2.628906 1.597656 3.046875 1.394531 3.390625 1.125 C 3.734375 0.863281 3.988281 0.507812 4.15625 0.0625 L 3.265625 0.0625 C 2.835938 0.0625 2.441406 0.00390625 2.078125 -0.109375 C 1.722656 -0.222656 1.4375 -0.410156 1.21875 -0.671875 C 1 -0.929688 0.890625 -1.269531 0.890625 -1.6875 C 0.890625 -2.207031 0.992188 -2.695312 1.203125 -3.15625 C 1.410156 -3.613281 1.691406 -3.988281 2.046875 -4.28125 C 2.398438 -4.570312 2.800781 -4.71875 3.25 -4.71875 C 3.894531 -4.71875 4.425781 -4.4375 4.84375 -3.875 C 5.269531 -3.3125 5.484375 -2.445312 5.484375 -1.28125 C 5.484375 -1.207031 5.484375 -1.140625 5.484375 -1.078125 L 6.75 -1.078125 C 6.945312 -1.078125 7.085938 -1.019531 7.171875 -0.90625 C 7.265625 -0.800781 7.3125 -0.675781 7.3125 -0.53125 C 7.3125 -0.382812 7.242188 -0.25 7.109375 -0.125 C 6.984375 0 6.816406 0.0625 6.609375 0.0625 L 5.3125 0.0625 C 4.84375 1.875 3.34375 2.925781 0.8125 3.21875 Z M 3.796875 -1.078125 L 4.375 -1.078125 C 4.382812 -1.171875 4.390625 -1.265625 4.390625 -1.359375 C 4.390625 -1.992188 4.273438 -2.519531 4.046875 -2.9375 C 3.816406 -3.351562 3.515625 -3.5625 3.140625 -3.5625 C 2.941406 -3.5625 2.753906 -3.488281 2.578125 -3.34375 C 2.410156 -3.195312 2.273438 -2.992188 2.171875 -2.734375 C 2.066406 -2.484375 2.015625 -2.210938 2.015625 -1.921875 C 2.015625 -1.585938 2.160156 -1.363281 2.453125 -1.25 C 2.742188 -1.132812 3.191406 -1.078125 3.796875 -1.078125 Z M 3.796875 -1.078125 "/></g></g></g><g fill="#ffffff" fill-opacity="1"><g transform="translate(134.557733, 286.22125)"><g><path d="M 0 0.0625 L 0.140625 -1.078125 C 0.609375 -1.078125 0.972656 -1.109375 1.234375 -1.171875 C 1.492188 -1.242188 1.691406 -1.378906 1.828125 -1.578125 C 1.960938 -1.785156 2.070312 -2.078125 2.15625 -2.453125 C 2.238281 -2.835938 2.34375 -3.34375 2.46875 -3.96875 L 3.5625 -3.75 C 3.5 -3.5 3.429688 -3.207031 3.359375 -2.875 C 3.296875 -2.550781 3.265625 -2.28125 3.265625 -2.0625 C 3.265625 -1.914062 3.269531 -1.78125 3.28125 -1.65625 C 3.300781 -1.539062 3.375 -1.441406 3.5 -1.359375 C 3.625 -1.273438 3.828125 -1.207031 4.109375 -1.15625 C 4.398438 -1.101562 4.816406 -1.078125 5.359375 -1.078125 C 5.554688 -1.078125 5.695312 -1.019531 5.78125 -0.90625 C 5.875 -0.800781 5.921875 -0.675781 5.921875 -0.53125 C 5.921875 -0.382812 5.851562 -0.25 5.71875 -0.125 C 5.59375 0 5.425781 0.0625 5.21875 0.0625 C 4.613281 0.0625 4.140625 0.03125 3.796875 -0.03125 C 3.460938 -0.101562 3.210938 -0.207031 3.046875 -0.34375 C 2.878906 -0.476562 2.757812 -0.648438 2.6875 -0.859375 C 2.414062 -0.472656 2.082031 -0.222656 1.6875 -0.109375 C 1.289062 0.00390625 0.726562 0.0625 0 0.0625 Z M 3.734375 -5.40625 C 3.535156 -5.40625 3.367188 -5.472656 3.234375 -5.609375 C 3.097656 -5.742188 3.03125 -5.90625 3.03125 -6.09375 C 3.03125 -6.28125 3.097656 -6.441406 3.234375 -6.578125 C 3.367188 -6.722656 3.535156 -6.796875 3.734375 -6.796875 C 3.921875 -6.796875 4.082031 -6.722656 4.21875 -6.578125 C 4.351562 -6.441406 4.421875 -6.28125 4.421875 -6.09375 C 4.421875 -5.90625 4.351562 -5.742188 4.21875 -5.609375 C 4.082031 -5.472656 3.921875 -5.40625 3.734375 -5.40625 Z M 1.8125 -5.40625 C 1.613281 -5.40625 1.445312 -5.472656 1.3125 -5.609375 C 1.175781 -5.742188 1.109375 -5.90625 1.109375 -6.09375 C 1.109375 -6.28125 1.175781 -6.441406 1.3125 -6.578125 C 1.445312 -6.722656 1.613281 -6.796875 1.8125 -6.796875 C 2 -6.796875 2.160156 -6.722656 2.296875 -6.578125 C 2.429688 -6.441406 2.5 -6.28125 2.5 -6.09375 C 2.5 -5.90625 2.429688 -5.742188 2.296875 -5.609375 C 2.160156 -5.472656 2 -5.40625 1.8125 -5.40625 Z M 1.8125 -5.40625 "/></g></g></g><g fill="#ffffff" fill-opacity="1"><g transform="translate(139.776822, 286.22125)"><g><path d="M 0 0.0625 L 0.140625 -1.078125 C 0.441406 -1.078125 0.679688 -1.097656 0.859375 -1.140625 C 1.046875 -1.179688 1.203125 -1.285156 1.328125 -1.453125 C 1.460938 -1.628906 1.582031 -1.90625 1.6875 -2.28125 C 1.800781 -2.65625 1.9375 -3.175781 2.09375 -3.84375 L 3.140625 -3.5625 C 3.078125 -3.3125 3.007812 -3.023438 2.9375 -2.703125 C 2.863281 -2.378906 2.828125 -2.082031 2.828125 -1.8125 C 2.828125 -1.582031 2.914062 -1.398438 3.09375 -1.265625 C 3.269531 -1.140625 3.59375 -1.078125 4.0625 -1.078125 C 4.34375 -1.078125 4.570312 -1.097656 4.75 -1.140625 C 4.925781 -1.191406 5.070312 -1.304688 5.1875 -1.484375 C 5.300781 -1.660156 5.40625 -1.941406 5.5 -2.328125 C 5.59375 -2.710938 5.691406 -3.253906 5.796875 -3.953125 L 6.859375 -3.75 C 6.828125 -3.582031 6.789062 -3.375 6.75 -3.125 C 6.707031 -2.882812 6.671875 -2.644531 6.640625 -2.40625 C 6.617188 -2.175781 6.609375 -1.976562 6.609375 -1.8125 C 6.609375 -1.6875 6.640625 -1.566406 6.703125 -1.453125 C 6.765625 -1.335938 6.882812 -1.242188 7.0625 -1.171875 C 7.25 -1.109375 7.519531 -1.078125 7.875 -1.078125 C 8.34375 -1.078125 8.679688 -1.171875 8.890625 -1.359375 C 9.109375 -1.554688 9.21875 -1.859375 9.21875 -2.265625 C 9.21875 -2.585938 9.207031 -2.9375 9.1875 -3.3125 C 9.164062 -3.695312 9.117188 -4.179688 9.046875 -4.765625 L 10.0625 -4.828125 C 10.125 -4.078125 10.1875 -3.457031 10.25 -2.96875 C 10.320312 -2.476562 10.425781 -2.09375 10.5625 -1.8125 C 10.695312 -1.539062 10.878906 -1.347656 11.109375 -1.234375 C 11.347656 -1.128906 11.660156 -1.078125 12.046875 -1.078125 C 12.234375 -1.078125 12.367188 -1.019531 12.453125 -0.90625 C 12.546875 -0.800781 12.59375 -0.675781 12.59375 -0.53125 C 12.59375 -0.382812 12.523438 -0.25 12.390625 -0.125 C 12.265625 0 12.101562 0.0625 11.90625 0.0625 C 11.375 0.0625 10.9375 -0.0507812 10.59375 -0.28125 C 10.257812 -0.507812 10.015625 -0.800781 9.859375 -1.15625 C 9.671875 -0.664062 9.382812 -0.335938 9 -0.171875 C 8.625 -0.015625 8.207031 0.0625 7.75 0.0625 C 7.28125 0.0625 6.90625 -0.00390625 6.625 -0.140625 C 6.351562 -0.273438 6.148438 -0.476562 6.015625 -0.75 C 5.796875 -0.414062 5.53125 -0.195312 5.21875 -0.09375 C 4.90625 0.0078125 4.460938 0.0625 3.890625 0.0625 C 3.691406 0.0625 3.484375 0.0390625 3.265625 0 C 3.046875 -0.0390625 2.84375 -0.128906 2.65625 -0.265625 C 2.46875 -0.398438 2.320312 -0.601562 2.21875 -0.875 C 1.976562 -0.46875 1.675781 -0.207031 1.3125 -0.09375 C 0.957031 0.0078125 0.519531 0.0625 0 0.0625 Z M 5.40625 2.671875 C 5.207031 2.671875 5.039062 2.601562 4.90625 2.46875 C 4.769531 2.332031 4.703125 2.175781 4.703125 2 C 4.703125 1.8125 4.769531 1.644531 4.90625 1.5 C 5.039062 1.363281 5.207031 1.296875 5.40625 1.296875 C 5.59375 1.296875 5.753906 1.363281 5.890625 1.5 C 6.023438 1.644531 6.09375 1.8125 6.09375 2 C 6.09375 2.175781 6.023438 2.332031 5.890625 2.46875 C 5.753906 2.601562 5.59375 2.671875 5.40625 2.671875 Z M 6 -6.09375 C 5.800781 -6.09375 5.632812 -6.160156 5.5 -6.296875 C 5.363281 -6.429688 5.296875 -6.59375 5.296875 -6.78125 C 5.296875 -6.96875 5.363281 -7.128906 5.5 -7.265625 C 5.632812 -7.410156 5.800781 -7.484375 6 -7.484375 C 6.1875 -7.484375 6.347656 -7.410156 6.484375 -7.265625 C 6.617188 -7.128906 6.6875 -6.96875 6.6875 -6.78125 C 6.6875 -6.59375 6.617188 -6.429688 6.484375 -6.296875 C 6.347656 -6.160156 6.1875 -6.09375 6 -6.09375 Z M 6 -6.09375 "/></g></g></g><g fill="#ffffff" fill-opacity="1"><g transform="translate(151.670185, 286.22125)"><g><path d="M 0 0.0625 L 0.140625 -1.078125 C 0.679688 -1.078125 1.109375 -1.097656 1.421875 -1.140625 C 1.734375 -1.179688 1.953125 -1.285156 2.078125 -1.453125 C 2.210938 -1.617188 2.28125 -1.894531 2.28125 -2.28125 C 2.28125 -2.625 2.195312 -3.066406 2.03125 -3.609375 C 1.875 -4.148438 1.691406 -4.6875 1.484375 -5.21875 L 2.625 -5.640625 C 2.738281 -5.335938 2.847656 -4.992188 2.953125 -4.609375 C 3.066406 -4.234375 3.160156 -3.859375 3.234375 -3.484375 C 3.304688 -3.109375 3.34375 -2.78125 3.34375 -2.5 C 3.34375 -1.5625 3.082031 -0.898438 2.5625 -0.515625 C 2.039062 -0.128906 1.1875 0.0625 0 0.0625 Z M 0.625 2.703125 C 0.425781 2.703125 0.257812 2.632812 0.125 2.5 C -0.0078125 2.363281 -0.078125 2.203125 -0.078125 2.015625 C -0.078125 1.835938 -0.0078125 1.675781 0.125 1.53125 C 0.257812 1.394531 0.425781 1.328125 0.625 1.328125 C 0.8125 1.328125 0.972656 1.394531 1.109375 1.53125 C 1.242188 1.675781 1.3125 1.835938 1.3125 2.015625 C 1.3125 2.203125 1.242188 2.363281 1.109375 2.5 C 0.972656 2.632812 0.8125 2.703125 0.625 2.703125 Z M 2.53125 2.703125 C 2.332031 2.703125 2.164062 2.632812 2.03125 2.5 C 1.894531 2.363281 1.828125 2.203125 1.828125 2.015625 C 1.828125 1.835938 1.894531 1.675781 2.03125 1.53125 C 2.164062 1.394531 2.332031 1.328125 2.53125 1.328125 C 2.71875 1.328125 2.878906 1.394531 3.015625 1.53125 C 3.148438 1.675781 3.21875 1.835938 3.21875 2.015625 C 3.21875 2.203125 3.148438 2.363281 3.015625 2.5 C 2.878906 2.632812 2.71875 2.703125 2.53125 2.703125 Z M 1.578125 4.25 C 1.378906 4.25 1.210938 4.179688 1.078125 4.046875 C 0.941406 3.910156 0.875 3.75 0.875 3.5625 C 0.875 3.375 0.941406 3.207031 1.078125 3.0625 C 1.210938 2.925781 1.378906 2.859375 1.578125 2.859375 C 1.765625 2.859375 1.925781 2.925781 2.0625 3.0625 C 2.195312 3.207031 2.265625 3.375 2.265625 3.5625 C 2.265625 3.75 2.195312 3.910156 2.0625 4.046875 C 1.925781 4.179688 1.765625 4.25 1.578125 4.25 Z M 1.578125 4.25 "/></g></g></g><g fill="#ffffff" fill-opacity="1"><g transform="translate(155.853847, 286.22125)"><g/></g></g><g fill="#ffffff" fill-opacity="1"><g transform="translate(159.351894, 286.22125)"><g><path d="M 0.421875 0.015625 C 0.421875 -0.316406 0.46875 -0.6875 0.5625 -1.09375 C 0.65625 -1.507812 0.804688 -1.96875 1.015625 -2.46875 L 2.015625 -2.078125 C 1.867188 -1.679688 1.753906 -1.316406 1.671875 -0.984375 C 1.597656 -0.660156 1.5625 -0.359375 1.5625 -0.078125 C 1.5625 0.398438 1.6875 0.796875 1.9375 1.109375 C 2.195312 1.429688 2.546875 1.671875 2.984375 1.828125 C 3.421875 1.992188 3.914062 2.078125 4.46875 2.078125 C 5.09375 2.078125 5.613281 1.988281 6.03125 1.8125 C 6.457031 1.644531 6.796875 1.421875 7.046875 1.140625 C 7.304688 0.867188 7.488281 0.566406 7.59375 0.234375 C 7.695312 -0.0976562 7.75 -0.425781 7.75 -0.75 C 7.75 -1.101562 7.679688 -1.53125 7.546875 -2.03125 C 7.410156 -2.539062 7.160156 -3.171875 6.796875 -3.921875 L 7.859375 -4.453125 C 8.128906 -3.910156 8.367188 -3.335938 8.578125 -2.734375 C 8.785156 -2.140625 8.890625 -1.53125 8.890625 -0.90625 C 8.890625 -0.457031 8.816406 0.00390625 8.671875 0.484375 C 8.535156 0.972656 8.300781 1.421875 7.96875 1.828125 C 7.632812 2.242188 7.175781 2.578125 6.59375 2.828125 C 6.019531 3.085938 5.304688 3.21875 4.453125 3.21875 C 3.722656 3.21875 3.050781 3.101562 2.4375 2.875 C 1.832031 2.65625 1.34375 2.304688 0.96875 1.828125 C 0.601562 1.359375 0.421875 0.753906 0.421875 0.015625 Z M 4.640625 -5.5625 C 4.441406 -5.5625 4.273438 -5.628906 4.140625 -5.765625 C 4.003906 -5.898438 3.9375 -6.0625 3.9375 -6.25 C 3.9375 -6.4375 4.003906 -6.597656 4.140625 -6.734375 C 4.273438 -6.878906 4.441406 -6.953125 4.640625 -6.953125 C 4.828125 -6.953125 4.988281 -6.878906 5.125 -6.734375 C 5.257812 -6.597656 5.328125 -6.4375 5.328125 -6.25 C 5.328125 -6.0625 5.257812 -5.898438 5.125 -5.765625 C 4.988281 -5.628906 4.828125 -5.5625 4.640625 -5.5625 Z M 4.640625 -5.5625 "/></g></g></g><g fill="#ffffff" fill-opacity="1"><g transform="translate(168.936549, 286.22125)"><g><path d="M 4.078125 0.0625 C 3.316406 0.0625 2.738281 -0.0195312 2.34375 -0.1875 C 1.957031 -0.351562 1.6875 -0.613281 1.53125 -0.96875 C 1.382812 -1.320312 1.300781 -1.78125 1.28125 -2.34375 L 1.015625 -10 L 2.15625 -10 L 2.4375 -2.78125 C 2.457031 -2.320312 2.5 -1.96875 2.5625 -1.71875 C 2.632812 -1.476562 2.796875 -1.3125 3.046875 -1.21875 C 3.296875 -1.125 3.6875 -1.078125 4.21875 -1.078125 C 4.414062 -1.078125 4.554688 -1.019531 4.640625 -0.90625 C 4.734375 -0.800781 4.78125 -0.675781 4.78125 -0.53125 C 4.78125 -0.382812 4.710938 -0.25 4.578125 -0.125 C 4.441406 0 4.273438 0.0625 4.078125 0.0625 Z M 4.078125 0.0625 "/></g></g></g><g fill="#ffffff" fill-opacity="1"><g transform="translate(173.008276, 286.22125)"><g><path d="M 0 0.0625 L 0.125 -1.078125 C 1.082031 -1.078125 2.015625 -1.21875 2.921875 -1.5 C 3.828125 -1.789062 4.65625 -2.195312 5.40625 -2.71875 C 5.039062 -3.03125 4.59375 -3.285156 4.0625 -3.484375 C 3.539062 -3.679688 2.960938 -3.78125 2.328125 -3.78125 C 2.085938 -3.78125 1.878906 -3.765625 1.703125 -3.734375 C 1.523438 -3.710938 1.3125 -3.675781 1.0625 -3.625 L 0.84375 -4.6875 C 1.363281 -4.84375 1.859375 -4.921875 2.328125 -4.921875 C 2.804688 -4.921875 3.242188 -4.863281 3.640625 -4.75 C 4.035156 -4.632812 4.390625 -4.492188 4.703125 -4.328125 C 5.023438 -4.160156 5.328125 -3.988281 5.609375 -3.8125 C 5.898438 -3.644531 6.179688 -3.503906 6.453125 -3.390625 C 6.722656 -3.273438 7.003906 -3.21875 7.296875 -3.21875 L 7.59375 -3.21875 L 7.6875 -2.21875 C 7.207031 -2.21875 6.769531 -2.140625 6.375 -1.984375 C 5.988281 -1.828125 5.597656 -1.632812 5.203125 -1.40625 C 4.804688 -1.175781 4.367188 -0.945312 3.890625 -0.71875 C 3.421875 -0.5 2.875 -0.3125 2.25 -0.15625 C 1.625 -0.0078125 0.875 0.0625 0 0.0625 Z M 2.34375 -6.375 C 2.144531 -6.375 1.976562 -6.441406 1.84375 -6.578125 C 1.707031 -6.710938 1.640625 -6.875 1.640625 -7.0625 C 1.640625 -7.25 1.707031 -7.410156 1.84375 -7.546875 C 1.976562 -7.691406 2.144531 -7.765625 2.34375 -7.765625 C 2.53125 -7.765625 2.691406 -7.691406 2.828125 -7.546875 C 2.960938 -7.410156 3.03125 -7.25 3.03125 -7.0625 C 3.03125 -6.875 2.960938 -6.710938 2.828125 -6.578125 C 2.691406 -6.441406 2.53125 -6.375 2.34375 -6.375 Z M 2.34375 -6.375 "/></g></g></g><g fill="#ffffff" fill-opacity="1"><g transform="translate(181.249681, 286.22125)"><g/></g></g><g fill="#ffffff" fill-opacity="1"><g transform="translate(184.747728, 286.22125)"><g><path d="M 0.421875 0.015625 C 0.421875 -0.316406 0.46875 -0.6875 0.5625 -1.09375 C 0.65625 -1.507812 0.804688 -1.96875 1.015625 -2.46875 L 2.015625 -2.078125 C 1.867188 -1.679688 1.753906 -1.316406 1.671875 -0.984375 C 1.597656 -0.660156 1.5625 -0.359375 1.5625 -0.078125 C 1.5625 0.441406 1.691406 0.859375 1.953125 1.171875 C 2.210938 1.492188 2.554688 1.726562 2.984375 1.875 C 3.421875 2.019531 3.898438 2.09375 4.421875 2.09375 C 5.273438 2.09375 5.941406 1.976562 6.421875 1.75 C 6.898438 1.519531 7.238281 1.210938 7.4375 0.828125 C 7.632812 0.453125 7.734375 0.0546875 7.734375 -0.359375 C 7.734375 -0.972656 7.664062 -1.539062 7.53125 -2.0625 C 7.40625 -2.582031 7.257812 -3.117188 7.09375 -3.671875 L 8.234375 -3.96875 C 8.378906 -3.4375 8.476562 -3.050781 8.53125 -2.8125 C 8.59375 -2.582031 8.644531 -2.390625 8.6875 -2.234375 C 8.789062 -1.890625 8.925781 -1.632812 9.09375 -1.46875 C 9.269531 -1.3125 9.460938 -1.207031 9.671875 -1.15625 C 9.890625 -1.101562 10.117188 -1.078125 10.359375 -1.078125 C 10.554688 -1.078125 10.695312 -1.019531 10.78125 -0.90625 C 10.875 -0.800781 10.921875 -0.675781 10.921875 -0.53125 C 10.921875 -0.382812 10.851562 -0.25 10.71875 -0.125 C 10.59375 0 10.425781 0.0625 10.21875 0.0625 C 9.925781 0.0625 9.671875 0.0234375 9.453125 -0.046875 C 9.234375 -0.128906 9.050781 -0.226562 8.90625 -0.34375 C 8.851562 0.113281 8.742188 0.554688 8.578125 0.984375 C 8.410156 1.410156 8.15625 1.789062 7.8125 2.125 C 7.476562 2.46875 7.03125 2.738281 6.46875 2.9375 C 5.90625 3.144531 5.207031 3.25 4.375 3.25 C 3.675781 3.25 3.023438 3.128906 2.421875 2.890625 C 1.828125 2.660156 1.34375 2.304688 0.96875 1.828125 C 0.601562 1.359375 0.421875 0.753906 0.421875 0.015625 Z M 4.640625 -5.5625 C 4.441406 -5.5625 4.273438 -5.628906 4.140625 -5.765625 C 4.003906 -5.898438 3.9375 -6.0625 3.9375 -6.25 C 3.9375 -6.4375 4.003906 -6.597656 4.140625 -6.734375 C 4.273438 -6.878906 4.441406 -6.953125 4.640625 -6.953125 C 4.828125 -6.953125 4.988281 -6.878906 5.125 -6.734375 C 5.257812 -6.597656 5.328125 -6.4375 5.328125 -6.25 C 5.328125 -6.0625 5.257812 -5.898438 5.125 -5.765625 C 4.988281 -5.628906 4.828125 -5.5625 4.640625 -5.5625 Z M 4.640625 -5.5625 "/></g></g></g><g fill="#ffffff" fill-opacity="1"><g transform="translate(194.962026, 286.22125)"><g><path d="M 0 0.0625 L 0.140625 -1.078125 C 0.679688 -1.078125 1.109375 -1.097656 1.421875 -1.140625 C 1.734375 -1.179688 1.953125 -1.285156 2.078125 -1.453125 C 2.210938 -1.617188 2.28125 -1.894531 2.28125 -2.28125 C 2.28125 -2.625 2.195312 -3.066406 2.03125 -3.609375 C 1.875 -4.148438 1.691406 -4.6875 1.484375 -5.21875 L 2.625 -5.640625 C 2.738281 -5.335938 2.847656 -4.992188 2.953125 -4.609375 C 3.066406 -4.234375 3.160156 -3.859375 3.234375 -3.484375 C 3.304688 -3.109375 3.34375 -2.78125 3.34375 -2.5 C 3.34375 -1.5625 3.082031 -0.898438 2.5625 -0.515625 C 2.039062 -0.128906 1.1875 0.0625 0 0.0625 Z M 2.59375 2.703125 C 2.394531 2.703125 2.226562 2.632812 2.09375 2.5 C 1.957031 2.363281 1.890625 2.203125 1.890625 2.015625 C 1.890625 1.835938 1.957031 1.675781 2.09375 1.53125 C 2.226562 1.394531 2.394531 1.328125 2.59375 1.328125 C 2.78125 1.328125 2.941406 1.394531 3.078125 1.53125 C 3.210938 1.675781 3.28125 1.835938 3.28125 2.015625 C 3.28125 2.203125 3.210938 2.363281 3.078125 2.5 C 2.941406 2.632812 2.78125 2.703125 2.59375 2.703125 Z M 0.671875 2.703125 C 0.472656 2.703125 0.304688 2.632812 0.171875 2.5 C 0.0351562 2.363281 -0.03125 2.203125 -0.03125 2.015625 C -0.03125 1.835938 0.0351562 1.675781 0.171875 1.53125 C 0.304688 1.394531 0.472656 1.328125 0.671875 1.328125 C 0.859375 1.328125 1.019531 1.394531 1.15625 1.53125 C 1.289062 1.675781 1.359375 1.835938 1.359375 2.015625 C 1.359375 2.203125 1.289062 2.363281 1.15625 2.5 C 1.019531 2.632812 0.859375 2.703125 0.671875 2.703125 Z M 0.671875 2.703125 "/></g></g></g><g fill="#ffffff" fill-opacity="1"><g transform="translate(199.145688, 286.22125)"><g><path d="M 3.015625 -1.078125 C 3.703125 -1.078125 4.1875 -1.179688 4.46875 -1.390625 C 4.757812 -1.597656 4.90625 -1.890625 4.90625 -2.265625 C 4.90625 -2.503906 4.820312 -2.816406 4.65625 -3.203125 C 4.488281 -3.585938 4.265625 -4.015625 3.984375 -4.484375 C 3.710938 -4.953125 3.410156 -5.4375 3.078125 -5.9375 L 4.046875 -6.5625 C 4.585938 -5.726562 5.023438 -4.96875 5.359375 -4.28125 C 5.703125 -3.601562 5.957031 -2.988281 6.125 -2.4375 C 6.257812 -2.019531 6.40625 -1.710938 6.5625 -1.515625 C 6.726562 -1.328125 6.898438 -1.207031 7.078125 -1.15625 C 7.253906 -1.101562 7.421875 -1.078125 7.578125 -1.078125 C 7.773438 -1.078125 7.914062 -1.019531 8 -0.90625 C 8.09375 -0.800781 8.140625 -0.675781 8.140625 -0.53125 C 8.140625 -0.382812 8.070312 -0.25 7.9375 -0.125 C 7.8125 0 7.648438 0.0625 7.453125 0.0625 C 7.085938 0.0625 6.734375 -0.015625 6.390625 -0.171875 C 6.054688 -0.328125 5.789062 -0.597656 5.59375 -0.984375 C 5.40625 -0.671875 5.109375 -0.414062 4.703125 -0.21875 C 4.296875 -0.0195312 3.734375 0.078125 3.015625 0.078125 C 2.492188 0.078125 2.015625 0.015625 1.578125 -0.109375 C 1.140625 -0.234375 0.773438 -0.40625 0.484375 -0.625 L 1.046875 -1.59375 C 1.234375 -1.46875 1.492188 -1.347656 1.828125 -1.234375 C 2.171875 -1.128906 2.566406 -1.078125 3.015625 -1.078125 Z M 3.015625 -1.078125 "/></g></g></g><g fill="#ffffff" fill-opacity="1"><g transform="translate(206.589531, 286.22125)"><g><path d="M 0 0.0625 L 0.125 -1.078125 C 0.65625 -1.078125 1.023438 -1.128906 1.234375 -1.234375 C 1.453125 -1.335938 1.578125 -1.515625 1.609375 -1.765625 C 1.648438 -2.023438 1.660156 -2.394531 1.640625 -2.875 L 1.375 -10 L 2.5 -10 L 2.78125 -3 C 2.8125 -2.332031 2.769531 -1.769531 2.65625 -1.3125 C 2.539062 -0.851562 2.28125 -0.507812 1.875 -0.28125 C 1.46875 -0.0507812 0.84375 0.0625 0 0.0625 Z M 0 0.0625 "/></g></g></g><g fill="#ffffff" fill-opacity="1"><g transform="translate(210.227505, 286.22125)"><g><path d="M 1.28125 0 L 1.015625 -10 L 2.140625 -10 L 2.421875 0 Z M 1.28125 0 "/></g></g></g><g fill="#ffffff" fill-opacity="1"><g transform="translate(213.557644, 286.22125)"><g><path d="M 3.015625 -1.078125 C 3.703125 -1.078125 4.1875 -1.179688 4.46875 -1.390625 C 4.757812 -1.597656 4.90625 -1.890625 4.90625 -2.265625 C 4.90625 -2.503906 4.820312 -2.816406 4.65625 -3.203125 C 4.488281 -3.585938 4.265625 -4.015625 3.984375 -4.484375 C 3.710938 -4.953125 3.410156 -5.4375 3.078125 -5.9375 L 4.046875 -6.5625 C 4.585938 -5.726562 5.023438 -4.96875 5.359375 -4.28125 C 5.703125 -3.601562 5.957031 -2.988281 6.125 -2.4375 C 6.257812 -2.019531 6.40625 -1.710938 6.5625 -1.515625 C 6.726562 -1.328125 6.898438 -1.207031 7.078125 -1.15625 C 7.253906 -1.101562 7.421875 -1.078125 7.578125 -1.078125 C 7.773438 -1.078125 7.914062 -1.019531 8 -0.90625 C 8.09375 -0.800781 8.140625 -0.675781 8.140625 -0.53125 C 8.140625 -0.382812 8.070312 -0.25 7.9375 -0.125 C 7.8125 0 7.648438 0.0625 7.453125 0.0625 C 7.085938 0.0625 6.734375 -0.015625 6.390625 -0.171875 C 6.054688 -0.328125 5.789062 -0.597656 5.59375 -0.984375 C 5.40625 -0.671875 5.109375 -0.414062 4.703125 -0.21875 C 4.296875 -0.0195312 3.734375 0.078125 3.015625 0.078125 C 2.492188 0.078125 2.015625 0.015625 1.578125 -0.109375 C 1.140625 -0.234375 0.773438 -0.40625 0.484375 -0.625 L 1.046875 -1.59375 C 1.234375 -1.46875 1.492188 -1.347656 1.828125 -1.234375 C 2.171875 -1.128906 2.566406 -1.078125 3.015625 -1.078125 Z M 3.015625 -1.078125 "/></g></g></g><g fill="#ffffff" fill-opacity="1"><g transform="translate(221.001487, 286.22125)"><g><path d="M 0 0.0625 L 0.140625 -1.078125 C 0.609375 -1.078125 0.972656 -1.109375 1.234375 -1.171875 C 1.492188 -1.242188 1.691406 -1.378906 1.828125 -1.578125 C 1.960938 -1.785156 2.070312 -2.078125 2.15625 -2.453125 C 2.238281 -2.835938 2.34375 -3.34375 2.46875 -3.96875 L 3.5625 -3.75 C 3.5 -3.5 3.429688 -3.207031 3.359375 -2.875 C 3.296875 -2.550781 3.265625 -2.28125 3.265625 -2.0625 C 3.265625 -1.914062 3.269531 -1.78125 3.28125 -1.65625 C 3.300781 -1.539062 3.375 -1.441406 3.5 -1.359375 C 3.625 -1.273438 3.828125 -1.207031 4.109375 -1.15625 C 4.398438 -1.101562 4.816406 -1.078125 5.359375 -1.078125 C 5.554688 -1.078125 5.695312 -1.019531 5.78125 -0.90625 C 5.875 -0.800781 5.921875 -0.675781 5.921875 -0.53125 C 5.921875 -0.382812 5.851562 -0.25 5.71875 -0.125 C 5.59375 0 5.425781 0.0625 5.21875 0.0625 C 4.613281 0.0625 4.140625 0.03125 3.796875 -0.03125 C 3.460938 -0.101562 3.210938 -0.207031 3.046875 -0.34375 C 2.878906 -0.476562 2.757812 -0.648438 2.6875 -0.859375 C 2.414062 -0.472656 2.082031 -0.222656 1.6875 -0.109375 C 1.289062 0.00390625 0.726562 0.0625 0 0.0625 Z M 3.53125 2.703125 C 3.332031 2.703125 3.164062 2.632812 3.03125 2.5 C 2.894531 2.363281 2.828125 2.203125 2.828125 2.015625 C 2.828125 1.835938 2.894531 1.675781 3.03125 1.53125 C 3.164062 1.394531 3.332031 1.328125 3.53125 1.328125 C 3.71875 1.328125 3.878906 1.394531 4.015625 1.53125 C 4.148438 1.675781 4.21875 1.835938 4.21875 2.015625 C 4.21875 2.203125 4.148438 2.363281 4.015625 2.5 C 3.878906 2.632812 3.71875 2.703125 3.53125 2.703125 Z M 1.609375 2.703125 C 1.410156 2.703125 1.242188 2.632812 1.109375 2.5 C 0.972656 2.363281 0.90625 2.203125 0.90625 2.015625 C 0.90625 1.835938 0.972656 1.675781 1.109375 1.53125 C 1.242188 1.394531 1.410156 1.328125 1.609375 1.328125 C 1.796875 1.328125 1.957031 1.394531 2.09375 1.53125 C 2.226562 1.675781 2.296875 1.835938 2.296875 2.015625 C 2.296875 2.203125 2.226562 2.363281 2.09375 2.5 C 1.957031 2.632812 1.796875 2.703125 1.609375 2.703125 Z M 1.609375 2.703125 "/></g></g></g><g fill="#ffffff" fill-opacity="1"><g transform="translate(226.220576, 286.22125)"><g><path d="M 0 0.0625 L 0.125 -1.078125 C 1.082031 -1.078125 2.015625 -1.21875 2.921875 -1.5 C 3.828125 -1.789062 4.65625 -2.195312 5.40625 -2.71875 C 5.039062 -3.03125 4.59375 -3.285156 4.0625 -3.484375 C 3.539062 -3.679688 2.960938 -3.78125 2.328125 -3.78125 C 2.085938 -3.78125 1.878906 -3.765625 1.703125 -3.734375 C 1.523438 -3.710938 1.3125 -3.675781 1.0625 -3.625 L 0.84375 -4.6875 C 1.363281 -4.84375 1.859375 -4.921875 2.328125 -4.921875 C 2.804688 -4.921875 3.242188 -4.863281 3.640625 -4.75 C 4.035156 -4.632812 4.390625 -4.492188 4.703125 -4.328125 C 5.023438 -4.160156 5.328125 -3.988281 5.609375 -3.8125 C 5.898438 -3.644531 6.179688 -3.503906 6.453125 -3.390625 C 6.722656 -3.273438 7.003906 -3.21875 7.296875 -3.21875 L 7.59375 -3.21875 L 7.6875 -2.21875 C 7.207031 -2.21875 6.769531 -2.140625 6.375 -1.984375 C 5.988281 -1.828125 5.597656 -1.632812 5.203125 -1.40625 C 4.804688 -1.175781 4.367188 -0.945312 3.890625 -0.71875 C 3.421875 -0.5 2.875 -0.3125 2.25 -0.15625 C 1.625 -0.0078125 0.875 0.0625 0 0.0625 Z M 0 0.0625 "/></g></g></g><g fill="#ffffff" fill-opacity="1"><g transform="translate(234.461981, 286.22125)"><g><path d="M 0.8125 3.21875 L 0.5625 2.078125 C 1.15625 1.992188 1.691406 1.878906 2.171875 1.734375 C 2.660156 1.585938 3.078125 1.375 3.421875 1.09375 C 3.773438 0.8125 4.035156 0.4375 4.203125 -0.03125 C 4.035156 0.0195312 3.859375 0.0546875 3.671875 0.078125 C 3.484375 0.0976562 3.300781 0.109375 3.125 0.109375 C 2.40625 0.109375 1.851562 -0.03125 1.46875 -0.3125 C 1.082031 -0.601562 0.890625 -1.054688 0.890625 -1.671875 C 0.890625 -2.023438 0.945312 -2.378906 1.0625 -2.734375 C 1.175781 -3.097656 1.332031 -3.425781 1.53125 -3.71875 C 1.738281 -4.019531 1.988281 -4.257812 2.28125 -4.4375 C 2.570312 -4.625 2.894531 -4.71875 3.25 -4.71875 C 3.75 -4.71875 4.164062 -4.550781 4.5 -4.21875 C 4.832031 -3.882812 5.078125 -3.457031 5.234375 -2.9375 C 5.398438 -2.414062 5.484375 -1.863281 5.484375 -1.28125 C 5.484375 0.03125 5.085938 1.0625 4.296875 1.8125 C 3.515625 2.570312 2.351562 3.039062 0.8125 3.21875 Z M 2 -1.953125 C 2 -1.660156 2.09375 -1.425781 2.28125 -1.25 C 2.46875 -1.082031 2.789062 -1 3.25 -1 C 3.644531 -1 4.023438 -1.050781 4.390625 -1.15625 C 4.390625 -1.21875 4.390625 -1.285156 4.390625 -1.359375 C 4.390625 -1.742188 4.335938 -2.101562 4.234375 -2.4375 C 4.140625 -2.78125 4 -3.050781 3.8125 -3.25 C 3.625 -3.457031 3.398438 -3.5625 3.140625 -3.5625 C 2.910156 -3.5625 2.710938 -3.476562 2.546875 -3.3125 C 2.378906 -3.15625 2.242188 -2.953125 2.140625 -2.703125 C 2.046875 -2.453125 2 -2.203125 2 -1.953125 Z M 2 -1.953125 "/></g></g></g><g fill="#ffffff" fill-opacity="1"><g transform="translate(240.716488, 286.22125)"><g/></g></g><g fill="#ffffff" fill-opacity="1"><g transform="translate(244.214533, 286.22125)"><g><path d="M 4.078125 0.0625 C 3.316406 0.0625 2.738281 -0.0195312 2.34375 -0.1875 C 1.957031 -0.351562 1.6875 -0.613281 1.53125 -0.96875 C 1.382812 -1.320312 1.300781 -1.78125 1.28125 -2.34375 L 1.015625 -10 L 2.15625 -10 L 2.4375 -2.78125 C 2.457031 -2.320312 2.5 -1.96875 2.5625 -1.71875 C 2.632812 -1.476562 2.796875 -1.3125 3.046875 -1.21875 C 3.296875 -1.125 3.6875 -1.078125 4.21875 -1.078125 C 4.414062 -1.078125 4.554688 -1.019531 4.640625 -0.90625 C 4.734375 -0.800781 4.78125 -0.675781 4.78125 -0.53125 C 4.78125 -0.382812 4.710938 -0.25 4.578125 -0.125 C 4.441406 0 4.273438 0.0625 4.078125 0.0625 Z M 4.078125 0.0625 "/></g></g></g><g fill="#ffffff" fill-opacity="1"><g transform="translate(248.28626, 286.22125)"><g><path d="M 0 0.0625 L 0.140625 -1.078125 C 0.585938 -1.078125 0.945312 -1.101562 1.21875 -1.15625 C 1.5 -1.21875 1.695312 -1.332031 1.8125 -1.5 C 1.9375 -1.675781 2 -1.9375 2 -2.28125 C 2 -2.625 1.914062 -3.066406 1.75 -3.609375 C 1.59375 -4.148438 1.410156 -4.6875 1.203125 -5.21875 L 2.34375 -5.640625 C 2.457031 -5.335938 2.566406 -4.992188 2.671875 -4.609375 C 2.785156 -4.234375 2.878906 -3.859375 2.953125 -3.484375 C 3.023438 -3.109375 3.0625 -2.78125 3.0625 -2.5 C 3.0625 -1.5625 2.8125 -0.898438 2.3125 -0.515625 C 1.8125 -0.128906 1.039062 0.0625 0 0.0625 Z M 1.796875 -7.09375 C 1.597656 -7.09375 1.429688 -7.160156 1.296875 -7.296875 C 1.160156 -7.429688 1.09375 -7.59375 1.09375 -7.78125 C 1.09375 -7.96875 1.160156 -8.128906 1.296875 -8.265625 C 1.429688 -8.410156 1.597656 -8.484375 1.796875 -8.484375 C 1.984375 -8.484375 2.144531 -8.410156 2.28125 -8.265625 C 2.414062 -8.128906 2.484375 -7.96875 2.484375 -7.78125 C 2.484375 -7.59375 2.414062 -7.429688 2.28125 -7.296875 C 2.144531 -7.160156 1.984375 -7.09375 1.796875 -7.09375 Z M 1.796875 -7.09375 "/></g></g></g><g fill="#ffffff" fill-opacity="1"><g transform="translate(252.050165, 286.22125)"><g><path d="M 5.5 -7.5 C 5.5 -7.707031 5.484375 -7.957031 5.453125 -8.25 C 5.429688 -8.539062 5.398438 -8.828125 5.359375 -9.109375 C 5.328125 -9.398438 5.289062 -9.648438 5.25 -9.859375 L 6.453125 -10 C 6.484375 -9.8125 6.507812 -9.566406 6.53125 -9.265625 C 6.5625 -8.960938 6.585938 -8.65625 6.609375 -8.34375 C 6.640625 -8.039062 6.65625 -7.796875 6.65625 -7.609375 C 6.65625 -7.023438 6.597656 -6.453125 6.484375 -5.890625 C 6.378906 -5.335938 6.207031 -4.800781 5.96875 -4.28125 C 6.40625 -3.820312 6.722656 -3.398438 6.921875 -3.015625 C 7.128906 -2.640625 7.234375 -2.265625 7.234375 -1.890625 C 7.234375 -1.617188 7.164062 -1.335938 7.03125 -1.046875 C 6.90625 -0.753906 6.671875 -0.503906 6.328125 -0.296875 C 5.984375 -0.0976562 5.484375 0 4.828125 0 L 1.609375 0 L 1.609375 -1.140625 C 3.003906 -2.128906 4.003906 -3.117188 4.609375 -4.109375 C 4.085938 -4.578125 3.472656 -5.078125 2.765625 -5.609375 C 2.054688 -6.140625 1.320312 -6.679688 0.5625 -7.234375 L 1.21875 -8.15625 C 2.050781 -7.539062 2.785156 -6.984375 3.421875 -6.484375 C 4.066406 -5.984375 4.625 -5.523438 5.09375 -5.109375 C 5.238281 -5.484375 5.34375 -5.867188 5.40625 -6.265625 C 5.46875 -6.660156 5.5 -7.070312 5.5 -7.5 Z M 3.28125 -1.140625 L 5.046875 -1.140625 C 5.515625 -1.140625 5.820312 -1.226562 5.96875 -1.40625 C 6.125 -1.582031 6.203125 -1.78125 6.203125 -2 C 6.203125 -2.164062 6.132812 -2.359375 6 -2.578125 C 5.863281 -2.804688 5.675781 -3.050781 5.4375 -3.3125 C 5.175781 -2.925781 4.863281 -2.550781 4.5 -2.1875 C 4.144531 -1.820312 3.738281 -1.472656 3.28125 -1.140625 Z M 3.28125 -1.140625 "/></g></g></g><g fill="#ffffff" fill-opacity="1"><g transform="translate(260.19362, 286.22125)"><g><path d="M 0.8125 3.21875 L 0.5625 2.078125 C 1.132812 1.992188 1.660156 1.878906 2.140625 1.734375 C 2.628906 1.597656 3.046875 1.394531 3.390625 1.125 C 3.734375 0.863281 3.988281 0.507812 4.15625 0.0625 L 3.265625 0.0625 C 2.835938 0.0625 2.441406 0.00390625 2.078125 -0.109375 C 1.722656 -0.222656 1.4375 -0.410156 1.21875 -0.671875 C 1 -0.929688 0.890625 -1.269531 0.890625 -1.6875 C 0.890625 -2.207031 0.992188 -2.695312 1.203125 -3.15625 C 1.410156 -3.613281 1.691406 -3.988281 2.046875 -4.28125 C 2.398438 -4.570312 2.800781 -4.71875 3.25 -4.71875 C 3.894531 -4.71875 4.425781 -4.4375 4.84375 -3.875 C 5.269531 -3.3125 5.484375 -2.445312 5.484375 -1.28125 C 5.484375 -1.207031 5.484375 -1.140625 5.484375 -1.078125 L 6.75 -1.078125 C 6.945312 -1.078125 7.085938 -1.019531 7.171875 -0.90625 C 7.265625 -0.800781 7.3125 -0.675781 7.3125 -0.53125 C 7.3125 -0.382812 7.242188 -0.25 7.109375 -0.125 C 6.984375 0 6.816406 0.0625 6.609375 0.0625 L 5.3125 0.0625 C 4.84375 1.875 3.34375 2.925781 0.8125 3.21875 Z M 3.796875 -1.078125 L 4.375 -1.078125 C 4.382812 -1.171875 4.390625 -1.265625 4.390625 -1.359375 C 4.390625 -1.992188 4.273438 -2.519531 4.046875 -2.9375 C 3.816406 -3.351562 3.515625 -3.5625 3.140625 -3.5625 C 2.941406 -3.5625 2.753906 -3.488281 2.578125 -3.34375 C 2.410156 -3.195312 2.273438 -2.992188 2.171875 -2.734375 C 2.066406 -2.484375 2.015625 -2.210938 2.015625 -1.921875 C 2.015625 -1.585938 2.160156 -1.363281 2.453125 -1.25 C 2.742188 -1.132812 3.191406 -1.078125 3.796875 -1.078125 Z M 3.796875 -1.078125 "/></g></g></g><g fill="#ffffff" fill-opacity="1"><g transform="translate(266.797936, 286.22125)"><g><path d="M 0 0.0625 L 0.140625 -1.078125 C 0.398438 -1.078125 0.617188 -1.128906 0.796875 -1.234375 C 0.972656 -1.347656 1.144531 -1.535156 1.3125 -1.796875 C 1.476562 -2.054688 1.660156 -2.410156 1.859375 -2.859375 C 2.128906 -3.453125 2.394531 -3.898438 2.65625 -4.203125 C 2.925781 -4.515625 3.191406 -4.726562 3.453125 -4.84375 C 3.722656 -4.957031 3.988281 -5.015625 4.25 -5.015625 C 4.570312 -5.015625 4.867188 -4.929688 5.140625 -4.765625 C 5.410156 -4.597656 5.644531 -4.378906 5.84375 -4.109375 C 6.050781 -3.835938 6.210938 -3.539062 6.328125 -3.21875 C 6.453125 -2.90625 6.515625 -2.585938 6.515625 -2.265625 C 6.515625 -1.703125 6.414062 -1.253906 6.21875 -0.921875 C 6.019531 -0.597656 5.769531 -0.363281 5.46875 -0.21875 C 5.164062 -0.0703125 4.847656 0 4.515625 0 C 4.242188 0 3.898438 -0.046875 3.484375 -0.140625 C 3.078125 -0.234375 2.5625 -0.476562 1.9375 -0.875 C 1.632812 -0.4375 1.332031 -0.171875 1.03125 -0.078125 C 0.738281 0.015625 0.394531 0.0625 0 0.0625 Z M 2.625 -2.109375 C 2.5625 -1.992188 2.507812 -1.878906 2.46875 -1.765625 C 2.863281 -1.523438 3.226562 -1.359375 3.5625 -1.265625 C 3.894531 -1.179688 4.171875 -1.140625 4.390625 -1.140625 C 4.796875 -1.140625 5.082031 -1.226562 5.25 -1.40625 C 5.414062 -1.59375 5.5 -1.828125 5.5 -2.109375 C 5.5 -2.378906 5.429688 -2.648438 5.296875 -2.921875 C 5.171875 -3.191406 5.007812 -3.414062 4.8125 -3.59375 C 4.613281 -3.769531 4.398438 -3.859375 4.171875 -3.859375 C 4.003906 -3.859375 3.835938 -3.8125 3.671875 -3.71875 C 3.515625 -3.625 3.351562 -3.453125 3.1875 -3.203125 C 3.019531 -2.953125 2.832031 -2.585938 2.625 -2.109375 Z M 2.625 -2.109375 "/></g></g></g><g fill="#ffffff" fill-opacity="1"><g transform="translate(274.143843, 286.22125)"><g/></g></g><g fill="#ffffff" fill-opacity="1"><g transform="translate(277.641888, 286.22125)"><g><path d="M 0.484375 -0.625 L 1.046875 -1.59375 C 1.234375 -1.46875 1.492188 -1.347656 1.828125 -1.234375 C 2.171875 -1.128906 2.566406 -1.078125 3.015625 -1.078125 C 3.703125 -1.078125 4.1875 -1.179688 4.46875 -1.390625 C 4.757812 -1.597656 4.90625 -1.890625 4.90625 -2.265625 C 4.90625 -2.453125 4.863281 -2.679688 4.78125 -2.953125 C 4.707031 -3.234375 4.539062 -3.609375 4.28125 -4.078125 C 4.019531 -4.546875 3.617188 -5.164062 3.078125 -5.9375 L 4.046875 -6.5625 C 4.785156 -5.539062 5.300781 -4.671875 5.59375 -3.953125 C 5.894531 -3.234375 6.046875 -2.648438 6.046875 -2.203125 C 6.046875 -1.816406 5.953125 -1.453125 5.765625 -1.109375 C 5.578125 -0.765625 5.265625 -0.476562 4.828125 -0.25 C 4.390625 -0.03125 3.785156 0.078125 3.015625 0.078125 C 2.492188 0.078125 2.015625 0.015625 1.578125 -0.109375 C 1.140625 -0.234375 0.773438 -0.40625 0.484375 -0.625 Z M 0.484375 -0.625 "/></g></g></g></svg>