<svg xmlns="http://www.w3.org/2000/svg" xmlns:xlink="http://www.w3.org/1999/xlink" width="500" zoomAndPan="magnify" viewBox="0 0 375 374.999991" height="500" preserveAspectRatio="xMidYMid meet" version="1.0"><defs><g/><clipPath id="f89371d829"><path d="M 126.554688 130.097656 L 248.796875 130.097656 L 248.796875 207.984375 L 126.554688 207.984375 Z M 126.554688 130.097656 " clip-rule="nonzero"/></clipPath><clipPath id="c928596ba7"><path d="M 159 89.519531 L 216 89.519531 L 216 142 L 159 142 Z M 159 89.519531 " clip-rule="nonzero"/></clipPath></defs><g clip-path="url(#f89371d829)"><path fill="#bf8a2c" d="M 243.304688 202.222656 L 215.472656 202.222656 L 215.472656 146.863281 C 217.523438 145.097656 219.441406 143.261719 221 141.289062 C 223.703125 144.703125 227.480469 147.714844 231.179688 150.667969 C 236.765625 155.117188 243.304688 159.1875 243.304688 164.734375 Z M 132.046875 202.222656 L 132.046875 164.734375 C 132.046875 159.804688 138.585938 155.117188 144.171875 150.667969 C 147.871094 147.714844 151.648438 144.703125 154.347656 141.289062 C 155.90625 143.261719 157.824219 145.097656 159.878906 146.863281 L 159.878906 202.222656 Z M 221 130.179688 C 220.441406 133.347656 218.316406 136.210938 215.472656 138.957031 C 213.824219 140.542969 211.941406 142.089844 209.980469 143.625 C 202.195312 149.726562 193.203125 155.722656 193.203125 163.75 L 193.203125 202.222656 L 182.144531 202.222656 L 182.144531 163.75 C 182.144531 155.53125 173.152344 149.570312 165.371094 143.53125 C 163.410156 142.007812 161.523438 140.480469 159.878906 138.90625 C 157.035156 136.191406 154.910156 133.347656 154.347656 130.179688 C 152.183594 142.4375 126.554688 150.203125 126.554688 163.75 L 126.554688 207.984375 L 165.371094 207.984375 L 165.371094 151.328125 C 170.75 155.527344 176.652344 159.464844 176.652344 164.734375 L 176.652344 207.984375 L 198.695312 207.984375 L 198.695312 164.734375 C 198.695312 160.050781 204.601562 155.585938 209.980469 151.335938 L 209.980469 202.222656 L 209.996094 202.222656 L 209.996094 207.984375 L 248.796875 207.984375 L 248.796875 163.75 C 248.796875 149.871094 223.164062 142.4375 221 130.179688 " fill-opacity="1" fill-rule="nonzero"/></g><g clip-path="url(#c928596ba7)"><path fill="#bf8a2c" d="M 165.371094 124.109375 C 165.371094 119.179688 171.910156 114.492188 177.496094 110.042969 C 181.195312 107.089844 184.972656 104.078125 187.675781 100.664062 C 190.378906 104.078125 194.152344 107.089844 197.855469 110.042969 C 203.4375 114.492188 209.980469 118.566406 209.980469 124.109375 L 209.980469 141.101562 C 211.941406 139.5625 213.824219 138.019531 215.472656 136.429688 L 215.472656 123.125 C 215.472656 109.246094 189.839844 101.8125 187.675781 89.554688 C 185.511719 101.8125 159.878906 109.574219 159.878906 123.125 L 159.878906 136.382812 C 161.523438 137.953125 163.410156 139.480469 165.371094 141.003906 L 165.371094 124.109375 " fill-opacity="1" fill-rule="nonzero"/></g><g fill="#ffffff" fill-opacity="1"><g transform="translate(91.596877, 241.054261)"><g><path d="M 13.484375 0.671875 C 10.429688 0.671875 7.992188 0.363281 6.171875 -0.25 C 4.347656 -0.863281 3.03125 -1.710938 2.21875 -2.796875 C 1.414062 -3.878906 1.015625 -5.109375 1.015625 -6.484375 C 1.015625 -7.484375 1.140625 -8.503906 1.390625 -9.546875 C 1.648438 -10.597656 1.894531 -11.53125 2.125 -12.34375 L 6.109375 -11.421875 C 5.953125 -10.828125 5.804688 -10.191406 5.671875 -9.515625 C 5.535156 -8.847656 5.46875 -8.265625 5.46875 -7.765625 C 5.46875 -6.953125 5.75 -6.25 6.3125 -5.65625 C 6.875 -5.0625 7.800781 -4.597656 9.09375 -4.265625 C 10.382812 -3.941406 12.125 -3.78125 14.3125 -3.78125 L 14.3125 -3.6875 L 14.34375 -3.78125 C 15.863281 -3.78125 17.328125 -3.851562 18.734375 -4 C 20.148438 -4.15625 21.5 -4.453125 22.78125 -4.890625 C 24.0625 -5.335938 25.257812 -5.992188 26.375 -6.859375 C 27.488281 -7.734375 28.507812 -8.898438 29.4375 -10.359375 L 33 -8.75 C 32.875 -8.34375 32.769531 -7.945312 32.6875 -7.5625 C 32.601562 -7.1875 32.5625 -6.890625 32.5625 -6.671875 C 32.5625 -5.929688 32.847656 -5.347656 33.421875 -4.921875 C 33.992188 -4.503906 35.0625 -4.296875 36.625 -4.296875 C 37.4375 -4.296875 38.007812 -4.085938 38.34375 -3.671875 C 38.6875 -3.253906 38.859375 -2.738281 38.859375 -2.125 C 38.859375 -1.46875 38.640625 -0.921875 38.203125 -0.484375 C 37.765625 -0.0546875 37.132812 0.15625 36.3125 0.15625 C 34.40625 0.15625 32.84375 -0.175781 31.625 -0.84375 C 30.40625 -1.507812 29.59375 -2.394531 29.1875 -3.5 C 27.550781 -2.050781 25.367188 -0.992188 22.640625 -0.328125 C 19.921875 0.335938 16.878906 0.671875 13.515625 0.671875 L 13.515625 0.640625 Z M 13.890625 -13.890625 C 13.273438 -13.890625 12.75 -14.101562 12.3125 -14.53125 C 11.882812 -14.96875 11.671875 -15.484375 11.671875 -16.078125 C 11.671875 -16.691406 11.882812 -17.222656 12.3125 -17.671875 C 12.75 -18.117188 13.273438 -18.34375 13.890625 -18.34375 C 14.484375 -18.34375 14.992188 -18.117188 15.421875 -17.671875 C 15.847656 -17.222656 16.0625 -16.691406 16.0625 -16.078125 C 16.0625 -15.484375 15.847656 -14.96875 15.421875 -14.53125 C 14.992188 -14.101562 14.484375 -13.890625 13.890625 -13.890625 Z M 19.390625 -13.859375 C 18.773438 -13.859375 18.25 -14.066406 17.8125 -14.484375 C 17.382812 -14.910156 17.171875 -15.429688 17.171875 -16.046875 C 17.171875 -16.660156 17.382812 -17.191406 17.8125 -17.640625 C 18.25 -18.085938 18.773438 -18.3125 19.390625 -18.3125 C 19.984375 -18.3125 20.492188 -18.085938 20.921875 -17.640625 C 21.347656 -17.191406 21.5625 -16.660156 21.5625 -16.046875 C 21.5625 -15.429688 21.347656 -14.910156 20.921875 -14.484375 C 20.492188 -14.066406 19.984375 -13.859375 19.390625 -13.859375 Z M 19.390625 -13.859375 "/></g></g></g><g fill="#ffffff" fill-opacity="1"><g transform="translate(127.891136, 241.054261)"><g><path d="M 0 0.15625 L 0.3125 -4.296875 C 1.082031 -4.296875 1.738281 -4.367188 2.28125 -4.515625 C 2.832031 -4.660156 3.300781 -4.960938 3.6875 -5.421875 C 4.070312 -5.878906 4.394531 -6.550781 4.65625 -7.4375 C 4.925781 -8.332031 5.164062 -9.519531 5.375 -11 L 9.546875 -10.296875 C 9.453125 -9.816406 9.351562 -9.234375 9.25 -8.546875 C 9.144531 -7.867188 9.09375 -7.242188 9.09375 -6.671875 C 9.09375 -5.910156 9.410156 -5.320312 10.046875 -4.90625 C 10.679688 -4.5 11.773438 -4.296875 13.328125 -4.296875 C 14.109375 -4.296875 14.671875 -4.085938 15.015625 -3.671875 C 15.367188 -3.253906 15.546875 -2.738281 15.546875 -2.125 C 15.546875 -1.46875 15.328125 -0.921875 14.890625 -0.484375 C 14.460938 -0.0546875 13.832031 0.15625 13 0.15625 C 11.519531 0.15625 10.253906 -0.03125 9.203125 -0.40625 C 8.148438 -0.789062 7.382812 -1.472656 6.90625 -2.453125 C 6.332031 -1.679688 5.65625 -1.109375 4.875 -0.734375 C 4.101562 -0.367188 3.296875 -0.128906 2.453125 -0.015625 C 1.617188 0.0976562 0.800781 0.15625 0 0.15625 Z M 8.875 7.53125 C 8.257812 7.53125 7.734375 7.316406 7.296875 6.890625 C 6.867188 6.472656 6.65625 5.957031 6.65625 5.34375 C 6.65625 4.726562 6.867188 4.195312 7.296875 3.75 C 7.734375 3.300781 8.257812 3.078125 8.875 3.078125 C 9.46875 3.078125 9.972656 3.300781 10.390625 3.75 C 10.816406 4.195312 11.03125 4.726562 11.03125 5.34375 C 11.03125 5.957031 10.816406 6.472656 10.390625 6.890625 C 9.972656 7.316406 9.46875 7.53125 8.875 7.53125 Z M 3.375 7.53125 C 2.757812 7.53125 2.234375 7.316406 1.796875 6.890625 C 1.367188 6.472656 1.15625 5.957031 1.15625 5.34375 C 1.15625 4.726562 1.367188 4.195312 1.796875 3.75 C 2.234375 3.300781 2.757812 3.078125 3.375 3.078125 C 3.96875 3.078125 4.472656 3.300781 4.890625 3.75 C 5.316406 4.195312 5.53125 4.726562 5.53125 5.34375 C 5.53125 5.957031 5.316406 6.472656 4.890625 6.890625 C 4.472656 7.316406 3.96875 7.53125 3.375 7.53125 Z M 3.375 7.53125 "/></g></g></g><g fill="#ffffff" fill-opacity="1"><g transform="translate(140.88969, 241.054261)"><g><path d="M 0 0.15625 L 0.3125 -4.296875 C 1.695312 -4.296875 2.660156 -4.445312 3.203125 -4.75 C 3.753906 -5.0625 4.03125 -5.710938 4.03125 -6.703125 C 4.03125 -7.296875 3.953125 -8.003906 3.796875 -8.828125 C 3.640625 -9.660156 3.429688 -10.515625 3.171875 -11.390625 C 2.921875 -12.273438 2.671875 -13.097656 2.421875 -13.859375 L 6.796875 -15.078125 C 7.054688 -14.347656 7.3125 -13.503906 7.5625 -12.546875 C 7.820312 -11.597656 8.039062 -10.613281 8.21875 -9.59375 C 8.394531 -8.582031 8.484375 -7.617188 8.484375 -6.703125 C 8.484375 -5.265625 8.257812 -4.09375 7.8125 -3.1875 C 7.375 -2.289062 6.753906 -1.597656 5.953125 -1.109375 C 5.160156 -0.617188 4.253906 -0.285156 3.234375 -0.109375 C 2.222656 0.0664062 1.144531 0.15625 0 0.15625 Z M 4.59375 -17.703125 C 3.925781 -17.703125 3.363281 -17.925781 2.90625 -18.375 C 2.457031 -18.820312 2.234375 -19.375 2.234375 -20.03125 C 2.234375 -20.6875 2.457031 -21.242188 2.90625 -21.703125 C 3.363281 -22.171875 3.925781 -22.40625 4.59375 -22.40625 C 5.226562 -22.40625 5.769531 -22.171875 6.21875 -21.703125 C 6.675781 -21.242188 6.90625 -20.6875 6.90625 -20.03125 C 6.90625 -19.375 6.675781 -18.820312 6.21875 -18.375 C 5.769531 -17.925781 5.226562 -17.703125 4.59375 -17.703125 Z M 4.59375 -17.703125 "/></g></g></g><g fill="#ffffff" fill-opacity="1"><g transform="translate(150.964369, 241.054261)"><g><path d="M 10.078125 0.15625 C 8.109375 0.15625 6.585938 -0.0390625 5.515625 -0.4375 C 4.441406 -0.84375 3.6875 -1.472656 3.25 -2.328125 C 2.820312 -3.191406 2.585938 -4.28125 2.546875 -5.59375 L 1.875 -23.28125 L 6.328125 -23.28125 L 7 -7.734375 C 7.039062 -6.753906 7.144531 -6.019531 7.3125 -5.53125 C 7.476562 -5.039062 7.796875 -4.710938 8.265625 -4.546875 C 8.734375 -4.378906 9.441406 -4.296875 10.390625 -4.296875 C 11.179688 -4.296875 11.753906 -4.085938 12.109375 -3.671875 C 12.472656 -3.253906 12.65625 -2.738281 12.65625 -2.125 C 12.65625 -1.46875 12.429688 -0.921875 11.984375 -0.484375 C 11.535156 -0.0546875 10.898438 0.15625 10.078125 0.15625 Z M 10.078125 0.15625 "/></g></g></g><g fill="#ffffff" fill-opacity="1"><g transform="translate(161.070829, 241.054261)"><g><path d="M 0 0.15625 L 0.3125 -4.296875 C 2.601562 -4.296875 4.828125 -4.546875 6.984375 -5.046875 C 9.148438 -5.554688 11.070312 -6.375 12.75 -7.5 C 11.769531 -8.070312 10.691406 -8.515625 9.515625 -8.828125 C 8.347656 -9.148438 7.0625 -9.3125 5.65625 -9.3125 C 5.125 -9.3125 4.578125 -9.285156 4.015625 -9.234375 C 3.460938 -9.179688 2.898438 -9.09375 2.328125 -8.96875 L 1.6875 -13.328125 C 2.300781 -13.472656 2.945312 -13.585938 3.625 -13.671875 C 4.300781 -13.753906 4.914062 -13.796875 5.46875 -13.796875 C 6.90625 -13.796875 8.195312 -13.601562 9.34375 -13.21875 C 10.488281 -12.84375 11.53125 -12.398438 12.46875 -11.890625 C 13.414062 -11.378906 14.296875 -10.929688 15.109375 -10.546875 C 15.929688 -10.171875 16.734375 -9.984375 17.515625 -9.984375 L 18.703125 -9.984375 L 19.203125 -5.75 C 18.273438 -5.6875 17.414062 -5.503906 16.625 -5.203125 C 15.84375 -4.910156 15.0625 -4.535156 14.28125 -4.078125 C 13.507812 -3.628906 12.6875 -3.160156 11.8125 -2.671875 C 10.9375 -2.179688 9.945312 -1.722656 8.84375 -1.296875 C 7.738281 -0.878906 6.460938 -0.53125 5.015625 -0.25 C 3.578125 0.0195312 1.90625 0.15625 0 0.15625 Z M 0 0.15625 "/></g></g></g><g fill="#ffffff" fill-opacity="1"><g transform="translate(181.061276, 241.054261)"><g><path d="M 1.8125 7.3125 L 0.890625 2.859375 C 2.921875 2.609375 4.617188 2.273438 5.984375 1.859375 C 7.359375 1.441406 8.375 0.75 9.03125 -0.21875 C 8.726562 -0.113281 8.398438 -0.03125 8.046875 0.03125 C 7.703125 0.09375 7.332031 0.125 6.9375 0.125 C 5.914062 0.125 4.992188 -0.0351562 4.171875 -0.359375 C 3.359375 -0.691406 2.707031 -1.207031 2.21875 -1.90625 C 1.738281 -2.601562 1.5 -3.515625 1.5 -4.640625 C 1.5 -5.679688 1.664062 -6.6875 2 -7.65625 C 2.34375 -8.632812 2.816406 -9.507812 3.421875 -10.28125 C 4.023438 -11.0625 4.722656 -11.675781 5.515625 -12.125 C 6.304688 -12.582031 7.148438 -12.8125 8.046875 -12.8125 C 9.085938 -12.8125 10.007812 -12.546875 10.8125 -12.015625 C 11.613281 -11.484375 12.28125 -10.789062 12.8125 -9.9375 C 13.34375 -9.082031 13.742188 -8.15625 14.015625 -7.15625 C 14.296875 -6.15625 14.4375 -5.203125 14.4375 -4.296875 C 14.4375 -1.898438 13.925781 0.132812 12.90625 1.8125 C 11.894531 3.488281 10.441406 4.785156 8.546875 5.703125 C 6.660156 6.628906 4.414062 7.164062 1.8125 7.3125 Z M 5.875 -5.53125 C 5.875 -4.644531 6.546875 -4.203125 7.890625 -4.203125 C 8.585938 -4.203125 9.273438 -4.296875 9.953125 -4.484375 C 9.910156 -5.054688 9.804688 -5.625 9.640625 -6.1875 C 9.484375 -6.75 9.253906 -7.207031 8.953125 -7.5625 C 8.660156 -7.925781 8.296875 -8.109375 7.859375 -8.109375 C 7.265625 -8.109375 6.785156 -7.828125 6.421875 -7.265625 C 6.054688 -6.703125 5.875 -6.125 5.875 -5.53125 Z M 5.875 -5.53125 "/></g></g></g><g fill="#ffffff" fill-opacity="1"><g transform="translate(196.888374, 241.054261)"><g><path d="M 0.515625 7.3125 L -1.109375 3.25 C 1.597656 2.289062 3.566406 1.191406 4.796875 -0.046875 C 6.023438 -1.285156 6.640625 -2.601562 6.640625 -4 C 6.640625 -4.894531 6.445312 -5.847656 6.0625 -6.859375 C 5.6875 -7.878906 5.191406 -8.984375 4.578125 -10.171875 L 8.75 -12.171875 C 9.488281 -10.753906 10.0625 -9.398438 10.46875 -8.109375 C 10.882812 -6.816406 11.09375 -5.609375 11.09375 -4.484375 C 11.09375 -1.878906 10.242188 0.414062 8.546875 2.40625 C 6.859375 4.40625 4.179688 6.039062 0.515625 7.3125 Z M 0.515625 7.3125 "/></g></g></g><g fill="#ffffff" fill-opacity="1"><g transform="translate(209.886927, 241.054261)"><g/></g></g><g fill="#ffffff" fill-opacity="1"><g transform="translate(217.382212, 241.054261)"><g><path d="M 1.8125 7.3125 L 0.890625 2.859375 C 2.921875 2.609375 4.617188 2.273438 5.984375 1.859375 C 7.359375 1.441406 8.375 0.75 9.03125 -0.21875 C 8.726562 -0.113281 8.398438 -0.03125 8.046875 0.03125 C 7.703125 0.09375 7.332031 0.125 6.9375 0.125 C 5.914062 0.125 4.992188 -0.0351562 4.171875 -0.359375 C 3.359375 -0.691406 2.707031 -1.207031 2.21875 -1.90625 C 1.738281 -2.601562 1.5 -3.515625 1.5 -4.640625 C 1.5 -5.679688 1.664062 -6.6875 2 -7.65625 C 2.34375 -8.632812 2.816406 -9.507812 3.421875 -10.28125 C 4.023438 -11.0625 4.722656 -11.675781 5.515625 -12.125 C 6.304688 -12.582031 7.148438 -12.8125 8.046875 -12.8125 C 9.085938 -12.8125 10.007812 -12.546875 10.8125 -12.015625 C 11.613281 -11.484375 12.28125 -10.789062 12.8125 -9.9375 C 13.34375 -9.082031 13.742188 -8.15625 14.015625 -7.15625 C 14.296875 -6.15625 14.4375 -5.203125 14.4375 -4.296875 C 14.4375 -1.898438 13.925781 0.132812 12.90625 1.8125 C 11.894531 3.488281 10.441406 4.785156 8.546875 5.703125 C 6.660156 6.628906 4.414062 7.164062 1.8125 7.3125 Z M 5.875 -5.53125 C 5.875 -4.644531 6.546875 -4.203125 7.890625 -4.203125 C 8.585938 -4.203125 9.273438 -4.296875 9.953125 -4.484375 C 9.910156 -5.054688 9.804688 -5.625 9.640625 -6.1875 C 9.484375 -6.75 9.253906 -7.207031 8.953125 -7.5625 C 8.660156 -7.925781 8.296875 -8.109375 7.859375 -8.109375 C 7.265625 -8.109375 6.785156 -7.828125 6.421875 -7.265625 C 6.054688 -6.703125 5.875 -6.125 5.875 -5.53125 Z M 5.875 -5.53125 "/></g></g></g><g fill="#ffffff" fill-opacity="1"><g transform="translate(233.209309, 241.054261)"><g><path d="M 2.546875 0 L 1.875 -23.28125 L 6.328125 -23.28125 L 7 0 Z M 2.546875 0 "/></g></g></g><g fill="#ffffff" fill-opacity="1"><g transform="translate(241.885609, 241.054261)"><g/></g></g><g fill="#ffffff" fill-opacity="1"><g transform="translate(249.380899, 241.054261)"><g><path d="M 17.671875 0.15625 C 16.085938 0.15625 14.734375 -0.0507812 13.609375 -0.46875 C 12.484375 -0.894531 11.632812 -1.617188 11.0625 -2.640625 C 9.726562 -2.378906 8.445312 -2.296875 7.21875 -2.390625 C 5.988281 -2.492188 4.894531 -2.757812 3.9375 -3.1875 C 2.988281 -3.625 2.238281 -4.25 1.6875 -5.0625 C 1.132812 -5.882812 0.859375 -6.898438 0.859375 -8.109375 C 0.859375 -9.523438 1.242188 -10.769531 2.015625 -11.84375 C 2.796875 -12.914062 3.859375 -13.820312 5.203125 -14.5625 C 6.546875 -15.300781 8.066406 -15.875 9.765625 -16.28125 L 9.671875 -18.703125 L 14.15625 -18.703125 L 14.6875 -7.4375 C 14.75 -6.125 15.039062 -5.269531 15.5625 -4.875 C 16.082031 -4.488281 16.894531 -4.296875 18 -4.296875 C 18.800781 -4.296875 19.367188 -4.085938 19.703125 -3.671875 C 20.046875 -3.253906 20.21875 -2.738281 20.21875 -2.125 C 20.21875 -1.46875 20 -0.921875 19.5625 -0.484375 C 19.132812 -0.0546875 18.503906 0.15625 17.671875 0.15625 Z M 5.3125 -8.515625 C 5.3125 -8.035156 5.546875 -7.65625 6.015625 -7.375 C 6.492188 -7.101562 7.101562 -6.925781 7.84375 -6.84375 C 8.59375 -6.769531 9.367188 -6.8125 10.171875 -6.96875 L 9.984375 -11.859375 C 8.546875 -11.628906 7.40625 -11.207031 6.5625 -10.59375 C 5.726562 -9.976562 5.3125 -9.285156 5.3125 -8.515625 Z M 5.3125 -8.515625 "/></g></g></g><g fill="#ffffff" fill-opacity="1"><g transform="translate(267.051308, 241.054261)"><g><path d="M 0 0.15625 L 0.3125 -4.296875 C 1.289062 -4.296875 1.988281 -4.394531 2.40625 -4.59375 C 2.832031 -4.789062 3.085938 -5.171875 3.171875 -5.734375 C 3.265625 -6.296875 3.289062 -7.117188 3.25 -8.203125 L 2.671875 -23.28125 L 7.15625 -23.28125 L 7.796875 -7.890625 C 7.835938 -6.660156 7.785156 -5.550781 7.640625 -4.5625 C 7.503906 -3.570312 7.175781 -2.726562 6.65625 -2.03125 C 6.132812 -1.332031 5.335938 -0.789062 4.265625 -0.40625 C 3.203125 -0.03125 1.78125 0.15625 0 0.15625 Z M 0 0.15625 "/></g></g></g><g fill="#ffffff" fill-opacity="1"><g transform="translate(276.49036, 241.054261)"><g><path d="M 1.8125 7.3125 L 0.890625 2.859375 C 2.796875 2.628906 4.398438 2.328125 5.703125 1.953125 C 7.003906 1.585938 8.019531 0.988281 8.75 0.15625 L 7.890625 0.15625 C 5.890625 0.15625 4.320312 -0.207031 3.1875 -0.9375 C 2.0625 -1.664062 1.5 -2.921875 1.5 -4.703125 C 1.5 -5.660156 1.660156 -6.613281 1.984375 -7.5625 C 2.316406 -8.519531 2.78125 -9.394531 3.375 -10.1875 C 3.96875 -10.988281 4.660156 -11.625 5.453125 -12.09375 C 6.242188 -12.570312 7.109375 -12.8125 8.046875 -12.8125 C 9.296875 -12.8125 10.398438 -12.421875 11.359375 -11.640625 C 12.328125 -10.859375 13.082031 -9.816406 13.625 -8.515625 C 14.164062 -7.222656 14.4375 -5.816406 14.4375 -4.296875 L 16.953125 -4.296875 C 17.734375 -4.296875 18.300781 -4.085938 18.65625 -3.671875 C 19.019531 -3.253906 19.203125 -2.738281 19.203125 -2.125 C 19.203125 -1.46875 18.976562 -0.921875 18.53125 -0.484375 C 18.09375 -0.0546875 17.457031 0.15625 16.625 0.15625 L 13.703125 0.15625 C 12.878906 2.363281 11.441406 4.066406 9.390625 5.265625 C 7.347656 6.460938 4.820312 7.144531 1.8125 7.3125 Z M 5.875 -5.46875 C 5.875 -5.238281 5.953125 -5 6.109375 -4.75 C 6.273438 -4.507812 6.644531 -4.316406 7.21875 -4.171875 C 7.789062 -4.035156 8.703125 -4.023438 9.953125 -4.140625 C 9.929688 -5.367188 9.726562 -6.335938 9.34375 -7.046875 C 8.96875 -7.753906 8.472656 -8.109375 7.859375 -8.109375 C 7.410156 -8.109375 7.035156 -7.953125 6.734375 -7.640625 C 6.441406 -7.335938 6.222656 -6.976562 6.078125 -6.5625 C 5.941406 -6.15625 5.875 -5.789062 5.875 -5.46875 Z M 5.875 -5.46875 "/></g></g></g><g fill="#ffffff" fill-opacity="1"><g transform="translate(293.143756, 241.054261)"><g><path d="M 0 0.15625 L 0.3125 -4.296875 C 1.019531 -4.296875 1.59375 -4.351562 2.03125 -4.46875 C 2.476562 -4.582031 2.84375 -4.84375 3.125 -5.25 C 3.414062 -5.664062 3.671875 -6.289062 3.890625 -7.125 C 4.117188 -7.96875 4.367188 -9.113281 4.640625 -10.5625 L 8.78125 -9.796875 C 8.695312 -9.328125 8.582031 -8.742188 8.4375 -8.046875 C 8.300781 -7.347656 8.234375 -6.742188 8.234375 -6.234375 C 8.234375 -5.640625 8.421875 -5.164062 8.796875 -4.8125 C 9.179688 -4.46875 9.90625 -4.296875 10.96875 -4.296875 C 11.5 -4.296875 11.957031 -4.351562 12.34375 -4.46875 C 12.738281 -4.582031 13.078125 -4.84375 13.359375 -5.25 C 13.648438 -5.664062 13.90625 -6.3125 14.125 -7.1875 C 14.351562 -8.070312 14.570312 -9.269531 14.78125 -10.78125 L 18.984375 -10.109375 C 18.859375 -9.367188 18.726562 -8.582031 18.59375 -7.75 C 18.46875 -6.925781 18.40625 -6.300781 18.40625 -5.875 C 18.40625 -5.476562 18.601562 -5.113281 19 -4.78125 C 19.394531 -4.457031 20.195312 -4.296875 21.40625 -4.296875 C 22.25 -4.296875 22.921875 -4.460938 23.421875 -4.796875 C 23.921875 -5.140625 24.171875 -5.734375 24.171875 -6.578125 C 24.171875 -7.367188 23.988281 -8.398438 23.625 -9.671875 C 23.257812 -10.941406 22.835938 -12.273438 22.359375 -13.671875 L 26.84375 -15.015625 C 27.175781 -14.097656 27.472656 -13.125 27.734375 -12.09375 C 28.003906 -11.070312 28.21875 -10.070312 28.375 -9.09375 C 28.539062 -8.113281 28.625 -7.273438 28.625 -6.578125 C 28.625 -4.398438 27.976562 -2.734375 26.6875 -1.578125 C 25.40625 -0.421875 23.738281 0.15625 21.6875 0.15625 C 20.195312 0.15625 19.039062 -0.015625 18.21875 -0.359375 C 17.394531 -0.710938 16.800781 -1.34375 16.4375 -2.25 C 16.007812 -1.507812 15.546875 -0.96875 15.046875 -0.625 C 14.554688 -0.289062 13.972656 -0.078125 13.296875 0.015625 C 12.617188 0.109375 11.8125 0.15625 10.875 0.15625 C 10.300781 0.15625 9.726562 0.109375 9.15625 0.015625 C 8.582031 -0.078125 8.035156 -0.273438 7.515625 -0.578125 C 6.992188 -0.890625 6.546875 -1.382812 6.171875 -2.0625 C 5.453125 -1.09375 4.570312 -0.476562 3.53125 -0.21875 C 2.488281 0.03125 1.3125 0.15625 0 0.15625 Z M 0 0.15625 "/></g></g></g><g fill="#d9d9d9" fill-opacity="1"><g transform="translate(113.940626, 268.895462)"><g><path d="M 0.390625 0.015625 C 0.390625 -0.296875 0.429688 -0.640625 0.515625 -1.015625 C 0.597656 -1.390625 0.734375 -1.804688 0.921875 -2.265625 L 1.84375 -1.90625 C 1.707031 -1.539062 1.601562 -1.207031 1.53125 -0.90625 C 1.46875 -0.613281 1.4375 -0.335938 1.4375 -0.078125 C 1.4375 0.398438 1.570312 0.785156 1.84375 1.078125 C 2.125 1.378906 2.492188 1.597656 2.953125 1.734375 C 3.410156 1.867188 3.914062 1.9375 4.46875 1.9375 C 5.125 1.9375 5.722656 1.859375 6.265625 1.703125 C 6.816406 1.554688 7.253906 1.351562 7.578125 1.09375 C 7.898438 0.84375 8.0625 0.5625 8.0625 0.25 C 8.0625 0.03125 7.890625 -0.15625 7.546875 -0.3125 C 7.203125 -0.476562 6.722656 -0.648438 6.109375 -0.828125 L 6.359375 -1.890625 C 7.242188 -1.535156 7.9375 -1.296875 8.4375 -1.171875 C 8.9375 -1.046875 9.316406 -0.984375 9.578125 -0.984375 C 9.753906 -0.984375 9.882812 -0.929688 9.96875 -0.828125 C 10.050781 -0.734375 10.09375 -0.617188 10.09375 -0.484375 C 10.09375 -0.347656 10.03125 -0.222656 9.90625 -0.109375 C 9.789062 0.00390625 9.640625 0.0625 9.453125 0.0625 L 8.984375 0.0625 C 8.984375 0.144531 8.988281 0.207031 9 0.25 C 9.019531 0.300781 9.03125 0.363281 9.03125 0.4375 C 9.03125 0.851562 8.835938 1.253906 8.453125 1.640625 C 8.066406 2.035156 7.507812 2.359375 6.78125 2.609375 C 6.0625 2.859375 5.195312 2.984375 4.1875 2.984375 C 3.5 2.984375 2.867188 2.875 2.296875 2.65625 C 1.722656 2.445312 1.257812 2.117188 0.90625 1.671875 C 0.5625 1.234375 0.390625 0.679688 0.390625 0.015625 Z M 4.1875 5.390625 C 4.007812 5.390625 3.859375 5.328125 3.734375 5.203125 C 3.609375 5.078125 3.546875 4.929688 3.546875 4.765625 C 3.546875 4.585938 3.609375 4.4375 3.734375 4.3125 C 3.859375 4.1875 4.007812 4.125 4.1875 4.125 C 4.363281 4.125 4.515625 4.1875 4.640625 4.3125 C 4.765625 4.4375 4.828125 4.585938 4.828125 4.765625 C 4.828125 4.929688 4.765625 5.078125 4.640625 5.203125 C 4.515625 5.328125 4.363281 5.390625 4.1875 5.390625 Z M 4.203125 7.046875 C 4.023438 7.046875 3.875 6.984375 3.75 6.859375 C 3.625 6.734375 3.5625 6.585938 3.5625 6.421875 C 3.5625 6.242188 3.625 6.09375 3.75 5.96875 C 3.875 5.84375 4.023438 5.78125 4.203125 5.78125 C 4.378906 5.78125 4.53125 5.84375 4.65625 5.96875 C 4.78125 6.09375 4.84375 6.242188 4.84375 6.421875 C 4.84375 6.585938 4.78125 6.734375 4.65625 6.859375 C 4.53125 6.984375 4.378906 7.046875 4.203125 7.046875 Z M 4.203125 7.046875 "/></g></g></g><g fill="#d9d9d9" fill-opacity="1"><g transform="translate(123.393571, 268.895462)"><g><path d="M 0 0.0625 L 0.125 -0.984375 C 0.488281 -0.984375 0.769531 -1.015625 0.96875 -1.078125 C 1.175781 -1.148438 1.332031 -1.273438 1.4375 -1.453125 C 1.550781 -1.640625 1.644531 -1.90625 1.71875 -2.25 C 1.800781 -2.601562 1.894531 -3.066406 2 -3.640625 L 3 -3.4375 C 2.945312 -3.207031 2.890625 -2.941406 2.828125 -2.640625 C 2.765625 -2.347656 2.734375 -2.097656 2.734375 -1.890625 C 2.734375 -1.710938 2.769531 -1.554688 2.84375 -1.421875 C 2.925781 -1.285156 3.09375 -1.175781 3.34375 -1.09375 C 3.59375 -1.019531 3.988281 -0.984375 4.53125 -0.984375 C 4.707031 -0.984375 4.835938 -0.929688 4.921875 -0.828125 C 5.003906 -0.734375 5.046875 -0.617188 5.046875 -0.484375 C 5.046875 -0.347656 4.984375 -0.222656 4.859375 -0.109375 C 4.742188 0.00390625 4.59375 0.0625 4.40625 0.0625 C 3.726562 0.0625 3.226562 -0.0078125 2.90625 -0.15625 C 2.582031 -0.300781 2.359375 -0.519531 2.234375 -0.8125 C 1.972656 -0.445312 1.675781 -0.207031 1.34375 -0.09375 C 1.007812 0.0078125 0.5625 0.0625 0 0.0625 Z M 2.390625 -4.953125 C 2.210938 -4.953125 2.0625 -5.015625 1.9375 -5.140625 C 1.8125 -5.265625 1.75 -5.414062 1.75 -5.59375 C 1.75 -5.757812 1.8125 -5.90625 1.9375 -6.03125 C 2.0625 -6.164062 2.210938 -6.234375 2.390625 -6.234375 C 2.566406 -6.234375 2.71875 -6.164062 2.84375 -6.03125 C 2.96875 -5.90625 3.03125 -5.757812 3.03125 -5.59375 C 3.03125 -5.414062 2.96875 -5.265625 2.84375 -5.140625 C 2.71875 -5.015625 2.566406 -4.953125 2.390625 -4.953125 Z M 2.390625 -4.953125 "/></g></g></g><g fill="#d9d9d9" fill-opacity="1"><g transform="translate(127.798951, 268.895462)"><g><path d="M 0 0.0625 L 0.125 -0.984375 L 1.125 -0.984375 C 1.832031 -0.984375 2.359375 -1.019531 2.703125 -1.09375 C 3.046875 -1.175781 3.269531 -1.28125 3.375 -1.40625 C 3.476562 -1.53125 3.53125 -1.664062 3.53125 -1.8125 C 3.53125 -2.019531 3.453125 -2.242188 3.296875 -2.484375 C 3.140625 -2.734375 2.941406 -2.988281 2.703125 -3.25 C 2.460938 -3.507812 2.207031 -3.769531 1.9375 -4.03125 C 1.675781 -4.289062 1.425781 -4.523438 1.1875 -4.734375 C 0.945312 -4.953125 0.75 -5.140625 0.59375 -5.296875 C 0.4375 -5.453125 0.359375 -5.566406 0.359375 -5.640625 C 0.359375 -5.835938 0.378906 -6.019531 0.421875 -6.1875 C 0.460938 -6.363281 0.53125 -6.5 0.625 -6.59375 C 0.851562 -6.84375 1.191406 -7.097656 1.640625 -7.359375 C 2.097656 -7.628906 2.617188 -7.90625 3.203125 -8.1875 C 3.785156 -8.476562 4.378906 -8.773438 4.984375 -9.078125 L 5.421875 -8.125 C 4.671875 -7.75 3.929688 -7.382812 3.203125 -7.03125 C 2.484375 -6.6875 1.851562 -6.328125 1.3125 -5.953125 C 1.78125 -5.546875 2.21875 -5.15625 2.625 -4.78125 C 3.039062 -4.40625 3.421875 -4 3.765625 -3.5625 C 4.117188 -3.132812 4.441406 -2.644531 4.734375 -2.09375 C 4.921875 -1.757812 5.132812 -1.515625 5.375 -1.359375 C 5.613281 -1.203125 5.847656 -1.097656 6.078125 -1.046875 C 6.304688 -1.003906 6.5 -0.984375 6.65625 -0.984375 C 6.832031 -0.984375 6.960938 -0.929688 7.046875 -0.828125 C 7.128906 -0.734375 7.171875 -0.617188 7.171875 -0.484375 C 7.171875 -0.347656 7.109375 -0.222656 6.984375 -0.109375 C 6.867188 0.00390625 6.71875 0.0625 6.53125 0.0625 C 6.320312 0.0625 6.082031 0.0351562 5.8125 -0.015625 C 5.539062 -0.078125 5.265625 -0.1875 4.984375 -0.34375 C 4.710938 -0.5 4.476562 -0.734375 4.28125 -1.046875 C 4.101562 -0.796875 3.882812 -0.585938 3.625 -0.421875 C 3.375 -0.265625 3.039062 -0.144531 2.625 -0.0625 C 2.21875 0.0195312 1.695312 0.0625 1.0625 0.0625 Z M 0 0.0625 "/></g></g></g><g fill="#d9d9d9" fill-opacity="1"><g transform="translate(134.323536, 268.895462)"><g><path d="M 0 0.0625 L 0.125 -0.984375 C 0.550781 -0.984375 0.882812 -1.015625 1.125 -1.078125 C 1.363281 -1.148438 1.546875 -1.273438 1.671875 -1.453125 C 1.796875 -1.640625 1.894531 -1.90625 1.96875 -2.25 C 2.050781 -2.601562 2.148438 -3.066406 2.265625 -3.640625 L 3.265625 -3.4375 C 3.210938 -3.207031 3.15625 -2.941406 3.09375 -2.640625 C 3.03125 -2.347656 3 -2.097656 3 -1.890625 C 3 -1.765625 3.003906 -1.644531 3.015625 -1.53125 C 3.035156 -1.414062 3.097656 -1.316406 3.203125 -1.234375 C 3.316406 -1.160156 3.503906 -1.097656 3.765625 -1.046875 C 4.035156 -1.003906 4.421875 -0.984375 4.921875 -0.984375 C 5.097656 -0.984375 5.226562 -0.929688 5.3125 -0.828125 C 5.394531 -0.734375 5.4375 -0.617188 5.4375 -0.484375 C 5.4375 -0.347656 5.375 -0.222656 5.25 -0.109375 C 5.132812 0.00390625 4.984375 0.0625 4.796875 0.0625 C 4.234375 0.0625 3.796875 0.03125 3.484375 -0.03125 C 3.171875 -0.09375 2.9375 -0.1875 2.78125 -0.3125 C 2.632812 -0.4375 2.53125 -0.59375 2.46875 -0.78125 C 2.21875 -0.425781 1.910156 -0.195312 1.546875 -0.09375 C 1.179688 0.0078125 0.664062 0.0625 0 0.0625 Z M 3.234375 2.484375 C 3.054688 2.484375 2.90625 2.421875 2.78125 2.296875 C 2.65625 2.179688 2.59375 2.035156 2.59375 1.859375 C 2.59375 1.691406 2.65625 1.539062 2.78125 1.40625 C 2.90625 1.28125 3.054688 1.21875 3.234375 1.21875 C 3.410156 1.21875 3.554688 1.28125 3.671875 1.40625 C 3.796875 1.539062 3.859375 1.691406 3.859375 1.859375 C 3.859375 2.035156 3.796875 2.179688 3.671875 2.296875 C 3.554688 2.421875 3.410156 2.484375 3.234375 2.484375 Z M 1.46875 2.484375 C 1.289062 2.484375 1.140625 2.421875 1.015625 2.296875 C 0.890625 2.179688 0.828125 2.035156 0.828125 1.859375 C 0.828125 1.691406 0.890625 1.539062 1.015625 1.40625 C 1.140625 1.28125 1.289062 1.21875 1.46875 1.21875 C 1.644531 1.21875 1.796875 1.28125 1.921875 1.40625 C 2.046875 1.539062 2.109375 1.691406 2.109375 1.859375 C 2.109375 2.035156 2.046875 2.179688 1.921875 2.296875 C 1.796875 2.421875 1.644531 2.484375 1.46875 2.484375 Z M 1.46875 2.484375 "/></g></g></g><g fill="#d9d9d9" fill-opacity="1"><g transform="translate(139.114227, 268.895462)"><g><path d="M 0 0.0625 L 0.109375 -0.984375 C 0.597656 -0.984375 0.941406 -1.03125 1.140625 -1.125 C 1.335938 -1.21875 1.453125 -1.382812 1.484375 -1.625 C 1.515625 -1.863281 1.519531 -2.203125 1.5 -2.640625 L 1.265625 -9.171875 L 2.296875 -9.171875 L 2.5625 -2.75 C 2.582031 -2.144531 2.535156 -1.628906 2.421875 -1.203125 C 2.316406 -0.785156 2.078125 -0.46875 1.703125 -0.25 C 1.335938 -0.0390625 0.769531 0.0625 0 0.0625 Z M 0 0.0625 "/></g></g></g><g fill="#d9d9d9" fill-opacity="1"><g transform="translate(142.453579, 268.895462)"><g/></g></g><g fill="#d9d9d9" fill-opacity="1"><g transform="translate(145.908527, 268.895462)"><g><path d="M 0.75 2.953125 L 0.515625 1.90625 C 1.046875 1.832031 1.53125 1.726562 1.96875 1.59375 C 2.414062 1.46875 2.796875 1.285156 3.109375 1.046875 C 3.421875 0.804688 3.65625 0.476562 3.8125 0.0625 L 3 0.0625 C 2.613281 0.0625 2.253906 0.0078125 1.921875 -0.09375 C 1.585938 -0.195312 1.320312 -0.367188 1.125 -0.609375 C 0.925781 -0.847656 0.828125 -1.160156 0.828125 -1.546875 C 0.828125 -2.023438 0.921875 -2.472656 1.109375 -2.890625 C 1.296875 -3.316406 1.550781 -3.660156 1.875 -3.921875 C 2.195312 -4.191406 2.566406 -4.328125 2.984375 -4.328125 C 3.566406 -4.328125 4.050781 -4.066406 4.4375 -3.546875 C 4.832031 -3.035156 5.03125 -2.242188 5.03125 -1.171875 C 5.03125 -1.109375 5.03125 -1.046875 5.03125 -0.984375 L 6.1875 -0.984375 C 6.363281 -0.984375 6.492188 -0.929688 6.578125 -0.828125 C 6.660156 -0.734375 6.703125 -0.617188 6.703125 -0.484375 C 6.703125 -0.347656 6.640625 -0.222656 6.515625 -0.109375 C 6.398438 0.00390625 6.25 0.0625 6.0625 0.0625 L 4.875 0.0625 C 4.4375 1.726562 3.0625 2.691406 0.75 2.953125 Z M 3.484375 -0.984375 L 4.015625 -0.984375 C 4.023438 -1.078125 4.03125 -1.164062 4.03125 -1.25 C 4.03125 -1.832031 3.921875 -2.316406 3.703125 -2.703125 C 3.492188 -3.085938 3.21875 -3.28125 2.875 -3.28125 C 2.695312 -3.28125 2.523438 -3.207031 2.359375 -3.0625 C 2.203125 -2.925781 2.078125 -2.742188 1.984375 -2.515625 C 1.890625 -2.285156 1.84375 -2.035156 1.84375 -1.765625 C 1.84375 -1.460938 1.976562 -1.253906 2.25 -1.140625 C 2.519531 -1.035156 2.929688 -0.984375 3.484375 -0.984375 Z M 3.484375 -0.984375 "/></g></g></g><g fill="#d9d9d9" fill-opacity="1"><g transform="translate(151.970737, 268.895462)"><g><path d="M 0 0.0625 L 0.125 -0.984375 C 0.550781 -0.984375 0.882812 -1.015625 1.125 -1.078125 C 1.363281 -1.148438 1.546875 -1.273438 1.671875 -1.453125 C 1.796875 -1.640625 1.894531 -1.90625 1.96875 -2.25 C 2.050781 -2.601562 2.148438 -3.066406 2.265625 -3.640625 L 3.265625 -3.4375 C 3.210938 -3.207031 3.15625 -2.941406 3.09375 -2.640625 C 3.03125 -2.347656 3 -2.097656 3 -1.890625 C 3 -1.765625 3.003906 -1.644531 3.015625 -1.53125 C 3.035156 -1.414062 3.097656 -1.316406 3.203125 -1.234375 C 3.316406 -1.160156 3.503906 -1.097656 3.765625 -1.046875 C 4.035156 -1.003906 4.421875 -0.984375 4.921875 -0.984375 C 5.097656 -0.984375 5.226562 -0.929688 5.3125 -0.828125 C 5.394531 -0.734375 5.4375 -0.617188 5.4375 -0.484375 C 5.4375 -0.347656 5.375 -0.222656 5.25 -0.109375 C 5.132812 0.00390625 4.984375 0.0625 4.796875 0.0625 C 4.234375 0.0625 3.796875 0.03125 3.484375 -0.03125 C 3.171875 -0.09375 2.9375 -0.1875 2.78125 -0.3125 C 2.632812 -0.4375 2.53125 -0.59375 2.46875 -0.78125 C 2.21875 -0.425781 1.910156 -0.195312 1.546875 -0.09375 C 1.179688 0.0078125 0.664062 0.0625 0 0.0625 Z M 3.421875 -4.953125 C 3.242188 -4.953125 3.09375 -5.015625 2.96875 -5.140625 C 2.84375 -5.265625 2.78125 -5.414062 2.78125 -5.59375 C 2.78125 -5.757812 2.84375 -5.90625 2.96875 -6.03125 C 3.09375 -6.164062 3.242188 -6.234375 3.421875 -6.234375 C 3.597656 -6.234375 3.742188 -6.164062 3.859375 -6.03125 C 3.984375 -5.90625 4.046875 -5.757812 4.046875 -5.59375 C 4.046875 -5.414062 3.984375 -5.265625 3.859375 -5.140625 C 3.742188 -5.015625 3.597656 -4.953125 3.421875 -4.953125 Z M 1.65625 -4.953125 C 1.476562 -4.953125 1.328125 -5.015625 1.203125 -5.140625 C 1.078125 -5.265625 1.015625 -5.414062 1.015625 -5.59375 C 1.015625 -5.757812 1.078125 -5.90625 1.203125 -6.03125 C 1.328125 -6.164062 1.476562 -6.234375 1.65625 -6.234375 C 1.832031 -6.234375 1.984375 -6.164062 2.109375 -6.03125 C 2.234375 -5.90625 2.296875 -5.757812 2.296875 -5.59375 C 2.296875 -5.414062 2.234375 -5.265625 2.109375 -5.140625 C 1.984375 -5.015625 1.832031 -4.953125 1.65625 -4.953125 Z M 1.65625 -4.953125 "/></g></g></g><g fill="#d9d9d9" fill-opacity="1"><g transform="translate(156.761428, 268.895462)"><g><path d="M 0 0.0625 L 0.125 -0.984375 C 0.40625 -0.984375 0.628906 -1.003906 0.796875 -1.046875 C 0.960938 -1.085938 1.101562 -1.1875 1.21875 -1.34375 C 1.34375 -1.5 1.453125 -1.75 1.546875 -2.09375 C 1.648438 -2.4375 1.769531 -2.914062 1.90625 -3.53125 L 2.875 -3.265625 C 2.820312 -3.035156 2.757812 -2.769531 2.6875 -2.46875 C 2.625 -2.175781 2.59375 -1.910156 2.59375 -1.671875 C 2.59375 -1.453125 2.671875 -1.28125 2.828125 -1.15625 C 2.992188 -1.039062 3.289062 -0.984375 3.71875 -0.984375 C 3.976562 -0.984375 4.1875 -1.003906 4.34375 -1.046875 C 4.507812 -1.097656 4.644531 -1.203125 4.75 -1.359375 C 4.863281 -1.523438 4.960938 -1.785156 5.046875 -2.140625 C 5.128906 -2.492188 5.21875 -2.988281 5.3125 -3.625 L 6.296875 -3.4375 C 6.265625 -3.289062 6.226562 -3.101562 6.1875 -2.875 C 6.15625 -2.65625 6.125 -2.4375 6.09375 -2.21875 C 6.070312 -2 6.0625 -1.816406 6.0625 -1.671875 C 6.0625 -1.546875 6.085938 -1.429688 6.140625 -1.328125 C 6.203125 -1.222656 6.316406 -1.140625 6.484375 -1.078125 C 6.648438 -1.015625 6.898438 -0.984375 7.234375 -0.984375 C 7.660156 -0.984375 7.96875 -1.070312 8.15625 -1.25 C 8.351562 -1.425781 8.453125 -1.703125 8.453125 -2.078125 C 8.453125 -2.367188 8.441406 -2.691406 8.421875 -3.046875 C 8.410156 -3.398438 8.367188 -3.835938 8.296875 -4.359375 L 9.234375 -4.4375 C 9.285156 -3.738281 9.34375 -3.164062 9.40625 -2.71875 C 9.46875 -2.28125 9.5625 -1.929688 9.6875 -1.671875 C 9.8125 -1.421875 9.976562 -1.242188 10.1875 -1.140625 C 10.40625 -1.035156 10.691406 -0.984375 11.046875 -0.984375 C 11.222656 -0.984375 11.351562 -0.929688 11.4375 -0.828125 C 11.519531 -0.734375 11.5625 -0.617188 11.5625 -0.484375 C 11.5625 -0.347656 11.5 -0.222656 11.375 -0.109375 C 11.257812 0.00390625 11.109375 0.0625 10.921875 0.0625 C 10.441406 0.0625 10.046875 -0.0390625 9.734375 -0.25 C 9.421875 -0.46875 9.191406 -0.738281 9.046875 -1.0625 C 8.867188 -0.613281 8.609375 -0.3125 8.265625 -0.15625 C 7.921875 -0.0078125 7.535156 0.0625 7.109375 0.0625 C 6.671875 0.0625 6.328125 0 6.078125 -0.125 C 5.828125 -0.25 5.640625 -0.4375 5.515625 -0.6875 C 5.316406 -0.382812 5.070312 -0.179688 4.78125 -0.078125 C 4.5 0.015625 4.097656 0.0625 3.578125 0.0625 C 3.390625 0.0625 3.195312 0.0390625 3 0 C 2.800781 -0.0390625 2.613281 -0.125 2.4375 -0.25 C 2.269531 -0.375 2.140625 -0.5625 2.046875 -0.8125 C 1.816406 -0.4375 1.535156 -0.195312 1.203125 -0.09375 C 0.878906 0.0078125 0.476562 0.0625 0 0.0625 Z M 4.953125 2.453125 C 4.773438 2.453125 4.625 2.390625 4.5 2.265625 C 4.375 2.140625 4.3125 1.988281 4.3125 1.8125 C 4.3125 1.644531 4.375 1.492188 4.5 1.359375 C 4.625 1.234375 4.773438 1.171875 4.953125 1.171875 C 5.128906 1.171875 5.28125 1.234375 5.40625 1.359375 C 5.53125 1.492188 5.59375 1.644531 5.59375 1.8125 C 5.59375 1.988281 5.53125 2.140625 5.40625 2.265625 C 5.28125 2.390625 5.128906 2.453125 4.953125 2.453125 Z M 5.5 -5.578125 C 5.320312 -5.578125 5.171875 -5.640625 5.046875 -5.765625 C 4.921875 -5.890625 4.859375 -6.039062 4.859375 -6.21875 C 4.859375 -6.382812 4.921875 -6.53125 5.046875 -6.65625 C 5.171875 -6.789062 5.320312 -6.859375 5.5 -6.859375 C 5.675781 -6.859375 5.828125 -6.789062 5.953125 -6.65625 C 6.078125 -6.53125 6.140625 -6.382812 6.140625 -6.21875 C 6.140625 -6.039062 6.078125 -5.890625 5.953125 -5.765625 C 5.828125 -5.640625 5.675781 -5.578125 5.5 -5.578125 Z M 5.5 -5.578125 "/></g></g></g><g fill="#d9d9d9" fill-opacity="1"><g transform="translate(167.678541, 268.895462)"><g><path d="M 0 0.0625 L 0.125 -0.984375 C 0.625 -0.984375 1.015625 -1.003906 1.296875 -1.046875 C 1.585938 -1.085938 1.789062 -1.179688 1.90625 -1.328125 C 2.03125 -1.484375 2.09375 -1.738281 2.09375 -2.09375 C 2.09375 -2.40625 2.015625 -2.8125 1.859375 -3.3125 C 1.710938 -3.8125 1.546875 -4.304688 1.359375 -4.796875 L 2.40625 -5.171875 C 2.507812 -4.890625 2.609375 -4.578125 2.703125 -4.234375 C 2.804688 -3.890625 2.890625 -3.546875 2.953125 -3.203125 C 3.023438 -2.859375 3.0625 -2.554688 3.0625 -2.296875 C 3.0625 -1.429688 2.820312 -0.820312 2.34375 -0.46875 C 1.863281 -0.113281 1.082031 0.0625 0 0.0625 Z M 0.578125 2.484375 C 0.398438 2.484375 0.25 2.421875 0.125 2.296875 C 0 2.179688 -0.0625 2.035156 -0.0625 1.859375 C -0.0625 1.691406 0 1.539062 0.125 1.40625 C 0.25 1.28125 0.398438 1.21875 0.578125 1.21875 C 0.753906 1.21875 0.90625 1.28125 1.03125 1.40625 C 1.15625 1.539062 1.21875 1.691406 1.21875 1.859375 C 1.21875 2.035156 1.15625 2.179688 1.03125 2.296875 C 0.90625 2.421875 0.753906 2.484375 0.578125 2.484375 Z M 2.328125 2.484375 C 2.148438 2.484375 2 2.421875 1.875 2.296875 C 1.75 2.179688 1.6875 2.035156 1.6875 1.859375 C 1.6875 1.691406 1.75 1.539062 1.875 1.40625 C 2 1.28125 2.148438 1.21875 2.328125 1.21875 C 2.503906 1.21875 2.648438 1.28125 2.765625 1.40625 C 2.890625 1.539062 2.953125 1.691406 2.953125 1.859375 C 2.953125 2.035156 2.890625 2.179688 2.765625 2.296875 C 2.648438 2.421875 2.503906 2.484375 2.328125 2.484375 Z M 1.453125 3.90625 C 1.273438 3.90625 1.125 3.84375 1 3.71875 C 0.875 3.59375 0.8125 3.445312 0.8125 3.28125 C 0.8125 3.101562 0.875 2.945312 1 2.8125 C 1.125 2.6875 1.273438 2.625 1.453125 2.625 C 1.628906 2.625 1.773438 2.6875 1.890625 2.8125 C 2.015625 2.945312 2.078125 3.101562 2.078125 3.28125 C 2.078125 3.445312 2.015625 3.59375 1.890625 3.71875 C 1.773438 3.84375 1.628906 3.90625 1.453125 3.90625 Z M 1.453125 3.90625 "/></g></g></g><g fill="#d9d9d9" fill-opacity="1"><g transform="translate(171.518801, 268.895462)"><g/></g></g><g fill="#d9d9d9" fill-opacity="1"><g transform="translate(174.973748, 268.895462)"><g><path d="M 0.390625 0.015625 C 0.390625 -0.296875 0.429688 -0.640625 0.515625 -1.015625 C 0.597656 -1.390625 0.734375 -1.804688 0.921875 -2.265625 L 1.84375 -1.90625 C 1.707031 -1.539062 1.601562 -1.207031 1.53125 -0.90625 C 1.46875 -0.613281 1.4375 -0.335938 1.4375 -0.078125 C 1.4375 0.367188 1.550781 0.738281 1.78125 1.03125 C 2.007812 1.320312 2.328125 1.539062 2.734375 1.6875 C 3.140625 1.832031 3.59375 1.90625 4.09375 1.90625 C 4.664062 1.90625 5.144531 1.828125 5.53125 1.671875 C 5.925781 1.515625 6.238281 1.3125 6.46875 1.0625 C 6.695312 0.8125 6.859375 0.53125 6.953125 0.21875 C 7.054688 -0.09375 7.109375 -0.394531 7.109375 -0.6875 C 7.109375 -1.019531 7.046875 -1.414062 6.921875 -1.875 C 6.804688 -2.332031 6.578125 -2.90625 6.234375 -3.59375 L 7.203125 -4.078125 C 7.453125 -3.585938 7.671875 -3.066406 7.859375 -2.515625 C 8.054688 -1.972656 8.15625 -1.410156 8.15625 -0.828125 C 8.15625 -0.421875 8.085938 0.00390625 7.953125 0.453125 C 7.828125 0.898438 7.609375 1.3125 7.296875 1.6875 C 6.992188 2.0625 6.578125 2.363281 6.046875 2.59375 C 5.523438 2.832031 4.867188 2.953125 4.078125 2.953125 C 3.410156 2.953125 2.796875 2.847656 2.234375 2.640625 C 1.679688 2.441406 1.234375 2.125 0.890625 1.6875 C 0.554688 1.25 0.390625 0.691406 0.390625 0.015625 Z M 4.25 -5.109375 C 4.070312 -5.109375 3.921875 -5.171875 3.796875 -5.296875 C 3.671875 -5.421875 3.609375 -5.570312 3.609375 -5.75 C 3.609375 -5.914062 3.671875 -6.0625 3.796875 -6.1875 C 3.921875 -6.320312 4.070312 -6.390625 4.25 -6.390625 C 4.425781 -6.390625 4.578125 -6.320312 4.703125 -6.1875 C 4.828125 -6.0625 4.890625 -5.914062 4.890625 -5.75 C 4.890625 -5.570312 4.828125 -5.421875 4.703125 -5.296875 C 4.578125 -5.171875 4.425781 -5.109375 4.25 -5.109375 Z M 4.25 -5.109375 "/></g></g></g><g fill="#d9d9d9" fill-opacity="1"><g transform="translate(183.771656, 268.895462)"><g><path d="M 3.734375 0.0625 C 3.046875 0.0625 2.519531 -0.0078125 2.15625 -0.15625 C 1.800781 -0.3125 1.550781 -0.550781 1.40625 -0.875 C 1.269531 -1.207031 1.195312 -1.628906 1.1875 -2.140625 L 0.921875 -9.171875 L 1.984375 -9.171875 L 2.234375 -2.5625 C 2.253906 -2.132812 2.296875 -1.804688 2.359375 -1.578125 C 2.421875 -1.359375 2.566406 -1.203125 2.796875 -1.109375 C 3.023438 -1.023438 3.378906 -0.984375 3.859375 -0.984375 C 4.046875 -0.984375 4.175781 -0.929688 4.25 -0.828125 C 4.332031 -0.734375 4.375 -0.617188 4.375 -0.484375 C 4.375 -0.347656 4.3125 -0.222656 4.1875 -0.109375 C 4.070312 0.00390625 3.921875 0.0625 3.734375 0.0625 Z M 3.734375 0.0625 "/></g></g></g><g fill="#d9d9d9" fill-opacity="1"><g transform="translate(187.509159, 268.895462)"><g><path d="M 0 0.0625 L 0.109375 -0.984375 C 0.992188 -0.984375 1.851562 -1.113281 2.6875 -1.375 C 3.519531 -1.632812 4.273438 -2.003906 4.953125 -2.484375 C 4.617188 -2.773438 4.207031 -3.007812 3.71875 -3.1875 C 3.238281 -3.375 2.707031 -3.46875 2.125 -3.46875 C 1.914062 -3.46875 1.726562 -3.457031 1.5625 -3.4375 C 1.40625 -3.414062 1.207031 -3.378906 0.96875 -3.328125 L 0.765625 -4.296875 C 1.242188 -4.441406 1.695312 -4.515625 2.125 -4.515625 C 2.570312 -4.515625 2.972656 -4.460938 3.328125 -4.359375 C 3.691406 -4.253906 4.019531 -4.125 4.3125 -3.96875 C 4.613281 -3.8125 4.894531 -3.65625 5.15625 -3.5 C 5.414062 -3.351562 5.671875 -3.222656 5.921875 -3.109375 C 6.171875 -3.003906 6.425781 -2.953125 6.6875 -2.953125 L 6.96875 -2.953125 L 7.046875 -2.03125 C 6.609375 -2.03125 6.207031 -1.957031 5.84375 -1.8125 C 5.488281 -1.675781 5.128906 -1.5 4.765625 -1.28125 C 4.398438 -1.070312 4 -0.863281 3.5625 -0.65625 C 3.132812 -0.457031 2.632812 -0.285156 2.0625 -0.140625 C 1.488281 -0.00390625 0.800781 0.0625 0 0.0625 Z M 2.140625 -5.84375 C 1.960938 -5.84375 1.8125 -5.90625 1.6875 -6.03125 C 1.5625 -6.15625 1.5 -6.304688 1.5 -6.484375 C 1.5 -6.648438 1.5625 -6.796875 1.6875 -6.921875 C 1.8125 -7.054688 1.960938 -7.125 2.140625 -7.125 C 2.316406 -7.125 2.46875 -7.054688 2.59375 -6.921875 C 2.71875 -6.796875 2.78125 -6.648438 2.78125 -6.484375 C 2.78125 -6.304688 2.71875 -6.15625 2.59375 -6.03125 C 2.46875 -5.90625 2.316406 -5.84375 2.140625 -5.84375 Z M 2.140625 -5.84375 "/></g></g></g><g fill="#d9d9d9" fill-opacity="1"><g transform="translate(195.074081, 268.895462)"><g/></g></g><g fill="#d9d9d9" fill-opacity="1"><g transform="translate(198.52903, 268.895462)"><g><path d="M 0.390625 0.015625 C 0.390625 -0.296875 0.429688 -0.640625 0.515625 -1.015625 C 0.597656 -1.390625 0.734375 -1.804688 0.921875 -2.265625 L 1.84375 -1.90625 C 1.707031 -1.539062 1.601562 -1.207031 1.53125 -0.90625 C 1.46875 -0.613281 1.4375 -0.335938 1.4375 -0.078125 C 1.4375 0.398438 1.550781 0.785156 1.78125 1.078125 C 2.019531 1.367188 2.335938 1.582031 2.734375 1.71875 C 3.140625 1.851562 3.582031 1.921875 4.0625 1.921875 C 4.84375 1.921875 5.453125 1.8125 5.890625 1.59375 C 6.328125 1.382812 6.640625 1.109375 6.828125 0.765625 C 7.015625 0.421875 7.109375 0.0546875 7.109375 -0.328125 C 7.109375 -0.898438 7.046875 -1.421875 6.921875 -1.890625 C 6.796875 -2.367188 6.660156 -2.859375 6.515625 -3.359375 L 7.546875 -3.640625 C 7.679688 -3.160156 7.773438 -2.8125 7.828125 -2.59375 C 7.878906 -2.375 7.925781 -2.195312 7.96875 -2.0625 C 8.070312 -1.738281 8.195312 -1.5 8.34375 -1.34375 C 8.5 -1.195312 8.675781 -1.097656 8.875 -1.046875 C 9.070312 -1.003906 9.28125 -0.984375 9.5 -0.984375 C 9.6875 -0.984375 9.816406 -0.929688 9.890625 -0.828125 C 9.972656 -0.734375 10.015625 -0.617188 10.015625 -0.484375 C 10.015625 -0.347656 9.953125 -0.222656 9.828125 -0.109375 C 9.710938 0.00390625 9.5625 0.0625 9.375 0.0625 C 9.113281 0.0625 8.878906 0.0234375 8.671875 -0.046875 C 8.472656 -0.117188 8.304688 -0.210938 8.171875 -0.328125 C 8.128906 0.0976562 8.03125 0.503906 7.875 0.890625 C 7.71875 1.285156 7.484375 1.640625 7.171875 1.953125 C 6.859375 2.265625 6.441406 2.515625 5.921875 2.703125 C 5.410156 2.890625 4.773438 2.984375 4.015625 2.984375 C 3.378906 2.984375 2.785156 2.875 2.234375 2.65625 C 1.679688 2.445312 1.234375 2.125 0.890625 1.6875 C 0.554688 1.25 0.390625 0.691406 0.390625 0.015625 Z M 4.25 -5.109375 C 4.070312 -5.109375 3.921875 -5.171875 3.796875 -5.296875 C 3.671875 -5.421875 3.609375 -5.570312 3.609375 -5.75 C 3.609375 -5.914062 3.671875 -6.0625 3.796875 -6.1875 C 3.921875 -6.320312 4.070312 -6.390625 4.25 -6.390625 C 4.425781 -6.390625 4.578125 -6.320312 4.703125 -6.1875 C 4.828125 -6.0625 4.890625 -5.914062 4.890625 -5.75 C 4.890625 -5.570312 4.828125 -5.421875 4.703125 -5.296875 C 4.578125 -5.171875 4.425781 -5.109375 4.25 -5.109375 Z M 4.25 -5.109375 "/></g></g></g><g fill="#d9d9d9" fill-opacity="1"><g transform="translate(207.90491, 268.895462)"><g><path d="M 0 0.0625 L 0.125 -0.984375 C 0.625 -0.984375 1.015625 -1.003906 1.296875 -1.046875 C 1.585938 -1.085938 1.789062 -1.179688 1.90625 -1.328125 C 2.03125 -1.484375 2.09375 -1.738281 2.09375 -2.09375 C 2.09375 -2.40625 2.015625 -2.8125 1.859375 -3.3125 C 1.710938 -3.8125 1.546875 -4.304688 1.359375 -4.796875 L 2.40625 -5.171875 C 2.507812 -4.890625 2.609375 -4.578125 2.703125 -4.234375 C 2.804688 -3.890625 2.890625 -3.546875 2.953125 -3.203125 C 3.023438 -2.859375 3.0625 -2.554688 3.0625 -2.296875 C 3.0625 -1.429688 2.820312 -0.820312 2.34375 -0.46875 C 1.863281 -0.113281 1.082031 0.0625 0 0.0625 Z M 2.375 2.484375 C 2.195312 2.484375 2.046875 2.421875 1.921875 2.296875 C 1.796875 2.179688 1.734375 2.035156 1.734375 1.859375 C 1.734375 1.691406 1.796875 1.539062 1.921875 1.40625 C 2.046875 1.28125 2.195312 1.21875 2.375 1.21875 C 2.550781 1.21875 2.695312 1.28125 2.8125 1.40625 C 2.9375 1.539062 3 1.691406 3 1.859375 C 3 2.035156 2.9375 2.179688 2.8125 2.296875 C 2.695312 2.421875 2.550781 2.484375 2.375 2.484375 Z M 0.609375 2.484375 C 0.429688 2.484375 0.28125 2.421875 0.15625 2.296875 C 0.03125 2.179688 -0.03125 2.035156 -0.03125 1.859375 C -0.03125 1.691406 0.03125 1.539062 0.15625 1.40625 C 0.28125 1.28125 0.429688 1.21875 0.609375 1.21875 C 0.785156 1.21875 0.9375 1.28125 1.0625 1.40625 C 1.1875 1.539062 1.25 1.691406 1.25 1.859375 C 1.25 2.035156 1.1875 2.179688 1.0625 2.296875 C 0.9375 2.421875 0.785156 2.484375 0.609375 2.484375 Z M 0.609375 2.484375 "/></g></g></g><g fill="#d9d9d9" fill-opacity="1"><g transform="translate(211.74517, 268.895462)"><g><path d="M 2.765625 -0.984375 C 3.398438 -0.984375 3.847656 -1.078125 4.109375 -1.265625 C 4.378906 -1.460938 4.515625 -1.734375 4.515625 -2.078125 C 4.515625 -2.304688 4.4375 -2.59375 4.28125 -2.9375 C 4.125 -3.289062 3.914062 -3.679688 3.65625 -4.109375 C 3.40625 -4.546875 3.128906 -4.992188 2.828125 -5.453125 L 3.71875 -6.03125 C 4.207031 -5.257812 4.609375 -4.5625 4.921875 -3.9375 C 5.234375 -3.3125 5.46875 -2.742188 5.625 -2.234375 C 5.75 -1.859375 5.882812 -1.578125 6.03125 -1.390625 C 6.175781 -1.210938 6.332031 -1.097656 6.5 -1.046875 C 6.664062 -1.003906 6.816406 -0.984375 6.953125 -0.984375 C 7.128906 -0.984375 7.257812 -0.929688 7.34375 -0.828125 C 7.425781 -0.734375 7.46875 -0.617188 7.46875 -0.484375 C 7.46875 -0.347656 7.40625 -0.222656 7.28125 -0.109375 C 7.164062 0.00390625 7.015625 0.0625 6.828125 0.0625 C 6.492188 0.0625 6.171875 -0.0078125 5.859375 -0.15625 C 5.554688 -0.300781 5.3125 -0.550781 5.125 -0.90625 C 4.957031 -0.613281 4.6875 -0.375 4.3125 -0.1875 C 3.9375 -0.0078125 3.421875 0.078125 2.765625 0.078125 C 2.296875 0.078125 1.859375 0.0195312 1.453125 -0.09375 C 1.046875 -0.207031 0.710938 -0.367188 0.453125 -0.578125 L 0.96875 -1.46875 C 1.132812 -1.34375 1.367188 -1.226562 1.671875 -1.125 C 1.984375 -1.03125 2.347656 -0.984375 2.765625 -0.984375 Z M 2.765625 -0.984375 "/></g></g></g><g fill="#d9d9d9" fill-opacity="1"><g transform="translate(218.578002, 268.895462)"><g><path d="M 0 0.0625 L 0.109375 -0.984375 C 0.597656 -0.984375 0.941406 -1.03125 1.140625 -1.125 C 1.335938 -1.21875 1.453125 -1.382812 1.484375 -1.625 C 1.515625 -1.863281 1.519531 -2.203125 1.5 -2.640625 L 1.265625 -9.171875 L 2.296875 -9.171875 L 2.5625 -2.75 C 2.582031 -2.144531 2.535156 -1.628906 2.421875 -1.203125 C 2.316406 -0.785156 2.078125 -0.46875 1.703125 -0.25 C 1.335938 -0.0390625 0.769531 0.0625 0 0.0625 Z M 0 0.0625 "/></g></g></g><g fill="#d9d9d9" fill-opacity="1"><g transform="translate(221.917353, 268.895462)"><g><path d="M 1.1875 0 L 0.921875 -9.171875 L 1.96875 -9.171875 L 2.21875 0 Z M 1.1875 0 "/></g></g></g><g fill="#d9d9d9" fill-opacity="1"><g transform="translate(224.97415, 268.895462)"><g><path d="M 2.765625 -0.984375 C 3.398438 -0.984375 3.847656 -1.078125 4.109375 -1.265625 C 4.378906 -1.460938 4.515625 -1.734375 4.515625 -2.078125 C 4.515625 -2.304688 4.4375 -2.59375 4.28125 -2.9375 C 4.125 -3.289062 3.914062 -3.679688 3.65625 -4.109375 C 3.40625 -4.546875 3.128906 -4.992188 2.828125 -5.453125 L 3.71875 -6.03125 C 4.207031 -5.257812 4.609375 -4.5625 4.921875 -3.9375 C 5.234375 -3.3125 5.46875 -2.742188 5.625 -2.234375 C 5.75 -1.859375 5.882812 -1.578125 6.03125 -1.390625 C 6.175781 -1.210938 6.332031 -1.097656 6.5 -1.046875 C 6.664062 -1.003906 6.816406 -0.984375 6.953125 -0.984375 C 7.128906 -0.984375 7.257812 -0.929688 7.34375 -0.828125 C 7.425781 -0.734375 7.46875 -0.617188 7.46875 -0.484375 C 7.46875 -0.347656 7.40625 -0.222656 7.28125 -0.109375 C 7.164062 0.00390625 7.015625 0.0625 6.828125 0.0625 C 6.492188 0.0625 6.171875 -0.0078125 5.859375 -0.15625 C 5.554688 -0.300781 5.3125 -0.550781 5.125 -0.90625 C 4.957031 -0.613281 4.6875 -0.375 4.3125 -0.1875 C 3.9375 -0.0078125 3.421875 0.078125 2.765625 0.078125 C 2.296875 0.078125 1.859375 0.0195312 1.453125 -0.09375 C 1.046875 -0.207031 0.710938 -0.367188 0.453125 -0.578125 L 0.96875 -1.46875 C 1.132812 -1.34375 1.367188 -1.226562 1.671875 -1.125 C 1.984375 -1.03125 2.347656 -0.984375 2.765625 -0.984375 Z M 2.765625 -0.984375 "/></g></g></g><g fill="#d9d9d9" fill-opacity="1"><g transform="translate(231.806982, 268.895462)"><g><path d="M 0 0.0625 L 0.125 -0.984375 C 0.550781 -0.984375 0.882812 -1.015625 1.125 -1.078125 C 1.363281 -1.148438 1.546875 -1.273438 1.671875 -1.453125 C 1.796875 -1.640625 1.894531 -1.90625 1.96875 -2.25 C 2.050781 -2.601562 2.148438 -3.066406 2.265625 -3.640625 L 3.265625 -3.4375 C 3.210938 -3.207031 3.15625 -2.941406 3.09375 -2.640625 C 3.03125 -2.347656 3 -2.097656 3 -1.890625 C 3 -1.765625 3.003906 -1.644531 3.015625 -1.53125 C 3.035156 -1.414062 3.097656 -1.316406 3.203125 -1.234375 C 3.316406 -1.160156 3.503906 -1.097656 3.765625 -1.046875 C 4.035156 -1.003906 4.421875 -0.984375 4.921875 -0.984375 C 5.097656 -0.984375 5.226562 -0.929688 5.3125 -0.828125 C 5.394531 -0.734375 5.4375 -0.617188 5.4375 -0.484375 C 5.4375 -0.347656 5.375 -0.222656 5.25 -0.109375 C 5.132812 0.00390625 4.984375 0.0625 4.796875 0.0625 C 4.234375 0.0625 3.796875 0.03125 3.484375 -0.03125 C 3.171875 -0.09375 2.9375 -0.1875 2.78125 -0.3125 C 2.632812 -0.4375 2.53125 -0.59375 2.46875 -0.78125 C 2.21875 -0.425781 1.910156 -0.195312 1.546875 -0.09375 C 1.179688 0.0078125 0.664062 0.0625 0 0.0625 Z M 3.234375 2.484375 C 3.054688 2.484375 2.90625 2.421875 2.78125 2.296875 C 2.65625 2.179688 2.59375 2.035156 2.59375 1.859375 C 2.59375 1.691406 2.65625 1.539062 2.78125 1.40625 C 2.90625 1.28125 3.054688 1.21875 3.234375 1.21875 C 3.410156 1.21875 3.554688 1.28125 3.671875 1.40625 C 3.796875 1.539062 3.859375 1.691406 3.859375 1.859375 C 3.859375 2.035156 3.796875 2.179688 3.671875 2.296875 C 3.554688 2.421875 3.410156 2.484375 3.234375 2.484375 Z M 1.46875 2.484375 C 1.289062 2.484375 1.140625 2.421875 1.015625 2.296875 C 0.890625 2.179688 0.828125 2.035156 0.828125 1.859375 C 0.828125 1.691406 0.890625 1.539062 1.015625 1.40625 C 1.140625 1.28125 1.289062 1.21875 1.46875 1.21875 C 1.644531 1.21875 1.796875 1.28125 1.921875 1.40625 C 2.046875 1.539062 2.109375 1.691406 2.109375 1.859375 C 2.109375 2.035156 2.046875 2.179688 1.921875 2.296875 C 1.796875 2.421875 1.644531 2.484375 1.46875 2.484375 Z M 1.46875 2.484375 "/></g></g></g><g fill="#d9d9d9" fill-opacity="1"><g transform="translate(236.597673, 268.895462)"><g><path d="M 0 0.0625 L 0.109375 -0.984375 C 0.992188 -0.984375 1.851562 -1.113281 2.6875 -1.375 C 3.519531 -1.632812 4.273438 -2.003906 4.953125 -2.484375 C 4.617188 -2.773438 4.207031 -3.007812 3.71875 -3.1875 C 3.238281 -3.375 2.707031 -3.46875 2.125 -3.46875 C 1.914062 -3.46875 1.726562 -3.457031 1.5625 -3.4375 C 1.40625 -3.414062 1.207031 -3.378906 0.96875 -3.328125 L 0.765625 -4.296875 C 1.242188 -4.441406 1.695312 -4.515625 2.125 -4.515625 C 2.570312 -4.515625 2.972656 -4.460938 3.328125 -4.359375 C 3.691406 -4.253906 4.019531 -4.125 4.3125 -3.96875 C 4.613281 -3.8125 4.894531 -3.65625 5.15625 -3.5 C 5.414062 -3.351562 5.671875 -3.222656 5.921875 -3.109375 C 6.171875 -3.003906 6.425781 -2.953125 6.6875 -2.953125 L 6.96875 -2.953125 L 7.046875 -2.03125 C 6.609375 -2.03125 6.207031 -1.957031 5.84375 -1.8125 C 5.488281 -1.675781 5.128906 -1.5 4.765625 -1.28125 C 4.398438 -1.070312 4 -0.863281 3.5625 -0.65625 C 3.132812 -0.457031 2.632812 -0.285156 2.0625 -0.140625 C 1.488281 -0.00390625 0.800781 0.0625 0 0.0625 Z M 0 0.0625 "/></g></g></g><g fill="#d9d9d9" fill-opacity="1"><g transform="translate(244.162595, 268.895462)"><g><path d="M 0.75 2.953125 L 0.515625 1.90625 C 1.054688 1.832031 1.550781 1.726562 2 1.59375 C 2.445312 1.457031 2.828125 1.257812 3.140625 1 C 3.460938 0.738281 3.703125 0.394531 3.859375 -0.03125 C 3.703125 0.0078125 3.535156 0.0390625 3.359375 0.0625 C 3.191406 0.09375 3.023438 0.109375 2.859375 0.109375 C 2.203125 0.109375 1.695312 -0.0195312 1.34375 -0.28125 C 1 -0.550781 0.828125 -0.96875 0.828125 -1.53125 C 0.828125 -1.851562 0.875 -2.175781 0.96875 -2.5 C 1.070312 -2.832031 1.21875 -3.132812 1.40625 -3.40625 C 1.601562 -3.6875 1.832031 -3.910156 2.09375 -4.078125 C 2.351562 -4.242188 2.648438 -4.328125 2.984375 -4.328125 C 3.441406 -4.328125 3.820312 -4.175781 4.125 -3.875 C 4.425781 -3.570312 4.648438 -3.179688 4.796875 -2.703125 C 4.953125 -2.222656 5.03125 -1.710938 5.03125 -1.171875 C 5.03125 0.0234375 4.664062 0.96875 3.9375 1.65625 C 3.21875 2.351562 2.15625 2.785156 0.75 2.953125 Z M 1.84375 -1.78125 C 1.84375 -1.519531 1.925781 -1.304688 2.09375 -1.140625 C 2.257812 -0.984375 2.554688 -0.90625 2.984375 -0.90625 C 3.347656 -0.90625 3.695312 -0.957031 4.03125 -1.0625 C 4.03125 -1.113281 4.03125 -1.175781 4.03125 -1.25 C 4.03125 -1.59375 3.984375 -1.921875 3.890625 -2.234375 C 3.796875 -2.546875 3.660156 -2.796875 3.484375 -2.984375 C 3.316406 -3.179688 3.113281 -3.28125 2.875 -3.28125 C 2.664062 -3.28125 2.484375 -3.203125 2.328125 -3.046875 C 2.179688 -2.898438 2.0625 -2.707031 1.96875 -2.46875 C 1.882812 -2.238281 1.84375 -2.007812 1.84375 -1.78125 Z M 1.84375 -1.78125 "/></g></g></g><g fill="#d9d9d9" fill-opacity="1"><g transform="translate(249.903714, 268.895462)"><g/></g></g><g fill="#d9d9d9" fill-opacity="1"><g transform="translate(253.358664, 268.895462)"><g><path d="M 3.734375 0.0625 C 3.046875 0.0625 2.519531 -0.0078125 2.15625 -0.15625 C 1.800781 -0.3125 1.550781 -0.550781 1.40625 -0.875 C 1.269531 -1.207031 1.195312 -1.628906 1.1875 -2.140625 L 0.921875 -9.171875 L 1.984375 -9.171875 L 2.234375 -2.5625 C 2.253906 -2.132812 2.296875 -1.804688 2.359375 -1.578125 C 2.421875 -1.359375 2.566406 -1.203125 2.796875 -1.109375 C 3.023438 -1.023438 3.378906 -0.984375 3.859375 -0.984375 C 4.046875 -0.984375 4.175781 -0.929688 4.25 -0.828125 C 4.332031 -0.734375 4.375 -0.617188 4.375 -0.484375 C 4.375 -0.347656 4.3125 -0.222656 4.1875 -0.109375 C 4.070312 0.00390625 3.921875 0.0625 3.734375 0.0625 Z M 3.734375 0.0625 "/></g></g></g><g fill="#d9d9d9" fill-opacity="1"><g transform="translate(257.096167, 268.895462)"><g><path d="M 0 0.0625 L 0.125 -0.984375 C 0.539062 -0.984375 0.875 -1.007812 1.125 -1.0625 C 1.375 -1.113281 1.554688 -1.21875 1.671875 -1.375 C 1.785156 -1.539062 1.84375 -1.78125 1.84375 -2.09375 C 1.84375 -2.40625 1.765625 -2.8125 1.609375 -3.3125 C 1.460938 -3.8125 1.296875 -4.304688 1.109375 -4.796875 L 2.140625 -5.171875 C 2.253906 -4.890625 2.359375 -4.578125 2.453125 -4.234375 C 2.554688 -3.890625 2.640625 -3.546875 2.703125 -3.203125 C 2.773438 -2.859375 2.8125 -2.554688 2.8125 -2.296875 C 2.8125 -1.429688 2.582031 -0.820312 2.125 -0.46875 C 1.664062 -0.113281 0.957031 0.0625 0 0.0625 Z M 1.640625 -6.515625 C 1.460938 -6.515625 1.3125 -6.578125 1.1875 -6.703125 C 1.0625 -6.828125 1 -6.976562 1 -7.15625 C 1 -7.320312 1.0625 -7.46875 1.1875 -7.59375 C 1.3125 -7.726562 1.460938 -7.796875 1.640625 -7.796875 C 1.816406 -7.796875 1.96875 -7.726562 2.09375 -7.59375 C 2.21875 -7.46875 2.28125 -7.320312 2.28125 -7.15625 C 2.28125 -6.976562 2.21875 -6.828125 2.09375 -6.703125 C 1.96875 -6.578125 1.816406 -6.515625 1.640625 -6.515625 Z M 1.640625 -6.515625 "/></g></g></g><g fill="#d9d9d9" fill-opacity="1"><g transform="translate(260.551115, 268.895462)"><g><path d="M 5.046875 -6.890625 C 5.046875 -7.078125 5.03125 -7.300781 5 -7.5625 C 4.976562 -7.832031 4.953125 -8.097656 4.921875 -8.359375 C 4.890625 -8.628906 4.851562 -8.859375 4.8125 -9.046875 L 5.921875 -9.171875 C 5.941406 -8.992188 5.960938 -8.765625 5.984375 -8.484375 C 6.015625 -8.210938 6.039062 -7.9375 6.0625 -7.65625 C 6.082031 -7.382812 6.09375 -7.160156 6.09375 -6.984375 C 6.09375 -6.441406 6.046875 -5.914062 5.953125 -5.40625 C 5.859375 -4.90625 5.695312 -4.414062 5.46875 -3.9375 C 5.875 -3.507812 6.171875 -3.117188 6.359375 -2.765625 C 6.546875 -2.421875 6.640625 -2.078125 6.640625 -1.734375 C 6.640625 -1.484375 6.578125 -1.222656 6.453125 -0.953125 C 6.335938 -0.679688 6.117188 -0.453125 5.796875 -0.265625 C 5.484375 -0.0859375 5.03125 0 4.4375 0 L 1.484375 0 L 1.484375 -1.046875 C 2.765625 -1.960938 3.675781 -2.875 4.21875 -3.78125 C 3.738281 -4.207031 3.175781 -4.660156 2.53125 -5.140625 C 1.882812 -5.628906 1.210938 -6.128906 0.515625 -6.640625 L 1.125 -7.484375 C 1.882812 -6.921875 2.554688 -6.410156 3.140625 -5.953125 C 3.734375 -5.492188 4.242188 -5.070312 4.671875 -4.6875 C 4.804688 -5.03125 4.898438 -5.382812 4.953125 -5.75 C 5.015625 -6.113281 5.046875 -6.492188 5.046875 -6.890625 Z M 3 -1.046875 L 4.625 -1.046875 C 5.0625 -1.046875 5.347656 -1.125 5.484375 -1.28125 C 5.617188 -1.445312 5.6875 -1.632812 5.6875 -1.84375 C 5.6875 -1.988281 5.625 -2.164062 5.5 -2.375 C 5.375 -2.582031 5.203125 -2.804688 4.984375 -3.046875 C 4.742188 -2.679688 4.457031 -2.332031 4.125 -2 C 3.800781 -1.664062 3.425781 -1.347656 3 -1.046875 Z M 3 -1.046875 "/></g></g></g><g fill="#d9d9d9" fill-opacity="1"><g transform="translate(268.026132, 268.895462)"><g><path d="M 0.75 2.953125 L 0.515625 1.90625 C 1.046875 1.832031 1.53125 1.726562 1.96875 1.59375 C 2.414062 1.46875 2.796875 1.285156 3.109375 1.046875 C 3.421875 0.804688 3.65625 0.476562 3.8125 0.0625 L 3 0.0625 C 2.613281 0.0625 2.253906 0.0078125 1.921875 -0.09375 C 1.585938 -0.195312 1.320312 -0.367188 1.125 -0.609375 C 0.925781 -0.847656 0.828125 -1.160156 0.828125 -1.546875 C 0.828125 -2.023438 0.921875 -2.472656 1.109375 -2.890625 C 1.296875 -3.316406 1.550781 -3.660156 1.875 -3.921875 C 2.195312 -4.191406 2.566406 -4.328125 2.984375 -4.328125 C 3.566406 -4.328125 4.050781 -4.066406 4.4375 -3.546875 C 4.832031 -3.035156 5.03125 -2.242188 5.03125 -1.171875 C 5.03125 -1.109375 5.03125 -1.046875 5.03125 -0.984375 L 6.1875 -0.984375 C 6.363281 -0.984375 6.492188 -0.929688 6.578125 -0.828125 C 6.660156 -0.734375 6.703125 -0.617188 6.703125 -0.484375 C 6.703125 -0.347656 6.640625 -0.222656 6.515625 -0.109375 C 6.398438 0.00390625 6.25 0.0625 6.0625 0.0625 L 4.875 0.0625 C 4.4375 1.726562 3.0625 2.691406 0.75 2.953125 Z M 3.484375 -0.984375 L 4.015625 -0.984375 C 4.023438 -1.078125 4.03125 -1.164062 4.03125 -1.25 C 4.03125 -1.832031 3.921875 -2.316406 3.703125 -2.703125 C 3.492188 -3.085938 3.21875 -3.28125 2.875 -3.28125 C 2.695312 -3.28125 2.523438 -3.207031 2.359375 -3.0625 C 2.203125 -2.925781 2.078125 -2.742188 1.984375 -2.515625 C 1.890625 -2.285156 1.84375 -2.035156 1.84375 -1.765625 C 1.84375 -1.460938 1.976562 -1.253906 2.25 -1.140625 C 2.519531 -1.035156 2.929688 -0.984375 3.484375 -0.984375 Z M 3.484375 -0.984375 "/></g></g></g><g fill="#d9d9d9" fill-opacity="1"><g transform="translate(274.088342, 268.895462)"><g><path d="M 0 0.0625 L 0.125 -0.984375 C 0.363281 -0.984375 0.5625 -1.035156 0.71875 -1.140625 C 0.882812 -1.242188 1.046875 -1.410156 1.203125 -1.640625 C 1.359375 -1.878906 1.523438 -2.207031 1.703125 -2.625 C 1.953125 -3.164062 2.195312 -3.578125 2.4375 -3.859375 C 2.6875 -4.148438 2.929688 -4.34375 3.171875 -4.4375 C 3.421875 -4.539062 3.664062 -4.59375 3.90625 -4.59375 C 4.195312 -4.59375 4.46875 -4.519531 4.71875 -4.375 C 4.96875 -4.226562 5.1875 -4.03125 5.375 -3.78125 C 5.5625 -3.53125 5.707031 -3.253906 5.8125 -2.953125 C 5.914062 -2.660156 5.96875 -2.367188 5.96875 -2.078125 C 5.96875 -1.566406 5.878906 -1.15625 5.703125 -0.84375 C 5.523438 -0.539062 5.296875 -0.320312 5.015625 -0.1875 C 4.734375 -0.0625 4.445312 0 4.15625 0 C 3.90625 0 3.585938 -0.0390625 3.203125 -0.125 C 2.828125 -0.207031 2.347656 -0.429688 1.765625 -0.796875 C 1.492188 -0.398438 1.222656 -0.15625 0.953125 -0.0625 C 0.679688 0.0195312 0.363281 0.0625 0 0.0625 Z M 2.40625 -1.9375 C 2.351562 -1.820312 2.304688 -1.71875 2.265625 -1.625 C 2.628906 -1.40625 2.960938 -1.253906 3.265625 -1.171875 C 3.566406 -1.085938 3.820312 -1.046875 4.03125 -1.046875 C 4.394531 -1.046875 4.65625 -1.128906 4.8125 -1.296875 C 4.96875 -1.460938 5.046875 -1.675781 5.046875 -1.9375 C 5.046875 -2.1875 4.984375 -2.4375 4.859375 -2.6875 C 4.742188 -2.9375 4.59375 -3.140625 4.40625 -3.296875 C 4.226562 -3.460938 4.035156 -3.546875 3.828125 -3.546875 C 3.671875 -3.546875 3.519531 -3.5 3.375 -3.40625 C 3.226562 -3.320312 3.078125 -3.164062 2.921875 -2.9375 C 2.773438 -2.707031 2.601562 -2.375 2.40625 -1.9375 Z M 2.40625 -1.9375 "/></g></g></g><g fill="#d9d9d9" fill-opacity="1"><g transform="translate(280.831267, 268.895462)"><g/></g></g><g fill="#d9d9d9" fill-opacity="1"><g transform="translate(284.286217, 268.895462)"><g><path d="M 0.453125 -0.578125 L 0.96875 -1.46875 C 1.132812 -1.34375 1.367188 -1.226562 1.671875 -1.125 C 1.984375 -1.03125 2.347656 -0.984375 2.765625 -0.984375 C 3.398438 -0.984375 3.847656 -1.078125 4.109375 -1.265625 C 4.378906 -1.460938 4.515625 -1.734375 4.515625 -2.078125 C 4.515625 -2.253906 4.476562 -2.46875 4.40625 -2.71875 C 4.332031 -2.96875 4.175781 -3.304688 3.9375 -3.734375 C 3.695312 -4.171875 3.328125 -4.742188 2.828125 -5.453125 L 3.71875 -6.03125 C 4.382812 -5.082031 4.851562 -4.28125 5.125 -3.625 C 5.40625 -2.96875 5.546875 -2.429688 5.546875 -2.015625 C 5.546875 -1.660156 5.457031 -1.328125 5.28125 -1.015625 C 5.113281 -0.703125 4.828125 -0.441406 4.421875 -0.234375 C 4.023438 -0.0234375 3.472656 0.078125 2.765625 0.078125 C 2.296875 0.078125 1.859375 0.0195312 1.453125 -0.09375 C 1.046875 -0.207031 0.710938 -0.367188 0.453125 -0.578125 Z M 0.453125 -0.578125 "/></g></g></g></svg>