<svg xmlns="http://www.w3.org/2000/svg" xmlns:xlink="http://www.w3.org/1999/xlink" width="500" zoomAndPan="magnify" viewBox="0 0 375 374.999991" height="500" preserveAspectRatio="xMidYMid meet" version="1.0"><defs><g/><clipPath id="7da6622328"><path d="M 80.621094 77 L 294.371094 77 L 294.371094 298 L 80.621094 298 Z M 80.621094 77 " clip-rule="nonzero"/></clipPath></defs><g clip-path="url(#7da6622328)"><path fill="#000000" d="M 160.566406 80.75 C 189.390625 73.503906 218.5 78.367188 242.445312 92.1875 C 266.847656 106.277344 285.875 129.675781 293.746094 159.046875 C 293.917969 159.695312 294.085938 160.34375 294.246094 160.992188 L 292.5625 161.582031 C 292.394531 160.890625 292.214844 160.195312 292.03125 159.503906 C 284.289062 130.609375 265.566406 107.585938 241.554688 93.722656 C 217.671875 79.933594 188.554688 75.210938 159.804688 82.78125 C 160.074219 82.109375 160.328125 81.433594 160.566406 80.75 Z M 82.304688 213.886719 C 82.445312 214.453125 82.589844 215.015625 82.742188 215.582031 C 90.484375 244.480469 109.207031 267.503906 133.21875 281.367188 C 157.214844 295.222656 186.496094 299.925781 215.378906 292.199219 C 215.101562 292.871094 214.839844 293.554688 214.589844 294.238281 C 185.640625 301.628906 156.375 296.78125 132.332031 282.898438 C 107.925781 268.8125 88.898438 245.410156 81.03125 216.039062 C 80.890625 215.519531 80.753906 214.996094 80.621094 214.476562 Z M 82.304688 213.886719 " fill-opacity="1" fill-rule="evenodd"/></g><g fill="#000000" fill-opacity="1"><g transform="translate(82.228659, 188.410725)"><g><path d="M 12.125 0.65625 C 8.4375 0.65625 5.648438 0.175781 3.765625 -0.78125 C 1.878906 -1.75 0.9375 -3.375 0.9375 -5.65625 C 0.9375 -6.425781 1.03125 -7.238281 1.21875 -8.09375 C 1.40625 -8.957031 1.597656 -9.773438 1.796875 -10.546875 L 4.140625 -9.953125 C 4.015625 -9.492188 3.875 -8.910156 3.71875 -8.203125 C 3.5625 -7.503906 3.484375 -6.894531 3.484375 -6.375 C 3.484375 -5.289062 3.753906 -4.421875 4.296875 -3.765625 C 4.847656 -3.117188 5.804688 -2.644531 7.171875 -2.34375 C 8.546875 -2.039062 10.46875 -1.890625 12.9375 -1.890625 C 14.195312 -1.890625 15.53125 -1.96875 16.9375 -2.125 C 18.351562 -2.28125 19.757812 -2.5625 21.15625 -2.96875 C 22.5625 -3.375 23.894531 -3.921875 25.15625 -4.609375 C 26.414062 -5.304688 27.523438 -6.207031 28.484375 -7.3125 L 30.4375 -6.15625 C 30.25 -5.675781 30.125 -5.296875 30.0625 -5.015625 C 30 -4.742188 29.96875 -4.492188 29.96875 -4.265625 C 29.96875 -3.953125 30.082031 -3.648438 30.3125 -3.359375 C 30.539062 -3.066406 30.96875 -2.832031 31.59375 -2.65625 C 32.21875 -2.476562 33.117188 -2.390625 34.296875 -2.390625 C 34.734375 -2.390625 35.050781 -2.269531 35.25 -2.03125 C 35.445312 -1.789062 35.546875 -1.507812 35.546875 -1.1875 C 35.546875 -0.851562 35.398438 -0.546875 35.109375 -0.265625 C 34.816406 0.015625 34.441406 0.15625 33.984375 0.15625 C 32.160156 0.15625 30.660156 -0.113281 29.484375 -0.65625 C 28.316406 -1.195312 27.722656 -2.078125 27.703125 -3.296875 C 25.984375 -1.972656 23.753906 -0.984375 21.015625 -0.328125 C 18.285156 0.328125 15.320312 0.65625 12.125 0.65625 Z M 17.359375 -12.46875 C 16.921875 -12.46875 16.550781 -12.617188 16.25 -12.921875 C 15.945312 -13.222656 15.796875 -13.582031 15.796875 -14 C 15.796875 -14.414062 15.945312 -14.773438 16.25 -15.078125 C 16.550781 -15.390625 16.921875 -15.546875 17.359375 -15.546875 C 17.773438 -15.546875 18.128906 -15.390625 18.421875 -15.078125 C 18.722656 -14.773438 18.875 -14.414062 18.875 -14 C 18.875 -13.582031 18.722656 -13.222656 18.421875 -12.921875 C 18.128906 -12.617188 17.773438 -12.46875 17.359375 -12.46875 Z M 13.09375 -12.46875 C 12.65625 -12.46875 12.285156 -12.617188 11.984375 -12.921875 C 11.691406 -13.222656 11.546875 -13.582031 11.546875 -14 C 11.546875 -14.414062 11.691406 -14.773438 11.984375 -15.078125 C 12.285156 -15.390625 12.65625 -15.546875 13.09375 -15.546875 C 13.507812 -15.546875 13.867188 -15.390625 14.171875 -15.078125 C 14.472656 -14.773438 14.625 -14.414062 14.625 -14 C 14.625 -13.582031 14.472656 -13.222656 14.171875 -12.921875 C 13.867188 -12.617188 13.507812 -12.46875 13.09375 -12.46875 Z M 13.09375 -12.46875 "/></g></g></g><g fill="#000000" fill-opacity="1"><g transform="translate(116.196952, 188.410725)"><g><path d="M 0 0.15625 L 0.3125 -2.390625 C 1.34375 -2.390625 2.148438 -2.46875 2.734375 -2.625 C 3.316406 -2.78125 3.757812 -3.082031 4.0625 -3.53125 C 4.363281 -3.976562 4.601562 -4.625 4.78125 -5.46875 C 4.96875 -6.320312 5.195312 -7.429688 5.46875 -8.796875 L 7.890625 -8.328125 C 7.773438 -7.773438 7.640625 -7.132812 7.484375 -6.40625 C 7.328125 -5.675781 7.25 -5.066406 7.25 -4.578125 C 7.25 -4.265625 7.269531 -3.972656 7.3125 -3.703125 C 7.351562 -3.429688 7.503906 -3.203125 7.765625 -3.015625 C 8.035156 -2.828125 8.492188 -2.675781 9.140625 -2.5625 C 9.785156 -2.445312 10.707031 -2.390625 11.90625 -2.390625 C 12.34375 -2.390625 12.660156 -2.269531 12.859375 -2.03125 C 13.054688 -1.789062 13.15625 -1.507812 13.15625 -1.1875 C 13.15625 -0.851562 13.007812 -0.546875 12.71875 -0.265625 C 12.425781 0.015625 12.050781 0.15625 11.59375 0.15625 C 10.25 0.15625 9.195312 0.078125 8.4375 -0.078125 C 7.6875 -0.234375 7.128906 -0.460938 6.765625 -0.765625 C 6.398438 -1.066406 6.132812 -1.441406 5.96875 -1.890625 C 5.363281 -1.046875 4.617188 -0.492188 3.734375 -0.234375 C 2.859375 0.0234375 1.613281 0.15625 0 0.15625 Z M 7.84375 6.03125 C 7.40625 6.03125 7.035156 5.878906 6.734375 5.578125 C 6.429688 5.273438 6.28125 4.921875 6.28125 4.515625 C 6.28125 4.097656 6.429688 3.734375 6.734375 3.421875 C 7.035156 3.109375 7.40625 2.953125 7.84375 2.953125 C 8.257812 2.953125 8.613281 3.109375 8.90625 3.421875 C 9.207031 3.734375 9.359375 4.097656 9.359375 4.515625 C 9.359375 4.921875 9.207031 5.273438 8.90625 5.578125 C 8.613281 5.878906 8.257812 6.03125 7.84375 6.03125 Z M 3.578125 6.03125 C 3.140625 6.03125 2.769531 5.878906 2.46875 5.578125 C 2.175781 5.273438 2.03125 4.921875 2.03125 4.515625 C 2.03125 4.097656 2.175781 3.734375 2.46875 3.421875 C 2.769531 3.109375 3.140625 2.953125 3.578125 2.953125 C 3.992188 2.953125 4.351562 3.109375 4.65625 3.421875 C 4.957031 3.734375 5.109375 4.097656 5.109375 4.515625 C 5.109375 4.921875 4.957031 5.273438 4.65625 5.578125 C 4.351562 5.878906 3.992188 6.03125 3.578125 6.03125 Z M 3.578125 6.03125 "/></g></g></g><g fill="#000000" fill-opacity="1"><g transform="translate(127.789061, 188.410725)"><g><path d="M 0 0.15625 L 0.3125 -2.390625 C 1.300781 -2.390625 2.101562 -2.453125 2.71875 -2.578125 C 3.332031 -2.703125 3.773438 -2.957031 4.046875 -3.34375 C 4.316406 -3.726562 4.453125 -4.300781 4.453125 -5.0625 C 4.453125 -5.832031 4.269531 -6.816406 3.90625 -8.015625 C 3.539062 -9.222656 3.128906 -10.414062 2.671875 -11.59375 L 5.1875 -12.53125 C 5.457031 -11.84375 5.710938 -11.078125 5.953125 -10.234375 C 6.191406 -9.398438 6.394531 -8.566406 6.5625 -7.734375 C 6.726562 -6.910156 6.8125 -6.1875 6.8125 -5.5625 C 6.8125 -3.46875 6.253906 -1.988281 5.140625 -1.125 C 4.035156 -0.269531 2.320312 0.15625 0 0.15625 Z M 3.96875 -15.765625 C 3.53125 -15.765625 3.160156 -15.914062 2.859375 -16.21875 C 2.566406 -16.519531 2.421875 -16.878906 2.421875 -17.296875 C 2.421875 -17.710938 2.566406 -18.070312 2.859375 -18.375 C 3.160156 -18.6875 3.53125 -18.84375 3.96875 -18.84375 C 4.382812 -18.84375 4.742188 -18.6875 5.046875 -18.375 C 5.347656 -18.070312 5.5 -17.710938 5.5 -17.296875 C 5.5 -16.878906 5.347656 -16.519531 5.046875 -16.21875 C 4.742188 -15.914062 4.382812 -15.765625 3.96875 -15.765625 Z M 3.96875 -15.765625 "/></g></g></g><g fill="#000000" fill-opacity="1"><g transform="translate(136.14905, 188.410725)"><g><path d="M 9.046875 0.15625 C 7.367188 0.15625 6.09375 -0.03125 5.21875 -0.40625 C 4.351562 -0.78125 3.753906 -1.359375 3.421875 -2.140625 C 3.085938 -2.929688 2.898438 -3.945312 2.859375 -5.1875 L 2.234375 -22.203125 L 4.78125 -22.203125 L 5.40625 -6.1875 C 5.445312 -5.175781 5.546875 -4.394531 5.703125 -3.84375 C 5.859375 -3.289062 6.210938 -2.910156 6.765625 -2.703125 C 7.316406 -2.492188 8.179688 -2.390625 9.359375 -2.390625 C 9.796875 -2.390625 10.113281 -2.269531 10.3125 -2.03125 C 10.507812 -1.789062 10.609375 -1.507812 10.609375 -1.1875 C 10.609375 -0.851562 10.460938 -0.546875 10.171875 -0.265625 C 9.878906 0.015625 9.503906 0.15625 9.046875 0.15625 Z M 9.046875 0.15625 "/></g></g></g><g fill="#000000" fill-opacity="1"><g transform="translate(145.192754, 188.410725)"><g><path d="M 0 0.15625 L 0.28125 -2.390625 C 2.414062 -2.390625 4.488281 -2.707031 6.5 -3.34375 C 8.507812 -3.976562 10.34375 -4.875 12 -6.03125 C 11.195312 -6.738281 10.207031 -7.304688 9.03125 -7.734375 C 7.863281 -8.171875 6.570312 -8.390625 5.15625 -8.390625 C 4.644531 -8.390625 4.191406 -8.363281 3.796875 -8.3125 C 3.398438 -8.257812 2.921875 -8.171875 2.359375 -8.046875 L 1.859375 -10.421875 C 3.023438 -10.765625 4.125 -10.9375 5.15625 -10.9375 C 6.238281 -10.9375 7.210938 -10.804688 8.078125 -10.546875 C 8.953125 -10.296875 9.742188 -9.984375 10.453125 -9.609375 C 11.171875 -9.234375 11.847656 -8.859375 12.484375 -8.484375 C 13.117188 -8.109375 13.734375 -7.789062 14.328125 -7.53125 C 14.929688 -7.28125 15.554688 -7.15625 16.203125 -7.15625 L 16.859375 -7.15625 L 17.078125 -4.90625 C 16.015625 -4.90625 15.046875 -4.734375 14.171875 -4.390625 C 13.304688 -4.054688 12.429688 -3.632812 11.546875 -3.125 C 10.671875 -2.613281 9.707031 -2.109375 8.65625 -1.609375 C 7.613281 -1.117188 6.394531 -0.703125 5 -0.359375 C 3.613281 -0.015625 1.945312 0.15625 0 0.15625 Z M 0 0.15625 "/></g></g></g><g fill="#000000" fill-opacity="1"><g transform="translate(163.497715, 188.410725)"><g><path d="M 1.796875 7.15625 L 1.25 4.609375 C 2.570312 4.441406 3.769531 4.191406 4.84375 3.859375 C 5.925781 3.523438 6.847656 3.046875 7.609375 2.421875 C 8.378906 1.804688 8.953125 0.976562 9.328125 -0.0625 C 8.953125 0.0390625 8.554688 0.117188 8.140625 0.171875 C 7.734375 0.222656 7.332031 0.25 6.9375 0.25 C 5.34375 0.25 4.117188 -0.0664062 3.265625 -0.703125 C 2.410156 -1.347656 1.984375 -2.347656 1.984375 -3.703125 C 1.984375 -4.484375 2.109375 -5.273438 2.359375 -6.078125 C 2.609375 -6.878906 2.960938 -7.609375 3.421875 -8.265625 C 3.878906 -8.929688 4.425781 -9.46875 5.0625 -9.875 C 5.707031 -10.28125 6.425781 -10.484375 7.21875 -10.484375 C 8.332031 -10.484375 9.253906 -10.113281 9.984375 -9.375 C 10.722656 -8.632812 11.273438 -7.679688 11.640625 -6.515625 C 12.003906 -5.359375 12.1875 -4.128906 12.1875 -2.828125 C 12.1875 0.078125 11.3125 2.367188 9.5625 4.046875 C 7.8125 5.722656 5.222656 6.757812 1.796875 7.15625 Z M 4.453125 -4.328125 C 4.453125 -3.679688 4.65625 -3.164062 5.0625 -2.78125 C 5.476562 -2.394531 6.195312 -2.203125 7.21875 -2.203125 C 8.101562 -2.203125 8.953125 -2.328125 9.765625 -2.578125 C 9.765625 -2.703125 9.765625 -2.847656 9.765625 -3.015625 C 9.765625 -3.867188 9.648438 -4.671875 9.421875 -5.421875 C 9.191406 -6.179688 8.867188 -6.785156 8.453125 -7.234375 C 8.035156 -7.691406 7.539062 -7.921875 6.96875 -7.921875 C 6.46875 -7.921875 6.03125 -7.738281 5.65625 -7.375 C 5.28125 -7.019531 4.984375 -6.5625 4.765625 -6 C 4.554688 -5.4375 4.453125 -4.878906 4.453125 -4.328125 Z M 4.453125 -4.328125 "/></g></g></g><g fill="#000000" fill-opacity="1"><g transform="translate(177.389594, 188.410725)"><g><path d="M 0.125 7.15625 L -0.78125 4.78125 C 1.3125 4.125 2.921875 3.335938 4.046875 2.421875 C 5.179688 1.515625 5.960938 0.5625 6.390625 -0.4375 C 6.816406 -1.445312 7.03125 -2.410156 7.03125 -3.328125 C 7.03125 -3.910156 6.96875 -4.46875 6.84375 -5 C 6.71875 -5.539062 6.5 -6.148438 6.1875 -6.828125 C 5.875 -7.515625 5.4375 -8.367188 4.875 -9.390625 L 7.15625 -10.546875 C 7.9375 -9.191406 8.5 -7.910156 8.84375 -6.703125 C 9.1875 -5.503906 9.359375 -4.453125 9.359375 -3.546875 C 9.359375 -2.234375 9.144531 -1.050781 8.71875 0 C 8.289062 1.050781 7.726562 1.988281 7.03125 2.8125 C 6.34375 3.632812 5.585938 4.332031 4.765625 4.90625 C 3.953125 5.488281 3.132812 5.96875 2.3125 6.34375 C 1.5 6.71875 0.769531 6.988281 0.125 7.15625 Z M 0.125 7.15625 "/></g></g></g><g fill="#000000" fill-opacity="1"><g transform="translate(188.795234, 188.410725)"><g/></g></g><g fill="#000000" fill-opacity="1"><g transform="translate(197.807867, 188.410725)"><g><path d="M 1.796875 7.15625 L 1.25 4.609375 C 2.570312 4.441406 3.769531 4.191406 4.84375 3.859375 C 5.925781 3.523438 6.847656 3.046875 7.609375 2.421875 C 8.378906 1.804688 8.953125 0.976562 9.328125 -0.0625 C 8.953125 0.0390625 8.554688 0.117188 8.140625 0.171875 C 7.734375 0.222656 7.332031 0.25 6.9375 0.25 C 5.34375 0.25 4.117188 -0.0664062 3.265625 -0.703125 C 2.410156 -1.347656 1.984375 -2.347656 1.984375 -3.703125 C 1.984375 -4.484375 2.109375 -5.273438 2.359375 -6.078125 C 2.609375 -6.878906 2.960938 -7.609375 3.421875 -8.265625 C 3.878906 -8.929688 4.425781 -9.46875 5.0625 -9.875 C 5.707031 -10.28125 6.425781 -10.484375 7.21875 -10.484375 C 8.332031 -10.484375 9.253906 -10.113281 9.984375 -9.375 C 10.722656 -8.632812 11.273438 -7.679688 11.640625 -6.515625 C 12.003906 -5.359375 12.1875 -4.128906 12.1875 -2.828125 C 12.1875 0.078125 11.3125 2.367188 9.5625 4.046875 C 7.8125 5.722656 5.222656 6.757812 1.796875 7.15625 Z M 4.453125 -4.328125 C 4.453125 -3.679688 4.65625 -3.164062 5.0625 -2.78125 C 5.476562 -2.394531 6.195312 -2.203125 7.21875 -2.203125 C 8.101562 -2.203125 8.953125 -2.328125 9.765625 -2.578125 C 9.765625 -2.703125 9.765625 -2.847656 9.765625 -3.015625 C 9.765625 -3.867188 9.648438 -4.671875 9.421875 -5.421875 C 9.191406 -6.179688 8.867188 -6.785156 8.453125 -7.234375 C 8.035156 -7.691406 7.539062 -7.921875 6.96875 -7.921875 C 6.46875 -7.921875 6.03125 -7.738281 5.65625 -7.375 C 5.28125 -7.019531 4.984375 -6.5625 4.765625 -6 C 4.554688 -5.4375 4.453125 -4.878906 4.453125 -4.328125 Z M 4.453125 -4.328125 "/></g></g></g><g fill="#000000" fill-opacity="1"><g transform="translate(211.699746, 188.410725)"><g><path d="M 2.859375 0 L 2.234375 -22.203125 L 4.75 -22.203125 L 5.375 0 Z M 2.859375 0 "/></g></g></g><g fill="#000000" fill-opacity="1"><g transform="translate(219.096315, 188.410725)"><g/></g></g><g fill="#000000" fill-opacity="1"><g transform="translate(228.108944, 188.410725)"><g><path d="M 15.109375 0.15625 C 13.765625 0.15625 12.609375 -0.0703125 11.640625 -0.53125 C 10.679688 -0.988281 10.003906 -1.828125 9.609375 -3.046875 C 8.484375 -2.773438 7.40625 -2.664062 6.375 -2.71875 C 5.351562 -2.769531 4.425781 -2.96875 3.59375 -3.3125 C 2.769531 -3.65625 2.117188 -4.128906 1.640625 -4.734375 C 1.171875 -5.347656 0.9375 -6.082031 0.9375 -6.9375 C 0.9375 -8.050781 1.285156 -9.066406 1.984375 -9.984375 C 2.691406 -10.910156 3.644531 -11.695312 4.84375 -12.34375 C 6.050781 -12.988281 7.378906 -13.4375 8.828125 -13.6875 L 8.734375 -16.046875 L 11.25 -16.046875 L 11.75 -5.78125 C 11.789062 -4.8125 11.960938 -4.082031 12.265625 -3.59375 C 12.566406 -3.101562 12.976562 -2.78125 13.5 -2.625 C 14.03125 -2.46875 14.671875 -2.390625 15.421875 -2.390625 C 15.859375 -2.390625 16.175781 -2.269531 16.375 -2.03125 C 16.570312 -1.789062 16.671875 -1.507812 16.671875 -1.1875 C 16.671875 -0.851562 16.523438 -0.546875 16.234375 -0.265625 C 15.941406 0.015625 15.566406 0.15625 15.109375 0.15625 Z M 3.390625 -7.34375 C 3.390625 -6.863281 3.582031 -6.46875 3.96875 -6.15625 C 4.351562 -5.84375 4.84375 -5.613281 5.4375 -5.46875 C 6.039062 -5.320312 6.675781 -5.25 7.34375 -5.25 C 8.019531 -5.25 8.648438 -5.300781 9.234375 -5.40625 L 8.953125 -11.09375 C 7.773438 -10.96875 6.769531 -10.703125 5.9375 -10.296875 C 5.101562 -9.898438 4.46875 -9.4375 4.03125 -8.90625 C 3.601562 -8.375 3.390625 -7.851562 3.390625 -7.34375 Z M 3.390625 -7.34375 "/></g></g></g><g fill="#000000" fill-opacity="1"><g transform="translate(243.212867, 188.410725)"><g><path d="M 0 0.15625 L 0.28125 -2.390625 C 1.457031 -2.390625 2.285156 -2.503906 2.765625 -2.734375 C 3.242188 -2.960938 3.519531 -3.359375 3.59375 -3.921875 C 3.664062 -4.492188 3.679688 -5.3125 3.640625 -6.375 L 3.046875 -22.203125 L 5.5625 -22.203125 L 6.1875 -6.65625 C 6.25 -5.1875 6.148438 -3.941406 5.890625 -2.921875 C 5.628906 -1.910156 5.046875 -1.144531 4.140625 -0.625 C 3.242188 -0.101562 1.863281 0.15625 0 0.15625 Z M 0 0.15625 "/></g></g></g><g fill="#000000" fill-opacity="1"><g transform="translate(251.293162, 188.410725)"><g><path d="M 1.796875 7.15625 L 1.25 4.609375 C 2.53125 4.441406 3.703125 4.195312 4.765625 3.875 C 5.835938 3.550781 6.753906 3.097656 7.515625 2.515625 C 8.285156 1.929688 8.859375 1.144531 9.234375 0.15625 L 7.25 0.15625 C 6.3125 0.15625 5.441406 0.0234375 4.640625 -0.234375 C 3.847656 -0.492188 3.207031 -0.910156 2.71875 -1.484375 C 2.226562 -2.066406 1.984375 -2.828125 1.984375 -3.765625 C 1.984375 -4.898438 2.210938 -5.976562 2.671875 -7 C 3.128906 -8.03125 3.75 -8.867188 4.53125 -9.515625 C 5.320312 -10.160156 6.21875 -10.484375 7.21875 -10.484375 C 8.644531 -10.484375 9.828125 -9.851562 10.765625 -8.59375 C 11.710938 -7.34375 12.1875 -5.421875 12.1875 -2.828125 C 12.1875 -2.679688 12.1875 -2.535156 12.1875 -2.390625 L 14.984375 -2.390625 C 15.421875 -2.390625 15.738281 -2.269531 15.9375 -2.03125 C 16.132812 -1.789062 16.234375 -1.507812 16.234375 -1.1875 C 16.234375 -0.851562 16.085938 -0.546875 15.796875 -0.265625 C 15.503906 0.015625 15.128906 0.15625 14.671875 0.15625 L 11.8125 0.15625 C 10.757812 4.175781 7.421875 6.507812 1.796875 7.15625 Z M 8.421875 -2.390625 L 9.734375 -2.390625 C 9.753906 -2.597656 9.765625 -2.804688 9.765625 -3.015625 C 9.765625 -4.421875 9.503906 -5.585938 8.984375 -6.515625 C 8.460938 -7.453125 7.789062 -7.921875 6.96875 -7.921875 C 6.53125 -7.921875 6.117188 -7.753906 5.734375 -7.421875 C 5.347656 -7.097656 5.039062 -6.65625 4.8125 -6.09375 C 4.59375 -5.53125 4.484375 -4.921875 4.484375 -4.265625 C 4.484375 -3.535156 4.804688 -3.039062 5.453125 -2.78125 C 6.109375 -2.519531 7.097656 -2.390625 8.421875 -2.390625 Z M 8.421875 -2.390625 "/></g></g></g><g fill="#000000" fill-opacity="1"><g transform="translate(265.961992, 188.410725)"><g><path d="M 0 0.15625 L 0.3125 -2.390625 C 0.976562 -2.390625 1.515625 -2.4375 1.921875 -2.53125 C 2.335938 -2.625 2.6875 -2.863281 2.96875 -3.25 C 3.25 -3.632812 3.515625 -4.238281 3.765625 -5.0625 C 4.015625 -5.894531 4.304688 -7.054688 4.640625 -8.546875 L 6.96875 -7.890625 C 6.84375 -7.359375 6.695312 -6.726562 6.53125 -6 C 6.363281 -5.269531 6.28125 -4.617188 6.28125 -4.046875 C 6.28125 -3.523438 6.476562 -3.117188 6.875 -2.828125 C 7.269531 -2.535156 7.984375 -2.390625 9.015625 -2.390625 C 9.640625 -2.390625 10.144531 -2.441406 10.53125 -2.546875 C 10.925781 -2.648438 11.253906 -2.898438 11.515625 -3.296875 C 11.773438 -3.691406 12.007812 -4.316406 12.21875 -5.171875 C 12.425781 -6.035156 12.644531 -7.234375 12.875 -8.765625 L 15.234375 -8.328125 C 15.171875 -7.960938 15.09375 -7.507812 15 -6.96875 C 14.90625 -6.425781 14.828125 -5.890625 14.765625 -5.359375 C 14.703125 -4.835938 14.671875 -4.398438 14.671875 -4.046875 C 14.671875 -3.753906 14.738281 -3.476562 14.875 -3.21875 C 15.007812 -2.957031 15.28125 -2.753906 15.6875 -2.609375 C 16.09375 -2.460938 16.695312 -2.390625 17.5 -2.390625 C 18.394531 -2.390625 19.109375 -2.566406 19.640625 -2.921875 C 20.179688 -3.273438 20.453125 -3.988281 20.453125 -5.0625 C 20.453125 -5.832031 20.269531 -6.816406 19.90625 -8.015625 C 19.550781 -9.222656 19.144531 -10.414062 18.6875 -11.59375 L 21.203125 -12.53125 C 21.453125 -11.84375 21.703125 -11.078125 21.953125 -10.234375 C 22.203125 -9.398438 22.410156 -8.566406 22.578125 -7.734375 C 22.742188 -6.910156 22.828125 -6.1875 22.828125 -5.5625 C 22.828125 -3.632812 22.347656 -2.195312 21.390625 -1.25 C 20.441406 -0.3125 19.132812 0.15625 17.46875 0.15625 C 16.332031 0.15625 15.4375 0.00390625 14.78125 -0.296875 C 14.132812 -0.597656 13.664062 -1.066406 13.375 -1.703125 C 12.875 -0.941406 12.273438 -0.441406 11.578125 -0.203125 C 10.890625 0.0351562 9.910156 0.15625 8.640625 0.15625 C 8.203125 0.15625 7.738281 0.101562 7.25 0 C 6.769531 -0.101562 6.320312 -0.304688 5.90625 -0.609375 C 5.488281 -0.910156 5.164062 -1.359375 4.9375 -1.953125 C 4.40625 -1.046875 3.738281 -0.46875 2.9375 -0.21875 C 2.132812 0.03125 1.15625 0.15625 0 0.15625 Z M 0 0.15625 "/></g></g></g><g fill="#000000" fill-opacity="1"><g transform="translate(157.128084, 142.979523)"><g><path d="M 3.453125 0 C 2.609375 0 1.90625 -0.21875 1.34375 -0.65625 C 0.789062 -1.09375 0.515625 -1.773438 0.515625 -2.703125 C 0.515625 -3.160156 0.675781 -3.726562 1 -4.40625 C 1.320312 -5.082031 1.890625 -5.796875 2.703125 -6.546875 L 2.203125 -6.984375 L 3.09375 -8.046875 C 3.6875 -7.578125 4.234375 -7.078125 4.734375 -6.546875 C 5.234375 -6.015625 5.632812 -5.445312 5.9375 -4.84375 C 6.25 -4.238281 6.40625 -3.597656 6.40625 -2.921875 C 6.40625 -2.660156 6.359375 -2.363281 6.265625 -2.03125 C 6.179688 -1.695312 6.03125 -1.375 5.8125 -1.0625 C 5.59375 -0.75 5.289062 -0.492188 4.90625 -0.296875 C 4.519531 -0.0976562 4.035156 0 3.453125 0 Z M 3.453125 -1.40625 C 4.023438 -1.40625 4.457031 -1.550781 4.75 -1.84375 C 5.050781 -2.132812 5.203125 -2.515625 5.203125 -2.984375 C 5.203125 -3.253906 5.160156 -3.53125 5.078125 -3.8125 C 4.992188 -4.09375 4.832031 -4.398438 4.59375 -4.734375 C 4.351562 -5.078125 3.992188 -5.453125 3.515625 -5.859375 C 2.992188 -5.347656 2.585938 -4.816406 2.296875 -4.265625 C 2.003906 -3.722656 1.859375 -3.25 1.859375 -2.84375 C 1.859375 -2.363281 2.007812 -2.003906 2.3125 -1.765625 C 2.613281 -1.523438 2.992188 -1.40625 3.453125 -1.40625 Z M 3.453125 -1.40625 "/></g></g></g><g fill="#000000" fill-opacity="1"><g transform="translate(163.364153, 142.979523)"><g><path d="M 0.0625 3.9375 L -0.421875 2.625 C 0.722656 2.257812 1.601562 1.828125 2.21875 1.328125 C 2.84375 0.828125 3.269531 0.300781 3.5 -0.25 C 3.738281 -0.800781 3.859375 -1.328125 3.859375 -1.828125 C 3.859375 -2.148438 3.820312 -2.457031 3.75 -2.75 C 3.6875 -3.050781 3.566406 -3.390625 3.390625 -3.765625 C 3.222656 -4.140625 2.988281 -4.601562 2.6875 -5.15625 L 3.9375 -5.796875 C 4.363281 -5.054688 4.671875 -4.351562 4.859375 -3.6875 C 5.046875 -3.03125 5.140625 -2.453125 5.140625 -1.953125 C 5.140625 -1.234375 5.019531 -0.582031 4.78125 0 C 4.550781 0.582031 4.242188 1.097656 3.859375 1.546875 C 3.484375 1.992188 3.070312 2.375 2.625 2.6875 C 2.175781 3.007812 1.722656 3.273438 1.265625 3.484375 C 0.816406 3.691406 0.414062 3.84375 0.0625 3.9375 Z M 0.0625 3.9375 "/></g></g></g><g fill="#000000" fill-opacity="1"><g transform="translate(169.634656, 142.979523)"><g><path d="M 2.421875 0.078125 C 2.117188 0.078125 1.8125 0.0507812 1.5 0 C 1.1875 -0.0390625 0.96875 -0.078125 0.84375 -0.109375 L 1.03125 -1.453125 C 2.050781 -1.316406 2.984375 -1.332031 3.828125 -1.5 C 4.679688 -1.664062 5.359375 -2.078125 5.859375 -2.734375 C 5.421875 -3.460938 4.753906 -4.347656 3.859375 -5.390625 C 2.972656 -6.429688 1.914062 -7.503906 0.6875 -8.609375 L 1.609375 -9.59375 C 2.816406 -8.445312 3.8125 -7.410156 4.59375 -6.484375 C 5.382812 -5.566406 6.019531 -4.765625 6.5 -4.078125 C 6.632812 -4.578125 6.710938 -5.140625 6.734375 -5.765625 L 6.5 -12.203125 L 7.890625 -12.203125 L 8.234375 -3.40625 C 8.253906 -2.84375 8.304688 -2.410156 8.390625 -2.109375 C 8.484375 -1.804688 8.679688 -1.597656 8.984375 -1.484375 C 9.285156 -1.367188 9.757812 -1.3125 10.40625 -1.3125 C 10.644531 -1.3125 10.816406 -1.242188 10.921875 -1.109375 C 11.035156 -0.984375 11.09375 -0.832031 11.09375 -0.65625 C 11.09375 -0.46875 11.007812 -0.296875 10.84375 -0.140625 C 10.6875 0.00390625 10.484375 0.078125 10.234375 0.078125 C 9.441406 0.078125 8.8125 0.00390625 8.34375 -0.140625 C 7.875 -0.296875 7.53125 -0.535156 7.3125 -0.859375 C 7.09375 -1.179688 6.953125 -1.601562 6.890625 -2.125 C 6.535156 -1.488281 6.101562 -1.007812 5.59375 -0.6875 C 5.082031 -0.375 4.546875 -0.164062 3.984375 -0.0625 C 3.429688 0.03125 2.910156 0.078125 2.421875 0.078125 Z M 2.421875 0.078125 "/></g></g></g><g fill="#000000" fill-opacity="1"><g transform="translate(179.869084, 142.979523)"><g><path d="M 0 0.078125 L 0.171875 -1.3125 L 1.484375 -1.3125 C 2.429688 -1.3125 3.128906 -1.363281 3.578125 -1.46875 C 4.035156 -1.570312 4.335938 -1.707031 4.484375 -1.875 C 4.628906 -2.039062 4.703125 -2.21875 4.703125 -2.40625 C 4.703125 -2.6875 4.597656 -2.988281 4.390625 -3.3125 C 4.179688 -3.644531 3.914062 -3.984375 3.59375 -4.328125 C 3.28125 -4.679688 2.941406 -5.023438 2.578125 -5.359375 C 2.222656 -5.703125 1.882812 -6.015625 1.5625 -6.296875 C 1.25 -6.585938 0.988281 -6.835938 0.78125 -7.046875 C 0.582031 -7.265625 0.484375 -7.414062 0.484375 -7.5 C 0.484375 -7.757812 0.507812 -8.003906 0.5625 -8.234375 C 0.625 -8.460938 0.71875 -8.640625 0.84375 -8.765625 C 1.144531 -9.097656 1.59375 -9.441406 2.1875 -9.796875 C 2.789062 -10.160156 3.476562 -10.53125 4.25 -10.90625 C 5.03125 -11.289062 5.820312 -11.679688 6.625 -12.078125 L 7.21875 -10.8125 C 6.207031 -10.3125 5.222656 -9.828125 4.265625 -9.359375 C 3.304688 -8.898438 2.46875 -8.421875 1.75 -7.921875 C 2.375 -7.378906 2.957031 -6.859375 3.5 -6.359375 C 4.050781 -5.859375 4.554688 -5.316406 5.015625 -4.734375 C 5.484375 -4.160156 5.914062 -3.507812 6.3125 -2.78125 C 6.550781 -2.34375 6.828125 -2.019531 7.140625 -1.8125 C 7.460938 -1.601562 7.773438 -1.46875 8.078125 -1.40625 C 8.390625 -1.34375 8.648438 -1.3125 8.859375 -1.3125 C 9.097656 -1.3125 9.269531 -1.242188 9.375 -1.109375 C 9.476562 -0.984375 9.53125 -0.832031 9.53125 -0.65625 C 9.53125 -0.46875 9.453125 -0.296875 9.296875 -0.140625 C 9.140625 0.00390625 8.9375 0.078125 8.6875 0.078125 C 8.40625 0.078125 8.085938 0.0390625 7.734375 -0.03125 C 7.378906 -0.101562 7.019531 -0.242188 6.65625 -0.453125 C 6.289062 -0.660156 5.96875 -0.972656 5.6875 -1.390625 C 5.457031 -1.054688 5.171875 -0.78125 4.828125 -0.5625 C 4.492188 -0.34375 4.050781 -0.179688 3.5 -0.078125 C 2.957031 0.0234375 2.265625 0.078125 1.421875 0.078125 Z M 5.75 -7.8125 C 5.332031 -7.8125 4.972656 -7.957031 4.671875 -8.25 C 4.378906 -8.550781 4.234375 -8.910156 4.234375 -9.328125 C 4.234375 -9.753906 4.378906 -10.113281 4.671875 -10.40625 C 4.972656 -10.707031 5.332031 -10.859375 5.75 -10.859375 C 6.175781 -10.859375 6.535156 -10.707031 6.828125 -10.40625 C 7.128906 -10.113281 7.28125 -9.753906 7.28125 -9.328125 C 7.28125 -8.910156 7.128906 -8.550781 6.828125 -8.25 C 6.535156 -7.957031 6.175781 -7.8125 5.75 -7.8125 Z M 5.75 -8.6875 C 5.945312 -8.6875 6.113281 -8.742188 6.25 -8.859375 C 6.382812 -8.984375 6.453125 -9.140625 6.453125 -9.328125 C 6.453125 -9.523438 6.382812 -9.6875 6.25 -9.8125 C 6.113281 -9.945312 5.945312 -10.015625 5.75 -10.015625 C 5.5625 -10.015625 5.394531 -9.945312 5.25 -9.8125 C 5.113281 -9.6875 5.046875 -9.523438 5.046875 -9.328125 C 5.046875 -9.140625 5.113281 -8.984375 5.25 -8.859375 C 5.394531 -8.742188 5.5625 -8.6875 5.75 -8.6875 Z M 5.75 -8.6875 "/></g></g></g><g fill="#000000" fill-opacity="1"><g transform="translate(188.548695, 142.979523)"><g><path d="M 0 0.078125 L 0.171875 -1.3125 C 0.828125 -1.3125 1.347656 -1.335938 1.734375 -1.390625 C 2.117188 -1.441406 2.390625 -1.566406 2.546875 -1.765625 C 2.703125 -1.972656 2.78125 -2.3125 2.78125 -2.78125 C 2.78125 -3.207031 2.679688 -3.75 2.484375 -4.40625 C 2.285156 -5.070312 2.0625 -5.726562 1.8125 -6.375 L 3.203125 -6.890625 C 3.347656 -6.515625 3.484375 -6.09375 3.609375 -5.625 C 3.742188 -5.164062 3.851562 -4.707031 3.9375 -4.25 C 4.03125 -3.800781 4.078125 -3.40625 4.078125 -3.0625 C 4.078125 -1.90625 3.757812 -1.09375 3.125 -0.625 C 2.488281 -0.15625 1.445312 0.078125 0 0.078125 Z M 3.71875 -8.65625 C 3.476562 -8.65625 3.273438 -8.738281 3.109375 -8.90625 C 2.941406 -9.070312 2.859375 -9.269531 2.859375 -9.5 C 2.859375 -9.726562 2.941406 -9.925781 3.109375 -10.09375 C 3.273438 -10.269531 3.476562 -10.359375 3.71875 -10.359375 C 3.945312 -10.359375 4.144531 -10.269531 4.3125 -10.09375 C 4.476562 -9.925781 4.5625 -9.726562 4.5625 -9.5 C 4.5625 -9.269531 4.476562 -9.070312 4.3125 -8.90625 C 4.144531 -8.738281 3.945312 -8.65625 3.71875 -8.65625 Z M 1.375 -8.65625 C 1.132812 -8.65625 0.929688 -8.738281 0.765625 -8.90625 C 0.597656 -9.070312 0.515625 -9.269531 0.515625 -9.5 C 0.515625 -9.726562 0.597656 -9.925781 0.765625 -10.09375 C 0.929688 -10.269531 1.132812 -10.359375 1.375 -10.359375 C 1.601562 -10.359375 1.800781 -10.269531 1.96875 -10.09375 C 2.132812 -9.925781 2.21875 -9.726562 2.21875 -9.5 C 2.21875 -9.269531 2.132812 -9.070312 1.96875 -8.90625 C 1.800781 -8.738281 1.601562 -8.65625 1.375 -8.65625 Z M 1.375 -8.65625 "/></g></g></g><g fill="#000000" fill-opacity="1"><g transform="translate(193.65736, 142.979523)"><g/></g></g><g fill="#000000" fill-opacity="1"><g transform="translate(198.902713, 142.979523)"><g><path d="M 0.515625 0.015625 C 0.515625 -0.390625 0.570312 -0.84375 0.6875 -1.34375 C 0.800781 -1.851562 0.984375 -2.410156 1.234375 -3.015625 L 2.46875 -2.53125 C 2.28125 -2.050781 2.140625 -1.609375 2.046875 -1.203125 C 1.960938 -0.804688 1.921875 -0.441406 1.921875 -0.109375 C 1.921875 0.535156 2.101562 1.050781 2.46875 1.4375 C 2.84375 1.832031 3.332031 2.117188 3.9375 2.296875 C 4.550781 2.484375 5.222656 2.578125 5.953125 2.578125 C 6.828125 2.578125 7.625 2.476562 8.34375 2.28125 C 9.070312 2.082031 9.648438 1.8125 10.078125 1.46875 C 10.515625 1.125 10.734375 0.75 10.734375 0.34375 C 10.734375 0.0390625 10.503906 -0.210938 10.046875 -0.421875 C 9.597656 -0.640625 8.960938 -0.863281 8.140625 -1.09375 L 8.46875 -2.515625 C 9.632812 -2.046875 10.550781 -1.726562 11.21875 -1.5625 C 11.882812 -1.394531 12.394531 -1.3125 12.75 -1.3125 C 12.988281 -1.3125 13.160156 -1.242188 13.265625 -1.109375 C 13.378906 -0.984375 13.4375 -0.832031 13.4375 -0.65625 C 13.4375 -0.46875 13.351562 -0.296875 13.1875 -0.140625 C 13.03125 0.00390625 12.828125 0.078125 12.578125 0.078125 L 11.953125 0.078125 C 11.960938 0.179688 11.972656 0.265625 11.984375 0.328125 C 12.003906 0.390625 12.015625 0.472656 12.015625 0.578125 C 12.015625 1.140625 11.757812 1.675781 11.25 2.1875 C 10.738281 2.707031 10 3.132812 9.03125 3.46875 C 8.070312 3.800781 6.921875 3.96875 5.578125 3.96875 C 4.660156 3.96875 3.820312 3.820312 3.0625 3.53125 C 2.300781 3.25 1.6875 2.8125 1.21875 2.21875 C 0.75 1.632812 0.515625 0.898438 0.515625 0.015625 Z M 6.796875 7.203125 C 6.554688 7.203125 6.351562 7.117188 6.1875 6.953125 C 6.019531 6.785156 5.9375 6.585938 5.9375 6.359375 C 5.9375 6.128906 6.019531 5.925781 6.1875 5.75 C 6.351562 5.582031 6.554688 5.5 6.796875 5.5 C 7.023438 5.5 7.222656 5.582031 7.390625 5.75 C 7.554688 5.925781 7.640625 6.128906 7.640625 6.359375 C 7.640625 6.585938 7.554688 6.785156 7.390625 6.953125 C 7.222656 7.117188 7.023438 7.203125 6.796875 7.203125 Z M 4.453125 7.203125 C 4.210938 7.203125 4.007812 7.117188 3.84375 6.953125 C 3.675781 6.785156 3.59375 6.585938 3.59375 6.359375 C 3.59375 6.128906 3.675781 5.925781 3.84375 5.75 C 4.007812 5.582031 4.210938 5.5 4.453125 5.5 C 4.679688 5.5 4.878906 5.582031 5.046875 5.75 C 5.210938 5.925781 5.296875 6.128906 5.296875 6.359375 C 5.296875 6.585938 5.210938 6.785156 5.046875 6.953125 C 4.878906 7.117188 4.679688 7.203125 4.453125 7.203125 Z M 4.453125 7.203125 "/></g></g></g><g fill="#000000" fill-opacity="1"><g transform="translate(211.477904, 142.979523)"><g><path d="M 0 0.078125 L 0.171875 -1.3125 C 0.492188 -1.3125 0.757812 -1.378906 0.96875 -1.515625 C 1.1875 -1.648438 1.398438 -1.875 1.609375 -2.1875 C 1.816406 -2.507812 2.039062 -2.941406 2.28125 -3.484375 C 2.601562 -4.210938 2.925781 -4.765625 3.25 -5.140625 C 3.582031 -5.515625 3.910156 -5.769531 4.234375 -5.90625 C 4.554688 -6.050781 4.878906 -6.125 5.203125 -6.125 C 5.585938 -6.125 5.941406 -6.019531 6.265625 -5.8125 C 6.597656 -5.613281 6.890625 -5.347656 7.140625 -5.015625 C 7.390625 -4.691406 7.585938 -4.332031 7.734375 -3.9375 C 7.878906 -3.539062 7.953125 -3.148438 7.953125 -2.765625 C 7.953125 -2.085938 7.832031 -1.546875 7.59375 -1.140625 C 7.351562 -0.734375 7.046875 -0.441406 6.671875 -0.265625 C 6.304688 -0.0859375 5.921875 0 5.515625 0 C 5.191406 0 4.773438 -0.0546875 4.265625 -0.171875 C 3.753906 -0.285156 3.117188 -0.582031 2.359375 -1.0625 C 1.992188 -0.539062 1.628906 -0.21875 1.265625 -0.09375 C 0.898438 0.0195312 0.476562 0.078125 0 0.078125 Z M 3.203125 -2.578125 C 3.128906 -2.429688 3.066406 -2.289062 3.015625 -2.15625 C 3.503906 -1.863281 3.945312 -1.664062 4.34375 -1.5625 C 4.75 -1.457031 5.09375 -1.40625 5.375 -1.40625 C 5.863281 -1.40625 6.207031 -1.507812 6.40625 -1.71875 C 6.613281 -1.9375 6.71875 -2.222656 6.71875 -2.578125 C 6.71875 -2.910156 6.632812 -3.238281 6.46875 -3.5625 C 6.3125 -3.894531 6.109375 -4.171875 5.859375 -4.390625 C 5.617188 -4.609375 5.363281 -4.71875 5.09375 -4.71875 C 4.882812 -4.71875 4.679688 -4.660156 4.484375 -4.546875 C 4.296875 -4.429688 4.097656 -4.21875 3.890625 -3.90625 C 3.691406 -3.601562 3.460938 -3.160156 3.203125 -2.578125 Z M 3.203125 -2.578125 "/></g></g></g><g fill="#000000" fill-opacity="1"><g transform="translate(220.447977, 142.979523)"><g><path d="M 2.421875 0.078125 C 2.117188 0.078125 1.8125 0.0507812 1.5 0 C 1.1875 -0.0390625 0.96875 -0.078125 0.84375 -0.109375 L 1.03125 -1.453125 C 2.050781 -1.316406 2.984375 -1.332031 3.828125 -1.5 C 4.679688 -1.664062 5.359375 -2.078125 5.859375 -2.734375 C 5.421875 -3.460938 4.753906 -4.347656 3.859375 -5.390625 C 2.972656 -6.429688 1.914062 -7.503906 0.6875 -8.609375 L 1.609375 -9.59375 C 2.816406 -8.445312 3.8125 -7.410156 4.59375 -6.484375 C 5.382812 -5.566406 6.019531 -4.765625 6.5 -4.078125 C 6.632812 -4.578125 6.710938 -5.140625 6.734375 -5.765625 L 6.5 -12.203125 L 7.890625 -12.203125 L 8.234375 -3.40625 C 8.253906 -2.84375 8.304688 -2.410156 8.390625 -2.109375 C 8.484375 -1.804688 8.679688 -1.597656 8.984375 -1.484375 C 9.285156 -1.367188 9.757812 -1.3125 10.40625 -1.3125 C 10.644531 -1.3125 10.816406 -1.242188 10.921875 -1.109375 C 11.035156 -0.984375 11.09375 -0.832031 11.09375 -0.65625 C 11.09375 -0.46875 11.007812 -0.296875 10.84375 -0.140625 C 10.6875 0.00390625 10.484375 0.078125 10.234375 0.078125 C 9.441406 0.078125 8.8125 0.00390625 8.34375 -0.140625 C 7.875 -0.296875 7.53125 -0.535156 7.3125 -0.859375 C 7.09375 -1.179688 6.953125 -1.601562 6.890625 -2.125 C 6.535156 -1.488281 6.101562 -1.007812 5.59375 -0.6875 C 5.082031 -0.375 4.546875 -0.164062 3.984375 -0.0625 C 3.429688 0.03125 2.910156 0.078125 2.421875 0.078125 Z M 2.421875 0.078125 "/></g></g></g><g fill="#000000" fill-opacity="1"><g transform="translate(230.682405, 142.979523)"><g><path d="M 0 0.078125 L 0.171875 -1.3125 C 0.535156 -1.3125 0.832031 -1.335938 1.0625 -1.390625 C 1.289062 -1.441406 1.476562 -1.570312 1.625 -1.78125 C 1.78125 -2 1.925781 -2.332031 2.0625 -2.78125 C 2.207031 -3.238281 2.367188 -3.878906 2.546875 -4.703125 L 3.828125 -4.34375 C 3.753906 -4.039062 3.671875 -3.691406 3.578125 -3.296875 C 3.492188 -2.898438 3.453125 -2.539062 3.453125 -2.21875 C 3.453125 -1.9375 3.5625 -1.710938 3.78125 -1.546875 C 4 -1.390625 4.390625 -1.3125 4.953125 -1.3125 C 5.296875 -1.3125 5.578125 -1.335938 5.796875 -1.390625 C 6.015625 -1.453125 6.191406 -1.59375 6.328125 -1.8125 C 6.472656 -2.03125 6.601562 -2.375 6.71875 -2.84375 C 6.832031 -3.320312 6.953125 -3.984375 7.078125 -4.828125 L 8.375 -4.578125 C 8.34375 -4.367188 8.300781 -4.117188 8.25 -3.828125 C 8.195312 -3.535156 8.148438 -3.242188 8.109375 -2.953125 C 8.078125 -2.660156 8.0625 -2.414062 8.0625 -2.21875 C 8.0625 -2.0625 8.097656 -1.910156 8.171875 -1.765625 C 8.253906 -1.628906 8.40625 -1.519531 8.625 -1.4375 C 8.84375 -1.351562 9.175781 -1.3125 9.625 -1.3125 C 10.113281 -1.3125 10.503906 -1.40625 10.796875 -1.59375 C 11.097656 -1.789062 11.25 -2.1875 11.25 -2.78125 C 11.25 -3.207031 11.148438 -3.75 10.953125 -4.40625 C 10.753906 -5.070312 10.523438 -5.726562 10.265625 -6.375 L 11.65625 -6.890625 C 11.789062 -6.515625 11.925781 -6.09375 12.0625 -5.625 C 12.195312 -5.164062 12.3125 -4.707031 12.40625 -4.25 C 12.5 -3.800781 12.546875 -3.40625 12.546875 -3.0625 C 12.546875 -2 12.28125 -1.207031 11.75 -0.6875 C 11.226562 -0.175781 10.515625 0.078125 9.609375 0.078125 C 8.984375 0.078125 8.488281 0 8.125 -0.15625 C 7.769531 -0.320312 7.507812 -0.582031 7.34375 -0.9375 C 7.070312 -0.519531 6.742188 -0.242188 6.359375 -0.109375 C 5.984375 0.015625 5.445312 0.078125 4.75 0.078125 C 4.507812 0.078125 4.253906 0.0507812 3.984375 0 C 3.722656 -0.0507812 3.476562 -0.160156 3.25 -0.328125 C 3.019531 -0.492188 2.84375 -0.742188 2.71875 -1.078125 C 2.425781 -0.578125 2.054688 -0.257812 1.609375 -0.125 C 1.171875 0.0078125 0.632812 0.078125 0 0.078125 Z M 0 0.078125 "/></g></g></g><g fill="#000000" fill-opacity="1"><g transform="translate(244.077714, 142.979523)"><g><path d="M 1.578125 0 L 1.234375 -12.203125 L 2.609375 -12.203125 L 2.953125 0 Z M 1.578125 0 "/></g></g></g><g fill="#000000" fill-opacity="1"><g transform="translate(115.299373, 220.546538)"><g><path d="M 0.28125 -0.3125 C 0.28125 -0.5625 0.316406 -0.878906 0.390625 -1.265625 C 0.460938 -1.660156 0.617188 -2.125 0.859375 -2.65625 L 2.21875 -2.1875 C 2.09375 -1.84375 1.992188 -1.546875 1.921875 -1.296875 C 1.859375 -1.046875 1.828125 -0.804688 1.828125 -0.578125 C 1.828125 -0.0859375 2.035156 0.296875 2.453125 0.578125 C 2.867188 0.859375 3.46875 1 4.25 1 C 5.050781 1 5.679688 0.921875 6.140625 0.765625 C 6.609375 0.617188 6.84375 0.398438 6.84375 0.109375 C 6.84375 -0.015625 6.738281 -0.140625 6.53125 -0.265625 C 6.332031 -0.390625 5.988281 -0.539062 5.5 -0.71875 L 5.859375 -2.265625 C 6.484375 -2.003906 7.050781 -1.804688 7.5625 -1.671875 C 8.082031 -1.546875 8.539062 -1.484375 8.9375 -1.484375 C 9.21875 -1.484375 9.414062 -1.410156 9.53125 -1.265625 C 9.644531 -1.128906 9.703125 -0.953125 9.703125 -0.734375 C 9.703125 -0.503906 9.625 -0.3125 9.46875 -0.15625 C 9.320312 -0.0078125 9.109375 0.0625 8.828125 0.0625 L 8.3125 0.0625 C 8.332031 0.132812 8.34375 0.195312 8.34375 0.25 C 8.34375 0.300781 8.34375 0.351562 8.34375 0.40625 C 8.34375 0.644531 8.257812 0.890625 8.09375 1.140625 C 7.925781 1.390625 7.671875 1.617188 7.328125 1.828125 C 6.984375 2.046875 6.539062 2.21875 6 2.34375 C 5.46875 2.476562 4.835938 2.546875 4.109375 2.546875 C 2.910156 2.546875 1.972656 2.316406 1.296875 1.859375 C 0.617188 1.398438 0.28125 0.675781 0.28125 -0.3125 Z M 4.203125 4.90625 C 4.003906 4.90625 3.835938 4.835938 3.703125 4.703125 C 3.566406 4.578125 3.5 4.414062 3.5 4.21875 C 3.5 4.03125 3.566406 3.863281 3.703125 3.71875 C 3.835938 3.582031 4.003906 3.515625 4.203125 3.515625 C 4.378906 3.515625 4.535156 3.582031 4.671875 3.71875 C 4.816406 3.863281 4.890625 4.03125 4.890625 4.21875 C 4.890625 4.414062 4.816406 4.578125 4.671875 4.703125 C 4.535156 4.835938 4.378906 4.90625 4.203125 4.90625 Z M 4.203125 6.796875 C 4.003906 6.796875 3.835938 6.726562 3.703125 6.59375 C 3.566406 6.46875 3.5 6.304688 3.5 6.109375 C 3.5 5.921875 3.566406 5.753906 3.703125 5.609375 C 3.835938 5.472656 4.003906 5.40625 4.203125 5.40625 C 4.378906 5.40625 4.535156 5.472656 4.671875 5.609375 C 4.816406 5.753906 4.890625 5.921875 4.890625 6.109375 C 4.890625 6.304688 4.816406 6.46875 4.671875 6.59375 C 4.535156 6.726562 4.378906 6.796875 4.203125 6.796875 Z M 4.203125 6.796875 "/></g></g></g><g fill="#000000" fill-opacity="1"><g transform="translate(124.111895, 220.546538)"><g><path d="M 0 0.0625 L 0.109375 -1.484375 C 0.390625 -1.484375 0.613281 -1.507812 0.78125 -1.5625 C 0.945312 -1.613281 1.078125 -1.71875 1.171875 -1.875 C 1.273438 -2.039062 1.359375 -2.273438 1.421875 -2.578125 C 1.492188 -2.890625 1.566406 -3.300781 1.640625 -3.8125 L 3.09375 -3.578125 C 3.0625 -3.410156 3.023438 -3.207031 2.984375 -2.96875 C 2.953125 -2.726562 2.9375 -2.507812 2.9375 -2.3125 C 2.9375 -2.132812 2.972656 -1.984375 3.046875 -1.859375 C 3.128906 -1.734375 3.269531 -1.640625 3.46875 -1.578125 C 3.664062 -1.515625 3.957031 -1.484375 4.34375 -1.484375 C 4.625 -1.484375 4.820312 -1.410156 4.9375 -1.265625 C 5.0625 -1.128906 5.125 -0.953125 5.125 -0.734375 C 5.125 -0.503906 5.046875 -0.3125 4.890625 -0.15625 C 4.742188 -0.0078125 4.523438 0.0625 4.234375 0.0625 C 3.648438 0.0625 3.191406 0 2.859375 -0.125 C 2.535156 -0.25 2.300781 -0.476562 2.15625 -0.8125 C 1.882812 -0.425781 1.5625 -0.179688 1.1875 -0.078125 C 0.820312 0.015625 0.425781 0.0625 0 0.0625 Z M 2.359375 -4.828125 C 2.128906 -4.828125 1.929688 -4.90625 1.765625 -5.0625 C 1.609375 -5.21875 1.53125 -5.410156 1.53125 -5.640625 C 1.53125 -5.859375 1.609375 -6.050781 1.765625 -6.21875 C 1.929688 -6.382812 2.128906 -6.46875 2.359375 -6.46875 C 2.578125 -6.46875 2.765625 -6.382812 2.921875 -6.21875 C 3.078125 -6.050781 3.15625 -5.859375 3.15625 -5.640625 C 3.15625 -5.410156 3.078125 -5.21875 2.921875 -5.0625 C 2.765625 -4.90625 2.578125 -4.828125 2.359375 -4.828125 Z M 2.359375 -4.828125 "/></g></g></g><g fill="#000000" fill-opacity="1"><g transform="translate(128.341906, 220.546538)"><g><path d="M 0 0.0625 L 0.109375 -1.484375 L 1.65625 -1.484375 C 2.039062 -1.484375 2.296875 -1.515625 2.421875 -1.578125 C 2.546875 -1.648438 2.609375 -1.753906 2.609375 -1.890625 C 2.609375 -2.054688 2.523438 -2.25 2.359375 -2.46875 C 2.203125 -2.6875 2.003906 -2.910156 1.765625 -3.140625 C 1.535156 -3.378906 1.300781 -3.609375 1.0625 -3.828125 C 0.832031 -4.046875 0.640625 -4.238281 0.484375 -4.40625 C 0.328125 -4.570312 0.25 -4.691406 0.25 -4.765625 C 0.25 -5.066406 0.269531 -5.28125 0.3125 -5.40625 C 0.363281 -5.539062 0.425781 -5.648438 0.5 -5.734375 C 0.675781 -5.898438 0.953125 -6.09375 1.328125 -6.3125 C 1.703125 -6.539062 2.160156 -6.785156 2.703125 -7.046875 C 3.242188 -7.304688 3.832031 -7.582031 4.46875 -7.875 L 5.09375 -6.53125 C 4.363281 -6.207031 3.75 -5.921875 3.25 -5.671875 C 2.75 -5.429688 2.328125 -5.210938 1.984375 -5.015625 C 2.472656 -4.578125 2.890625 -4.15625 3.234375 -3.75 C 3.585938 -3.34375 3.925781 -2.882812 4.25 -2.375 C 4.40625 -2.113281 4.570312 -1.921875 4.75 -1.796875 C 4.925781 -1.671875 5.09375 -1.585938 5.25 -1.546875 C 5.414062 -1.503906 5.566406 -1.484375 5.703125 -1.484375 C 5.972656 -1.484375 6.171875 -1.410156 6.296875 -1.265625 C 6.421875 -1.128906 6.484375 -0.953125 6.484375 -0.734375 C 6.484375 -0.503906 6.40625 -0.3125 6.25 -0.15625 C 6.09375 -0.0078125 5.875 0.0625 5.59375 0.0625 C 5.300781 0.0625 4.984375 0.00390625 4.640625 -0.109375 C 4.304688 -0.234375 4.019531 -0.441406 3.78125 -0.734375 C 3.550781 -0.453125 3.253906 -0.25 2.890625 -0.125 C 2.523438 0 2.078125 0.0625 1.546875 0.0625 Z M 0 0.0625 "/></g></g></g><g fill="#000000" fill-opacity="1"><g transform="translate(133.93786, 220.546538)"><g><path d="M 0 0.0625 L 0.109375 -1.484375 C 0.367188 -1.484375 0.59375 -1.507812 0.78125 -1.5625 C 0.976562 -1.613281 1.144531 -1.71875 1.28125 -1.875 C 1.414062 -2.039062 1.523438 -2.273438 1.609375 -2.578125 C 1.703125 -2.890625 1.785156 -3.300781 1.859375 -3.8125 L 3.3125 -3.578125 C 3.28125 -3.410156 3.242188 -3.207031 3.203125 -2.96875 C 3.171875 -2.726562 3.15625 -2.507812 3.15625 -2.3125 C 3.15625 -2.050781 3.265625 -1.847656 3.484375 -1.703125 C 3.703125 -1.554688 4.082031 -1.484375 4.625 -1.484375 C 4.894531 -1.484375 5.085938 -1.410156 5.203125 -1.265625 C 5.328125 -1.128906 5.390625 -0.953125 5.390625 -0.734375 C 5.390625 -0.503906 5.3125 -0.3125 5.15625 -0.15625 C 5.007812 -0.0078125 4.796875 0.0625 4.515625 0.0625 C 3.992188 0.0625 3.550781 -0.00390625 3.1875 -0.140625 C 2.820312 -0.273438 2.554688 -0.507812 2.390625 -0.84375 C 2.191406 -0.582031 1.957031 -0.382812 1.6875 -0.25 C 1.425781 -0.125 1.148438 -0.0390625 0.859375 0 C 0.566406 0.0390625 0.28125 0.0625 0 0.0625 Z M 3.078125 2.625 C 2.867188 2.625 2.6875 2.550781 2.53125 2.40625 C 2.382812 2.257812 2.3125 2.078125 2.3125 1.859375 C 2.3125 1.648438 2.382812 1.46875 2.53125 1.3125 C 2.6875 1.15625 2.867188 1.078125 3.078125 1.078125 C 3.285156 1.078125 3.460938 1.15625 3.609375 1.3125 C 3.753906 1.46875 3.828125 1.648438 3.828125 1.859375 C 3.828125 2.078125 3.753906 2.257812 3.609375 2.40625 C 3.460938 2.550781 3.285156 2.625 3.078125 2.625 Z M 1.171875 2.625 C 0.953125 2.625 0.769531 2.550781 0.625 2.40625 C 0.476562 2.257812 0.40625 2.078125 0.40625 1.859375 C 0.40625 1.648438 0.476562 1.46875 0.625 1.3125 C 0.769531 1.15625 0.953125 1.078125 1.171875 1.078125 C 1.378906 1.078125 1.554688 1.15625 1.703125 1.3125 C 1.847656 1.46875 1.921875 1.648438 1.921875 1.859375 C 1.921875 2.078125 1.847656 2.257812 1.703125 2.40625 C 1.554688 2.550781 1.378906 2.625 1.171875 2.625 Z M 1.171875 2.625 "/></g></g></g><g fill="#000000" fill-opacity="1"><g transform="translate(138.443261, 220.546538)"><g><path d="M 0 0.0625 L 0.109375 -1.484375 C 0.453125 -1.484375 0.695312 -1.519531 0.84375 -1.59375 C 0.988281 -1.664062 1.070312 -1.796875 1.09375 -1.984375 C 1.125 -2.179688 1.132812 -2.46875 1.125 -2.84375 L 0.921875 -8.078125 L 2.484375 -8.078125 L 2.703125 -2.734375 C 2.710938 -2.304688 2.691406 -1.921875 2.640625 -1.578125 C 2.597656 -1.234375 2.488281 -0.941406 2.3125 -0.703125 C 2.132812 -0.460938 1.859375 -0.273438 1.484375 -0.140625 C 1.109375 -0.00390625 0.613281 0.0625 0 0.0625 Z M 0 0.0625 "/></g></g></g><g fill="#000000" fill-opacity="1"><g transform="translate(141.714909, 220.546538)"><g/></g></g><g fill="#000000" fill-opacity="1"><g transform="translate(145.294999, 220.546538)"><g><path d="M 0.625 2.53125 L 0.3125 1 C 0.96875 0.914062 1.519531 0.804688 1.96875 0.671875 C 2.425781 0.546875 2.78125 0.34375 3.03125 0.0625 L 2.734375 0.0625 C 2.046875 0.0625 1.503906 -0.0625 1.109375 -0.3125 C 0.710938 -0.570312 0.515625 -1.007812 0.515625 -1.625 C 0.515625 -1.957031 0.570312 -2.289062 0.6875 -2.625 C 0.800781 -2.957031 0.960938 -3.257812 1.171875 -3.53125 C 1.378906 -3.8125 1.617188 -4.035156 1.890625 -4.203125 C 2.171875 -4.367188 2.472656 -4.453125 2.796875 -4.453125 C 3.222656 -4.453125 3.601562 -4.3125 3.9375 -4.03125 C 4.28125 -3.757812 4.546875 -3.398438 4.734375 -2.953125 C 4.921875 -2.503906 5.015625 -2.015625 5.015625 -1.484375 L 5.875 -1.484375 C 6.144531 -1.484375 6.34375 -1.410156 6.46875 -1.265625 C 6.59375 -1.128906 6.65625 -0.953125 6.65625 -0.734375 C 6.65625 -0.503906 6.578125 -0.3125 6.421875 -0.15625 C 6.273438 -0.0078125 6.054688 0.0625 5.765625 0.0625 L 4.75 0.0625 C 4.46875 0.820312 3.96875 1.410156 3.25 1.828125 C 2.539062 2.242188 1.664062 2.476562 0.625 2.53125 Z M 2.046875 -1.890625 C 2.046875 -1.816406 2.070312 -1.734375 2.125 -1.640625 C 2.175781 -1.554688 2.300781 -1.488281 2.5 -1.4375 C 2.695312 -1.394531 3.015625 -1.394531 3.453125 -1.4375 C 3.441406 -1.863281 3.367188 -2.195312 3.234375 -2.4375 C 3.109375 -2.6875 2.9375 -2.8125 2.71875 -2.8125 C 2.570312 -2.8125 2.445312 -2.757812 2.34375 -2.65625 C 2.238281 -2.550781 2.160156 -2.425781 2.109375 -2.28125 C 2.066406 -2.132812 2.046875 -2.003906 2.046875 -1.890625 Z M 2.046875 -1.890625 "/></g></g></g><g fill="#000000" fill-opacity="1"><g transform="translate(151.067204, 220.546538)"><g><path d="M 0 0.0625 L 0.109375 -1.484375 C 0.367188 -1.484375 0.59375 -1.507812 0.78125 -1.5625 C 0.976562 -1.613281 1.144531 -1.71875 1.28125 -1.875 C 1.414062 -2.039062 1.523438 -2.273438 1.609375 -2.578125 C 1.703125 -2.890625 1.785156 -3.300781 1.859375 -3.8125 L 3.3125 -3.578125 C 3.28125 -3.410156 3.242188 -3.207031 3.203125 -2.96875 C 3.171875 -2.726562 3.15625 -2.507812 3.15625 -2.3125 C 3.15625 -2.050781 3.265625 -1.847656 3.484375 -1.703125 C 3.703125 -1.554688 4.082031 -1.484375 4.625 -1.484375 C 4.894531 -1.484375 5.085938 -1.410156 5.203125 -1.265625 C 5.328125 -1.128906 5.390625 -0.953125 5.390625 -0.734375 C 5.390625 -0.503906 5.3125 -0.3125 5.15625 -0.15625 C 5.007812 -0.0078125 4.796875 0.0625 4.515625 0.0625 C 3.992188 0.0625 3.550781 -0.00390625 3.1875 -0.140625 C 2.820312 -0.273438 2.554688 -0.507812 2.390625 -0.84375 C 2.191406 -0.582031 1.957031 -0.382812 1.6875 -0.25 C 1.425781 -0.125 1.148438 -0.0390625 0.859375 0 C 0.566406 0.0390625 0.28125 0.0625 0 0.0625 Z M 1.625 -4.8125 C 1.414062 -4.8125 1.234375 -4.882812 1.078125 -5.03125 C 0.929688 -5.1875 0.859375 -5.367188 0.859375 -5.578125 C 0.859375 -5.796875 0.929688 -5.976562 1.078125 -6.125 C 1.234375 -6.28125 1.414062 -6.359375 1.625 -6.359375 C 1.832031 -6.359375 2.007812 -6.28125 2.15625 -6.125 C 2.300781 -5.976562 2.375 -5.796875 2.375 -5.578125 C 2.375 -5.367188 2.300781 -5.1875 2.15625 -5.03125 C 2.007812 -4.882812 1.832031 -4.8125 1.625 -4.8125 Z M 3.53125 -4.8125 C 3.320312 -4.8125 3.140625 -4.882812 2.984375 -5.03125 C 2.835938 -5.175781 2.765625 -5.351562 2.765625 -5.5625 C 2.765625 -5.78125 2.835938 -5.960938 2.984375 -6.109375 C 3.140625 -6.265625 3.320312 -6.34375 3.53125 -6.34375 C 3.738281 -6.34375 3.914062 -6.265625 4.0625 -6.109375 C 4.207031 -5.960938 4.28125 -5.78125 4.28125 -5.5625 C 4.28125 -5.351562 4.207031 -5.175781 4.0625 -5.03125 C 3.914062 -4.882812 3.738281 -4.8125 3.53125 -4.8125 Z M 3.53125 -4.8125 "/></g></g></g><g fill="#000000" fill-opacity="1"><g transform="translate(155.572605, 220.546538)"><g><path d="M 0 0.0625 L 0.109375 -1.484375 C 0.347656 -1.484375 0.546875 -1.503906 0.703125 -1.546875 C 0.859375 -1.585938 0.984375 -1.679688 1.078125 -1.828125 C 1.179688 -1.972656 1.269531 -2.1875 1.34375 -2.46875 C 1.425781 -2.757812 1.515625 -3.15625 1.609375 -3.65625 L 3.046875 -3.390625 C 3.015625 -3.234375 2.972656 -3.03125 2.921875 -2.78125 C 2.878906 -2.539062 2.859375 -2.332031 2.859375 -2.15625 C 2.859375 -1.957031 2.921875 -1.796875 3.046875 -1.671875 C 3.179688 -1.546875 3.429688 -1.484375 3.796875 -1.484375 C 3.984375 -1.484375 4.144531 -1.503906 4.28125 -1.546875 C 4.414062 -1.585938 4.53125 -1.679688 4.625 -1.828125 C 4.726562 -1.972656 4.816406 -2.195312 4.890625 -2.5 C 4.972656 -2.800781 5.050781 -3.210938 5.125 -3.734375 L 6.578125 -3.515625 C 6.535156 -3.253906 6.492188 -2.976562 6.453125 -2.6875 C 6.410156 -2.40625 6.390625 -2.191406 6.390625 -2.046875 C 6.390625 -1.890625 6.457031 -1.753906 6.59375 -1.640625 C 6.726562 -1.535156 7 -1.484375 7.40625 -1.484375 C 8.0625 -1.484375 8.390625 -1.773438 8.390625 -2.359375 C 8.390625 -2.609375 8.378906 -2.894531 8.359375 -3.21875 C 8.335938 -3.539062 8.296875 -3.9375 8.234375 -4.40625 L 9.65625 -4.515625 C 9.707031 -3.890625 9.765625 -3.375 9.828125 -2.96875 C 9.898438 -2.570312 9.992188 -2.265625 10.109375 -2.046875 C 10.222656 -1.835938 10.375 -1.691406 10.5625 -1.609375 C 10.757812 -1.523438 11.019531 -1.484375 11.34375 -1.484375 C 11.625 -1.484375 11.820312 -1.410156 11.9375 -1.265625 C 12.0625 -1.128906 12.125 -0.953125 12.125 -0.734375 C 12.125 -0.503906 12.046875 -0.3125 11.890625 -0.15625 C 11.742188 -0.0078125 11.523438 0.0625 11.234375 0.0625 C 10.984375 0.0625 10.726562 0.0351562 10.46875 -0.015625 C 10.21875 -0.0664062 9.976562 -0.171875 9.75 -0.328125 C 9.53125 -0.492188 9.351562 -0.738281 9.21875 -1.0625 C 9.050781 -0.613281 8.8125 -0.3125 8.5 -0.15625 C 8.195312 -0.0078125 7.796875 0.0625 7.296875 0.0625 C 6.910156 0.0625 6.570312 0 6.28125 -0.125 C 6 -0.25 5.800781 -0.457031 5.6875 -0.75 C 5.539062 -0.507812 5.378906 -0.332031 5.203125 -0.21875 C 5.023438 -0.113281 4.816406 -0.0390625 4.578125 0 C 4.335938 0.0390625 4.050781 0.0625 3.71875 0.0625 C 3.519531 0.0625 3.320312 0.046875 3.125 0.015625 C 2.925781 -0.015625 2.738281 -0.0820312 2.5625 -0.1875 C 2.394531 -0.300781 2.253906 -0.472656 2.140625 -0.703125 C 1.890625 -0.367188 1.582031 -0.15625 1.21875 -0.0625 C 0.863281 0.0195312 0.457031 0.0625 0 0.0625 Z M 5.015625 2.578125 C 4.796875 2.578125 4.609375 2.503906 4.453125 2.359375 C 4.304688 2.210938 4.234375 2.035156 4.234375 1.828125 C 4.234375 1.609375 4.304688 1.421875 4.453125 1.265625 C 4.609375 1.109375 4.796875 1.03125 5.015625 1.03125 C 5.222656 1.03125 5.398438 1.109375 5.546875 1.265625 C 5.703125 1.421875 5.78125 1.609375 5.78125 1.828125 C 5.78125 2.035156 5.703125 2.210938 5.546875 2.359375 C 5.398438 2.503906 5.222656 2.578125 5.015625 2.578125 Z M 5.59375 -5.3125 C 5.363281 -5.3125 5.164062 -5.390625 5 -5.546875 C 4.84375 -5.703125 4.765625 -5.894531 4.765625 -6.125 C 4.765625 -6.34375 4.84375 -6.535156 5 -6.703125 C 5.164062 -6.867188 5.363281 -6.953125 5.59375 -6.953125 C 5.8125 -6.953125 6 -6.867188 6.15625 -6.703125 C 6.3125 -6.535156 6.390625 -6.34375 6.390625 -6.125 C 6.390625 -5.894531 6.3125 -5.703125 6.15625 -5.546875 C 6 -5.390625 5.8125 -5.3125 5.59375 -5.3125 Z M 5.59375 -5.3125 "/></g></g></g><g fill="#000000" fill-opacity="1"><g transform="translate(166.797553, 220.546538)"><g><path d="M 0 0.0625 L 0.109375 -1.484375 C 0.546875 -1.484375 0.882812 -1.503906 1.125 -1.546875 C 1.363281 -1.597656 1.523438 -1.679688 1.609375 -1.796875 C 1.703125 -1.921875 1.75 -2.097656 1.75 -2.328125 C 1.75 -2.535156 1.722656 -2.78125 1.671875 -3.0625 C 1.617188 -3.351562 1.546875 -3.648438 1.453125 -3.953125 C 1.367188 -4.253906 1.28125 -4.539062 1.1875 -4.8125 L 2.71875 -5.234375 C 2.800781 -4.984375 2.890625 -4.691406 2.984375 -4.359375 C 3.078125 -4.023438 3.148438 -3.679688 3.203125 -3.328125 C 3.265625 -2.972656 3.296875 -2.640625 3.296875 -2.328125 C 3.296875 -1.828125 3.210938 -1.421875 3.046875 -1.109375 C 2.890625 -0.796875 2.664062 -0.550781 2.375 -0.375 C 2.082031 -0.207031 1.734375 -0.09375 1.328125 -0.03125 C 0.929688 0.03125 0.488281 0.0625 0 0.0625 Z M 0.90625 2.484375 C 0.71875 2.484375 0.554688 2.414062 0.421875 2.28125 C 0.285156 2.144531 0.21875 1.984375 0.21875 1.796875 C 0.21875 1.597656 0.285156 1.429688 0.421875 1.296875 C 0.554688 1.160156 0.71875 1.09375 0.90625 1.09375 C 1.09375 1.09375 1.253906 1.160156 1.390625 1.296875 C 1.523438 1.429688 1.59375 1.597656 1.59375 1.796875 C 1.59375 1.984375 1.523438 2.144531 1.390625 2.28125 C 1.253906 2.414062 1.09375 2.484375 0.90625 2.484375 Z M 2.625 2.484375 C 2.4375 2.484375 2.273438 2.414062 2.140625 2.28125 C 2.003906 2.144531 1.9375 1.984375 1.9375 1.796875 C 1.9375 1.597656 2.003906 1.429688 2.140625 1.296875 C 2.273438 1.160156 2.4375 1.09375 2.625 1.09375 C 2.820312 1.09375 2.984375 1.160156 3.109375 1.296875 C 3.242188 1.429688 3.3125 1.597656 3.3125 1.796875 C 3.3125 1.984375 3.242188 2.144531 3.109375 2.28125 C 2.984375 2.414062 2.820312 2.484375 2.625 2.484375 Z M 1.75 3.9375 C 1.550781 3.9375 1.382812 3.867188 1.25 3.734375 C 1.113281 3.597656 1.046875 3.4375 1.046875 3.25 C 1.046875 3.0625 1.113281 2.894531 1.25 2.75 C 1.382812 2.613281 1.550781 2.546875 1.75 2.546875 C 1.9375 2.546875 2.097656 2.613281 2.234375 2.75 C 2.367188 2.894531 2.4375 3.0625 2.4375 3.25 C 2.4375 3.4375 2.367188 3.597656 2.234375 3.734375 C 2.097656 3.867188 1.9375 3.9375 1.75 3.9375 Z M 1.75 3.9375 "/></g></g></g><g fill="#000000" fill-opacity="1"><g transform="translate(170.752174, 220.546538)"><g/></g></g><g fill="#000000" fill-opacity="1"><g transform="translate(174.332263, 220.546538)"><g><path d="M 0.28125 -0.3125 C 0.28125 -0.5625 0.316406 -0.878906 0.390625 -1.265625 C 0.460938 -1.660156 0.617188 -2.125 0.859375 -2.65625 L 2.21875 -2.1875 C 2.09375 -1.84375 1.992188 -1.546875 1.921875 -1.296875 C 1.859375 -1.046875 1.828125 -0.804688 1.828125 -0.578125 C 1.828125 -0.0234375 2.007812 0.375 2.375 0.625 C 2.738281 0.875 3.222656 1 3.828125 1 C 4.285156 1 4.660156 0.9375 4.953125 0.8125 C 5.242188 0.695312 5.46875 0.539062 5.625 0.34375 C 5.789062 0.15625 5.90625 -0.0507812 5.96875 -0.28125 C 6.039062 -0.519531 6.078125 -0.75 6.078125 -0.96875 C 6.078125 -1.257812 6.023438 -1.613281 5.921875 -2.03125 C 5.816406 -2.457031 5.632812 -2.929688 5.375 -3.453125 L 6.796875 -4.0625 C 6.941406 -3.800781 7.078125 -3.5 7.203125 -3.15625 C 7.328125 -2.8125 7.425781 -2.457031 7.5 -2.09375 C 7.582031 -1.726562 7.625 -1.378906 7.625 -1.046875 C 7.625 -0.753906 7.585938 -0.441406 7.515625 -0.109375 C 7.441406 0.210938 7.316406 0.53125 7.140625 0.84375 C 6.972656 1.164062 6.738281 1.453125 6.4375 1.703125 C 6.144531 1.953125 5.78125 2.15625 5.34375 2.3125 C 4.914062 2.46875 4.398438 2.546875 3.796875 2.546875 C 3.148438 2.546875 2.5625 2.445312 2.03125 2.25 C 1.5 2.0625 1.070312 1.753906 0.75 1.328125 C 0.4375 0.910156 0.28125 0.363281 0.28125 -0.3125 Z M 3.890625 -4.5 C 3.660156 -4.5 3.460938 -4.578125 3.296875 -4.734375 C 3.140625 -4.890625 3.0625 -5.082031 3.0625 -5.3125 C 3.0625 -5.53125 3.140625 -5.722656 3.296875 -5.890625 C 3.460938 -6.054688 3.660156 -6.140625 3.890625 -6.140625 C 4.109375 -6.140625 4.296875 -6.054688 4.453125 -5.890625 C 4.609375 -5.722656 4.6875 -5.53125 4.6875 -5.3125 C 4.6875 -5.082031 4.609375 -4.890625 4.453125 -4.734375 C 4.296875 -4.578125 4.109375 -4.5 3.890625 -4.5 Z M 3.890625 -4.5 "/></g></g></g><g fill="#000000" fill-opacity="1"><g transform="translate(182.494864, 220.546538)"><g><path d="M 3.5 0.0625 C 2.8125 0.0625 2.28125 -0.00390625 1.90625 -0.140625 C 1.539062 -0.285156 1.28125 -0.503906 1.125 -0.796875 C 0.976562 -1.097656 0.894531 -1.476562 0.875 -1.9375 L 0.65625 -8.078125 L 2.1875 -8.078125 L 2.421875 -2.6875 C 2.441406 -2.34375 2.476562 -2.085938 2.53125 -1.921875 C 2.59375 -1.753906 2.703125 -1.640625 2.859375 -1.578125 C 3.023438 -1.515625 3.273438 -1.484375 3.609375 -1.484375 C 3.878906 -1.484375 4.078125 -1.410156 4.203125 -1.265625 C 4.328125 -1.128906 4.390625 -0.953125 4.390625 -0.734375 C 4.390625 -0.503906 4.3125 -0.3125 4.15625 -0.15625 C 4 -0.0078125 3.78125 0.0625 3.5 0.0625 Z M 3.5 0.0625 "/></g></g></g><g fill="#000000" fill-opacity="1"><g transform="translate(185.997843, 220.546538)"><g><path d="M 0 0.0625 L 0.109375 -1.484375 C 0.898438 -1.484375 1.671875 -1.570312 2.421875 -1.75 C 3.171875 -1.925781 3.835938 -2.210938 4.421875 -2.609375 C 4.085938 -2.804688 3.710938 -2.957031 3.296875 -3.0625 C 2.890625 -3.175781 2.445312 -3.234375 1.96875 -3.234375 C 1.78125 -3.234375 1.585938 -3.222656 1.390625 -3.203125 C 1.203125 -3.179688 1.007812 -3.148438 0.8125 -3.109375 L 0.578125 -4.625 C 0.796875 -4.675781 1.019531 -4.710938 1.25 -4.734375 C 1.488281 -4.765625 1.703125 -4.78125 1.890625 -4.78125 C 2.390625 -4.78125 2.835938 -4.710938 3.234375 -4.578125 C 3.640625 -4.453125 4.003906 -4.300781 4.328125 -4.125 C 4.660156 -3.945312 4.96875 -3.789062 5.25 -3.65625 C 5.53125 -3.53125 5.804688 -3.46875 6.078125 -3.46875 L 6.484375 -3.46875 L 6.65625 -2 C 6.332031 -1.976562 6.035156 -1.914062 5.765625 -1.8125 C 5.492188 -1.707031 5.222656 -1.578125 4.953125 -1.421875 C 4.691406 -1.265625 4.40625 -1.097656 4.09375 -0.921875 C 3.789062 -0.753906 3.445312 -0.597656 3.0625 -0.453125 C 2.6875 -0.304688 2.25 -0.179688 1.75 -0.078125 C 1.25 0.015625 0.664062 0.0625 0 0.0625 Z M 1.921875 -5.8125 C 1.691406 -5.8125 1.492188 -5.890625 1.328125 -6.046875 C 1.171875 -6.203125 1.09375 -6.394531 1.09375 -6.625 C 1.09375 -6.84375 1.171875 -7.035156 1.328125 -7.203125 C 1.492188 -7.367188 1.691406 -7.453125 1.921875 -7.453125 C 2.140625 -7.453125 2.328125 -7.367188 2.484375 -7.203125 C 2.640625 -7.035156 2.71875 -6.84375 2.71875 -6.625 C 2.71875 -6.394531 2.640625 -6.203125 2.484375 -6.046875 C 2.328125 -5.890625 2.140625 -5.8125 1.921875 -5.8125 Z M 1.921875 -5.8125 "/></g></g></g><g fill="#000000" fill-opacity="1"><g transform="translate(192.926691, 220.546538)"><g/></g></g><g fill="#000000" fill-opacity="1"><g transform="translate(196.50678, 220.546538)"><g><path d="M 0.28125 -0.3125 C 0.28125 -0.5625 0.316406 -0.878906 0.390625 -1.265625 C 0.460938 -1.660156 0.617188 -2.125 0.859375 -2.65625 L 2.21875 -2.1875 C 2.09375 -1.84375 1.992188 -1.546875 1.921875 -1.296875 C 1.859375 -1.046875 1.828125 -0.804688 1.828125 -0.578125 C 1.828125 -0.078125 1.992188 0.304688 2.328125 0.578125 C 2.671875 0.859375 3.171875 1 3.828125 1 C 4.410156 1 4.867188 0.914062 5.203125 0.75 C 5.535156 0.582031 5.765625 0.351562 5.890625 0.0625 C 6.023438 -0.21875 6.09375 -0.53125 6.09375 -0.875 C 6.09375 -1.175781 6.039062 -1.539062 5.9375 -1.96875 C 5.832031 -2.394531 5.695312 -2.867188 5.53125 -3.390625 L 7.078125 -3.78125 C 7.171875 -3.351562 7.25 -3.019531 7.3125 -2.78125 C 7.375 -2.550781 7.425781 -2.378906 7.46875 -2.265625 C 7.582031 -1.929688 7.753906 -1.71875 7.984375 -1.625 C 8.222656 -1.53125 8.554688 -1.484375 8.984375 -1.484375 C 9.265625 -1.484375 9.460938 -1.410156 9.578125 -1.265625 C 9.703125 -1.128906 9.765625 -0.953125 9.765625 -0.734375 C 9.765625 -0.503906 9.6875 -0.3125 9.53125 -0.15625 C 9.375 -0.0078125 9.15625 0.0625 8.875 0.0625 C 8.632812 0.0625 8.394531 0.03125 8.15625 -0.03125 C 7.925781 -0.09375 7.726562 -0.203125 7.5625 -0.359375 C 7.457031 0.566406 7.070312 1.28125 6.40625 1.78125 C 5.75 2.289062 4.875 2.546875 3.78125 2.546875 C 3.125 2.546875 2.53125 2.445312 2 2.25 C 1.476562 2.0625 1.0625 1.753906 0.75 1.328125 C 0.4375 0.910156 0.28125 0.363281 0.28125 -0.3125 Z M 3.890625 -4.5 C 3.660156 -4.5 3.460938 -4.578125 3.296875 -4.734375 C 3.140625 -4.890625 3.0625 -5.082031 3.0625 -5.3125 C 3.0625 -5.53125 3.140625 -5.722656 3.296875 -5.890625 C 3.460938 -6.054688 3.660156 -6.140625 3.890625 -6.140625 C 4.109375 -6.140625 4.296875 -6.054688 4.453125 -5.890625 C 4.609375 -5.722656 4.6875 -5.53125 4.6875 -5.3125 C 4.6875 -5.082031 4.609375 -4.890625 4.453125 -4.734375 C 4.296875 -4.578125 4.109375 -4.5 3.890625 -4.5 Z M 3.890625 -4.5 "/></g></g></g><g fill="#000000" fill-opacity="1"><g transform="translate(205.374383, 220.546538)"><g><path d="M 0 0.0625 L 0.109375 -1.484375 C 0.546875 -1.484375 0.882812 -1.503906 1.125 -1.546875 C 1.363281 -1.597656 1.523438 -1.679688 1.609375 -1.796875 C 1.703125 -1.921875 1.75 -2.097656 1.75 -2.328125 C 1.75 -2.535156 1.722656 -2.78125 1.671875 -3.0625 C 1.617188 -3.351562 1.546875 -3.648438 1.453125 -3.953125 C 1.367188 -4.253906 1.28125 -4.539062 1.1875 -4.8125 L 2.71875 -5.234375 C 2.800781 -4.984375 2.890625 -4.691406 2.984375 -4.359375 C 3.078125 -4.023438 3.148438 -3.679688 3.203125 -3.328125 C 3.265625 -2.972656 3.296875 -2.640625 3.296875 -2.328125 C 3.296875 -1.828125 3.210938 -1.421875 3.046875 -1.109375 C 2.890625 -0.796875 2.664062 -0.550781 2.375 -0.375 C 2.082031 -0.207031 1.734375 -0.09375 1.328125 -0.03125 C 0.929688 0.03125 0.488281 0.0625 0 0.0625 Z M 2.71875 2.625 C 2.507812 2.625 2.328125 2.550781 2.171875 2.40625 C 2.023438 2.257812 1.953125 2.078125 1.953125 1.859375 C 1.953125 1.648438 2.023438 1.46875 2.171875 1.3125 C 2.328125 1.15625 2.507812 1.078125 2.71875 1.078125 C 2.925781 1.078125 3.101562 1.15625 3.25 1.3125 C 3.394531 1.46875 3.46875 1.648438 3.46875 1.859375 C 3.46875 2.078125 3.394531 2.257812 3.25 2.40625 C 3.101562 2.550781 2.925781 2.625 2.71875 2.625 Z M 0.8125 2.625 C 0.59375 2.625 0.410156 2.550781 0.265625 2.40625 C 0.117188 2.257812 0.046875 2.078125 0.046875 1.859375 C 0.046875 1.648438 0.117188 1.46875 0.265625 1.3125 C 0.410156 1.15625 0.59375 1.078125 0.8125 1.078125 C 1.019531 1.078125 1.195312 1.15625 1.34375 1.3125 C 1.488281 1.46875 1.5625 1.648438 1.5625 1.859375 C 1.5625 2.078125 1.488281 2.257812 1.34375 2.40625 C 1.195312 2.550781 1.019531 2.625 0.8125 2.625 Z M 0.8125 2.625 "/></g></g></g><g fill="#000000" fill-opacity="1"><g transform="translate(209.329003, 220.546538)"><g><path d="M 2.40625 -1.484375 C 2.894531 -1.484375 3.21875 -1.546875 3.375 -1.671875 C 3.539062 -1.804688 3.625 -1.957031 3.625 -2.125 C 3.625 -2.289062 3.570312 -2.492188 3.46875 -2.734375 C 3.375 -2.972656 3.253906 -3.21875 3.109375 -3.46875 C 2.960938 -3.726562 2.804688 -3.972656 2.640625 -4.203125 C 2.484375 -4.441406 2.347656 -4.648438 2.234375 -4.828125 L 3.546875 -5.703125 C 4.023438 -5.066406 4.398438 -4.445312 4.671875 -3.84375 C 4.941406 -3.25 5.125 -2.757812 5.21875 -2.375 C 5.300781 -2.03125 5.453125 -1.796875 5.671875 -1.671875 C 5.898438 -1.546875 6.140625 -1.484375 6.390625 -1.484375 C 6.671875 -1.484375 6.875 -1.410156 7 -1.265625 C 7.125 -1.128906 7.1875 -0.953125 7.1875 -0.734375 C 7.1875 -0.503906 7.109375 -0.3125 6.953125 -0.15625 C 6.804688 -0.0078125 6.582031 0.0625 6.28125 0.0625 C 5.59375 0.0625 5.082031 -0.148438 4.75 -0.578125 C 4.550781 -0.390625 4.269531 -0.234375 3.90625 -0.109375 C 3.539062 0.00390625 3.113281 0.0625 2.625 0.0625 C 2.289062 0.0625 1.910156 0.0234375 1.484375 -0.046875 C 1.066406 -0.128906 0.703125 -0.257812 0.390625 -0.4375 L 0.921875 -1.84375 C 1.191406 -1.71875 1.453125 -1.625 1.703125 -1.5625 C 1.960938 -1.507812 2.195312 -1.484375 2.40625 -1.484375 Z M 2.40625 -1.484375 "/></g></g></g><g fill="#000000" fill-opacity="1"><g transform="translate(215.618938, 220.546538)"><g><path d="M 0 0.0625 L 0.109375 -1.484375 C 0.453125 -1.484375 0.695312 -1.519531 0.84375 -1.59375 C 0.988281 -1.664062 1.070312 -1.796875 1.09375 -1.984375 C 1.125 -2.179688 1.132812 -2.46875 1.125 -2.84375 L 0.921875 -8.078125 L 2.484375 -8.078125 L 2.703125 -2.734375 C 2.710938 -2.304688 2.691406 -1.921875 2.640625 -1.578125 C 2.597656 -1.234375 2.488281 -0.941406 2.3125 -0.703125 C 2.132812 -0.460938 1.859375 -0.273438 1.484375 -0.140625 C 1.109375 -0.00390625 0.613281 0.0625 0 0.0625 Z M 0 0.0625 "/></g></g></g><g fill="#000000" fill-opacity="1"><g transform="translate(218.890587, 220.546538)"><g><path d="M 0.875 0 L 0.65625 -8.078125 L 2.1875 -8.078125 L 2.421875 0 Z M 0.875 0 "/></g></g></g><g fill="#000000" fill-opacity="1"><g transform="translate(221.897865, 220.546538)"><g><path d="M 2.40625 -1.484375 C 2.894531 -1.484375 3.21875 -1.546875 3.375 -1.671875 C 3.539062 -1.804688 3.625 -1.957031 3.625 -2.125 C 3.625 -2.289062 3.570312 -2.492188 3.46875 -2.734375 C 3.375 -2.972656 3.253906 -3.21875 3.109375 -3.46875 C 2.960938 -3.726562 2.804688 -3.972656 2.640625 -4.203125 C 2.484375 -4.441406 2.347656 -4.648438 2.234375 -4.828125 L 3.546875 -5.703125 C 4.023438 -5.066406 4.398438 -4.445312 4.671875 -3.84375 C 4.941406 -3.25 5.125 -2.757812 5.21875 -2.375 C 5.300781 -2.03125 5.453125 -1.796875 5.671875 -1.671875 C 5.898438 -1.546875 6.140625 -1.484375 6.390625 -1.484375 C 6.671875 -1.484375 6.875 -1.410156 7 -1.265625 C 7.125 -1.128906 7.1875 -0.953125 7.1875 -0.734375 C 7.1875 -0.503906 7.109375 -0.3125 6.953125 -0.15625 C 6.804688 -0.0078125 6.582031 0.0625 6.28125 0.0625 C 5.59375 0.0625 5.082031 -0.148438 4.75 -0.578125 C 4.550781 -0.390625 4.269531 -0.234375 3.90625 -0.109375 C 3.539062 0.00390625 3.113281 0.0625 2.625 0.0625 C 2.289062 0.0625 1.910156 0.0234375 1.484375 -0.046875 C 1.066406 -0.128906 0.703125 -0.257812 0.390625 -0.4375 L 0.921875 -1.84375 C 1.191406 -1.71875 1.453125 -1.625 1.703125 -1.5625 C 1.960938 -1.507812 2.195312 -1.484375 2.40625 -1.484375 Z M 2.40625 -1.484375 "/></g></g></g><g fill="#000000" fill-opacity="1"><g transform="translate(228.1878, 220.546538)"><g><path d="M 0 0.0625 L 0.109375 -1.484375 C 0.367188 -1.484375 0.59375 -1.507812 0.78125 -1.5625 C 0.976562 -1.613281 1.144531 -1.71875 1.28125 -1.875 C 1.414062 -2.039062 1.523438 -2.273438 1.609375 -2.578125 C 1.703125 -2.890625 1.785156 -3.300781 1.859375 -3.8125 L 3.3125 -3.578125 C 3.28125 -3.410156 3.242188 -3.207031 3.203125 -2.96875 C 3.171875 -2.726562 3.15625 -2.507812 3.15625 -2.3125 C 3.15625 -2.050781 3.265625 -1.847656 3.484375 -1.703125 C 3.703125 -1.554688 4.082031 -1.484375 4.625 -1.484375 C 4.894531 -1.484375 5.085938 -1.410156 5.203125 -1.265625 C 5.328125 -1.128906 5.390625 -0.953125 5.390625 -0.734375 C 5.390625 -0.503906 5.3125 -0.3125 5.15625 -0.15625 C 5.007812 -0.0078125 4.796875 0.0625 4.515625 0.0625 C 3.992188 0.0625 3.550781 -0.00390625 3.1875 -0.140625 C 2.820312 -0.273438 2.554688 -0.507812 2.390625 -0.84375 C 2.191406 -0.582031 1.957031 -0.382812 1.6875 -0.25 C 1.425781 -0.125 1.148438 -0.0390625 0.859375 0 C 0.566406 0.0390625 0.28125 0.0625 0 0.0625 Z M 3.078125 2.625 C 2.867188 2.625 2.6875 2.550781 2.53125 2.40625 C 2.382812 2.257812 2.3125 2.078125 2.3125 1.859375 C 2.3125 1.648438 2.382812 1.46875 2.53125 1.3125 C 2.6875 1.15625 2.867188 1.078125 3.078125 1.078125 C 3.285156 1.078125 3.460938 1.15625 3.609375 1.3125 C 3.753906 1.46875 3.828125 1.648438 3.828125 1.859375 C 3.828125 2.078125 3.753906 2.257812 3.609375 2.40625 C 3.460938 2.550781 3.285156 2.625 3.078125 2.625 Z M 1.171875 2.625 C 0.953125 2.625 0.769531 2.550781 0.625 2.40625 C 0.476562 2.257812 0.40625 2.078125 0.40625 1.859375 C 0.40625 1.648438 0.476562 1.46875 0.625 1.3125 C 0.769531 1.15625 0.953125 1.078125 1.171875 1.078125 C 1.378906 1.078125 1.554688 1.15625 1.703125 1.3125 C 1.847656 1.46875 1.921875 1.648438 1.921875 1.859375 C 1.921875 2.078125 1.847656 2.257812 1.703125 2.40625 C 1.554688 2.550781 1.378906 2.625 1.171875 2.625 Z M 1.171875 2.625 "/></g></g></g><g fill="#000000" fill-opacity="1"><g transform="translate(232.693202, 220.546538)"><g><path d="M 0 0.0625 L 0.109375 -1.484375 C 0.898438 -1.484375 1.671875 -1.570312 2.421875 -1.75 C 3.171875 -1.925781 3.835938 -2.210938 4.421875 -2.609375 C 4.085938 -2.804688 3.710938 -2.957031 3.296875 -3.0625 C 2.890625 -3.175781 2.445312 -3.234375 1.96875 -3.234375 C 1.78125 -3.234375 1.585938 -3.222656 1.390625 -3.203125 C 1.203125 -3.179688 1.007812 -3.148438 0.8125 -3.109375 L 0.578125 -4.625 C 0.796875 -4.675781 1.019531 -4.710938 1.25 -4.734375 C 1.488281 -4.765625 1.703125 -4.78125 1.890625 -4.78125 C 2.390625 -4.78125 2.835938 -4.710938 3.234375 -4.578125 C 3.640625 -4.453125 4.003906 -4.300781 4.328125 -4.125 C 4.660156 -3.945312 4.96875 -3.789062 5.25 -3.65625 C 5.53125 -3.53125 5.804688 -3.46875 6.078125 -3.46875 L 6.484375 -3.46875 L 6.65625 -2 C 6.332031 -1.976562 6.035156 -1.914062 5.765625 -1.8125 C 5.492188 -1.707031 5.222656 -1.578125 4.953125 -1.421875 C 4.691406 -1.265625 4.40625 -1.097656 4.09375 -0.921875 C 3.789062 -0.753906 3.445312 -0.597656 3.0625 -0.453125 C 2.6875 -0.304688 2.25 -0.179688 1.75 -0.078125 C 1.25 0.015625 0.664062 0.0625 0 0.0625 Z M 0 0.0625 "/></g></g></g><g fill="#000000" fill-opacity="1"><g transform="translate(239.62205, 220.546538)"><g><path d="M 0.625 2.53125 L 0.3125 1 C 1.019531 0.90625 1.609375 0.785156 2.078125 0.640625 C 2.554688 0.503906 2.910156 0.265625 3.140625 -0.078125 C 3.035156 -0.0351562 2.921875 -0.00390625 2.796875 0.015625 C 2.671875 0.0351562 2.539062 0.046875 2.40625 0.046875 C 2.050781 0.046875 1.734375 -0.0078125 1.453125 -0.125 C 1.171875 -0.238281 0.941406 -0.414062 0.765625 -0.65625 C 0.597656 -0.90625 0.515625 -1.222656 0.515625 -1.609375 C 0.515625 -1.972656 0.570312 -2.320312 0.6875 -2.65625 C 0.8125 -3 0.976562 -3.300781 1.1875 -3.5625 C 1.394531 -3.832031 1.632812 -4.046875 1.90625 -4.203125 C 2.1875 -4.367188 2.484375 -4.453125 2.796875 -4.453125 C 3.148438 -4.453125 3.46875 -4.359375 3.75 -4.171875 C 4.03125 -3.984375 4.257812 -3.738281 4.4375 -3.4375 C 4.625 -3.144531 4.765625 -2.828125 4.859375 -2.484375 C 4.960938 -2.140625 5.015625 -1.804688 5.015625 -1.484375 C 5.015625 -0.660156 4.835938 0.0390625 4.484375 0.625 C 4.128906 1.207031 3.625 1.65625 2.96875 1.96875 C 2.3125 2.289062 1.53125 2.476562 0.625 2.53125 Z M 2.046875 -1.921875 C 2.046875 -1.609375 2.273438 -1.453125 2.734375 -1.453125 C 2.972656 -1.453125 3.210938 -1.488281 3.453125 -1.5625 C 3.441406 -1.757812 3.40625 -1.953125 3.34375 -2.140625 C 3.289062 -2.335938 3.210938 -2.5 3.109375 -2.625 C 3.003906 -2.75 2.875 -2.8125 2.71875 -2.8125 C 2.519531 -2.8125 2.359375 -2.710938 2.234375 -2.515625 C 2.109375 -2.328125 2.046875 -2.128906 2.046875 -1.921875 Z M 2.046875 -1.921875 "/></g></g></g><g fill="#000000" fill-opacity="1"><g transform="translate(245.107842, 220.546538)"><g/></g></g><g fill="#000000" fill-opacity="1"><g transform="translate(248.687936, 220.546538)"><g><path d="M 3.5 0.0625 C 2.8125 0.0625 2.28125 -0.00390625 1.90625 -0.140625 C 1.539062 -0.285156 1.28125 -0.503906 1.125 -0.796875 C 0.976562 -1.097656 0.894531 -1.476562 0.875 -1.9375 L 0.65625 -8.078125 L 2.1875 -8.078125 L 2.421875 -2.6875 C 2.441406 -2.34375 2.476562 -2.085938 2.53125 -1.921875 C 2.59375 -1.753906 2.703125 -1.640625 2.859375 -1.578125 C 3.023438 -1.515625 3.273438 -1.484375 3.609375 -1.484375 C 3.878906 -1.484375 4.078125 -1.410156 4.203125 -1.265625 C 4.328125 -1.128906 4.390625 -0.953125 4.390625 -0.734375 C 4.390625 -0.503906 4.3125 -0.3125 4.15625 -0.15625 C 4 -0.0078125 3.78125 0.0625 3.5 0.0625 Z M 3.5 0.0625 "/></g></g></g><g fill="#000000" fill-opacity="1"><g transform="translate(252.190915, 220.546538)"><g><path d="M 0 0.0625 L 0.109375 -1.484375 C 0.585938 -1.484375 0.921875 -1.535156 1.109375 -1.640625 C 1.304688 -1.753906 1.40625 -1.984375 1.40625 -2.328125 C 1.40625 -2.535156 1.375 -2.78125 1.3125 -3.0625 C 1.257812 -3.351562 1.1875 -3.648438 1.09375 -3.953125 C 1.007812 -4.253906 0.925781 -4.539062 0.84375 -4.8125 L 2.359375 -5.234375 C 2.453125 -4.984375 2.539062 -4.691406 2.625 -4.359375 C 2.707031 -4.023438 2.78125 -3.679688 2.84375 -3.328125 C 2.914062 -2.972656 2.953125 -2.640625 2.953125 -2.328125 C 2.953125 -1.828125 2.875 -1.421875 2.71875 -1.109375 C 2.5625 -0.796875 2.34375 -0.550781 2.0625 -0.375 C 1.789062 -0.207031 1.476562 -0.09375 1.125 -0.03125 C 0.769531 0.03125 0.394531 0.0625 0 0.0625 Z M 1.59375 -6.140625 C 1.363281 -6.140625 1.164062 -6.21875 1 -6.375 C 0.84375 -6.53125 0.765625 -6.722656 0.765625 -6.953125 C 0.765625 -7.171875 0.84375 -7.363281 1 -7.53125 C 1.164062 -7.695312 1.363281 -7.78125 1.59375 -7.78125 C 1.8125 -7.78125 2 -7.695312 2.15625 -7.53125 C 2.3125 -7.363281 2.390625 -7.171875 2.390625 -6.953125 C 2.390625 -6.722656 2.3125 -6.53125 2.15625 -6.375 C 2 -6.21875 1.8125 -6.140625 1.59375 -6.140625 Z M 1.59375 -6.140625 "/></g></g></g><g fill="#000000" fill-opacity="1"><g transform="translate(255.682874, 220.546538)"><g><path d="M 4.34375 -5.90625 C 4.34375 -6.28125 4.316406 -6.644531 4.265625 -7 C 4.210938 -7.351562 4.160156 -7.648438 4.109375 -7.890625 L 5.65625 -8.125 C 5.675781 -7.96875 5.703125 -7.769531 5.734375 -7.53125 C 5.773438 -7.289062 5.804688 -7.035156 5.828125 -6.765625 C 5.847656 -6.492188 5.859375 -6.238281 5.859375 -6 C 5.859375 -5.125 5.675781 -4.351562 5.3125 -3.6875 C 5.738281 -3.238281 6.023438 -2.84375 6.171875 -2.5 C 6.316406 -2.164062 6.390625 -1.875 6.390625 -1.625 C 6.390625 -1.332031 6.328125 -1.0625 6.203125 -0.8125 C 6.078125 -0.570312 5.878906 -0.375 5.609375 -0.21875 C 5.335938 -0.0703125 4.972656 0 4.515625 0 L 1.28125 0 L 1.28125 -1.484375 C 2.25 -2.179688 2.976562 -2.84375 3.46875 -3.46875 C 3.070312 -3.789062 2.613281 -4.132812 2.09375 -4.5 C 1.582031 -4.863281 1.03125 -5.234375 0.4375 -5.609375 L 1.25 -6.78125 C 1.863281 -6.394531 2.410156 -6.035156 2.890625 -5.703125 C 3.378906 -5.367188 3.800781 -5.050781 4.15625 -4.75 C 4.28125 -5.113281 4.34375 -5.5 4.34375 -5.90625 Z M 3.265625 -1.484375 L 3.984375 -1.484375 C 4.359375 -1.484375 4.601562 -1.515625 4.71875 -1.578125 C 4.832031 -1.648438 4.890625 -1.742188 4.890625 -1.859375 C 4.890625 -2.003906 4.753906 -2.226562 4.484375 -2.53125 C 4.148438 -2.175781 3.742188 -1.828125 3.265625 -1.484375 Z M 3.265625 -1.484375 "/></g></g></g><g fill="#000000" fill-opacity="1"><g transform="translate(262.644772, 220.546538)"><g><path d="M 0.625 2.53125 L 0.3125 1 C 0.96875 0.914062 1.519531 0.804688 1.96875 0.671875 C 2.425781 0.546875 2.78125 0.34375 3.03125 0.0625 L 2.734375 0.0625 C 2.046875 0.0625 1.503906 -0.0625 1.109375 -0.3125 C 0.710938 -0.570312 0.515625 -1.007812 0.515625 -1.625 C 0.515625 -1.957031 0.570312 -2.289062 0.6875 -2.625 C 0.800781 -2.957031 0.960938 -3.257812 1.171875 -3.53125 C 1.378906 -3.8125 1.617188 -4.035156 1.890625 -4.203125 C 2.171875 -4.367188 2.472656 -4.453125 2.796875 -4.453125 C 3.222656 -4.453125 3.601562 -4.3125 3.9375 -4.03125 C 4.28125 -3.757812 4.546875 -3.398438 4.734375 -2.953125 C 4.921875 -2.503906 5.015625 -2.015625 5.015625 -1.484375 L 5.875 -1.484375 C 6.144531 -1.484375 6.34375 -1.410156 6.46875 -1.265625 C 6.59375 -1.128906 6.65625 -0.953125 6.65625 -0.734375 C 6.65625 -0.503906 6.578125 -0.3125 6.421875 -0.15625 C 6.273438 -0.0078125 6.054688 0.0625 5.765625 0.0625 L 4.75 0.0625 C 4.46875 0.820312 3.96875 1.410156 3.25 1.828125 C 2.539062 2.242188 1.664062 2.476562 0.625 2.53125 Z M 2.046875 -1.890625 C 2.046875 -1.816406 2.070312 -1.734375 2.125 -1.640625 C 2.175781 -1.554688 2.300781 -1.488281 2.5 -1.4375 C 2.695312 -1.394531 3.015625 -1.394531 3.453125 -1.4375 C 3.441406 -1.863281 3.367188 -2.195312 3.234375 -2.4375 C 3.109375 -2.6875 2.9375 -2.8125 2.71875 -2.8125 C 2.570312 -2.8125 2.445312 -2.757812 2.34375 -2.65625 C 2.238281 -2.550781 2.160156 -2.425781 2.109375 -2.28125 C 2.066406 -2.132812 2.046875 -2.003906 2.046875 -1.890625 Z M 2.046875 -1.890625 "/></g></g></g><g fill="#000000" fill-opacity="1"><g transform="translate(268.416977, 220.546538)"><g><path d="M 0 0.0625 L 0.109375 -1.484375 C 0.273438 -1.484375 0.421875 -1.523438 0.546875 -1.609375 C 0.671875 -1.703125 0.796875 -1.847656 0.921875 -2.046875 C 1.054688 -2.242188 1.210938 -2.519531 1.390625 -2.875 C 1.722656 -3.53125 2.070312 -3.976562 2.4375 -4.21875 C 2.8125 -4.46875 3.191406 -4.59375 3.578125 -4.59375 C 4.015625 -4.59375 4.40625 -4.472656 4.75 -4.234375 C 5.09375 -3.992188 5.363281 -3.679688 5.5625 -3.296875 C 5.769531 -2.910156 5.875 -2.5 5.875 -2.0625 C 5.875 -1.675781 5.789062 -1.328125 5.625 -1.015625 C 5.457031 -0.703125 5.226562 -0.453125 4.9375 -0.265625 C 4.644531 -0.0859375 4.3125 0 3.9375 0 C 3.65625 0 3.332031 -0.0390625 2.96875 -0.125 C 2.613281 -0.207031 2.238281 -0.375 1.84375 -0.625 C 1.613281 -0.375 1.359375 -0.195312 1.078125 -0.09375 C 0.796875 0.0078125 0.4375 0.0625 0 0.0625 Z M 3.546875 -3.0625 C 3.328125 -3.0625 3.15625 -2.953125 3.03125 -2.734375 C 2.90625 -2.523438 2.757812 -2.242188 2.59375 -1.890625 C 2.820312 -1.765625 3.03125 -1.675781 3.21875 -1.625 C 3.414062 -1.570312 3.585938 -1.546875 3.734375 -1.546875 C 3.953125 -1.546875 4.113281 -1.578125 4.21875 -1.640625 C 4.320312 -1.710938 4.375 -1.832031 4.375 -2 C 4.375 -2.15625 4.332031 -2.3125 4.25 -2.46875 C 4.175781 -2.632812 4.078125 -2.773438 3.953125 -2.890625 C 3.828125 -3.003906 3.691406 -3.0625 3.546875 -3.0625 Z M 3.546875 -3.0625 "/></g></g></g><g fill="#000000" fill-opacity="1"><g transform="translate(274.828082, 220.546538)"><g/></g></g><g fill="#000000" fill-opacity="1"><g transform="translate(278.408169, 220.546538)"><g><path d="M 0.390625 -0.4375 L 0.921875 -1.84375 C 1.441406 -1.601562 1.953125 -1.484375 2.453125 -1.484375 C 3.234375 -1.484375 3.625 -1.695312 3.625 -2.125 C 3.625 -2.25 3.582031 -2.421875 3.5 -2.640625 C 3.425781 -2.859375 3.289062 -3.144531 3.09375 -3.5 C 2.894531 -3.851562 2.609375 -4.296875 2.234375 -4.828125 L 3.546875 -5.703125 C 4.066406 -4.941406 4.484375 -4.222656 4.796875 -3.546875 C 5.109375 -2.867188 5.265625 -2.300781 5.265625 -1.84375 C 5.265625 -1.28125 5.039062 -0.820312 4.59375 -0.46875 C 4.144531 -0.113281 3.488281 0.0625 2.625 0.0625 C 2.414062 0.0625 2.175781 0.0390625 1.90625 0 C 1.632812 -0.03125 1.363281 -0.0820312 1.09375 -0.15625 C 0.832031 -0.226562 0.597656 -0.320312 0.390625 -0.4375 Z M 0.390625 -0.4375 "/></g></g></g><g fill="#000000" fill-opacity="1"><g transform="translate(176.545378, 255.66054)"><g><path d="M 2.953125 0.046875 C 2.378906 0.046875 1.929688 -0.0078125 1.609375 -0.125 C 1.296875 -0.25 1.078125 -0.4375 0.953125 -0.6875 C 0.828125 -0.9375 0.757812 -1.253906 0.75 -1.640625 L 0.546875 -6.828125 L 1.859375 -6.828125 L 2.046875 -2.265625 C 2.066406 -1.984375 2.097656 -1.769531 2.140625 -1.625 C 2.191406 -1.476562 2.285156 -1.378906 2.421875 -1.328125 C 2.554688 -1.285156 2.765625 -1.265625 3.046875 -1.265625 C 3.273438 -1.265625 3.441406 -1.203125 3.546875 -1.078125 C 3.660156 -0.953125 3.71875 -0.800781 3.71875 -0.625 C 3.71875 -0.425781 3.648438 -0.265625 3.515625 -0.140625 C 3.390625 -0.015625 3.203125 0.046875 2.953125 0.046875 Z M 2.953125 0.046875 "/></g></g></g><g fill="#000000" fill-opacity="1"><g transform="translate(180.86907, 255.996149)"><g><path d="M 0.375 -6.484375 L 0.375 -7.140625 L 2.578125 -7.796875 L 2.578125 -7.125 Z M 0.375 -5.5 L 0.375 -6.15625 L 2.578125 -6.8125 L 2.578125 -6.140625 Z M 0.375 -5.5 "/></g></g></g><g fill="#000000" fill-opacity="1"><g transform="translate(179.507989, 255.66054)"><g><path d="M 0 0.046875 L 0.09375 -1.265625 C 0.238281 -1.265625 0.351562 -1.296875 0.4375 -1.359375 C 0.519531 -1.421875 0.601562 -1.523438 0.6875 -1.671875 C 0.769531 -1.828125 0.882812 -2.039062 1.03125 -2.3125 C 1.34375 -2.90625 1.671875 -3.316406 2.015625 -3.546875 C 2.367188 -3.773438 2.710938 -3.890625 3.046875 -3.890625 C 3.378906 -3.890625 3.691406 -3.773438 3.984375 -3.546875 C 4.273438 -3.316406 4.546875 -2.898438 4.796875 -2.296875 C 4.984375 -1.867188 5.164062 -1.585938 5.34375 -1.453125 C 5.519531 -1.328125 5.707031 -1.265625 5.90625 -1.265625 C 6.144531 -1.265625 6.3125 -1.203125 6.40625 -1.078125 C 6.507812 -0.953125 6.5625 -0.800781 6.5625 -0.625 C 6.5625 -0.425781 6.492188 -0.265625 6.359375 -0.140625 C 6.234375 -0.015625 6.054688 0.046875 5.828125 0.046875 C 5.546875 0.046875 5.289062 0.00390625 5.0625 -0.078125 C 4.832031 -0.160156 4.644531 -0.273438 4.5 -0.421875 C 4.394531 -0.273438 4.25 -0.140625 4.0625 -0.015625 C 3.875 0.109375 3.648438 0.171875 3.390625 0.171875 C 3.234375 0.171875 3.050781 0.140625 2.84375 0.078125 C 2.632812 0.015625 2.421875 -0.0820312 2.203125 -0.21875 C 1.984375 -0.351562 1.78125 -0.546875 1.59375 -0.796875 C 1.414062 -0.460938 1.207031 -0.238281 0.96875 -0.125 C 0.726562 -0.0078125 0.40625 0.046875 0 0.046875 Z M 2.140625 -1.890625 C 2.253906 -1.703125 2.421875 -1.523438 2.640625 -1.359375 C 2.867188 -1.203125 3.101562 -1.125 3.34375 -1.125 C 3.46875 -1.125 3.570312 -1.171875 3.65625 -1.265625 C 3.738281 -1.367188 3.742188 -1.515625 3.671875 -1.703125 C 3.617188 -1.804688 3.554688 -1.929688 3.484375 -2.078125 C 3.410156 -2.222656 3.320312 -2.347656 3.21875 -2.453125 C 3.125 -2.554688 3.019531 -2.609375 2.90625 -2.609375 C 2.78125 -2.609375 2.648438 -2.550781 2.515625 -2.4375 C 2.390625 -2.320312 2.265625 -2.140625 2.140625 -1.890625 Z M 2.140625 -1.890625 "/></g></g></g><g fill="#000000" fill-opacity="1"><g transform="translate(185.619741, 253.106173)"><g><path d="M 1.203125 -5.765625 C 0.898438 -5.765625 0.671875 -5.851562 0.515625 -6.03125 C 0.367188 -6.21875 0.296875 -6.4375 0.296875 -6.6875 C 0.296875 -6.976562 0.382812 -7.234375 0.5625 -7.453125 C 0.738281 -7.671875 0.96875 -7.78125 1.25 -7.78125 C 1.425781 -7.78125 1.578125 -7.726562 1.703125 -7.625 C 1.835938 -7.53125 1.941406 -7.398438 2.015625 -7.234375 C 2.097656 -7.078125 2.140625 -6.910156 2.140625 -6.734375 C 2.140625 -6.460938 2.050781 -6.234375 1.875 -6.046875 C 1.707031 -5.859375 1.484375 -5.765625 1.203125 -5.765625 Z M 1.1875 -6.359375 C 1.300781 -6.359375 1.394531 -6.390625 1.46875 -6.453125 C 1.539062 -6.523438 1.578125 -6.617188 1.578125 -6.734375 C 1.578125 -6.847656 1.535156 -6.941406 1.453125 -7.015625 C 1.378906 -7.097656 1.296875 -7.140625 1.203125 -7.140625 C 1.085938 -7.140625 0.992188 -7.097656 0.921875 -7.015625 C 0.859375 -6.941406 0.828125 -6.851562 0.828125 -6.75 C 0.828125 -6.632812 0.859375 -6.539062 0.921875 -6.46875 C 0.992188 -6.394531 1.082031 -6.359375 1.1875 -6.359375 Z M 1.1875 -6.359375 "/></g></g></g><g fill="#000000" fill-opacity="1"><g transform="translate(185.321416, 255.66054)"><g><path d="M 0 0.046875 L 0.09375 -1.265625 C 0.375 -1.265625 0.578125 -1.289062 0.703125 -1.34375 C 0.828125 -1.40625 0.898438 -1.519531 0.921875 -1.6875 C 0.953125 -1.851562 0.960938 -2.09375 0.953125 -2.40625 L 0.796875 -6.828125 L 2.125 -6.828125 L 2.28125 -2.421875 C 2.289062 -2.097656 2.328125 -1.851562 2.390625 -1.6875 C 2.453125 -1.53125 2.554688 -1.421875 2.703125 -1.359375 C 2.847656 -1.296875 3.046875 -1.265625 3.296875 -1.265625 C 3.535156 -1.265625 3.703125 -1.203125 3.796875 -1.078125 C 3.898438 -0.953125 3.953125 -0.800781 3.953125 -0.625 C 3.953125 -0.425781 3.882812 -0.265625 3.75 -0.140625 C 3.625 -0.015625 3.441406 0.046875 3.203125 0.046875 C 2.878906 0.046875 2.582031 0.00390625 2.3125 -0.078125 C 2.050781 -0.171875 1.851562 -0.347656 1.71875 -0.609375 C 1.539062 -0.347656 1.316406 -0.171875 1.046875 -0.078125 C 0.773438 0.00390625 0.425781 0.046875 0 0.046875 Z M 0 0.046875 "/></g></g></g><g fill="#000000" fill-opacity="1"><g transform="translate(190.045823, 255.707152)"><g><path d="M 0.375 1.703125 L 0.375 1.046875 L 2.578125 0.390625 L 2.578125 1.0625 Z M 0.375 1.703125 "/></g></g></g><g fill="#000000" fill-opacity="1"><g transform="translate(188.526254, 255.66054)"><g><path d="M 0 0.046875 L 0.09375 -1.265625 C 0.382812 -1.265625 0.609375 -1.265625 0.765625 -1.265625 C 0.921875 -1.273438 1.039062 -1.285156 1.125 -1.296875 C 1.207031 -1.304688 1.273438 -1.3125 1.328125 -1.3125 C 1.265625 -1.375 1.179688 -1.460938 1.078125 -1.578125 C 0.984375 -1.703125 0.894531 -1.859375 0.8125 -2.046875 C 0.738281 -2.234375 0.703125 -2.457031 0.703125 -2.71875 C 0.703125 -3.09375 0.800781 -3.421875 1 -3.703125 C 1.195312 -3.992188 1.460938 -4.21875 1.796875 -4.375 C 2.128906 -4.539062 2.503906 -4.625 2.921875 -4.625 C 3.296875 -4.625 3.65625 -4.578125 4 -4.484375 L 3.796875 -3.234375 C 3.671875 -3.265625 3.535156 -3.289062 3.390625 -3.3125 C 3.253906 -3.332031 3.140625 -3.34375 3.046875 -3.34375 C 2.734375 -3.34375 2.484375 -3.269531 2.296875 -3.125 C 2.117188 -2.976562 2.03125 -2.789062 2.03125 -2.5625 C 2.03125 -2.375 2.078125 -2.210938 2.171875 -2.078125 C 2.273438 -1.953125 2.390625 -1.847656 2.515625 -1.765625 C 2.648438 -1.679688 2.757812 -1.628906 2.84375 -1.609375 C 3.050781 -1.671875 3.222656 -1.71875 3.359375 -1.75 C 3.503906 -1.789062 3.65625 -1.84375 3.8125 -1.90625 C 3.96875 -1.96875 4.175781 -2.054688 4.4375 -2.171875 L 4.84375 -0.9375 C 4.320312 -0.675781 3.8125 -0.472656 3.3125 -0.328125 C 2.820312 -0.191406 2.304688 -0.09375 1.765625 -0.03125 C 1.234375 0.0195312 0.644531 0.046875 0 0.046875 Z M 0 0.046875 "/></g></g></g><g fill="#000000" fill-opacity="1"><g transform="translate(193.715485, 255.66054)"><g/></g></g><g fill="#000000" fill-opacity="1"><g transform="translate(197.573002, 257.935225)"><g><path d="M 1.203125 -5.765625 C 0.898438 -5.765625 0.671875 -5.851562 0.515625 -6.03125 C 0.367188 -6.21875 0.296875 -6.4375 0.296875 -6.6875 C 0.296875 -6.976562 0.382812 -7.234375 0.5625 -7.453125 C 0.738281 -7.671875 0.96875 -7.78125 1.25 -7.78125 C 1.425781 -7.78125 1.578125 -7.726562 1.703125 -7.625 C 1.835938 -7.53125 1.941406 -7.398438 2.015625 -7.234375 C 2.097656 -7.078125 2.140625 -6.910156 2.140625 -6.734375 C 2.140625 -6.460938 2.050781 -6.234375 1.875 -6.046875 C 1.707031 -5.859375 1.484375 -5.765625 1.203125 -5.765625 Z M 1.1875 -6.359375 C 1.300781 -6.359375 1.394531 -6.390625 1.46875 -6.453125 C 1.539062 -6.523438 1.578125 -6.617188 1.578125 -6.734375 C 1.578125 -6.847656 1.535156 -6.941406 1.453125 -7.015625 C 1.378906 -7.097656 1.296875 -7.140625 1.203125 -7.140625 C 1.085938 -7.140625 0.992188 -7.097656 0.921875 -7.015625 C 0.859375 -6.941406 0.828125 -6.851562 0.828125 -6.75 C 0.828125 -6.632812 0.859375 -6.539062 0.921875 -6.46875 C 0.992188 -6.394531 1.082031 -6.359375 1.1875 -6.359375 Z M 1.1875 -6.359375 "/></g></g></g><g fill="#000000" fill-opacity="1"><g transform="translate(196.743306, 255.66054)"><g><path d="M 0.25 -0.265625 C 0.25 -0.472656 0.273438 -0.738281 0.328125 -1.0625 C 0.390625 -1.394531 0.523438 -1.789062 0.734375 -2.25 L 1.875 -1.84375 C 1.769531 -1.550781 1.6875 -1.300781 1.625 -1.09375 C 1.570312 -0.882812 1.546875 -0.679688 1.546875 -0.484375 C 1.546875 -0.078125 1.722656 0.242188 2.078125 0.484375 C 2.429688 0.722656 2.9375 0.84375 3.59375 0.84375 C 4.28125 0.84375 4.816406 0.78125 5.203125 0.65625 C 5.585938 0.53125 5.78125 0.34375 5.78125 0.09375 C 5.78125 -0.0078125 5.691406 -0.113281 5.515625 -0.21875 C 5.347656 -0.320312 5.054688 -0.453125 4.640625 -0.609375 L 4.953125 -1.921875 C 5.484375 -1.691406 5.960938 -1.523438 6.390625 -1.421875 C 6.828125 -1.316406 7.21875 -1.265625 7.5625 -1.265625 C 7.789062 -1.265625 7.953125 -1.203125 8.046875 -1.078125 C 8.148438 -0.953125 8.203125 -0.800781 8.203125 -0.625 C 8.203125 -0.425781 8.132812 -0.265625 8 -0.140625 C 7.875 -0.015625 7.695312 0.046875 7.46875 0.046875 L 7.03125 0.046875 C 7.039062 0.109375 7.046875 0.160156 7.046875 0.203125 C 7.046875 0.253906 7.046875 0.300781 7.046875 0.34375 C 7.046875 0.550781 6.972656 0.757812 6.828125 0.96875 C 6.691406 1.175781 6.476562 1.367188 6.1875 1.546875 C 5.894531 1.734375 5.523438 1.878906 5.078125 1.984375 C 4.628906 2.097656 4.09375 2.15625 3.46875 2.15625 C 2.457031 2.15625 1.664062 1.957031 1.09375 1.5625 C 0.53125 1.175781 0.25 0.566406 0.25 -0.265625 Z M 4.390625 4.328125 C 4.210938 4.328125 4.054688 4.265625 3.921875 4.140625 C 3.796875 4.015625 3.734375 3.859375 3.734375 3.671875 C 3.734375 3.492188 3.796875 3.335938 3.921875 3.203125 C 4.054688 3.078125 4.210938 3.015625 4.390625 3.015625 C 4.566406 3.015625 4.71875 3.078125 4.84375 3.203125 C 4.96875 3.335938 5.03125 3.492188 5.03125 3.671875 C 5.03125 3.859375 4.96875 4.015625 4.84375 4.140625 C 4.71875 4.265625 4.566406 4.328125 4.390625 4.328125 Z M 2.78125 4.328125 C 2.59375 4.328125 2.4375 4.265625 2.3125 4.140625 C 2.1875 4.015625 2.125 3.859375 2.125 3.671875 C 2.125 3.492188 2.1875 3.335938 2.3125 3.203125 C 2.4375 3.078125 2.59375 3.015625 2.78125 3.015625 C 2.945312 3.015625 3.09375 3.078125 3.21875 3.203125 C 3.34375 3.335938 3.40625 3.492188 3.40625 3.671875 C 3.40625 3.859375 3.34375 4.015625 3.21875 4.140625 C 3.09375 4.265625 2.945312 4.328125 2.78125 4.328125 Z M 2.78125 4.328125 "/></g></g></g><g fill="#000000" fill-opacity="1"><g transform="translate(204.028614, 255.707152)"><g><path d="M 0.375 1.703125 L 0.375 1.046875 L 2.578125 0.390625 L 2.578125 1.0625 Z M 0.375 1.703125 "/></g></g></g><g fill="#000000" fill-opacity="1"><g transform="translate(204.196419, 255.66054)"><g><path d="M 0 0.046875 L 0.09375 -1.265625 C 0.5 -1.265625 0.78125 -1.304688 0.9375 -1.390625 C 1.101562 -1.484375 1.1875 -1.675781 1.1875 -1.96875 C 1.1875 -2.144531 1.160156 -2.351562 1.109375 -2.59375 C 1.066406 -2.832031 1.007812 -3.082031 0.9375 -3.34375 C 0.863281 -3.601562 0.785156 -3.84375 0.703125 -4.0625 L 2 -4.421875 C 2.070312 -4.210938 2.144531 -3.96875 2.21875 -3.6875 C 2.289062 -3.40625 2.351562 -3.113281 2.40625 -2.8125 C 2.457031 -2.519531 2.484375 -2.238281 2.484375 -1.96875 C 2.484375 -1.539062 2.414062 -1.195312 2.28125 -0.9375 C 2.15625 -0.675781 1.976562 -0.472656 1.75 -0.328125 C 1.519531 -0.179688 1.253906 -0.0820312 0.953125 -0.03125 C 0.648438 0.0195312 0.332031 0.046875 0 0.046875 Z M 1.34375 -5.203125 C 1.144531 -5.203125 0.976562 -5.265625 0.84375 -5.390625 C 0.71875 -5.523438 0.65625 -5.6875 0.65625 -5.875 C 0.65625 -6.070312 0.71875 -6.238281 0.84375 -6.375 C 0.976562 -6.507812 1.144531 -6.578125 1.34375 -6.578125 C 1.53125 -6.578125 1.6875 -6.507812 1.8125 -6.375 C 1.945312 -6.238281 2.015625 -6.070312 2.015625 -5.875 C 2.015625 -5.6875 1.945312 -5.523438 1.8125 -5.390625 C 1.6875 -5.265625 1.53125 -5.203125 1.34375 -5.203125 Z M 1.34375 -5.203125 "/></g></g></g><g fill="#000000" fill-opacity="1"><g transform="translate(207.9328, 255.268992)"><g><path d="M 1.203125 -5.765625 C 0.898438 -5.765625 0.671875 -5.851562 0.515625 -6.03125 C 0.367188 -6.21875 0.296875 -6.4375 0.296875 -6.6875 C 0.296875 -6.976562 0.382812 -7.234375 0.5625 -7.453125 C 0.738281 -7.671875 0.96875 -7.78125 1.25 -7.78125 C 1.425781 -7.78125 1.578125 -7.726562 1.703125 -7.625 C 1.835938 -7.53125 1.941406 -7.398438 2.015625 -7.234375 C 2.097656 -7.078125 2.140625 -6.910156 2.140625 -6.734375 C 2.140625 -6.460938 2.050781 -6.234375 1.875 -6.046875 C 1.707031 -5.859375 1.484375 -5.765625 1.203125 -5.765625 Z M 1.1875 -6.359375 C 1.300781 -6.359375 1.394531 -6.390625 1.46875 -6.453125 C 1.539062 -6.523438 1.578125 -6.617188 1.578125 -6.734375 C 1.578125 -6.847656 1.535156 -6.941406 1.453125 -7.015625 C 1.378906 -7.097656 1.296875 -7.140625 1.203125 -7.140625 C 1.085938 -7.140625 0.992188 -7.097656 0.921875 -7.015625 C 0.859375 -6.941406 0.828125 -6.851562 0.828125 -6.75 C 0.828125 -6.632812 0.859375 -6.539062 0.921875 -6.46875 C 0.992188 -6.394531 1.082031 -6.359375 1.1875 -6.359375 Z M 1.1875 -6.359375 "/></g></g></g><g fill="#000000" fill-opacity="1"><g transform="translate(207.149715, 255.66054)"><g><path d="M 0.328125 -0.375 L 0.78125 -1.5625 C 1.226562 -1.363281 1.660156 -1.265625 2.078125 -1.265625 C 2.734375 -1.265625 3.0625 -1.441406 3.0625 -1.796875 C 3.0625 -1.898438 3.03125 -2.046875 2.96875 -2.234375 C 2.90625 -2.421875 2.789062 -2.664062 2.625 -2.96875 C 2.457031 -3.269531 2.210938 -3.640625 1.890625 -4.078125 L 3 -4.828125 C 3.4375 -4.179688 3.785156 -3.570312 4.046875 -3 C 4.316406 -2.425781 4.453125 -1.945312 4.453125 -1.5625 C 4.453125 -1.082031 4.257812 -0.691406 3.875 -0.390625 C 3.5 -0.0859375 2.945312 0.0625 2.21875 0.0625 C 2.039062 0.0625 1.835938 0.046875 1.609375 0.015625 C 1.378906 -0.015625 1.148438 -0.0625 0.921875 -0.125 C 0.703125 -0.1875 0.503906 -0.269531 0.328125 -0.375 Z M 0.328125 -0.375 "/></g></g></g><g fill="#000000" fill-opacity="1"><g transform="translate(212.367145, 257.655554)"><g><path d="M 0.375 1.703125 L 0.375 1.046875 L 2.578125 0.390625 L 2.578125 1.0625 Z M 0.375 1.703125 "/></g></g></g><g fill="#000000" fill-opacity="1"><g transform="translate(211.966281, 255.66054)"><g><path d="M 0.15625 2.140625 L -0.328125 0.953125 C 0.472656 0.671875 1.050781 0.347656 1.40625 -0.015625 C 1.769531 -0.378906 1.953125 -0.765625 1.953125 -1.171875 C 1.953125 -1.429688 1.894531 -1.710938 1.78125 -2.015625 C 1.664062 -2.316406 1.519531 -2.640625 1.34375 -2.984375 L 2.5625 -3.578125 C 2.78125 -3.160156 2.945312 -2.757812 3.0625 -2.375 C 3.1875 -2 3.25 -1.644531 3.25 -1.3125 C 3.25 -0.550781 3 0.117188 2.5 0.703125 C 2.007812 1.285156 1.226562 1.765625 0.15625 2.140625 Z M 2.21875 -4.53125 C 2.019531 -4.53125 1.851562 -4.59375 1.71875 -4.71875 C 1.59375 -4.851562 1.53125 -5.015625 1.53125 -5.203125 C 1.53125 -5.398438 1.59375 -5.566406 1.71875 -5.703125 C 1.851562 -5.835938 2.019531 -5.90625 2.21875 -5.90625 C 2.40625 -5.90625 2.5625 -5.835938 2.6875 -5.703125 C 2.820312 -5.566406 2.890625 -5.398438 2.890625 -5.203125 C 2.890625 -5.015625 2.820312 -4.851562 2.6875 -4.71875 C 2.5625 -4.59375 2.40625 -4.53125 2.21875 -4.53125 Z M 2.21875 -4.53125 "/></g></g></g><g fill="#000000" fill-opacity="1"><g transform="translate(215.776683, 255.66054)"><g/></g></g><g fill="#000000" fill-opacity="1"><g transform="translate(221.778376, 256.71398)"><g><path d="M 0.5625 -5.5 L 0.5625 -6.15625 L 2.765625 -6.8125 L 2.765625 -6.140625 Z M 0.953125 -7.28125 C 0.722656 -7.28125 0.566406 -7.359375 0.484375 -7.515625 C 0.410156 -7.671875 0.375 -7.847656 0.375 -8.046875 C 0.375 -8.117188 0.375 -8.191406 0.375 -8.265625 C 0.382812 -8.347656 0.398438 -8.4375 0.421875 -8.53125 L 0.984375 -8.671875 C 0.941406 -8.453125 0.921875 -8.273438 0.921875 -8.140625 C 0.921875 -7.972656 0.984375 -7.890625 1.109375 -7.890625 C 1.179688 -7.890625 1.238281 -7.929688 1.28125 -8.015625 C 1.332031 -8.097656 1.359375 -8.265625 1.359375 -8.515625 L 1.359375 -8.796875 L 1.890625 -8.96875 L 1.890625 -8.390625 C 1.890625 -8.242188 1.953125 -8.171875 2.078125 -8.171875 C 2.160156 -8.171875 2.21875 -8.195312 2.25 -8.25 C 2.289062 -8.300781 2.3125 -8.363281 2.3125 -8.4375 C 2.3125 -8.539062 2.296875 -8.644531 2.265625 -8.75 C 2.242188 -8.863281 2.210938 -8.972656 2.171875 -9.078125 L 2.6875 -9.203125 C 2.75 -9.078125 2.796875 -8.941406 2.828125 -8.796875 C 2.867188 -8.648438 2.890625 -8.515625 2.890625 -8.390625 C 2.890625 -8.179688 2.832031 -7.992188 2.71875 -7.828125 C 2.601562 -7.671875 2.410156 -7.59375 2.140625 -7.59375 C 1.960938 -7.59375 1.816406 -7.644531 1.703125 -7.75 C 1.648438 -7.613281 1.554688 -7.5 1.421875 -7.40625 C 1.285156 -7.320312 1.128906 -7.28125 0.953125 -7.28125 Z M 0.953125 -7.28125 "/></g></g></g><g fill="#000000" fill-opacity="1"><g transform="translate(218.804503, 255.66054)"><g><path d="M 3.953125 0.203125 C 3.054688 0.203125 2.335938 0.113281 1.796875 -0.0625 C 1.265625 -0.25 0.878906 -0.5 0.640625 -0.8125 C 0.410156 -1.132812 0.296875 -1.5 0.296875 -1.90625 C 0.296875 -2.195312 0.332031 -2.492188 0.40625 -2.796875 C 0.476562 -3.109375 0.550781 -3.382812 0.625 -3.625 L 1.796875 -3.34375 C 1.742188 -3.175781 1.695312 -2.992188 1.65625 -2.796875 C 1.625 -2.597656 1.609375 -2.425781 1.609375 -2.28125 C 1.609375 -2.039062 1.6875 -1.832031 1.84375 -1.65625 C 2.007812 -1.488281 2.28125 -1.351562 2.65625 -1.25 C 3.039062 -1.15625 3.554688 -1.109375 4.203125 -1.109375 L 4.203125 -1.078125 L 4.203125 -1.109375 C 5.410156 -1.109375 6.304688 -1.175781 6.890625 -1.3125 C 7.484375 -1.445312 7.78125 -1.6875 7.78125 -2.03125 C 7.78125 -2.257812 7.742188 -2.523438 7.671875 -2.828125 C 7.597656 -3.140625 7.5 -3.460938 7.375 -3.796875 L 8.59375 -4.15625 C 8.675781 -3.9375 8.753906 -3.703125 8.828125 -3.453125 C 8.910156 -3.203125 8.972656 -2.953125 9.015625 -2.703125 C 9.054688 -2.453125 9.078125 -2.21875 9.078125 -2 C 9.078125 -1.613281 8.992188 -1.28125 8.828125 -1 C 8.660156 -0.726562 8.382812 -0.503906 8 -0.328125 C 7.613281 -0.148438 7.085938 -0.0195312 6.421875 0.0625 C 5.765625 0.15625 4.945312 0.203125 3.96875 0.203125 L 3.96875 0.1875 Z M 4.671875 2.375 C 4.492188 2.375 4.34375 2.3125 4.21875 2.1875 C 4.09375 2.0625 4.03125 1.910156 4.03125 1.734375 C 4.03125 1.554688 4.09375 1.398438 4.21875 1.265625 C 4.34375 1.128906 4.492188 1.0625 4.671875 1.0625 C 4.847656 1.0625 5 1.128906 5.125 1.265625 C 5.257812 1.398438 5.328125 1.554688 5.328125 1.734375 C 5.328125 1.910156 5.257812 2.0625 5.125 2.1875 C 5 2.3125 4.847656 2.375 4.671875 2.375 Z M 4.671875 2.375 "/></g></g></g><g fill="#000000" fill-opacity="1"><g transform="translate(228.931803, 256.27582)"><g><path d="M 0.828125 -5.515625 C 0.597656 -5.515625 0.441406 -5.59375 0.359375 -5.75 C 0.285156 -5.90625 0.25 -6.082031 0.25 -6.28125 C 0.25 -6.351562 0.25 -6.425781 0.25 -6.5 C 0.257812 -6.582031 0.273438 -6.671875 0.296875 -6.765625 L 0.859375 -6.90625 C 0.816406 -6.6875 0.796875 -6.507812 0.796875 -6.375 C 0.796875 -6.207031 0.859375 -6.125 0.984375 -6.125 C 1.054688 -6.125 1.113281 -6.164062 1.15625 -6.25 C 1.207031 -6.332031 1.234375 -6.5 1.234375 -6.75 L 1.234375 -7.03125 L 1.765625 -7.203125 L 1.765625 -6.625 C 1.765625 -6.476562 1.828125 -6.40625 1.953125 -6.40625 C 2.035156 -6.40625 2.09375 -6.429688 2.125 -6.484375 C 2.164062 -6.535156 2.1875 -6.597656 2.1875 -6.671875 C 2.1875 -6.773438 2.171875 -6.878906 2.140625 -6.984375 C 2.117188 -7.097656 2.085938 -7.207031 2.046875 -7.3125 L 2.5625 -7.4375 C 2.625 -7.3125 2.671875 -7.175781 2.703125 -7.03125 C 2.742188 -6.882812 2.765625 -6.75 2.765625 -6.625 C 2.765625 -6.414062 2.707031 -6.226562 2.59375 -6.0625 C 2.476562 -5.90625 2.285156 -5.828125 2.015625 -5.828125 C 1.835938 -5.828125 1.691406 -5.878906 1.578125 -5.984375 C 1.523438 -5.847656 1.429688 -5.734375 1.296875 -5.640625 C 1.160156 -5.554688 1.003906 -5.515625 0.828125 -5.515625 Z M 0.296875 -7.546875 L 0.296875 -8.203125 L 2.5 -8.859375 L 2.5 -8.1875 Z M 0.296875 -7.546875 "/></g></g></g><g fill="#000000" fill-opacity="1"><g transform="translate(228.344481, 255.66054)"><g><path d="M 0.15625 2.140625 L -0.328125 0.953125 C 0.472656 0.671875 1.050781 0.347656 1.40625 -0.015625 C 1.769531 -0.378906 1.953125 -0.765625 1.953125 -1.171875 C 1.953125 -1.429688 1.894531 -1.710938 1.78125 -2.015625 C 1.664062 -2.316406 1.519531 -2.640625 1.34375 -2.984375 L 2.5625 -3.578125 C 2.78125 -3.160156 2.945312 -2.757812 3.0625 -2.375 C 3.1875 -2 3.25 -1.644531 3.25 -1.3125 C 3.25 -0.550781 3 0.117188 2.5 0.703125 C 2.007812 1.285156 1.226562 1.765625 0.15625 2.140625 Z M 0.15625 2.140625 "/></g></g></g></svg>