<svg xmlns="http://www.w3.org/2000/svg" xmlns:xlink="http://www.w3.org/1999/xlink" width="500" zoomAndPan="magnify" viewBox="0 0 375 374.999991" height="500" preserveAspectRatio="xMidYMid meet" version="1.0"><defs><g/><clipPath id="8357545b7c"><path d="M 133.269531 162.335938 L 241.722656 162.335938 L 241.722656 193.210938 L 133.269531 193.210938 Z M 133.269531 162.335938 " clip-rule="nonzero"/></clipPath><clipPath id="123affc0ce"><path d="M 161 112.210938 L 214 112.210938 L 214 178 L 161 178 Z M 161 112.210938 " clip-rule="nonzero"/></clipPath></defs><g clip-path="url(#8357545b7c)"><path fill="#000000" d="M 234.777344 162.359375 C 219.128906 163.230469 197.664062 175.628906 187.496094 187.699219 C 177.328125 175.628906 155.863281 163.230469 140.210938 162.359375 L 133.269531 170.570312 C 153.230469 171.761719 172.679688 179.816406 187.496094 193.222656 C 202.3125 179.816406 221.761719 171.761719 241.722656 170.570312 L 234.777344 162.359375 " fill-opacity="1" fill-rule="nonzero"/></g><g clip-path="url(#123affc0ce)"><path fill="#000000" d="M 205.21875 154.664062 C 204.535156 149.386719 201.332031 146.03125 197.9375 142.480469 C 197.488281 142.007812 197.03125 141.53125 196.574219 141.042969 C 196.75 141.160156 196.917969 141.277344 197.089844 141.394531 C 200.667969 143.839844 204.046875 146.152344 205.601562 150.585938 C 207.285156 155.382812 205.730469 159.195312 204.628906 161.0625 C 205.226562 159.292969 205.542969 157.15625 205.21875 154.664062 Z M 206.160156 162.023438 C 208.058594 158.816406 208.890625 154.5 207.304688 149.988281 C 205.019531 143.476562 199.433594 141.164062 194.71875 137.480469 C 195.449219 136.335938 195.761719 134.796875 195.152344 133.1875 C 193.804688 129.632812 189.484375 129.574219 187.925781 125.929688 C 188.28125 125.769531 188.53125 125.40625 188.53125 124.988281 C 188.53125 124.664062 188.382812 124.375 188.148438 124.1875 C 187.945312 124.019531 187.8125 123.78125 187.804688 123.519531 L 187.804688 123.472656 C 187.792969 123.226562 187.882812 122.984375 188.058594 122.816406 C 188.210938 122.667969 188.308594 122.460938 188.308594 122.230469 C 188.308594 122.011719 188.222656 121.8125 188.082031 121.667969 C 187.863281 121.441406 187.726562 121.152344 187.714844 120.839844 C 187.703125 120.441406 187.691406 120.046875 187.679688 119.667969 C 188.382812 119.632812 189.085938 119.394531 189.6875 118.9375 C 190.691406 118.179688 191.191406 117.003906 191.128906 115.835938 C 191.035156 116.59375 190.648438 117.316406 189.988281 117.8125 C 188.703125 118.785156 186.871094 118.53125 185.898438 117.246094 C 184.925781 115.957031 185.179688 114.125 186.464844 113.152344 C 187.121094 112.65625 187.921875 112.480469 188.675781 112.597656 C 187.570312 112.21875 186.304688 112.378906 185.300781 113.136719 C 183.699219 114.347656 183.382812 116.628906 184.59375 118.230469 C 185.269531 119.121094 186.277344 119.617188 187.3125 119.667969 C 187.300781 120.046875 187.289062 120.441406 187.277344 120.839844 C 187.265625 121.152344 187.128906 121.441406 186.910156 121.667969 C 186.769531 121.8125 186.683594 122.011719 186.683594 122.230469 C 186.683594 122.460938 186.78125 122.667969 186.933594 122.816406 C 187.109375 122.984375 187.195312 123.226562 187.1875 123.472656 L 187.1875 123.519531 C 187.175781 123.78125 187.046875 124.019531 186.84375 124.1875 C 186.609375 124.375 186.460938 124.664062 186.460938 124.988281 C 186.460938 125.40625 186.710938 125.769531 187.066406 125.929688 C 185.507812 129.574219 181.1875 129.632812 179.839844 133.1875 C 179.226562 134.796875 179.542969 136.335938 180.269531 137.480469 C 175.554688 141.164062 169.972656 143.476562 167.6875 149.988281 C 166.101562 154.5 166.929688 158.816406 168.828125 162.023438 L 161.078125 162.023438 C 163.292969 162.886719 165.476562 163.84375 167.621094 164.878906 C 174.867188 168.390625 181.546875 172.800781 187.496094 178 C 193.445312 172.800781 200.121094 168.390625 207.371094 164.878906 C 209.515625 163.84375 211.699219 162.886719 213.910156 162.023438 L 206.160156 162.023438 " fill-opacity="1" fill-rule="nonzero"/></g><path fill="#000000" d="M 188.226562 113.613281 L 188.769531 114.710938 L 189.984375 114.890625 L 189.105469 115.746094 L 189.3125 116.953125 L 188.226562 116.382812 L 187.140625 116.953125 L 187.347656 115.746094 L 186.46875 114.890625 L 187.683594 114.710938 L 188.226562 113.613281 " fill-opacity="1" fill-rule="nonzero"/><g fill="#ffffff" fill-opacity="1"><g transform="translate(117.578354, 222.341309)"><g><path d="M 0.125 7.296875 L -0.78125 4.90625 C 1.25 4.226562 2.832031 3.425781 3.96875 2.5 C 5.113281 1.582031 5.921875 0.617188 6.390625 -0.390625 C 6.867188 -1.410156 7.109375 -2.398438 7.109375 -3.359375 C 7.109375 -4.390625 6.878906 -5.429688 6.421875 -6.484375 C 5.972656 -7.546875 5.476562 -8.550781 4.9375 -9.5 L 7.234375 -10.65625 C 7.816406 -9.539062 8.3125 -8.46875 8.71875 -7.4375 C 9.132812 -6.414062 9.457031 -5.519531 9.6875 -4.75 C 9.976562 -3.84375 10.359375 -3.226562 10.828125 -2.90625 C 11.296875 -2.582031 11.941406 -2.421875 12.765625 -2.421875 C 13.203125 -2.421875 13.519531 -2.300781 13.71875 -2.0625 C 13.914062 -1.820312 14.015625 -1.53125 14.015625 -1.1875 C 14.015625 -0.851562 13.867188 -0.546875 13.578125 -0.265625 C 13.285156 0.015625 12.910156 0.15625 12.453125 0.15625 C 11.648438 0.15625 10.984375 0.03125 10.453125 -0.21875 C 9.921875 -0.46875 9.484375 -0.800781 9.140625 -1.21875 C 8.929688 -0.0507812 8.492188 1.007812 7.828125 1.96875 C 7.160156 2.9375 6.375 3.78125 5.46875 4.5 C 4.570312 5.226562 3.648438 5.820312 2.703125 6.28125 C 1.753906 6.75 0.894531 7.085938 0.125 7.296875 Z M 0.125 7.296875 "/></g></g></g><g fill="#ffffff" fill-opacity="1"><g transform="translate(130.024547, 222.341309)"><g><path d="M 0 0.15625 L 0.3125 -2.421875 L 2.734375 -2.421875 C 4.472656 -2.421875 5.757812 -2.515625 6.59375 -2.703125 C 7.4375 -2.890625 7.988281 -3.132812 8.25 -3.4375 C 8.507812 -3.738281 8.640625 -4.070312 8.640625 -4.4375 C 8.640625 -4.9375 8.453125 -5.488281 8.078125 -6.09375 C 7.703125 -6.707031 7.21875 -7.332031 6.625 -7.96875 C 6.039062 -8.601562 5.414062 -9.234375 4.75 -9.859375 C 4.09375 -10.492188 3.472656 -11.070312 2.890625 -11.59375 C 2.304688 -12.125 1.820312 -12.582031 1.4375 -12.96875 C 1.0625 -13.351562 0.875 -13.628906 0.875 -13.796875 C 0.875 -14.285156 0.925781 -14.738281 1.03125 -15.15625 C 1.132812 -15.570312 1.304688 -15.894531 1.546875 -16.125 C 2.109375 -16.738281 2.9375 -17.375 4.03125 -18.03125 C 5.132812 -18.6875 6.398438 -19.363281 7.828125 -20.0625 C 9.253906 -20.769531 10.710938 -21.488281 12.203125 -22.21875 L 13.265625 -19.90625 C 11.421875 -18.976562 9.613281 -18.082031 7.84375 -17.21875 C 6.070312 -16.363281 4.523438 -15.476562 3.203125 -14.5625 C 4.359375 -13.570312 5.4375 -12.613281 6.4375 -11.6875 C 7.445312 -10.769531 8.378906 -9.78125 9.234375 -8.71875 C 10.097656 -7.664062 10.882812 -6.46875 11.59375 -5.125 C 12.039062 -4.300781 12.554688 -3.703125 13.140625 -3.328125 C 13.722656 -2.953125 14.296875 -2.707031 14.859375 -2.59375 C 15.429688 -2.476562 15.90625 -2.421875 16.28125 -2.421875 C 16.71875 -2.421875 17.035156 -2.300781 17.234375 -2.0625 C 17.441406 -1.820312 17.546875 -1.53125 17.546875 -1.1875 C 17.546875 -0.851562 17.394531 -0.546875 17.09375 -0.265625 C 16.800781 0.015625 16.425781 0.15625 15.96875 0.15625 C 15.46875 0.15625 14.882812 0.0859375 14.21875 -0.046875 C 13.5625 -0.179688 12.894531 -0.441406 12.21875 -0.828125 C 11.550781 -1.222656 10.96875 -1.796875 10.46875 -2.546875 C 10.050781 -1.941406 9.523438 -1.4375 8.890625 -1.03125 C 8.265625 -0.632812 7.445312 -0.335938 6.4375 -0.140625 C 5.4375 0.0546875 4.160156 0.15625 2.609375 0.15625 Z M 0 0.15625 "/></g></g></g><g fill="#ffffff" fill-opacity="1"><g transform="translate(145.990873, 222.341309)"><g><path d="M 0 0.15625 L 0.3125 -2.421875 C 1.007812 -2.421875 1.800781 -2.425781 2.6875 -2.4375 C 3.582031 -2.445312 4.445312 -2.488281 5.28125 -2.5625 C 6.113281 -2.632812 6.773438 -2.753906 7.265625 -2.921875 C 7.929688 -3.148438 8.46875 -3.445312 8.875 -3.8125 C 9.289062 -4.1875 9.601562 -4.664062 9.8125 -5.25 C 9.4375 -5.125 9.03125 -5.035156 8.59375 -4.984375 C 8.164062 -4.929688 7.742188 -4.90625 7.328125 -4.90625 C 5.710938 -4.90625 4.472656 -5.28125 3.609375 -6.03125 C 2.753906 -6.789062 2.328125 -7.742188 2.328125 -8.890625 C 2.328125 -9.691406 2.453125 -10.492188 2.703125 -11.296875 C 2.953125 -12.109375 3.304688 -12.847656 3.765625 -13.515625 C 4.234375 -14.191406 4.789062 -14.734375 5.4375 -15.140625 C 6.082031 -15.546875 6.804688 -15.75 7.609375 -15.75 C 8.742188 -15.75 9.679688 -15.375 10.421875 -14.625 C 11.160156 -13.882812 11.710938 -12.925781 12.078125 -11.75 C 12.453125 -10.582031 12.640625 -9.335938 12.640625 -8.015625 C 12.640625 -6.441406 12.367188 -5.09375 11.828125 -3.96875 C 11.296875 -2.851562 10.414062 -1.925781 9.1875 -1.1875 C 8.53125 -0.8125 7.710938 -0.523438 6.734375 -0.328125 C 5.765625 -0.128906 4.703125 0 3.546875 0.0625 C 2.398438 0.125 1.21875 0.15625 0 0.15625 Z M 4.8125 -9.53125 C 4.8125 -8.875 5.019531 -8.351562 5.4375 -7.96875 C 5.851562 -7.582031 6.578125 -7.390625 7.609375 -7.390625 C 8.503906 -7.390625 9.363281 -7.515625 10.1875 -7.765625 C 10.1875 -7.890625 10.1875 -8.035156 10.1875 -8.203125 C 10.1875 -9.066406 10.070312 -9.878906 9.84375 -10.640625 C 9.613281 -11.398438 9.285156 -12.007812 8.859375 -12.46875 C 8.441406 -12.9375 7.941406 -13.171875 7.359375 -13.171875 C 6.859375 -13.171875 6.414062 -12.988281 6.03125 -12.625 C 5.65625 -12.257812 5.359375 -11.789062 5.140625 -11.21875 C 4.921875 -10.65625 4.8125 -10.09375 4.8125 -9.53125 Z M 7.015625 -18.984375 C 6.578125 -18.984375 6.203125 -19.132812 5.890625 -19.4375 C 5.585938 -19.738281 5.4375 -20.097656 5.4375 -20.515625 C 5.4375 -20.941406 5.585938 -21.3125 5.890625 -21.625 C 6.203125 -21.9375 6.578125 -22.09375 7.015625 -22.09375 C 7.429688 -22.09375 7.789062 -21.9375 8.09375 -21.625 C 8.394531 -21.3125 8.546875 -20.941406 8.546875 -20.515625 C 8.546875 -20.097656 8.394531 -19.738281 8.09375 -19.4375 C 7.789062 -19.132812 7.429688 -18.984375 7.015625 -18.984375 Z M 7.015625 -18.984375 "/></g></g></g><g fill="#ffffff" fill-opacity="1"><g transform="translate(160.039983, 222.341309)"><g/></g></g><g fill="#ffffff" fill-opacity="1"><g transform="translate(167.897427, 222.341309)"><g><path d="M 0.9375 0.03125 C 0.9375 -0.71875 1.039062 -1.550781 1.25 -2.46875 C 1.46875 -3.394531 1.804688 -4.414062 2.265625 -5.53125 L 4.53125 -4.65625 C 4.195312 -3.769531 3.941406 -2.957031 3.765625 -2.21875 C 3.597656 -1.488281 3.515625 -0.8125 3.515625 -0.1875 C 3.515625 0.988281 3.851562 1.9375 4.53125 2.65625 C 5.21875 3.375 6.117188 3.898438 7.234375 4.234375 C 8.359375 4.578125 9.59375 4.75 10.9375 4.75 C 12.550781 4.75 14.023438 4.5625 15.359375 4.1875 C 16.691406 3.820312 17.753906 3.328125 18.546875 2.703125 C 19.347656 2.078125 19.75 1.382812 19.75 0.625 C 19.75 0.0820312 19.328125 -0.382812 18.484375 -0.78125 C 17.648438 -1.1875 16.476562 -1.597656 14.96875 -2.015625 L 15.5625 -4.625 C 17.71875 -3.757812 19.410156 -3.175781 20.640625 -2.875 C 21.867188 -2.570312 22.804688 -2.421875 23.453125 -2.421875 C 23.890625 -2.421875 24.207031 -2.300781 24.40625 -2.0625 C 24.601562 -1.820312 24.703125 -1.53125 24.703125 -1.1875 C 24.703125 -0.851562 24.554688 -0.546875 24.265625 -0.265625 C 23.972656 0.015625 23.597656 0.15625 23.140625 0.15625 L 21.96875 0.15625 C 21.988281 0.34375 22.015625 0.492188 22.046875 0.609375 C 22.078125 0.722656 22.09375 0.875 22.09375 1.0625 C 22.09375 2.09375 21.617188 3.082031 20.671875 4.03125 C 19.734375 4.988281 18.378906 5.769531 16.609375 6.375 C 14.835938 6.988281 12.71875 7.296875 10.25 7.296875 C 8.570312 7.296875 7.03125 7.03125 5.625 6.5 C 4.21875 5.976562 3.082031 5.175781 2.21875 4.09375 C 1.363281 3.019531 0.9375 1.664062 0.9375 0.03125 Z M 12.515625 13.234375 C 12.066406 13.234375 11.691406 13.082031 11.390625 12.78125 C 11.085938 12.476562 10.9375 12.117188 10.9375 11.703125 C 10.9375 11.273438 11.085938 10.90625 11.390625 10.59375 C 11.691406 10.28125 12.066406 10.125 12.515625 10.125 C 12.929688 10.125 13.289062 10.28125 13.59375 10.59375 C 13.894531 10.90625 14.046875 11.273438 14.046875 11.703125 C 14.046875 12.117188 13.894531 12.476562 13.59375 12.78125 C 13.289062 13.082031 12.929688 13.234375 12.515625 13.234375 Z M 8.203125 13.234375 C 7.765625 13.234375 7.390625 13.082031 7.078125 12.78125 C 6.773438 12.476562 6.625 12.117188 6.625 11.703125 C 6.625 11.273438 6.773438 10.90625 7.078125 10.59375 C 7.390625 10.28125 7.765625 10.125 8.203125 10.125 C 8.617188 10.125 8.976562 10.28125 9.28125 10.59375 C 9.582031 10.90625 9.734375 11.273438 9.734375 11.703125 C 9.734375 12.117188 9.582031 12.476562 9.28125 12.78125 C 8.976562 13.082031 8.617188 13.234375 8.203125 13.234375 Z M 8.203125 13.234375 "/></g></g></g><g fill="#ffffff" fill-opacity="1"><g transform="translate(191.029735, 222.341309)"><g><path d="M 0 0.15625 L 0.3125 -2.421875 C 0.894531 -2.421875 1.382812 -2.546875 1.78125 -2.796875 C 2.1875 -3.046875 2.578125 -3.457031 2.953125 -4.03125 C 3.328125 -4.613281 3.738281 -5.40625 4.1875 -6.40625 C 4.789062 -7.75 5.390625 -8.765625 5.984375 -9.453125 C 6.585938 -10.148438 7.1875 -10.625 7.78125 -10.875 C 8.375 -11.125 8.96875 -11.25 9.5625 -11.25 C 10.269531 -11.25 10.925781 -11.066406 11.53125 -10.703125 C 12.144531 -10.335938 12.679688 -9.847656 13.140625 -9.234375 C 13.597656 -8.628906 13.957031 -7.960938 14.21875 -7.234375 C 14.488281 -6.515625 14.625 -5.800781 14.625 -5.09375 C 14.625 -3.832031 14.398438 -2.828125 13.953125 -2.078125 C 13.515625 -1.335938 12.953125 -0.804688 12.265625 -0.484375 C 11.585938 -0.160156 10.882812 0 10.15625 0 C 9.550781 0 8.78125 -0.101562 7.84375 -0.3125 C 6.90625 -0.519531 5.738281 -1.066406 4.34375 -1.953125 C 3.664062 -0.984375 2.992188 -0.390625 2.328125 -0.171875 C 1.660156 0.046875 0.882812 0.15625 0 0.15625 Z M 5.875 -4.75 C 5.75 -4.476562 5.632812 -4.21875 5.53125 -3.96875 C 6.4375 -3.4375 7.257812 -3.070312 8 -2.875 C 8.738281 -2.675781 9.363281 -2.578125 9.875 -2.578125 C 10.769531 -2.578125 11.40625 -2.773438 11.78125 -3.171875 C 12.164062 -3.566406 12.359375 -4.09375 12.359375 -4.75 C 12.359375 -5.351562 12.207031 -5.957031 11.90625 -6.5625 C 11.613281 -7.175781 11.242188 -7.679688 10.796875 -8.078125 C 10.347656 -8.472656 9.875 -8.671875 9.375 -8.671875 C 8.988281 -8.671875 8.617188 -8.566406 8.265625 -8.359375 C 7.910156 -8.148438 7.546875 -7.757812 7.171875 -7.1875 C 6.796875 -6.625 6.363281 -5.8125 5.875 -4.75 Z M 5.875 -4.75 "/></g></g></g><g fill="#ffffff" fill-opacity="1"><g transform="translate(207.530363, 222.341309)"><g><path d="M 4.46875 0.15625 C 3.894531 0.15625 3.320312 0.109375 2.75 0.015625 C 2.175781 -0.078125 1.773438 -0.144531 1.546875 -0.1875 L 1.890625 -2.671875 C 3.773438 -2.421875 5.5 -2.445312 7.0625 -2.75 C 8.625 -3.050781 9.863281 -3.8125 10.78125 -5.03125 C 9.96875 -6.375 8.742188 -8.003906 7.109375 -9.921875 C 5.472656 -11.835938 3.519531 -13.8125 1.25 -15.84375 L 2.953125 -17.640625 C 5.171875 -15.546875 7.003906 -13.648438 8.453125 -11.953125 C 9.898438 -10.253906 11.066406 -8.773438 11.953125 -7.515625 C 12.203125 -8.410156 12.347656 -9.4375 12.390625 -10.59375 L 11.953125 -22.453125 L 14.53125 -22.453125 L 15.15625 -6.25 C 15.195312 -5.226562 15.296875 -4.4375 15.453125 -3.875 C 15.609375 -3.320312 15.960938 -2.941406 16.515625 -2.734375 C 17.078125 -2.523438 17.953125 -2.421875 19.140625 -2.421875 C 19.585938 -2.421875 19.910156 -2.300781 20.109375 -2.0625 C 20.304688 -1.820312 20.40625 -1.53125 20.40625 -1.1875 C 20.40625 -0.851562 20.253906 -0.546875 19.953125 -0.265625 C 19.660156 0.015625 19.285156 0.15625 18.828125 0.15625 C 17.359375 0.15625 16.191406 0.015625 15.328125 -0.265625 C 14.472656 -0.546875 13.847656 -0.984375 13.453125 -1.578125 C 13.054688 -2.179688 12.796875 -2.953125 12.671875 -3.890625 C 12.015625 -2.742188 11.210938 -1.875 10.265625 -1.28125 C 9.328125 -0.695312 8.347656 -0.3125 7.328125 -0.125 C 6.316406 0.0625 5.363281 0.15625 4.46875 0.15625 Z M 4.46875 0.15625 "/></g></g></g><g fill="#ffffff" fill-opacity="1"><g transform="translate(226.356796, 222.341309)"><g><path d="M 0 0.15625 L 0.3125 -2.421875 C 0.988281 -2.421875 1.535156 -2.46875 1.953125 -2.5625 C 2.367188 -2.65625 2.71875 -2.894531 3 -3.28125 C 3.28125 -3.664062 3.546875 -4.273438 3.796875 -5.109375 C 4.054688 -5.953125 4.351562 -7.128906 4.6875 -8.640625 L 7.046875 -7.984375 C 6.921875 -7.441406 6.769531 -6.800781 6.59375 -6.0625 C 6.425781 -5.332031 6.34375 -4.675781 6.34375 -4.09375 C 6.34375 -3.5625 6.539062 -3.148438 6.9375 -2.859375 C 7.34375 -2.566406 8.066406 -2.421875 9.109375 -2.421875 C 9.742188 -2.421875 10.257812 -2.472656 10.65625 -2.578125 C 11.050781 -2.679688 11.378906 -2.929688 11.640625 -3.328125 C 11.910156 -3.722656 12.148438 -4.351562 12.359375 -5.21875 C 12.566406 -6.09375 12.785156 -7.304688 13.015625 -8.859375 L 15.40625 -8.421875 C 15.34375 -8.046875 15.265625 -7.582031 15.171875 -7.03125 C 15.078125 -6.488281 15 -5.953125 14.9375 -5.421875 C 14.875 -4.890625 14.84375 -4.445312 14.84375 -4.09375 C 14.84375 -3.789062 14.910156 -3.507812 15.046875 -3.25 C 15.179688 -2.988281 15.453125 -2.785156 15.859375 -2.640625 C 16.265625 -2.492188 16.878906 -2.421875 17.703125 -2.421875 C 18.597656 -2.421875 19.316406 -2.597656 19.859375 -2.953125 C 20.410156 -3.304688 20.6875 -4.03125 20.6875 -5.125 C 20.6875 -5.894531 20.5 -6.890625 20.125 -8.109375 C 19.757812 -9.328125 19.347656 -10.53125 18.890625 -11.71875 L 21.4375 -12.671875 C 21.6875 -11.972656 21.9375 -11.195312 22.1875 -10.34375 C 22.445312 -9.5 22.660156 -8.660156 22.828125 -7.828125 C 22.992188 -6.992188 23.078125 -6.257812 23.078125 -5.625 C 23.078125 -3.675781 22.59375 -2.222656 21.625 -1.265625 C 20.664062 -0.316406 19.347656 0.15625 17.671875 0.15625 C 16.515625 0.15625 15.601562 0.00390625 14.9375 -0.296875 C 14.28125 -0.597656 13.804688 -1.078125 13.515625 -1.734375 C 13.015625 -0.953125 12.410156 -0.441406 11.703125 -0.203125 C 11.003906 0.0351562 10.015625 0.15625 8.734375 0.15625 C 8.296875 0.15625 7.832031 0.101562 7.34375 0 C 6.851562 -0.101562 6.394531 -0.304688 5.96875 -0.609375 C 5.550781 -0.910156 5.226562 -1.367188 5 -1.984375 C 4.457031 -1.054688 3.78125 -0.46875 2.96875 -0.21875 C 2.164062 0.03125 1.175781 0.15625 0 0.15625 Z M 0 0.15625 "/></g></g></g><g fill="#ffffff" fill-opacity="1"><g transform="translate(250.997733, 222.341309)"><g><path d="M 2.890625 0 L 2.265625 -22.453125 L 4.8125 -22.453125 L 5.4375 0 Z M 2.890625 0 "/></g></g></g><g fill="#000000" fill-opacity="1"><g transform="translate(106.369011, 242.246278)"><g><path d="M 0.296875 -0.3125 C 0.296875 -0.5625 0.328125 -0.882812 0.390625 -1.28125 C 0.460938 -1.675781 0.625 -2.144531 0.875 -2.6875 L 2.25 -2.203125 C 2.113281 -1.859375 2.015625 -1.5625 1.953125 -1.3125 C 1.890625 -1.0625 1.859375 -0.816406 1.859375 -0.578125 C 1.859375 -0.0859375 2.066406 0.296875 2.484375 0.578125 C 2.898438 0.867188 3.503906 1.015625 4.296875 1.015625 C 5.109375 1.015625 5.75 0.9375 6.21875 0.78125 C 6.6875 0.632812 6.921875 0.410156 6.921875 0.109375 C 6.921875 -0.015625 6.816406 -0.140625 6.609375 -0.265625 C 6.398438 -0.390625 6.050781 -0.539062 5.5625 -0.71875 L 5.921875 -2.296875 C 6.554688 -2.023438 7.132812 -1.820312 7.65625 -1.6875 C 8.175781 -1.5625 8.632812 -1.5 9.03125 -1.5 C 9.3125 -1.5 9.507812 -1.425781 9.625 -1.28125 C 9.75 -1.144531 9.8125 -0.96875 9.8125 -0.75 C 9.8125 -0.519531 9.734375 -0.328125 9.578125 -0.171875 C 9.421875 -0.015625 9.203125 0.0625 8.921875 0.0625 L 8.40625 0.0625 C 8.425781 0.132812 8.4375 0.195312 8.4375 0.25 C 8.4375 0.300781 8.4375 0.351562 8.4375 0.40625 C 8.4375 0.65625 8.351562 0.90625 8.1875 1.15625 C 8.019531 1.414062 7.757812 1.648438 7.40625 1.859375 C 7.0625 2.078125 6.617188 2.25 6.078125 2.375 C 5.535156 2.507812 4.894531 2.578125 4.15625 2.578125 C 2.9375 2.578125 1.988281 2.34375 1.3125 1.875 C 0.632812 1.414062 0.296875 0.6875 0.296875 -0.3125 Z M 4.234375 4.96875 C 4.046875 4.96875 3.878906 4.898438 3.734375 4.765625 C 3.597656 4.628906 3.53125 4.46875 3.53125 4.28125 C 3.53125 4.082031 3.597656 3.910156 3.734375 3.765625 C 3.878906 3.628906 4.046875 3.5625 4.234375 3.5625 C 4.421875 3.5625 4.582031 3.628906 4.71875 3.765625 C 4.863281 3.910156 4.9375 4.082031 4.9375 4.28125 C 4.9375 4.46875 4.863281 4.628906 4.71875 4.765625 C 4.582031 4.898438 4.421875 4.96875 4.234375 4.96875 Z M 4.234375 6.875 C 4.046875 6.875 3.878906 6.804688 3.734375 6.671875 C 3.597656 6.535156 3.53125 6.375 3.53125 6.1875 C 3.53125 5.988281 3.597656 5.816406 3.734375 5.671875 C 3.878906 5.535156 4.046875 5.46875 4.234375 5.46875 C 4.421875 5.46875 4.582031 5.535156 4.71875 5.671875 C 4.863281 5.816406 4.9375 5.988281 4.9375 6.1875 C 4.9375 6.375 4.863281 6.535156 4.71875 6.671875 C 4.582031 6.804688 4.421875 6.875 4.234375 6.875 Z M 4.234375 6.875 "/></g></g></g><g fill="#000000" fill-opacity="1"><g transform="translate(115.284679, 242.246278)"><g><path d="M 0 0.0625 L 0.109375 -1.5 C 0.390625 -1.5 0.613281 -1.523438 0.78125 -1.578125 C 0.945312 -1.628906 1.082031 -1.734375 1.1875 -1.890625 C 1.289062 -2.054688 1.375 -2.296875 1.4375 -2.609375 C 1.507812 -2.921875 1.582031 -3.335938 1.65625 -3.859375 L 3.125 -3.609375 C 3.09375 -3.441406 3.054688 -3.238281 3.015625 -3 C 2.984375 -2.757812 2.96875 -2.539062 2.96875 -2.34375 C 2.96875 -2.164062 3.003906 -2.015625 3.078125 -1.890625 C 3.160156 -1.765625 3.300781 -1.664062 3.5 -1.59375 C 3.707031 -1.53125 4.003906 -1.5 4.390625 -1.5 C 4.671875 -1.5 4.867188 -1.425781 4.984375 -1.28125 C 5.109375 -1.144531 5.171875 -0.96875 5.171875 -0.75 C 5.171875 -0.519531 5.09375 -0.328125 4.9375 -0.171875 C 4.789062 -0.015625 4.570312 0.0625 4.28125 0.0625 C 3.6875 0.0625 3.222656 0 2.890625 -0.125 C 2.566406 -0.257812 2.332031 -0.488281 2.1875 -0.8125 C 1.914062 -0.425781 1.585938 -0.179688 1.203125 -0.078125 C 0.828125 0.015625 0.425781 0.0625 0 0.0625 Z M 2.375 -4.875 C 2.144531 -4.875 1.953125 -4.953125 1.796875 -5.109375 C 1.640625 -5.265625 1.5625 -5.460938 1.5625 -5.703125 C 1.5625 -5.929688 1.640625 -6.125 1.796875 -6.28125 C 1.953125 -6.445312 2.144531 -6.53125 2.375 -6.53125 C 2.601562 -6.53125 2.796875 -6.445312 2.953125 -6.28125 C 3.117188 -6.125 3.203125 -5.929688 3.203125 -5.703125 C 3.203125 -5.460938 3.117188 -5.265625 2.953125 -5.109375 C 2.796875 -4.953125 2.601562 -4.875 2.375 -4.875 Z M 2.375 -4.875 "/></g></g></g><g fill="#000000" fill-opacity="1"><g transform="translate(119.564196, 242.246278)"><g><path d="M 0 0.0625 L 0.109375 -1.5 L 1.671875 -1.5 C 2.054688 -1.5 2.3125 -1.53125 2.4375 -1.59375 C 2.570312 -1.664062 2.640625 -1.773438 2.640625 -1.921875 C 2.640625 -2.085938 2.554688 -2.28125 2.390625 -2.5 C 2.234375 -2.71875 2.035156 -2.941406 1.796875 -3.171875 C 1.554688 -3.410156 1.316406 -3.640625 1.078125 -3.859375 C 0.835938 -4.085938 0.640625 -4.285156 0.484375 -4.453125 C 0.328125 -4.617188 0.25 -4.738281 0.25 -4.8125 C 0.25 -5.125 0.269531 -5.34375 0.3125 -5.46875 C 0.363281 -5.601562 0.429688 -5.710938 0.515625 -5.796875 C 0.679688 -5.972656 0.957031 -6.171875 1.34375 -6.390625 C 1.726562 -6.617188 2.191406 -6.863281 2.734375 -7.125 C 3.273438 -7.382812 3.867188 -7.664062 4.515625 -7.96875 L 5.15625 -6.609375 C 4.414062 -6.273438 3.789062 -5.984375 3.28125 -5.734375 C 2.78125 -5.492188 2.359375 -5.273438 2.015625 -5.078125 C 2.503906 -4.628906 2.925781 -4.195312 3.28125 -3.78125 C 3.632812 -3.375 3.972656 -2.914062 4.296875 -2.40625 C 4.453125 -2.144531 4.617188 -1.945312 4.796875 -1.8125 C 4.972656 -1.6875 5.144531 -1.601562 5.3125 -1.5625 C 5.476562 -1.519531 5.628906 -1.5 5.765625 -1.5 C 6.046875 -1.5 6.25 -1.425781 6.375 -1.28125 C 6.5 -1.144531 6.5625 -0.96875 6.5625 -0.75 C 6.5625 -0.519531 6.484375 -0.328125 6.328125 -0.171875 C 6.171875 -0.015625 5.945312 0.0625 5.65625 0.0625 C 5.363281 0.0625 5.046875 0.00390625 4.703125 -0.109375 C 4.359375 -0.234375 4.066406 -0.445312 3.828125 -0.75 C 3.585938 -0.457031 3.28125 -0.25 2.90625 -0.125 C 2.539062 0 2.09375 0.0625 1.5625 0.0625 Z M 0 0.0625 "/></g></g></g><g fill="#000000" fill-opacity="1"><g transform="translate(125.225645, 242.246278)"><g><path d="M 0 0.0625 L 0.109375 -1.5 C 0.378906 -1.5 0.609375 -1.523438 0.796875 -1.578125 C 0.992188 -1.628906 1.160156 -1.734375 1.296875 -1.890625 C 1.429688 -2.054688 1.546875 -2.296875 1.640625 -2.609375 C 1.734375 -2.921875 1.816406 -3.335938 1.890625 -3.859375 L 3.34375 -3.609375 C 3.3125 -3.441406 3.273438 -3.238281 3.234375 -3 C 3.203125 -2.757812 3.1875 -2.539062 3.1875 -2.34375 C 3.1875 -2.070312 3.296875 -1.863281 3.515625 -1.71875 C 3.742188 -1.570312 4.128906 -1.5 4.671875 -1.5 C 4.953125 -1.5 5.148438 -1.425781 5.265625 -1.28125 C 5.390625 -1.144531 5.453125 -0.96875 5.453125 -0.75 C 5.453125 -0.519531 5.375 -0.328125 5.21875 -0.171875 C 5.070312 -0.015625 4.851562 0.0625 4.5625 0.0625 C 4.039062 0.0625 3.59375 -0.00390625 3.21875 -0.140625 C 2.851562 -0.273438 2.585938 -0.515625 2.421875 -0.859375 C 2.222656 -0.585938 1.988281 -0.382812 1.71875 -0.25 C 1.445312 -0.125 1.160156 -0.0390625 0.859375 0 C 0.566406 0.0390625 0.28125 0.0625 0 0.0625 Z M 3.109375 2.65625 C 2.890625 2.65625 2.703125 2.578125 2.546875 2.421875 C 2.398438 2.273438 2.328125 2.09375 2.328125 1.875 C 2.328125 1.664062 2.398438 1.484375 2.546875 1.328125 C 2.703125 1.171875 2.890625 1.09375 3.109375 1.09375 C 3.316406 1.09375 3.492188 1.171875 3.640625 1.328125 C 3.785156 1.484375 3.859375 1.664062 3.859375 1.875 C 3.859375 2.09375 3.785156 2.273438 3.640625 2.421875 C 3.492188 2.578125 3.316406 2.65625 3.109375 2.65625 Z M 1.171875 2.65625 C 0.960938 2.65625 0.78125 2.578125 0.625 2.421875 C 0.46875 2.273438 0.390625 2.09375 0.390625 1.875 C 0.390625 1.664062 0.46875 1.484375 0.625 1.328125 C 0.78125 1.171875 0.960938 1.09375 1.171875 1.09375 C 1.378906 1.09375 1.554688 1.171875 1.703125 1.328125 C 1.859375 1.484375 1.9375 1.664062 1.9375 1.875 C 1.9375 2.09375 1.859375 2.273438 1.703125 2.421875 C 1.554688 2.578125 1.378906 2.65625 1.171875 2.65625 Z M 1.171875 2.65625 "/></g></g></g><g fill="#000000" fill-opacity="1"><g transform="translate(129.783781, 242.246278)"><g><path d="M 0 0.0625 L 0.109375 -1.5 C 0.453125 -1.5 0.695312 -1.535156 0.84375 -1.609375 C 1 -1.679688 1.085938 -1.816406 1.109375 -2.015625 C 1.140625 -2.210938 1.148438 -2.5 1.140625 -2.875 L 0.9375 -8.171875 L 2.515625 -8.171875 L 2.734375 -2.765625 C 2.742188 -2.335938 2.722656 -1.945312 2.671875 -1.59375 C 2.628906 -1.25 2.515625 -0.953125 2.328125 -0.703125 C 2.148438 -0.460938 1.875 -0.273438 1.5 -0.140625 C 1.125 -0.00390625 0.625 0.0625 0 0.0625 Z M 0 0.0625 "/></g></g></g><g fill="#000000" fill-opacity="1"><g transform="translate(133.093721, 242.246278)"><g/></g></g><g fill="#000000" fill-opacity="1"><g transform="translate(135.456376, 242.246278)"><g><path d="M 0.640625 2.5625 L 0.3125 1 C 0.976562 0.914062 1.539062 0.804688 2 0.671875 C 2.457031 0.546875 2.8125 0.34375 3.0625 0.0625 L 2.765625 0.0625 C 2.066406 0.0625 1.519531 -0.0664062 1.125 -0.328125 C 0.726562 -0.585938 0.53125 -1.03125 0.53125 -1.65625 C 0.53125 -1.988281 0.585938 -2.320312 0.703125 -2.65625 C 0.816406 -2.988281 0.976562 -3.296875 1.1875 -3.578125 C 1.394531 -3.859375 1.632812 -4.082031 1.90625 -4.25 C 2.1875 -4.414062 2.492188 -4.5 2.828125 -4.5 C 3.265625 -4.5 3.648438 -4.359375 3.984375 -4.078125 C 4.328125 -3.804688 4.59375 -3.441406 4.78125 -2.984375 C 4.96875 -2.535156 5.0625 -2.039062 5.0625 -1.5 L 5.953125 -1.5 C 6.222656 -1.5 6.421875 -1.425781 6.546875 -1.28125 C 6.671875 -1.144531 6.734375 -0.96875 6.734375 -0.75 C 6.734375 -0.519531 6.65625 -0.328125 6.5 -0.171875 C 6.34375 -0.015625 6.117188 0.0625 5.828125 0.0625 L 4.8125 0.0625 C 4.519531 0.832031 4.015625 1.425781 3.296875 1.84375 C 2.578125 2.269531 1.691406 2.507812 0.640625 2.5625 Z M 2.0625 -1.921875 C 2.0625 -1.835938 2.085938 -1.753906 2.140625 -1.671875 C 2.203125 -1.585938 2.332031 -1.519531 2.53125 -1.46875 C 2.726562 -1.414062 3.046875 -1.410156 3.484375 -1.453125 C 3.484375 -1.878906 3.414062 -2.21875 3.28125 -2.46875 C 3.144531 -2.71875 2.96875 -2.84375 2.75 -2.84375 C 2.59375 -2.84375 2.460938 -2.785156 2.359375 -2.671875 C 2.253906 -2.566406 2.175781 -2.441406 2.125 -2.296875 C 2.082031 -2.160156 2.0625 -2.035156 2.0625 -1.921875 Z M 2.0625 -1.921875 "/></g></g></g><g fill="#000000" fill-opacity="1"><g transform="translate(141.296136, 242.246278)"><g><path d="M 0 0.0625 L 0.109375 -1.5 C 0.378906 -1.5 0.609375 -1.523438 0.796875 -1.578125 C 0.992188 -1.628906 1.160156 -1.734375 1.296875 -1.890625 C 1.429688 -2.054688 1.546875 -2.296875 1.640625 -2.609375 C 1.734375 -2.921875 1.816406 -3.335938 1.890625 -3.859375 L 3.34375 -3.609375 C 3.3125 -3.441406 3.273438 -3.238281 3.234375 -3 C 3.203125 -2.757812 3.1875 -2.539062 3.1875 -2.34375 C 3.1875 -2.070312 3.296875 -1.863281 3.515625 -1.71875 C 3.742188 -1.570312 4.128906 -1.5 4.671875 -1.5 C 4.953125 -1.5 5.148438 -1.425781 5.265625 -1.28125 C 5.390625 -1.144531 5.453125 -0.96875 5.453125 -0.75 C 5.453125 -0.519531 5.375 -0.328125 5.21875 -0.171875 C 5.070312 -0.015625 4.851562 0.0625 4.5625 0.0625 C 4.039062 0.0625 3.59375 -0.00390625 3.21875 -0.140625 C 2.851562 -0.273438 2.585938 -0.515625 2.421875 -0.859375 C 2.222656 -0.585938 1.988281 -0.382812 1.71875 -0.25 C 1.445312 -0.125 1.160156 -0.0390625 0.859375 0 C 0.566406 0.0390625 0.28125 0.0625 0 0.0625 Z M 1.65625 -4.875 C 1.4375 -4.875 1.25 -4.945312 1.09375 -5.09375 C 0.945312 -5.25 0.875 -5.429688 0.875 -5.640625 C 0.875 -5.859375 0.945312 -6.046875 1.09375 -6.203125 C 1.25 -6.359375 1.4375 -6.4375 1.65625 -6.4375 C 1.863281 -6.4375 2.039062 -6.359375 2.1875 -6.203125 C 2.34375 -6.046875 2.421875 -5.859375 2.421875 -5.640625 C 2.421875 -5.429688 2.34375 -5.25 2.1875 -5.09375 C 2.039062 -4.945312 1.863281 -4.875 1.65625 -4.875 Z M 3.578125 -4.859375 C 3.367188 -4.859375 3.1875 -4.929688 3.03125 -5.078125 C 2.882812 -5.234375 2.8125 -5.414062 2.8125 -5.625 C 2.8125 -5.84375 2.882812 -6.03125 3.03125 -6.1875 C 3.1875 -6.34375 3.367188 -6.421875 3.578125 -6.421875 C 3.785156 -6.421875 3.960938 -6.34375 4.109375 -6.1875 C 4.265625 -6.03125 4.34375 -5.84375 4.34375 -5.625 C 4.34375 -5.414062 4.265625 -5.234375 4.109375 -5.078125 C 3.960938 -4.929688 3.785156 -4.859375 3.578125 -4.859375 Z M 3.578125 -4.859375 "/></g></g></g><g fill="#000000" fill-opacity="1"><g transform="translate(145.854272, 242.246278)"><g><path d="M 0 0.0625 L 0.109375 -1.5 C 0.359375 -1.5 0.5625 -1.519531 0.71875 -1.5625 C 0.875 -1.601562 1 -1.695312 1.09375 -1.84375 C 1.195312 -1.988281 1.285156 -2.207031 1.359375 -2.5 C 1.441406 -2.789062 1.53125 -3.191406 1.625 -3.703125 L 3.078125 -3.4375 C 3.046875 -3.269531 3.003906 -3.0625 2.953125 -2.8125 C 2.910156 -2.570312 2.890625 -2.363281 2.890625 -2.1875 C 2.890625 -1.976562 2.953125 -1.8125 3.078125 -1.6875 C 3.210938 -1.5625 3.46875 -1.5 3.84375 -1.5 C 4.03125 -1.5 4.191406 -1.519531 4.328125 -1.5625 C 4.472656 -1.601562 4.59375 -1.695312 4.6875 -1.84375 C 4.789062 -1.988281 4.878906 -2.210938 4.953125 -2.515625 C 5.035156 -2.828125 5.113281 -3.25 5.1875 -3.78125 L 6.65625 -3.546875 C 6.613281 -3.285156 6.566406 -3.007812 6.515625 -2.71875 C 6.472656 -2.425781 6.453125 -2.207031 6.453125 -2.0625 C 6.453125 -1.914062 6.519531 -1.785156 6.65625 -1.671875 C 6.800781 -1.554688 7.082031 -1.5 7.5 -1.5 C 8.15625 -1.5 8.484375 -1.796875 8.484375 -2.390625 C 8.484375 -2.640625 8.472656 -2.925781 8.453125 -3.25 C 8.429688 -3.570312 8.390625 -3.976562 8.328125 -4.46875 L 9.765625 -4.578125 C 9.816406 -3.929688 9.875 -3.40625 9.9375 -3 C 10.007812 -2.601562 10.101562 -2.296875 10.21875 -2.078125 C 10.332031 -1.859375 10.488281 -1.707031 10.6875 -1.625 C 10.882812 -1.539062 11.144531 -1.5 11.46875 -1.5 C 11.75 -1.5 11.953125 -1.425781 12.078125 -1.28125 C 12.203125 -1.144531 12.265625 -0.96875 12.265625 -0.75 C 12.265625 -0.519531 12.1875 -0.328125 12.03125 -0.171875 C 11.875 -0.015625 11.648438 0.0625 11.359375 0.0625 C 11.109375 0.0625 10.851562 0.0351562 10.59375 -0.015625 C 10.332031 -0.0664062 10.085938 -0.175781 9.859375 -0.34375 C 9.640625 -0.507812 9.457031 -0.753906 9.3125 -1.078125 C 9.144531 -0.628906 8.90625 -0.328125 8.59375 -0.171875 C 8.289062 -0.015625 7.890625 0.0625 7.390625 0.0625 C 6.992188 0.0625 6.648438 0 6.359375 -0.125 C 6.066406 -0.25 5.863281 -0.460938 5.75 -0.765625 C 5.601562 -0.523438 5.441406 -0.347656 5.265625 -0.234375 C 5.085938 -0.117188 4.875 -0.0390625 4.625 0 C 4.382812 0.0390625 4.097656 0.0625 3.765625 0.0625 C 3.554688 0.0625 3.351562 0.046875 3.15625 0.015625 C 2.957031 -0.015625 2.769531 -0.0820312 2.59375 -0.1875 C 2.425781 -0.300781 2.285156 -0.476562 2.171875 -0.71875 C 1.910156 -0.382812 1.597656 -0.171875 1.234375 -0.078125 C 0.867188 0.015625 0.457031 0.0625 0 0.0625 Z M 5.078125 2.609375 C 4.859375 2.609375 4.671875 2.535156 4.515625 2.390625 C 4.367188 2.242188 4.296875 2.0625 4.296875 1.84375 C 4.296875 1.625 4.367188 1.4375 4.515625 1.28125 C 4.671875 1.125 4.859375 1.046875 5.078125 1.046875 C 5.285156 1.046875 5.46875 1.125 5.625 1.28125 C 5.78125 1.4375 5.859375 1.625 5.859375 1.84375 C 5.859375 2.0625 5.78125 2.242188 5.625 2.390625 C 5.46875 2.535156 5.285156 2.609375 5.078125 2.609375 Z M 5.640625 -5.375 C 5.410156 -5.375 5.21875 -5.453125 5.0625 -5.609375 C 4.90625 -5.765625 4.828125 -5.960938 4.828125 -6.203125 C 4.828125 -6.429688 4.90625 -6.625 5.0625 -6.78125 C 5.21875 -6.945312 5.410156 -7.03125 5.640625 -7.03125 C 5.867188 -7.03125 6.0625 -6.945312 6.21875 -6.78125 C 6.382812 -6.625 6.46875 -6.429688 6.46875 -6.203125 C 6.46875 -5.960938 6.382812 -5.765625 6.21875 -5.609375 C 6.0625 -5.453125 5.867188 -5.375 5.640625 -5.375 Z M 5.640625 -5.375 "/></g></g></g><g fill="#000000" fill-opacity="1"><g transform="translate(157.210598, 242.246278)"><g><path d="M 0 0.0625 L 0.109375 -1.5 C 0.554688 -1.5 0.898438 -1.519531 1.140625 -1.5625 C 1.378906 -1.613281 1.546875 -1.703125 1.640625 -1.828125 C 1.734375 -1.953125 1.78125 -2.128906 1.78125 -2.359375 C 1.78125 -2.566406 1.75 -2.8125 1.6875 -3.09375 C 1.632812 -3.382812 1.5625 -3.6875 1.46875 -4 C 1.382812 -4.3125 1.296875 -4.597656 1.203125 -4.859375 L 2.75 -5.28125 C 2.832031 -5.03125 2.921875 -4.738281 3.015625 -4.40625 C 3.109375 -4.070312 3.179688 -3.722656 3.234375 -3.359375 C 3.296875 -3.003906 3.328125 -2.671875 3.328125 -2.359375 C 3.328125 -1.847656 3.242188 -1.429688 3.078125 -1.109375 C 2.921875 -0.796875 2.695312 -0.554688 2.40625 -0.390625 C 2.113281 -0.222656 1.757812 -0.101562 1.34375 -0.03125 C 0.9375 0.03125 0.488281 0.0625 0 0.0625 Z M 0.9375 2.5 C 0.738281 2.5 0.570312 2.429688 0.4375 2.296875 C 0.300781 2.171875 0.234375 2.007812 0.234375 1.8125 C 0.234375 1.625 0.300781 1.457031 0.4375 1.3125 C 0.570312 1.164062 0.738281 1.09375 0.9375 1.09375 C 1.125 1.09375 1.285156 1.164062 1.421875 1.3125 C 1.554688 1.457031 1.625 1.625 1.625 1.8125 C 1.625 2.007812 1.554688 2.171875 1.421875 2.296875 C 1.285156 2.429688 1.125 2.5 0.9375 2.5 Z M 2.671875 2.5 C 2.472656 2.5 2.304688 2.429688 2.171875 2.296875 C 2.035156 2.171875 1.96875 2.007812 1.96875 1.8125 C 1.96875 1.625 2.035156 1.457031 2.171875 1.3125 C 2.304688 1.164062 2.472656 1.09375 2.671875 1.09375 C 2.867188 1.09375 3.03125 1.164062 3.15625 1.3125 C 3.289062 1.457031 3.359375 1.625 3.359375 1.8125 C 3.359375 2.007812 3.289062 2.171875 3.15625 2.296875 C 3.03125 2.429688 2.867188 2.5 2.671875 2.5 Z M 1.78125 3.984375 C 1.582031 3.984375 1.414062 3.914062 1.28125 3.78125 C 1.144531 3.644531 1.078125 3.476562 1.078125 3.28125 C 1.078125 3.09375 1.144531 2.925781 1.28125 2.78125 C 1.414062 2.644531 1.582031 2.578125 1.78125 2.578125 C 1.96875 2.578125 2.128906 2.644531 2.265625 2.78125 C 2.398438 2.925781 2.46875 3.09375 2.46875 3.28125 C 2.46875 3.476562 2.398438 3.644531 2.265625 3.78125 C 2.128906 3.914062 1.96875 3.984375 1.78125 3.984375 Z M 1.78125 3.984375 "/></g></g></g><g fill="#000000" fill-opacity="1"><g transform="translate(161.211499, 242.246278)"><g/></g></g><g fill="#000000" fill-opacity="1"><g transform="translate(163.574154, 242.246278)"><g><path d="M 0.296875 -0.3125 C 0.296875 -0.5625 0.328125 -0.882812 0.390625 -1.28125 C 0.460938 -1.675781 0.625 -2.144531 0.875 -2.6875 L 2.25 -2.203125 C 2.113281 -1.859375 2.015625 -1.5625 1.953125 -1.3125 C 1.890625 -1.0625 1.859375 -0.816406 1.859375 -0.578125 C 1.859375 -0.0234375 2.039062 0.375 2.40625 0.625 C 2.769531 0.882812 3.257812 1.015625 3.875 1.015625 C 4.332031 1.015625 4.707031 0.953125 5 0.828125 C 5.300781 0.703125 5.535156 0.539062 5.703125 0.34375 C 5.867188 0.15625 5.984375 -0.0507812 6.046875 -0.28125 C 6.109375 -0.519531 6.140625 -0.753906 6.140625 -0.984375 C 6.140625 -1.273438 6.085938 -1.632812 5.984375 -2.0625 C 5.878906 -2.488281 5.695312 -2.960938 5.4375 -3.484375 L 6.875 -4.109375 C 7.019531 -3.847656 7.15625 -3.539062 7.28125 -3.1875 C 7.40625 -2.84375 7.503906 -2.484375 7.578125 -2.109375 C 7.660156 -1.742188 7.703125 -1.394531 7.703125 -1.0625 C 7.703125 -0.757812 7.664062 -0.441406 7.59375 -0.109375 C 7.519531 0.210938 7.394531 0.535156 7.21875 0.859375 C 7.050781 1.179688 6.816406 1.46875 6.515625 1.71875 C 6.210938 1.976562 5.84375 2.1875 5.40625 2.34375 C 4.96875 2.5 4.445312 2.578125 3.84375 2.578125 C 3.1875 2.578125 2.585938 2.476562 2.046875 2.28125 C 1.515625 2.09375 1.085938 1.785156 0.765625 1.359375 C 0.453125 0.929688 0.296875 0.375 0.296875 -0.3125 Z M 3.921875 -4.546875 C 3.691406 -4.546875 3.5 -4.625 3.34375 -4.78125 C 3.1875 -4.9375 3.109375 -5.132812 3.109375 -5.375 C 3.109375 -5.601562 3.1875 -5.796875 3.34375 -5.953125 C 3.5 -6.117188 3.691406 -6.203125 3.921875 -6.203125 C 4.148438 -6.203125 4.34375 -6.117188 4.5 -5.953125 C 4.664062 -5.796875 4.75 -5.601562 4.75 -5.375 C 4.75 -5.132812 4.664062 -4.9375 4.5 -4.78125 C 4.34375 -4.625 4.148438 -4.546875 3.921875 -4.546875 Z M 3.921875 -4.546875 "/></g></g></g><g fill="#000000" fill-opacity="1"><g transform="translate(171.83229, 242.246278)"><g><path d="M 3.53125 0.0625 C 2.84375 0.0625 2.3125 -0.0078125 1.9375 -0.15625 C 1.5625 -0.300781 1.296875 -0.519531 1.140625 -0.8125 C 0.992188 -1.113281 0.910156 -1.5 0.890625 -1.96875 L 0.65625 -8.171875 L 2.21875 -8.171875 L 2.453125 -2.71875 C 2.472656 -2.375 2.507812 -2.113281 2.5625 -1.9375 C 2.625 -1.769531 2.734375 -1.65625 2.890625 -1.59375 C 3.054688 -1.53125 3.304688 -1.5 3.640625 -1.5 C 3.921875 -1.5 4.125 -1.425781 4.25 -1.28125 C 4.375 -1.144531 4.4375 -0.96875 4.4375 -0.75 C 4.4375 -0.519531 4.359375 -0.328125 4.203125 -0.171875 C 4.046875 -0.015625 3.820312 0.0625 3.53125 0.0625 Z M 3.53125 0.0625 "/></g></g></g><g fill="#000000" fill-opacity="1"><g transform="translate(175.376262, 242.246278)"><g><path d="M 0 0.0625 L 0.109375 -1.5 C 0.910156 -1.5 1.691406 -1.585938 2.453125 -1.765625 C 3.210938 -1.953125 3.882812 -2.242188 4.46875 -2.640625 C 4.125 -2.835938 3.742188 -2.988281 3.328125 -3.09375 C 2.921875 -3.207031 2.472656 -3.265625 1.984375 -3.265625 C 1.796875 -3.265625 1.601562 -3.253906 1.40625 -3.234375 C 1.207031 -3.222656 1.007812 -3.191406 0.8125 -3.140625 L 0.59375 -4.671875 C 0.8125 -4.722656 1.035156 -4.765625 1.265625 -4.796875 C 1.503906 -4.828125 1.722656 -4.84375 1.921875 -4.84375 C 2.421875 -4.84375 2.867188 -4.773438 3.265625 -4.640625 C 3.671875 -4.503906 4.039062 -4.347656 4.375 -4.171875 C 4.707031 -3.992188 5.015625 -3.835938 5.296875 -3.703125 C 5.585938 -3.566406 5.867188 -3.5 6.140625 -3.5 L 6.5625 -3.5 L 6.734375 -2.015625 C 6.410156 -1.992188 6.109375 -1.929688 5.828125 -1.828125 C 5.554688 -1.722656 5.285156 -1.585938 5.015625 -1.421875 C 4.742188 -1.265625 4.453125 -1.101562 4.140625 -0.9375 C 3.835938 -0.769531 3.488281 -0.609375 3.09375 -0.453125 C 2.707031 -0.304688 2.257812 -0.179688 1.75 -0.078125 C 1.25 0.015625 0.664062 0.0625 0 0.0625 Z M 1.921875 -5.875 C 1.691406 -5.875 1.5 -5.953125 1.34375 -6.109375 C 1.1875 -6.265625 1.109375 -6.460938 1.109375 -6.703125 C 1.109375 -6.929688 1.1875 -7.125 1.34375 -7.28125 C 1.5 -7.445312 1.691406 -7.53125 1.921875 -7.53125 C 2.148438 -7.53125 2.34375 -7.445312 2.5 -7.28125 C 2.664062 -7.125 2.75 -6.929688 2.75 -6.703125 C 2.75 -6.460938 2.664062 -6.265625 2.5 -6.109375 C 2.34375 -5.953125 2.148438 -5.875 1.921875 -5.875 Z M 1.921875 -5.875 "/></g></g></g><g fill="#000000" fill-opacity="1"><g transform="translate(182.386202, 242.246278)"><g/></g></g><g fill="#000000" fill-opacity="1"><g transform="translate(184.748858, 242.246278)"><g><path d="M 0.296875 -0.3125 C 0.296875 -0.5625 0.328125 -0.882812 0.390625 -1.28125 C 0.460938 -1.675781 0.625 -2.144531 0.875 -2.6875 L 2.25 -2.203125 C 2.113281 -1.859375 2.015625 -1.5625 1.953125 -1.3125 C 1.890625 -1.0625 1.859375 -0.816406 1.859375 -0.578125 C 1.859375 -0.078125 2.023438 0.3125 2.359375 0.59375 C 2.703125 0.875 3.207031 1.015625 3.875 1.015625 C 4.46875 1.015625 4.929688 0.925781 5.265625 0.75 C 5.597656 0.582031 5.832031 0.351562 5.96875 0.0625 C 6.101562 -0.21875 6.171875 -0.535156 6.171875 -0.890625 C 6.171875 -1.191406 6.113281 -1.554688 6 -1.984375 C 5.894531 -2.421875 5.757812 -2.898438 5.59375 -3.421875 L 7.15625 -3.828125 C 7.257812 -3.390625 7.34375 -3.050781 7.40625 -2.8125 C 7.46875 -2.582031 7.515625 -2.40625 7.546875 -2.28125 C 7.660156 -1.945312 7.835938 -1.734375 8.078125 -1.640625 C 8.316406 -1.546875 8.65625 -1.5 9.09375 -1.5 C 9.363281 -1.5 9.5625 -1.425781 9.6875 -1.28125 C 9.8125 -1.144531 9.875 -0.96875 9.875 -0.75 C 9.875 -0.519531 9.796875 -0.328125 9.640625 -0.171875 C 9.484375 -0.015625 9.265625 0.0625 8.984375 0.0625 C 8.734375 0.0625 8.488281 0.03125 8.25 -0.03125 C 8.019531 -0.101562 7.816406 -0.210938 7.640625 -0.359375 C 7.546875 0.566406 7.160156 1.285156 6.484375 1.796875 C 5.816406 2.316406 4.929688 2.578125 3.828125 2.578125 C 3.160156 2.578125 2.5625 2.476562 2.03125 2.28125 C 1.5 2.082031 1.078125 1.769531 0.765625 1.34375 C 0.453125 0.925781 0.296875 0.375 0.296875 -0.3125 Z M 3.921875 -4.546875 C 3.691406 -4.546875 3.5 -4.625 3.34375 -4.78125 C 3.1875 -4.9375 3.109375 -5.132812 3.109375 -5.375 C 3.109375 -5.601562 3.1875 -5.796875 3.34375 -5.953125 C 3.5 -6.117188 3.691406 -6.203125 3.921875 -6.203125 C 4.148438 -6.203125 4.34375 -6.117188 4.5 -5.953125 C 4.664062 -5.796875 4.75 -5.601562 4.75 -5.375 C 4.75 -5.132812 4.664062 -4.9375 4.5 -4.78125 C 4.34375 -4.625 4.148438 -4.546875 3.921875 -4.546875 Z M 3.921875 -4.546875 "/></g></g></g><g fill="#000000" fill-opacity="1"><g transform="translate(193.720247, 242.246278)"><g><path d="M 0 0.0625 L 0.109375 -1.5 C 0.554688 -1.5 0.898438 -1.519531 1.140625 -1.5625 C 1.378906 -1.613281 1.546875 -1.703125 1.640625 -1.828125 C 1.734375 -1.953125 1.78125 -2.128906 1.78125 -2.359375 C 1.78125 -2.566406 1.75 -2.8125 1.6875 -3.09375 C 1.632812 -3.382812 1.5625 -3.6875 1.46875 -4 C 1.382812 -4.3125 1.296875 -4.597656 1.203125 -4.859375 L 2.75 -5.28125 C 2.832031 -5.03125 2.921875 -4.738281 3.015625 -4.40625 C 3.109375 -4.070312 3.179688 -3.722656 3.234375 -3.359375 C 3.296875 -3.003906 3.328125 -2.671875 3.328125 -2.359375 C 3.328125 -1.847656 3.242188 -1.429688 3.078125 -1.109375 C 2.921875 -0.796875 2.695312 -0.554688 2.40625 -0.390625 C 2.113281 -0.222656 1.757812 -0.101562 1.34375 -0.03125 C 0.9375 0.03125 0.488281 0.0625 0 0.0625 Z M 2.75 2.65625 C 2.53125 2.65625 2.34375 2.578125 2.1875 2.421875 C 2.039062 2.273438 1.96875 2.09375 1.96875 1.875 C 1.96875 1.664062 2.039062 1.484375 2.1875 1.328125 C 2.34375 1.171875 2.53125 1.09375 2.75 1.09375 C 2.957031 1.09375 3.132812 1.171875 3.28125 1.328125 C 3.425781 1.484375 3.5 1.664062 3.5 1.875 C 3.5 2.09375 3.425781 2.273438 3.28125 2.421875 C 3.132812 2.578125 2.957031 2.65625 2.75 2.65625 Z M 0.8125 2.65625 C 0.601562 2.65625 0.421875 2.578125 0.265625 2.421875 C 0.109375 2.273438 0.03125 2.09375 0.03125 1.875 C 0.03125 1.664062 0.109375 1.484375 0.265625 1.328125 C 0.421875 1.171875 0.601562 1.09375 0.8125 1.09375 C 1.019531 1.09375 1.195312 1.171875 1.34375 1.328125 C 1.5 1.484375 1.578125 1.664062 1.578125 1.875 C 1.578125 2.09375 1.5 2.273438 1.34375 2.421875 C 1.195312 2.578125 1.019531 2.65625 0.8125 2.65625 Z M 0.8125 2.65625 "/></g></g></g><g fill="#000000" fill-opacity="1"><g transform="translate(197.721147, 242.246278)"><g><path d="M 2.4375 -1.5 C 2.925781 -1.5 3.253906 -1.5625 3.421875 -1.6875 C 3.585938 -1.820312 3.671875 -1.972656 3.671875 -2.140625 C 3.671875 -2.316406 3.617188 -2.523438 3.515625 -2.765625 C 3.421875 -3.003906 3.296875 -3.253906 3.140625 -3.515625 C 2.992188 -3.773438 2.835938 -4.023438 2.671875 -4.265625 C 2.515625 -4.503906 2.375 -4.710938 2.25 -4.890625 L 3.578125 -5.765625 C 4.066406 -5.117188 4.445312 -4.492188 4.71875 -3.890625 C 5 -3.285156 5.1875 -2.789062 5.28125 -2.40625 C 5.363281 -2.050781 5.519531 -1.8125 5.75 -1.6875 C 5.976562 -1.5625 6.21875 -1.5 6.46875 -1.5 C 6.75 -1.5 6.953125 -1.425781 7.078125 -1.28125 C 7.203125 -1.144531 7.265625 -0.96875 7.265625 -0.75 C 7.265625 -0.519531 7.1875 -0.328125 7.03125 -0.171875 C 6.882812 -0.015625 6.660156 0.0625 6.359375 0.0625 C 5.660156 0.0625 5.140625 -0.15625 4.796875 -0.59375 C 4.597656 -0.394531 4.316406 -0.234375 3.953125 -0.109375 C 3.585938 0.00390625 3.15625 0.0625 2.65625 0.0625 C 2.3125 0.0625 1.925781 0.0234375 1.5 -0.046875 C 1.082031 -0.128906 0.710938 -0.265625 0.390625 -0.453125 L 0.9375 -1.859375 C 1.207031 -1.734375 1.472656 -1.640625 1.734375 -1.578125 C 1.992188 -1.523438 2.226562 -1.5 2.4375 -1.5 Z M 2.4375 -1.5 "/></g></g></g><g fill="#000000" fill-opacity="1"><g transform="translate(204.084703, 242.246278)"><g><path d="M 0 0.0625 L 0.109375 -1.5 C 0.453125 -1.5 0.695312 -1.535156 0.84375 -1.609375 C 1 -1.679688 1.085938 -1.816406 1.109375 -2.015625 C 1.140625 -2.210938 1.148438 -2.5 1.140625 -2.875 L 0.9375 -8.171875 L 2.515625 -8.171875 L 2.734375 -2.765625 C 2.742188 -2.335938 2.722656 -1.945312 2.671875 -1.59375 C 2.628906 -1.25 2.515625 -0.953125 2.328125 -0.703125 C 2.148438 -0.460938 1.875 -0.273438 1.5 -0.140625 C 1.125 -0.00390625 0.625 0.0625 0 0.0625 Z M 0 0.0625 "/></g></g></g><g fill="#000000" fill-opacity="1"><g transform="translate(207.394643, 242.246278)"><g><path d="M 0.890625 0 L 0.65625 -8.171875 L 2.21875 -8.171875 L 2.453125 0 Z M 0.890625 0 "/></g></g></g><g fill="#000000" fill-opacity="1"><g transform="translate(210.437112, 242.246278)"><g><path d="M 2.4375 -1.5 C 2.925781 -1.5 3.253906 -1.5625 3.421875 -1.6875 C 3.585938 -1.820312 3.671875 -1.972656 3.671875 -2.140625 C 3.671875 -2.316406 3.617188 -2.523438 3.515625 -2.765625 C 3.421875 -3.003906 3.296875 -3.253906 3.140625 -3.515625 C 2.992188 -3.773438 2.835938 -4.023438 2.671875 -4.265625 C 2.515625 -4.503906 2.375 -4.710938 2.25 -4.890625 L 3.578125 -5.765625 C 4.066406 -5.117188 4.445312 -4.492188 4.71875 -3.890625 C 5 -3.285156 5.1875 -2.789062 5.28125 -2.40625 C 5.363281 -2.050781 5.519531 -1.8125 5.75 -1.6875 C 5.976562 -1.5625 6.21875 -1.5 6.46875 -1.5 C 6.75 -1.5 6.953125 -1.425781 7.078125 -1.28125 C 7.203125 -1.144531 7.265625 -0.96875 7.265625 -0.75 C 7.265625 -0.519531 7.1875 -0.328125 7.03125 -0.171875 C 6.882812 -0.015625 6.660156 0.0625 6.359375 0.0625 C 5.660156 0.0625 5.140625 -0.15625 4.796875 -0.59375 C 4.597656 -0.394531 4.316406 -0.234375 3.953125 -0.109375 C 3.585938 0.00390625 3.15625 0.0625 2.65625 0.0625 C 2.3125 0.0625 1.925781 0.0234375 1.5 -0.046875 C 1.082031 -0.128906 0.710938 -0.265625 0.390625 -0.453125 L 0.9375 -1.859375 C 1.207031 -1.734375 1.472656 -1.640625 1.734375 -1.578125 C 1.992188 -1.523438 2.226562 -1.5 2.4375 -1.5 Z M 2.4375 -1.5 "/></g></g></g><g fill="#000000" fill-opacity="1"><g transform="translate(216.800667, 242.246278)"><g><path d="M 0 0.0625 L 0.109375 -1.5 C 0.378906 -1.5 0.609375 -1.523438 0.796875 -1.578125 C 0.992188 -1.628906 1.160156 -1.734375 1.296875 -1.890625 C 1.429688 -2.054688 1.546875 -2.296875 1.640625 -2.609375 C 1.734375 -2.921875 1.816406 -3.335938 1.890625 -3.859375 L 3.34375 -3.609375 C 3.3125 -3.441406 3.273438 -3.238281 3.234375 -3 C 3.203125 -2.757812 3.1875 -2.539062 3.1875 -2.34375 C 3.1875 -2.070312 3.296875 -1.863281 3.515625 -1.71875 C 3.742188 -1.570312 4.128906 -1.5 4.671875 -1.5 C 4.953125 -1.5 5.148438 -1.425781 5.265625 -1.28125 C 5.390625 -1.144531 5.453125 -0.96875 5.453125 -0.75 C 5.453125 -0.519531 5.375 -0.328125 5.21875 -0.171875 C 5.070312 -0.015625 4.851562 0.0625 4.5625 0.0625 C 4.039062 0.0625 3.59375 -0.00390625 3.21875 -0.140625 C 2.851562 -0.273438 2.585938 -0.515625 2.421875 -0.859375 C 2.222656 -0.585938 1.988281 -0.382812 1.71875 -0.25 C 1.445312 -0.125 1.160156 -0.0390625 0.859375 0 C 0.566406 0.0390625 0.28125 0.0625 0 0.0625 Z M 3.109375 2.65625 C 2.890625 2.65625 2.703125 2.578125 2.546875 2.421875 C 2.398438 2.273438 2.328125 2.09375 2.328125 1.875 C 2.328125 1.664062 2.398438 1.484375 2.546875 1.328125 C 2.703125 1.171875 2.890625 1.09375 3.109375 1.09375 C 3.316406 1.09375 3.492188 1.171875 3.640625 1.328125 C 3.785156 1.484375 3.859375 1.664062 3.859375 1.875 C 3.859375 2.09375 3.785156 2.273438 3.640625 2.421875 C 3.492188 2.578125 3.316406 2.65625 3.109375 2.65625 Z M 1.171875 2.65625 C 0.960938 2.65625 0.78125 2.578125 0.625 2.421875 C 0.46875 2.273438 0.390625 2.09375 0.390625 1.875 C 0.390625 1.664062 0.46875 1.484375 0.625 1.328125 C 0.78125 1.171875 0.960938 1.09375 1.171875 1.09375 C 1.378906 1.09375 1.554688 1.171875 1.703125 1.328125 C 1.859375 1.484375 1.9375 1.664062 1.9375 1.875 C 1.9375 2.09375 1.859375 2.273438 1.703125 2.421875 C 1.554688 2.578125 1.378906 2.65625 1.171875 2.65625 Z M 1.171875 2.65625 "/></g></g></g><g fill="#000000" fill-opacity="1"><g transform="translate(221.358803, 242.246278)"><g><path d="M 0 0.0625 L 0.109375 -1.5 C 0.910156 -1.5 1.691406 -1.585938 2.453125 -1.765625 C 3.210938 -1.953125 3.882812 -2.242188 4.46875 -2.640625 C 4.125 -2.835938 3.742188 -2.988281 3.328125 -3.09375 C 2.921875 -3.207031 2.472656 -3.265625 1.984375 -3.265625 C 1.796875 -3.265625 1.601562 -3.253906 1.40625 -3.234375 C 1.207031 -3.222656 1.007812 -3.191406 0.8125 -3.140625 L 0.59375 -4.671875 C 0.8125 -4.722656 1.035156 -4.765625 1.265625 -4.796875 C 1.503906 -4.828125 1.722656 -4.84375 1.921875 -4.84375 C 2.421875 -4.84375 2.867188 -4.773438 3.265625 -4.640625 C 3.671875 -4.503906 4.039062 -4.347656 4.375 -4.171875 C 4.707031 -3.992188 5.015625 -3.835938 5.296875 -3.703125 C 5.585938 -3.566406 5.867188 -3.5 6.140625 -3.5 L 6.5625 -3.5 L 6.734375 -2.015625 C 6.410156 -1.992188 6.109375 -1.929688 5.828125 -1.828125 C 5.554688 -1.722656 5.285156 -1.585938 5.015625 -1.421875 C 4.742188 -1.265625 4.453125 -1.101562 4.140625 -0.9375 C 3.835938 -0.769531 3.488281 -0.609375 3.09375 -0.453125 C 2.707031 -0.304688 2.257812 -0.179688 1.75 -0.078125 C 1.25 0.015625 0.664062 0.0625 0 0.0625 Z M 0 0.0625 "/></g></g></g><g fill="#000000" fill-opacity="1"><g transform="translate(228.368743, 242.246278)"><g><path d="M 0.640625 2.5625 L 0.3125 1 C 1.03125 0.914062 1.628906 0.800781 2.109375 0.65625 C 2.585938 0.507812 2.941406 0.265625 3.171875 -0.078125 C 3.066406 -0.0351562 2.953125 -0.00390625 2.828125 0.015625 C 2.703125 0.0351562 2.570312 0.046875 2.4375 0.046875 C 2.070312 0.046875 1.742188 -0.0078125 1.453125 -0.125 C 1.171875 -0.238281 0.945312 -0.414062 0.78125 -0.65625 C 0.613281 -0.90625 0.53125 -1.226562 0.53125 -1.625 C 0.53125 -1.988281 0.585938 -2.34375 0.703125 -2.6875 C 0.816406 -3.03125 0.976562 -3.335938 1.1875 -3.609375 C 1.40625 -3.878906 1.65625 -4.09375 1.9375 -4.25 C 2.21875 -4.414062 2.515625 -4.5 2.828125 -4.5 C 3.191406 -4.5 3.515625 -4.40625 3.796875 -4.21875 C 4.078125 -4.03125 4.3125 -3.785156 4.5 -3.484375 C 4.6875 -3.179688 4.828125 -2.851562 4.921875 -2.5 C 5.015625 -2.15625 5.0625 -1.820312 5.0625 -1.5 C 5.0625 -0.664062 4.882812 0.0390625 4.53125 0.625 C 4.175781 1.21875 3.664062 1.675781 3 2 C 2.34375 2.320312 1.554688 2.507812 0.640625 2.5625 Z M 2.0625 -1.9375 C 2.0625 -1.625 2.296875 -1.46875 2.765625 -1.46875 C 3.015625 -1.46875 3.253906 -1.503906 3.484375 -1.578125 C 3.472656 -1.773438 3.4375 -1.972656 3.375 -2.171875 C 3.320312 -2.367188 3.242188 -2.53125 3.140625 -2.65625 C 3.035156 -2.78125 2.90625 -2.84375 2.75 -2.84375 C 2.539062 -2.84375 2.375 -2.742188 2.25 -2.546875 C 2.125 -2.347656 2.0625 -2.144531 2.0625 -1.9375 Z M 2.0625 -1.9375 "/></g></g></g><g fill="#000000" fill-opacity="1"><g transform="translate(233.918735, 242.246278)"><g/></g></g><g fill="#000000" fill-opacity="1"><g transform="translate(236.281392, 242.246278)"><g><path d="M 3.53125 0.0625 C 2.84375 0.0625 2.3125 -0.0078125 1.9375 -0.15625 C 1.5625 -0.300781 1.296875 -0.519531 1.140625 -0.8125 C 0.992188 -1.113281 0.910156 -1.5 0.890625 -1.96875 L 0.65625 -8.171875 L 2.21875 -8.171875 L 2.453125 -2.71875 C 2.472656 -2.375 2.507812 -2.113281 2.5625 -1.9375 C 2.625 -1.769531 2.734375 -1.65625 2.890625 -1.59375 C 3.054688 -1.53125 3.304688 -1.5 3.640625 -1.5 C 3.921875 -1.5 4.125 -1.425781 4.25 -1.28125 C 4.375 -1.144531 4.4375 -0.96875 4.4375 -0.75 C 4.4375 -0.519531 4.359375 -0.328125 4.203125 -0.171875 C 4.046875 -0.015625 3.820312 0.0625 3.53125 0.0625 Z M 3.53125 0.0625 "/></g></g></g><g fill="#000000" fill-opacity="1"><g transform="translate(239.825364, 242.246278)"><g><path d="M 0 0.0625 L 0.109375 -1.5 C 0.597656 -1.5 0.9375 -1.550781 1.125 -1.65625 C 1.320312 -1.769531 1.421875 -2.003906 1.421875 -2.359375 C 1.421875 -2.566406 1.390625 -2.8125 1.328125 -3.09375 C 1.273438 -3.382812 1.203125 -3.6875 1.109375 -4 C 1.023438 -4.3125 0.9375 -4.597656 0.84375 -4.859375 L 2.390625 -5.28125 C 2.472656 -5.03125 2.5625 -4.738281 2.65625 -4.40625 C 2.75 -4.070312 2.828125 -3.722656 2.890625 -3.359375 C 2.953125 -3.003906 2.984375 -2.671875 2.984375 -2.359375 C 2.984375 -1.847656 2.90625 -1.429688 2.75 -1.109375 C 2.59375 -0.796875 2.375 -0.554688 2.09375 -0.390625 C 1.8125 -0.222656 1.492188 -0.101562 1.140625 -0.03125 C 0.785156 0.03125 0.40625 0.0625 0 0.0625 Z M 1.59375 -6.203125 C 1.363281 -6.203125 1.171875 -6.28125 1.015625 -6.4375 C 0.859375 -6.59375 0.78125 -6.789062 0.78125 -7.03125 C 0.78125 -7.257812 0.859375 -7.453125 1.015625 -7.609375 C 1.171875 -7.773438 1.363281 -7.859375 1.59375 -7.859375 C 1.820312 -7.859375 2.015625 -7.773438 2.171875 -7.609375 C 2.335938 -7.453125 2.421875 -7.257812 2.421875 -7.03125 C 2.421875 -6.789062 2.335938 -6.59375 2.171875 -6.4375 C 2.015625 -6.28125 1.820312 -6.203125 1.59375 -6.203125 Z M 1.59375 -6.203125 "/></g></g></g><g fill="#000000" fill-opacity="1"><g transform="translate(243.358201, 242.246278)"><g><path d="M 4.390625 -5.984375 C 4.390625 -6.347656 4.363281 -6.710938 4.3125 -7.078125 C 4.257812 -7.441406 4.207031 -7.742188 4.15625 -7.984375 L 5.71875 -8.21875 C 5.738281 -8.0625 5.765625 -7.859375 5.796875 -7.609375 C 5.835938 -7.367188 5.867188 -7.113281 5.890625 -6.84375 C 5.910156 -6.570312 5.921875 -6.3125 5.921875 -6.0625 C 5.921875 -5.175781 5.738281 -4.394531 5.375 -3.71875 C 5.8125 -3.269531 6.097656 -2.875 6.234375 -2.53125 C 6.378906 -2.1875 6.453125 -1.890625 6.453125 -1.640625 C 6.453125 -1.347656 6.390625 -1.078125 6.265625 -0.828125 C 6.148438 -0.578125 5.953125 -0.375 5.671875 -0.21875 C 5.398438 -0.0703125 5.035156 0 4.578125 0 L 1.296875 0 L 1.296875 -1.5 C 2.273438 -2.207031 3.007812 -2.875 3.5 -3.5 C 3.101562 -3.832031 2.644531 -4.179688 2.125 -4.546875 C 1.601562 -4.921875 1.046875 -5.296875 0.453125 -5.671875 L 1.265625 -6.859375 C 1.890625 -6.472656 2.441406 -6.109375 2.921875 -5.765625 C 3.410156 -5.421875 3.835938 -5.097656 4.203125 -4.796875 C 4.328125 -5.171875 4.390625 -5.566406 4.390625 -5.984375 Z M 3.296875 -1.5 L 4.03125 -1.5 C 4.40625 -1.5 4.648438 -1.53125 4.765625 -1.59375 C 4.890625 -1.664062 4.953125 -1.757812 4.953125 -1.875 C 4.953125 -2.019531 4.8125 -2.25 4.53125 -2.5625 C 4.195312 -2.195312 3.785156 -1.84375 3.296875 -1.5 Z M 3.296875 -1.5 "/></g></g></g><g fill="#000000" fill-opacity="1"><g transform="translate(250.401569, 242.246278)"><g><path d="M 0.640625 2.5625 L 0.3125 1 C 0.976562 0.914062 1.539062 0.804688 2 0.671875 C 2.457031 0.546875 2.8125 0.34375 3.0625 0.0625 L 2.765625 0.0625 C 2.066406 0.0625 1.519531 -0.0664062 1.125 -0.328125 C 0.726562 -0.585938 0.53125 -1.03125 0.53125 -1.65625 C 0.53125 -1.988281 0.585938 -2.320312 0.703125 -2.65625 C 0.816406 -2.988281 0.976562 -3.296875 1.1875 -3.578125 C 1.394531 -3.859375 1.632812 -4.082031 1.90625 -4.25 C 2.1875 -4.414062 2.492188 -4.5 2.828125 -4.5 C 3.265625 -4.5 3.648438 -4.359375 3.984375 -4.078125 C 4.328125 -3.804688 4.59375 -3.441406 4.78125 -2.984375 C 4.96875 -2.535156 5.0625 -2.039062 5.0625 -1.5 L 5.953125 -1.5 C 6.222656 -1.5 6.421875 -1.425781 6.546875 -1.28125 C 6.671875 -1.144531 6.734375 -0.96875 6.734375 -0.75 C 6.734375 -0.519531 6.65625 -0.328125 6.5 -0.171875 C 6.34375 -0.015625 6.117188 0.0625 5.828125 0.0625 L 4.8125 0.0625 C 4.519531 0.832031 4.015625 1.425781 3.296875 1.84375 C 2.578125 2.269531 1.691406 2.507812 0.640625 2.5625 Z M 2.0625 -1.921875 C 2.0625 -1.835938 2.085938 -1.753906 2.140625 -1.671875 C 2.203125 -1.585938 2.332031 -1.519531 2.53125 -1.46875 C 2.726562 -1.414062 3.046875 -1.410156 3.484375 -1.453125 C 3.484375 -1.878906 3.414062 -2.21875 3.28125 -2.46875 C 3.144531 -2.71875 2.96875 -2.84375 2.75 -2.84375 C 2.59375 -2.84375 2.460938 -2.785156 2.359375 -2.671875 C 2.253906 -2.566406 2.175781 -2.441406 2.125 -2.296875 C 2.082031 -2.160156 2.0625 -2.035156 2.0625 -1.921875 Z M 2.0625 -1.921875 "/></g></g></g><g fill="#000000" fill-opacity="1"><g transform="translate(256.241329, 242.246278)"><g><path d="M 0 0.0625 L 0.109375 -1.5 C 0.273438 -1.5 0.421875 -1.539062 0.546875 -1.625 C 0.671875 -1.71875 0.800781 -1.863281 0.9375 -2.0625 C 1.070312 -2.257812 1.226562 -2.539062 1.40625 -2.90625 C 1.738281 -3.570312 2.09375 -4.03125 2.46875 -4.28125 C 2.84375 -4.53125 3.226562 -4.65625 3.625 -4.65625 C 4.0625 -4.65625 4.453125 -4.53125 4.796875 -4.28125 C 5.148438 -4.039062 5.425781 -3.722656 5.625 -3.328125 C 5.832031 -2.941406 5.9375 -2.53125 5.9375 -2.09375 C 5.9375 -1.695312 5.851562 -1.335938 5.6875 -1.015625 C 5.519531 -0.703125 5.285156 -0.453125 4.984375 -0.265625 C 4.691406 -0.0859375 4.359375 0 3.984375 0 C 3.703125 0 3.378906 -0.0390625 3.015625 -0.125 C 2.648438 -0.207031 2.265625 -0.378906 1.859375 -0.640625 C 1.628906 -0.378906 1.375 -0.195312 1.09375 -0.09375 C 0.8125 0.0078125 0.445312 0.0625 0 0.0625 Z M 3.578125 -3.09375 C 3.359375 -3.09375 3.1875 -2.984375 3.0625 -2.765625 C 2.9375 -2.546875 2.789062 -2.257812 2.625 -1.90625 C 2.851562 -1.789062 3.066406 -1.703125 3.265625 -1.640625 C 3.460938 -1.585938 3.628906 -1.5625 3.765625 -1.5625 C 3.992188 -1.5625 4.160156 -1.59375 4.265625 -1.65625 C 4.367188 -1.726562 4.421875 -1.847656 4.421875 -2.015625 C 4.421875 -2.171875 4.378906 -2.332031 4.296875 -2.5 C 4.222656 -2.664062 4.125 -2.804688 4 -2.921875 C 3.875 -3.035156 3.734375 -3.09375 3.578125 -3.09375 Z M 3.578125 -3.09375 "/></g></g></g><g fill="#000000" fill-opacity="1"><g transform="translate(262.727478, 242.246278)"><g/></g></g><g fill="#000000" fill-opacity="1"><g transform="translate(265.090128, 242.246278)"><g><path d="M 0.390625 -0.453125 L 0.9375 -1.859375 C 1.46875 -1.617188 1.984375 -1.5 2.484375 -1.5 C 3.273438 -1.5 3.671875 -1.710938 3.671875 -2.140625 C 3.671875 -2.265625 3.628906 -2.4375 3.546875 -2.65625 C 3.472656 -2.882812 3.332031 -3.175781 3.125 -3.53125 C 2.925781 -3.894531 2.632812 -4.347656 2.25 -4.890625 L 3.578125 -5.765625 C 4.109375 -5.003906 4.53125 -4.28125 4.84375 -3.59375 C 5.164062 -2.90625 5.328125 -2.328125 5.328125 -1.859375 C 5.328125 -1.285156 5.097656 -0.820312 4.640625 -0.46875 C 4.179688 -0.113281 3.519531 0.0625 2.65625 0.0625 C 2.4375 0.0625 2.191406 0.0390625 1.921875 0 C 1.648438 -0.03125 1.378906 -0.0820312 1.109375 -0.15625 C 0.847656 -0.226562 0.609375 -0.328125 0.390625 -0.453125 Z M 0.390625 -0.453125 "/></g></g></g></svg>