<svg xmlns="http://www.w3.org/2000/svg" viewBox="0 0 64 64">
  <defs><linearGradient id="g" x1="0" x2="1"><stop offset="0" stop-color="#7c3aed"/><stop offset="1" stop-color="#10b981"/></linearGradient></defs>
  <rect width="64" height="64" rx="12" fill="#fff"/>
  <path d="M50 14c-7 0-13 6-18 14-5-8-11-14-18-14-2 0-4 .6-4 2 0 10 13 15 22 18-9 3-22 8-22 18 0 1.4 2 2 4 2 7 0 13-6 18-14 5 8 11 14 18 14 2 0 4-.6 4-2 0-10-13-15-22-18 9-3 22-8 22-18 0-1.4-2-2-4-2z" fill="url(#g)"/>
  <circle cx="32" cy="32" r="4" fill="#111827" opacity=".8"/>
</svg>